<svg width="97" height="177" viewBox="0 0 97 177" fill="none" xmlns="http://www.w3.org/2000/svg">
<path opacity="0.4" d="M42.9121 -81.0388L7.13908 -27.4751M42.9121 -81.0388L89.4773 -22.1084M42.9121 -81.0388L75.2596 43.6487M7.13908 -27.4751L89.4773 -22.1084M7.13908 -27.4751L0.795678 61.4268M7.13908 -27.4751L75.2596 43.6487M89.4773 -22.1084L75.2596 43.6487M89.4773 -22.1084L0.795678 61.4268M89.4773 -22.1084L111.169 100.727M75.2596 43.6487L111.169 100.727M75.2596 43.6487L0.795678 61.4268M75.2596 43.6487L52.865 121.592M75.2596 43.6487L107.398 173.559M111.169 100.727L52.865 121.592M111.169 100.727L0.795678 61.4268M111.169 100.727L107.398 173.559M111.169 100.727L38.0418 176.247M52.865 121.592L38.0418 176.247M52.865 121.592L107.398 173.559M52.865 121.592L0.795678 61.4268M38.0418 176.247L107.398 173.559M38.0418 176.247L0.795678 61.4268" stroke="#D1D1D1"/>
</svg>
