<svg width="24" height="25" viewBox="0 0 24 25" fill="none" xmlns="http://www.w3.org/2000/svg">
<g clip-path="url(#clip0_1806_1200)">
<path fill-rule="evenodd" clip-rule="evenodd" d="M11.5334 0.55214C11.4302 0.59089 11.3369 0.622884 11.3262 0.623259C11.3155 0.623635 10.9144 1.0123 10.4349 1.48692C9.86844 2.04757 9.49943 2.37624 9.3814 2.42517C9.11691 2.5348 8.74531 2.51852 7.78755 2.35541C6.68557 2.16771 6.43698 2.16555 6.11474 2.34091C5.63506 2.60198 5.5562 2.78832 5.34256 4.16515C5.25179 4.75034 5.14168 5.30447 5.09796 5.39661C4.95089 5.70656 4.73453 5.85841 3.67825 6.39279C2.76819 6.85329 2.62351 6.942 2.48339 7.12547C2.29513 7.37204 2.19891 7.72384 2.24174 8.00921C2.25989 8.13034 2.49113 8.64455 2.80976 9.27238C3.53193 10.6953 3.53272 10.5364 2.79592 11.9819C2.25459 13.044 2.2447 13.069 2.24535 13.3762C2.24592 13.6339 2.27045 13.7334 2.38431 13.94C2.55887 14.2566 2.68844 14.3446 3.79633 14.899C4.28853 15.1453 4.75339 15.3991 4.82939 15.463C5.08834 15.6809 5.16795 15.9294 5.34359 17.0676C5.4339 17.6529 5.5395 18.2077 5.5783 18.3004C5.76778 18.754 6.16062 19.0137 6.65728 19.0137C6.81641 19.0137 7.04975 18.9942 7.17586 18.9704C7.30191 18.9466 7.76071 18.8718 8.19536 18.8042C9.34621 18.6251 9.26787 18.5928 10.4056 19.7164C11.2227 20.5233 11.3205 20.6049 11.5536 20.6739C11.8818 20.7711 11.9734 20.769 12.2675 20.6573C12.469 20.5807 12.6572 20.4194 13.3821 19.7022C14.3214 18.7729 14.4141 18.7113 14.8642 18.718C14.9932 18.7199 15.5094 18.7894 16.0114 18.8725C17.1145 19.0548 17.4011 19.0505 17.7314 18.8463C18.1621 18.58 18.2357 18.3763 18.4732 16.7924C18.601 15.9408 18.6968 15.6685 18.9411 15.463C19.0171 15.3991 19.5023 15.135 20.0193 14.8763C20.5363 14.6175 21.0252 14.3555 21.1059 14.2939C21.1866 14.2324 21.3137 14.0711 21.3885 13.9356C21.4994 13.7344 21.5245 13.6322 21.5251 13.3799C21.5257 13.0776 21.5136 13.0469 20.9745 11.9859C20.2376 10.5356 20.2383 10.6967 20.9632 9.26595C21.559 8.09018 21.607 7.9296 21.4858 7.5155C21.3548 7.06782 21.2341 6.97057 20.0903 6.3919C19.0351 5.85799 18.8195 5.70656 18.672 5.39562C18.628 5.30292 18.5263 4.78773 18.446 4.25081C18.3657 3.71385 18.2814 3.1973 18.2586 3.10296C18.1871 2.80694 17.939 2.49071 17.6618 2.34213C17.3322 2.16551 17.0863 2.16743 15.9829 2.35541C14.9601 2.5296 14.6319 2.53888 14.358 2.40124C14.2461 2.34504 13.8045 1.9506 13.3395 1.49152C12.888 1.04575 12.4476 0.645308 12.3608 0.601633C12.1382 0.489606 11.7603 0.466994 11.5334 0.55214ZM12.8938 3.30234C13.8389 3.43749 14.8407 3.8013 15.6376 4.29876C17.4837 5.45117 18.7099 7.34601 18.9949 9.48686C19.2885 11.6916 18.5663 13.86 17.0043 15.4635C14.8661 17.6585 11.6355 18.2584 8.8914 16.9701C8.32268 16.703 7.96018 16.4829 7.49889 16.1243C6.20922 15.1218 5.26267 13.6517 4.90407 12.0941C4.27704 9.37033 5.24451 6.55108 7.39555 4.83417C8.61616 3.85985 9.85948 3.37313 11.4865 3.23267C11.7529 3.20969 12.507 3.24698 12.8938 3.30234ZM11.0642 4.31354C7.80195 4.82076 5.48869 7.73252 5.78673 10.9564C5.92761 12.4808 6.55272 13.7813 7.65948 14.8528C8.36072 15.5316 9.06258 15.9595 9.97653 16.2653C11.2204 16.6815 12.55 16.6815 13.7939 16.2653C14.7147 15.9572 15.4041 15.5369 16.111 14.8527C18.0789 12.9478 18.5685 10.0853 17.3435 7.64587C16.6785 6.32181 15.4572 5.21712 14.0666 4.68203C13.3089 4.39047 12.9396 4.32245 12.0259 4.30622C11.5744 4.2982 11.1416 4.30148 11.0642 4.31354ZM2.79878 18.7457C1.86728 19.6801 1.08183 20.4906 1.05335 20.5469C0.917822 20.8149 1.05321 21.2412 1.31611 21.3741C1.38821 21.4106 1.93859 21.5316 2.53916 21.6431C3.51748 21.8247 3.63359 21.8559 3.65418 21.9426C3.6668 21.9959 3.75959 22.4859 3.86027 23.0316C4.05092 24.0643 4.11664 24.2635 4.30805 24.3889C4.47993 24.5016 4.76268 24.5252 4.92279 24.4403C4.99794 24.4004 6.05732 23.3685 7.27695 22.147L9.49446 19.9263L9.28284 19.7186C9.02608 19.4666 9.07098 19.4681 7.8308 19.6688C6.6342 19.8625 6.27485 19.856 5.82088 19.6324C5.11058 19.2826 4.82019 18.8195 4.64328 17.7545C4.58234 17.3874 4.52342 17.0781 4.5124 17.0671C4.50137 17.056 3.73023 17.8114 2.79878 18.7457ZM19.2338 17.0926C19.2223 17.13 19.1878 17.3506 19.1571 17.5828C19.004 18.7405 18.6948 19.2654 17.9495 19.6324C17.4956 19.856 17.1362 19.8625 15.9396 19.6688C14.6994 19.4681 14.7443 19.4666 14.4876 19.7186L14.276 19.9263L16.4935 22.147C17.7131 23.3685 18.768 24.3981 18.8376 24.4351C19.099 24.574 19.4377 24.4851 19.6194 24.2299C19.6866 24.1356 19.7698 23.7959 19.9042 23.0681C20.0085 22.5024 20.104 21.9964 20.1163 21.9436C20.1363 21.8581 20.2567 21.8258 21.231 21.6447C21.8317 21.533 22.3822 21.4115 22.4543 21.3747C22.73 21.2341 22.8533 20.8098 22.7016 20.5242C22.5896 20.3134 19.2574 17.0159 19.2338 17.0926Z" fill="url(#paint0_linear_1806_1200)"/>
<circle cx="12" cy="10.5005" r="8" fill="white"/>
<path d="M14.7155 12.3777C14.7193 12.4107 14.714 12.4447 14.6998 12.4798C14.6852 12.5118 14.6659 12.5429 14.642 12.5729C14.6177 12.6 14.5901 12.6244 14.5591 12.6461C14.5278 12.6649 14.4971 12.676 14.4671 12.6794C14.4461 12.6818 14.4249 12.6827 14.4036 12.6821C14.3822 12.6815 14.361 12.6824 14.34 12.6848C14.313 12.6878 14.296 12.6989 14.2891 12.7179C14.2818 12.7339 14.2746 12.7514 14.2677 12.7705C14.2637 12.7891 14.2551 12.8068 14.2418 12.8235C14.2288 12.8432 14.2029 12.8553 14.1638 12.8597C14.1398 12.8625 14.114 12.8624 14.0863 12.8595C14.0586 12.8565 14.0312 12.8566 14.0042 12.8597C13.9471 12.8662 13.8928 12.883 13.8412 12.9101C13.7929 12.9399 13.7387 12.9583 13.6787 12.9651C13.6276 12.9709 13.5501 12.9706 13.4459 12.9642C13.3422 12.9609 13.2357 12.9472 13.1265 12.9231C13.0207 12.9018 12.926 12.8715 12.8425 12.8324C12.7586 12.7903 12.7129 12.7363 12.7054 12.6703C12.6996 12.6193 12.7223 12.5651 12.7735 12.5076C12.8274 12.4468 12.8868 12.3808 12.9516 12.3096C13.0162 12.2354 13.0723 12.1546 13.1201 12.0671C13.1709 11.9793 13.1902 11.8814 13.1779 11.7735C13.1707 11.7105 13.1502 11.6506 13.1163 11.5937C13.0855 11.5364 13.0476 11.4845 13.0028 11.438C12.9576 11.3884 12.9069 11.3441 12.8508 11.3049C12.7976 11.2654 12.7463 11.2287 12.6968 11.1948C12.6811 11.1905 12.6582 11.1901 12.6282 11.1935C12.5472 11.2027 12.4672 11.221 12.3882 11.2482C12.3088 11.2724 12.2286 11.2891 12.1476 11.2983C12.1055 11.3031 12.0613 11.3021 12.0149 11.2952C11.9715 11.288 11.9396 11.2613 11.9191 11.215C11.8455 11.2629 11.7717 11.3092 11.6978 11.3541C11.6235 11.396 11.5474 11.435 11.4694 11.4712C11.4204 11.495 11.3844 11.5128 11.3614 11.5245C11.3414 11.5359 11.3261 11.5483 11.3155 11.5617C11.3079 11.5747 11.3024 11.5935 11.2991 11.6182C11.2989 11.6425 11.2923 11.6782 11.2794 11.7253C11.2708 11.7566 11.2679 11.7843 11.2706 11.8083C11.2734 11.8323 11.2765 11.8593 11.2799 11.8893C11.2843 11.9282 11.2804 11.9606 11.2681 11.9863C11.2555 12.009 11.2414 12.0319 11.2258 12.0549C11.2128 12.0746 11.2 12.0958 11.1874 12.1185C11.1748 12.1412 11.1704 12.1691 11.1741 12.2021C11.1772 12.229 11.1845 12.2525 11.1959 12.2725L11.1939 12.2955C11.199 12.3405 11.2152 12.3751 11.2423 12.3994C11.269 12.4206 11.2997 12.4369 11.3345 12.4481C11.3719 12.456 11.4108 12.4637 11.4512 12.4713C11.4915 12.4788 11.5278 12.4899 11.5599 12.5045C11.5919 12.5191 11.6239 12.5458 11.6557 12.5847C11.6901 12.6203 11.7206 12.6609 11.7471 12.7065C11.7762 12.7487 11.8011 12.793 11.8215 12.8393C11.8417 12.8825 11.8536 12.9207 11.8574 12.9537L11.86 12.9761L11.8014 12.9828C11.6813 12.9965 11.5619 13.0161 11.4432 13.0418C11.3272 13.0641 11.2113 13.0879 11.0956 13.1133C10.9802 13.1416 10.863 13.1671 10.744 13.1897C10.6283 13.2151 10.5104 13.2346 10.3903 13.2482C10.3483 13.253 10.2866 13.2585 10.2052 13.2647C10.1268 13.2706 10.0477 13.2705 9.96794 13.2644C9.88852 13.2613 9.81708 13.2482 9.75362 13.225C9.69283 13.1985 9.65901 13.1553 9.65217 13.0953C9.64498 13.0323 9.65251 12.9783 9.67474 12.9332C9.69997 12.8878 9.73356 12.8491 9.77551 12.8169C9.82012 12.7815 9.86992 12.7515 9.9249 12.727C9.98255 12.6992 10.0389 12.673 10.0938 12.6486C10.1518 12.6237 10.2053 12.5994 10.2543 12.5756C10.3063 12.5515 10.3486 12.5223 10.3812 12.4883C10.4138 12.4542 10.4383 12.4028 10.4548 12.334C10.471 12.2623 10.4821 12.1866 10.4882 12.107C10.4943 12.0273 10.4991 11.9493 10.5026 11.8729C10.5057 11.7936 10.5092 11.7309 10.5131 11.6849C10.5144 11.6695 10.5138 11.6514 10.5114 11.6304C10.5117 11.6061 10.5104 11.5819 10.5077 11.5579C10.508 11.5336 10.5069 11.5109 10.5045 11.4899C10.5051 11.4686 10.5079 11.4531 10.5129 11.4434C10.5371 11.389 10.5562 11.3564 10.5702 11.3457C10.5872 11.3347 10.5983 11.3258 10.6036 11.3191C10.612 11.3121 10.6148 11.2966 10.612 11.2726C10.6119 11.2453 10.6073 11.1911 10.5981 11.1101C10.5939 11.0742 10.5984 11.0463 10.6113 11.0266C10.6239 11.0039 10.6369 10.9842 10.6502 10.9675C10.6665 10.9505 10.6815 10.9351 10.6951 10.9214C10.7084 10.9047 10.7137 10.8843 10.711 10.8603C10.7062 10.8183 10.6899 10.7822 10.6621 10.752C10.634 10.7187 10.6175 10.6811 10.6128 10.6391C10.61 10.6151 10.6136 10.5934 10.6236 10.5741C10.6335 10.5547 10.6452 10.5367 10.6585 10.52C10.6748 10.5029 10.6881 10.4862 10.6984 10.4699C10.7083 10.4505 10.7119 10.4288 10.7092 10.4048C10.7054 10.3718 10.6942 10.3397 10.6754 10.3084C10.6596 10.2768 10.6499 10.2445 10.6461 10.2115C10.6434 10.1875 10.649 10.1702 10.663 10.1595C10.6796 10.1454 10.6966 10.1344 10.7139 10.1263C10.7343 10.1179 10.7518 10.1114 10.7664 10.1067C10.7838 10.0986 10.7919 10.0901 10.7909 10.0811C10.7798 10.0641 10.7623 10.057 10.7383 10.0598C10.7022 10.0639 10.6865 10.0854 10.6909 10.1244C10.6682 10.1118 10.6483 10.0973 10.6312 10.0811C10.6138 10.0618 10.6038 10.0401 10.601 10.0161C10.5976 9.98615 10.602 9.9583 10.6143 9.9326C10.6262 9.9039 10.6393 9.87203 10.6536 9.83699C10.6708 9.80161 10.6846 9.76207 10.6948 9.71838C10.705 9.67468 10.7067 9.62284 10.6998 9.56286C10.6927 9.49988 10.6768 9.44093 10.6523 9.38599C10.6275 9.32806 10.6116 9.26911 10.6048 9.20913C10.6014 9.17914 10.6039 9.14846 10.6125 9.11711C10.6241 9.08541 10.6374 9.05504 10.6523 9.02599C10.6699 8.99361 10.6862 8.9629 10.7011 8.93386C10.7187 8.90148 10.7301 8.86828 10.7354 8.83426C10.7469 8.77523 10.749 8.71423 10.7419 8.65124C10.7377 8.58792 10.732 8.52477 10.7248 8.46179C10.7206 8.39847 10.7181 8.33648 10.7173 8.27581C10.7191 8.21181 10.732 8.1511 10.7558 8.09371C10.7774 8.04265 10.7939 8.00127 10.8055 7.96957C10.8171 7.93787 10.8274 7.90784 10.8363 7.87948C10.8449 7.84812 10.8518 7.81544 10.857 7.78142C10.8619 7.74441 10.8657 7.6969 10.8682 7.63889C10.8733 7.55021 10.8862 7.46368 10.907 7.37928C10.9308 7.29455 10.9437 7.20802 10.9458 7.11968C10.9443 7.05301 10.9409 6.99719 10.9358 6.9522C10.9333 6.90388 10.9361 6.86104 10.944 6.82368C10.9549 6.78598 10.9753 6.75176 11.0052 6.72101C11.0382 6.68992 11.0891 6.65678 11.1581 6.62159C11.2331 6.58571 11.3091 6.55883 11.3861 6.54095C11.4628 6.52007 11.5402 6.50519 11.6182 6.49631C11.7083 6.48606 11.8018 6.47996 11.8989 6.47803C11.9137 6.52799 11.9386 6.57225 11.9734 6.61082C12.0078 6.64639 12.0438 6.68179 12.0813 6.71702C12.1217 6.75191 12.1594 6.78864 12.1942 6.82721C12.2316 6.86244 12.2593 6.90486 12.2771 6.95448C12.3 7.02175 12.3165 7.0867 12.3267 7.14934C12.3395 7.20864 12.3719 7.26571 12.4238 7.32057C12.4485 7.35117 12.4635 7.38896 12.4686 7.43395C12.4765 7.50292 12.475 7.56993 12.4642 7.63496C12.4533 7.69999 12.4517 7.76549 12.4592 7.83147C12.4637 7.87046 12.483 7.93357 12.5173 8.02081C12.5516 8.10805 12.5912 8.20227 12.6362 8.30348C12.6809 8.40169 12.7238 8.49857 12.7651 8.59412C12.8061 8.68668 12.8372 8.75909 12.8583 8.81137C12.8983 8.92226 12.9252 9.03768 12.9389 9.15764C12.9555 9.27726 12.9884 9.39201 13.0374 9.50187C13.0871 9.61773 13.1323 9.73411 13.173 9.85099C13.2134 9.96488 13.2452 10.0843 13.2686 10.2092C13.2879 10.3255 13.316 10.4378 13.3526 10.546C13.389 10.6512 13.4269 10.7578 13.4666 10.8657C13.506 10.9706 13.5424 11.0773 13.5761 11.1859C13.6128 11.2941 13.638 11.4082 13.6516 11.5282C13.6568 11.5732 13.6576 11.6202 13.654 11.6692C13.6535 11.7178 13.6388 11.762 13.6099 11.8018C13.6815 11.8696 13.7612 11.9425 13.8492 12.0206C13.9402 12.0984 14.0276 12.1583 14.1114 12.2004C14.1435 12.215 14.1916 12.2232 14.2557 12.225C14.3197 12.2268 14.3841 12.2316 14.4489 12.2395C14.5163 12.2439 14.5756 12.2569 14.6267 12.2785C14.6804 12.2966 14.71 12.3297 14.7155 12.3777ZM12.5523 10.1677C12.5492 10.1407 12.5348 10.1074 12.509 10.0678C12.4828 10.0252 12.4532 9.97849 12.42 9.92759C12.3898 9.87634 12.3607 9.82042 12.3325 9.75983C12.3043 9.69924 12.2862 9.63446 12.2784 9.56548C12.2691 9.4845 12.2481 9.4064 12.2152 9.33115C12.1819 9.25291 12.1562 9.17382 12.1379 9.09387C12.1244 9.02857 12.1087 8.95745 12.0908 8.8805C12.0755 8.80021 12.052 8.72694 12.0201 8.66069C11.9879 8.59145 11.9437 8.53724 11.8875 8.49806C11.834 8.45554 11.7607 8.43958 11.6677 8.45017C11.6644 8.47485 11.656 8.49404 11.6423 8.50774C11.6283 8.51845 11.6113 8.5295 11.5914 8.54089C11.574 8.54893 11.5552 8.55715 11.5349 8.56554C11.5145 8.57393 11.4992 8.58631 11.4889 8.60267C11.493 8.61133 11.496 8.62465 11.4981 8.64264C11.5042 8.69663 11.498 8.74898 11.4795 8.7997C11.4636 8.84707 11.4494 8.89578 11.4368 8.94582C11.4216 8.99919 11.4128 9.05488 11.4103 9.11289C11.4104 9.16756 11.4136 9.22188 11.4197 9.27586C11.4252 9.32385 11.432 9.37016 11.4401 9.41481C11.4483 9.45945 11.4549 9.50427 11.46 9.54925C11.4679 9.61823 11.4687 9.67889 11.4625 9.73125C11.456 9.7806 11.4476 9.82712 11.4374 9.87082C11.4272 9.91451 11.4183 9.95653 11.4107 9.99689C11.4028 10.0342 11.4013 10.0739 11.4061 10.1159C11.4163 10.2059 11.4282 10.2835 11.4417 10.3488C11.4553 10.4141 11.4751 10.468 11.5013 10.5106C11.5271 10.5502 11.5608 10.5798 11.6026 10.5994C11.644 10.6159 11.6992 10.6203 11.7683 10.6124C11.8163 10.6069 11.8847 10.5931 11.9734 10.5708C12.0651 10.5482 12.1544 10.5183 12.2414 10.4811C12.331 10.4405 12.4063 10.394 12.4672 10.3415C12.5311 10.2886 12.5595 10.2307 12.5523 10.1677Z" fill="url(#paint1_linear_1806_1200)"/>
<path fill-rule="evenodd" clip-rule="evenodd" d="M11.0001 3.5245C10.3474 3.59996 9.27865 3.96088 8.61411 4.33029C7.48105 4.96015 6.45933 5.97635 5.86551 7.06408C5.5641 7.6162 5.40584 8.02311 5.16101 8.8755C4.94868 9.6146 4.9459 11.2088 5.1554 12.0662C5.49863 13.4708 6.05517 14.4746 7.03493 15.4563C7.4473 15.8695 7.82234 16.1779 8.18973 16.406C8.52476 16.6139 8.95174 16.8539 9.0602 16.8952C9.13235 16.9227 9.25435 16.9743 9.33123 17.0099C9.59967 17.1343 10.2165 17.3155 10.6767 17.4053C11.28 17.523 12.7531 17.534 13.2643 17.4246C14.107 17.2443 14.4466 17.1312 15.105 16.8117C16.5107 16.1298 17.6252 15.0132 18.3184 13.5925C18.8396 12.5242 19.0002 11.7999 19 10.518C18.9998 9.63344 18.9342 9.07677 18.7694 8.56187C18.6123 8.07096 18.5675 7.94468 18.4857 7.76234C18.4371 7.65412 18.3973 7.5522 18.3973 7.53582C18.3973 7.46588 17.8943 6.63132 17.6595 6.31156C17.1415 5.60629 16.3593 4.89118 15.6615 4.48492C15.4957 4.38844 15.3288 4.29005 15.2905 4.26624C14.9961 4.08335 14.2453 3.80629 13.5877 3.63801C13.1988 3.53842 13.0057 3.51939 12.2301 3.50436C11.7327 3.4947 11.1792 3.50375 11.0001 3.5245ZM13.0884 3.80309C15.3158 4.1932 17.1495 5.56791 18.1058 7.5646C18.876 9.1727 18.9829 10.9095 18.4216 12.6927C18.3407 12.9497 17.8221 14.0256 17.7343 14.1187C17.7037 14.1512 17.598 14.3031 17.4995 14.4563C17.2583 14.8313 16.2775 15.79 15.8216 16.0964C14.6707 16.8701 13.364 17.271 11.9982 17.2695C10.9574 17.2684 10.0321 17.0564 9.07689 16.6001C7.09428 15.6532 5.70776 13.8063 5.32168 11.598C5.01081 9.81973 5.47178 7.95484 6.59974 6.42758C6.91965 5.99441 7.76433 5.18374 8.19562 4.89596C9.66222 3.91735 11.4549 3.51693 13.0884 3.80309ZM10.7462 3.92988C9.99187 4.0989 9.64836 4.21942 8.97784 4.55017C8.34605 4.86181 7.86839 5.21252 7.29757 5.78381C6.29272 6.78948 5.75028 7.8107 5.4396 9.28171C5.32785 9.81072 5.33861 11.218 5.45875 11.7939C5.65388 12.729 6.08925 13.7436 6.57289 14.3904C7.01346 14.9796 7.39035 15.3745 7.82489 15.7021C7.96516 15.8079 8.09036 15.9064 8.10311 15.9209C8.23448 16.0713 9.03984 16.5035 9.61015 16.7298C11.8528 17.6196 14.5368 17.1535 16.3682 15.5561C18.4379 13.7508 19.2072 10.8908 18.318 8.30713C18.2092 7.9909 17.7365 7.00769 17.6933 7.00769C17.6725 7.00769 17.6554 6.98458 17.6554 6.95632C17.6554 6.88541 17.062 6.10259 16.8146 5.8472C16.6451 5.67219 16.3758 5.43871 15.9326 5.08234C15.6369 4.84468 15.0077 4.50089 14.5022 4.30091C13.5786 3.93544 13.0917 3.85061 11.9561 3.85711C11.3476 3.86059 10.9481 3.88463 10.7462 3.92988ZM13.1807 4.11607C13.4102 4.15714 13.8067 4.26012 14.0617 4.34486C14.5286 4.50005 15.3734 4.90524 15.5455 5.05658C15.5966 5.10141 15.7635 5.22282 15.9165 5.3264C16.2395 5.54503 16.9421 6.2517 17.2541 6.67174C17.3728 6.83157 17.4699 6.97224 17.4699 6.9843C17.4699 6.99642 17.5352 7.11244 17.6149 7.24215C17.8214 7.57791 18.1374 8.3153 18.2548 8.73497C18.6615 10.1892 18.5407 11.8325 17.9321 13.1241C17.8565 13.2848 17.7945 13.4252 17.7945 13.436C17.7945 13.5029 17.3328 14.2179 17.0824 14.5388C16.1178 15.7751 14.551 16.683 12.972 16.9206C12.5305 16.9871 11.3952 17.0196 11.3121 16.9681C11.2933 16.9566 11.1219 16.9253 10.931 16.8988C10.364 16.8198 9.60639 16.566 9.041 16.2656C7.92533 15.6729 7.1259 14.9136 6.40025 13.7576C6.0994 13.2783 5.7641 12.3789 5.62708 11.6834C5.50934 11.0858 5.51787 9.82599 5.64368 9.2353C5.80801 8.46385 5.84158 8.36988 6.24417 7.55476C6.85617 6.31565 7.87529 5.3096 9.14797 4.68824C9.81608 4.36203 9.75747 4.38695 10.0744 4.29367C11.0686 4.00107 12.1821 3.93739 13.1807 4.11607ZM11.8768 4.18563C11.858 4.21603 11.8673 4.24912 11.8973 4.2591C11.932 4.2707 11.9518 4.39248 11.9518 4.59445C11.9518 4.79642 11.932 4.91819 11.8973 4.92979C11.777 4.96989 11.9232 5.05853 12.1097 5.05853C12.3644 5.05853 12.4691 4.94813 12.4944 4.65292C12.5087 4.48692 12.4899 4.39452 12.4188 4.28119C12.3351 4.14776 12.3003 4.13036 12.1176 4.13036C12.0039 4.13036 11.8956 4.15524 11.8768 4.18563ZM11.1466 4.31961C11.1304 4.40055 11.1172 4.58535 11.1172 4.73019C11.1172 4.87503 11.0921 5.01862 11.0615 5.04925C11.0183 5.09255 11.039 5.10494 11.1552 5.10494C11.2912 5.10494 11.3019 5.09468 11.2754 4.98892C11.2509 4.89128 11.2626 4.8729 11.349 4.8729C11.4355 4.8729 11.4472 4.89128 11.4227 4.98892C11.3999 5.08007 11.4112 5.1048 11.4757 5.10424C11.5208 5.10383 11.589 5.08294 11.6273 5.05784C11.689 5.01727 11.689 5.00711 11.6275 4.96752C11.5893 4.94302 11.5059 4.76026 11.442 4.56145C11.3128 4.15927 11.1975 4.06488 11.1466 4.31961ZM12.9004 4.33711C12.8052 4.43225 12.7865 4.49601 12.7865 4.72439C12.7865 5.02976 12.868 5.15135 13.0728 5.15135C13.1996 5.15135 13.294 5.06164 13.3804 4.85911C13.4624 4.66675 13.4478 4.48311 13.3396 4.34546C13.218 4.19069 13.0498 4.18749 12.9004 4.33711ZM12.3501 4.43202C12.4025 4.64099 12.291 4.91931 12.1549 4.91931C12.1071 4.91931 12.091 4.84292 12.091 4.61765C12.091 4.32746 12.0953 4.31599 12.206 4.31599C12.29 4.31599 12.3289 4.34727 12.3501 4.43202ZM10.1434 4.42106C9.97578 4.49685 9.97267 4.50293 10.0664 4.57157C10.1668 4.64499 10.2503 4.91796 10.2475 5.16295C10.2463 5.25869 10.2507 5.33698 10.2571 5.33698C10.3207 5.33698 10.6017 5.21562 10.6651 5.16077C10.7527 5.08498 10.7755 4.85006 10.6999 4.80328C10.6743 4.78751 10.6535 4.71469 10.6535 4.64141C10.6535 4.39308 10.4244 4.29409 10.1434 4.42106ZM13.2709 4.54117C13.3055 4.70522 13.2415 4.92367 13.1406 4.98535C13.0234 5.05709 12.8619 4.8567 12.9027 4.69019C12.9805 4.37294 13.2153 4.27789 13.2709 4.54117ZM10.499 4.66044C10.4614 4.75845 10.3002 4.75386 10.2618 4.65366C10.2162 4.53476 10.3711 4.43118 10.4606 4.5208C10.4972 4.55732 10.5144 4.6202 10.499 4.66044ZM11.3483 4.67566C11.3487 4.70759 11.3282 4.73367 11.3027 4.73367C11.2772 4.73367 11.2566 4.67622 11.257 4.60605C11.2575 4.50659 11.2677 4.49379 11.3027 4.54804C11.3274 4.58632 11.3479 4.64378 11.3483 4.67566ZM9.34672 4.71214C9.17413 4.80593 9.14872 4.92901 9.25388 5.1617C9.39225 5.46781 9.52422 5.58392 9.69505 5.54972C9.88526 5.51162 9.91921 5.44887 9.89639 5.17743C9.88025 4.98576 9.8497 4.92311 9.70952 4.79456C9.51986 4.62057 9.51657 4.61983 9.34672 4.71214ZM9.67321 4.92302C9.76901 5.02595 9.82438 5.22212 9.78589 5.32246C9.76034 5.38905 9.59689 5.40302 9.50762 5.34627C9.47674 5.32659 9.41739 5.2289 9.3757 5.12912C9.30447 4.95843 9.30489 4.94409 9.38279 4.8871C9.49839 4.80245 9.56911 4.81122 9.67321 4.92302ZM10.6535 4.98892C10.6535 5.05519 10.518 5.15135 10.4247 5.15135C10.355 5.15135 10.3628 4.8851 10.4332 4.85981C10.516 4.83011 10.6535 4.91063 10.6535 4.98892ZM14.8661 5.04693C14.8017 5.11715 14.7025 5.2424 14.6456 5.32538C14.5888 5.40836 14.5107 5.47621 14.472 5.47621C14.3782 5.47621 14.4135 5.56819 14.5395 5.65191C14.6336 5.71442 14.6413 5.7121 14.6413 5.6211C14.6413 5.55455 14.6705 5.52262 14.7313 5.52262C14.8549 5.52262 14.8924 5.60007 14.7952 5.65451C14.7278 5.69229 14.7249 5.71085 14.7767 5.77336C14.861 5.87495 14.9791 5.87003 14.9472 5.76626C14.9334 5.72162 14.9737 5.53886 15.0366 5.36019C15.0995 5.18151 15.1511 5.00925 15.1512 4.97732C15.1515 4.87503 14.987 4.91522 14.8661 5.04693ZM8.54224 5.17919C8.27167 5.31967 8.15964 5.47621 8.32968 5.47621C8.38337 5.47621 8.4457 5.53645 8.49114 5.63223C8.53181 5.71804 8.59811 5.81573 8.6385 5.84924C8.68529 5.88813 8.70208 5.94925 8.68483 6.01808C8.65362 6.14264 8.728 6.15897 8.86243 6.05706C8.94779 5.99241 8.93666 5.81402 8.8506 5.86725C8.78911 5.90526 8.69137 5.76677 8.72248 5.68565C8.76329 5.57914 8.87161 5.60147 8.95855 5.73429C9.01053 5.81365 9.07007 5.84836 9.13777 5.83871C9.271 5.81973 9.28152 5.63488 9.14876 5.64662C9.04503 5.65581 8.89141 5.49927 8.89141 5.38437C8.89141 5.34167 8.84379 5.26199 8.78559 5.20727C8.68636 5.11394 8.67124 5.11223 8.54224 5.17919ZM10.9549 5.30677C9.72088 5.59167 8.99602 5.99882 8.13599 6.89014C7.49241 7.55712 7.0831 8.34435 6.82018 9.42094C6.69985 9.91366 6.70129 11.018 6.82297 11.5325C6.94696 12.0572 7.05941 12.3868 7.24647 12.7741C7.74499 13.8063 8.49605 14.5887 9.5041 15.1261C10.2725 15.5358 10.7998 15.679 11.6736 15.7151C12.5276 15.7505 13.0548 15.6894 13.6444 15.4867C14.4462 15.2111 15.0593 14.8439 15.6319 14.2964C16.3216 13.6369 16.7482 12.9168 17.0939 11.8281C17.2629 11.2956 17.2788 9.79267 17.121 9.25577C16.8166 8.21998 16.558 7.72461 15.9063 6.92866C15.7408 6.72646 15.0609 6.1632 14.7693 5.98661C13.9409 5.48503 13.1221 5.24853 12.1141 5.21966C11.5072 5.20226 11.3595 5.21335 10.9549 5.30677ZM14.933 5.29057C14.9196 5.34162 14.8766 5.38339 14.8374 5.38339C14.7774 5.38339 14.7794 5.36863 14.85 5.29057C14.8961 5.23953 14.9392 5.19776 14.9456 5.19776C14.952 5.19776 14.9463 5.23953 14.933 5.29057ZM8.74302 5.34678C8.75067 5.38627 8.72229 5.45324 8.67991 5.49561C8.60813 5.56745 8.59876 5.56703 8.54201 5.48962C8.49095 5.41996 8.49309 5.39332 8.55536 5.32427C8.63962 5.2308 8.72243 5.24073 8.74302 5.34678ZM15.5764 5.34859C15.6042 5.48549 15.3406 5.82901 15.152 5.90187L15.0365 5.94642L15.152 6.03506C15.281 6.13424 15.3663 6.12895 15.3479 6.0229C15.3257 5.89551 15.4568 5.8317 15.6223 5.88943C15.7519 5.93463 15.7841 5.92841 15.8783 5.83982C16.027 5.69999 16.0136 5.60281 15.8221 5.43463C15.6503 5.28357 15.5566 5.25076 15.5764 5.34859ZM12.5315 5.49951C12.8997 5.52647 13.4163 5.63989 13.6907 5.75401C14.5181 6.09813 15.0467 6.44652 15.5743 6.99567C16.2972 7.74796 16.7004 8.50688 16.9121 9.51376C17.0773 10.3 17.021 11.2067 16.7524 12.0823C16.6781 12.3243 16.3792 12.9415 16.2993 13.0176C16.2669 13.0486 16.258 13.0486 16.2727 13.0176C16.6234 12.2788 16.6708 12.1562 16.8199 11.6031C16.9554 11.1005 16.9537 9.94911 16.8167 9.39216C16.6419 8.68146 16.2931 7.93122 15.9307 7.48654C15.7873 7.31051 15.211 6.73648 15.0205 6.5799C14.2678 5.96123 13.1075 5.57079 12.0214 5.5707C10.7205 5.57056 9.54954 6.03116 8.59269 6.91938C8.07325 7.40152 7.5124 8.30022 7.30661 8.98006C7.00052 9.99135 7.01387 11.1904 7.34129 12.0897C7.40626 12.2682 7.47229 12.4561 7.48796 12.5071C7.54078 12.679 7.90947 13.2676 8.16302 13.5847C8.70616 14.264 9.34737 14.7465 10.1234 15.0595C10.8734 15.3622 11.2094 15.4183 12.1653 15.4004C12.7158 15.3901 12.9724 15.3993 12.8903 15.4265C12.8205 15.4496 12.4295 15.4705 12.0214 15.4729C11.4569 15.4762 11.1963 15.4574 10.9317 15.3942C9.94003 15.1574 9.18873 14.7376 8.47046 14.0189C7.58557 13.1335 7.10434 12.1281 7.00274 10.9524C6.89456 9.70083 7.19949 8.57728 7.92607 7.55016C8.57767 6.62909 9.55988 5.95115 10.723 5.6197C11.0239 5.53399 11.8852 5.42753 12.0446 5.45635C12.0828 5.46326 12.3019 5.48271 12.5315 5.49951ZM15.8001 5.59163C15.8585 5.66212 15.8349 5.80107 15.7646 5.80107C15.7431 5.80107 15.6859 5.77202 15.6373 5.73647C15.5623 5.68161 15.5583 5.66068 15.6109 5.59724C15.6877 5.50466 15.727 5.5035 15.8001 5.59163ZM7.71277 5.85036C7.54931 5.99399 7.48625 6.14621 7.60982 6.09878C7.67906 6.07219 8.10167 6.48355 8.10256 6.57841C8.1033 6.65592 8.1307 6.6516 8.24171 6.55651C8.36102 6.45422 8.35945 6.4145 8.23536 6.39603C8.08415 6.37347 8.02308 6.2458 8.11804 6.15076C8.25868 6.01 8.18741 5.79592 7.9794 5.73424C7.90599 5.71248 7.83402 5.7438 7.71277 5.85036ZM12.8097 5.82506C13.0137 5.85889 13.2882 5.91709 13.4197 5.95445C13.9648 6.10936 14.783 6.58974 15.2736 7.04292C15.5216 7.27199 16.1252 8.04469 16.1252 8.13305C16.1252 8.16095 16.1534 8.21677 16.1879 8.25706C16.2916 8.37823 16.549 9.04828 16.6427 9.44085C16.7694 9.97158 16.7663 11.0363 16.6365 11.5737C16.2074 13.3502 14.8506 14.7019 13.0647 15.1321C12.5229 15.2626 11.4873 15.2654 10.9549 15.1377C10.5595 15.0429 9.89008 14.7854 9.76878 14.6814C9.72853 14.6469 9.67381 14.6187 9.6472 14.6187C9.56503 14.6187 8.79644 14.0237 8.58059 13.793C8.46819 13.6728 8.31053 13.4805 8.23026 13.3657C8.14999 13.2508 8.06212 13.1341 8.03499 13.1063C7.94044 13.0096 7.54138 12.171 7.47159 11.9223C7.18521 10.9023 7.20399 9.89458 7.52724 8.93365C7.89454 7.84189 8.70662 6.90072 9.81881 6.27796C10.266 6.02754 11.1865 5.77731 11.7896 5.74227C12.0508 5.72705 12.3789 5.75369 12.8097 5.82506ZM8.04135 5.92071C8.05679 5.96095 8.03527 6.0281 7.99354 6.06987C7.92324 6.14018 7.91202 6.14018 7.84172 6.06987C7.74694 5.97496 7.79044 5.84748 7.91763 5.84748C7.97026 5.84748 8.02591 5.88043 8.04135 5.92071ZM16.2643 5.96763C16.2643 6.06931 15.9389 6.40438 15.8401 6.40438C15.7084 6.40438 15.6933 6.49353 15.8087 6.58978C15.9435 6.70223 15.9856 6.70502 15.9876 6.60162C15.9883 6.55693 16.0151 6.48606 16.047 6.44406C16.0974 6.37779 16.1168 6.37626 16.1936 6.43246C16.3984 6.58236 16.6676 6.44805 16.612 6.22367C16.5551 5.99431 16.2643 5.78009 16.2643 5.96763ZM16.4746 6.30637C16.438 6.42164 16.4059 6.42717 16.2853 6.33894C16.1972 6.27444 16.1972 6.27216 16.285 6.17508C16.3619 6.09006 16.383 6.0856 16.4398 6.1425C16.48 6.18273 16.4936 6.24655 16.4746 6.30637ZM7.10392 6.48077C7.04142 6.54829 6.99022 6.62139 6.99022 6.6432C6.99022 6.66501 6.99041 6.69829 6.99064 6.71713C6.99083 6.73602 7.01693 6.7517 7.0486 6.75193C7.15034 6.75282 7.543 7.07452 7.54486 7.15852C7.54718 7.26313 7.60509 7.26178 7.70178 7.15485C7.80759 7.03781 7.80027 6.94476 7.68749 6.97428C7.54996 7.01029 7.4722 6.89172 7.54453 6.75639C7.60584 6.64176 7.57366 6.45362 7.48245 6.39347C7.37705 6.324 7.21438 6.3615 7.10392 6.48077ZM7.45393 6.61614C7.45393 6.70265 7.37607 6.74024 7.26803 6.7059C7.15628 6.67039 7.15145 6.62092 7.25018 6.52212C7.30768 6.46457 7.33939 6.45984 7.38929 6.50128C7.42485 6.5308 7.45393 6.5825 7.45393 6.61614ZM16.9077 6.56681C16.9045 6.57957 16.8993 6.60719 16.8961 6.62812C16.8789 6.74135 16.4618 7.02166 16.353 6.99321C16.2462 6.96523 16.2324 7.07526 16.3306 7.17342C16.4242 7.26716 16.4961 7.25565 16.4961 7.14692C16.4961 7.09587 16.5153 7.0541 16.5387 7.0541C16.5621 7.0541 16.6141 7.04148 16.6543 7.02607C16.7937 6.97251 16.7975 7.14817 16.6592 7.25853C16.5593 7.33831 16.538 7.38444 16.5637 7.46551C16.6031 7.58975 16.7548 7.58 16.744 7.45396C16.7351 7.35023 16.8853 7.19356 16.9946 7.19263C17.2324 7.19054 17.2977 6.94054 17.121 6.70868C17.0076 6.5598 16.9234 6.50383 16.9077 6.56681ZM17.0433 6.83134C17.1202 6.90828 17.1132 7.0541 17.0327 7.0541C16.9963 7.0541 16.9329 7.02055 16.892 6.97957C16.8345 6.92202 16.8298 6.89028 16.8712 6.84034C16.9369 6.76112 16.9713 6.75931 17.0433 6.83134ZM6.57349 7.22813C6.57382 7.27282 6.69837 7.42096 6.85028 7.55736C7.00214 7.69375 7.12187 7.81905 7.11631 7.83581C7.08779 7.92143 7.19704 7.89837 7.25848 7.80578C7.32465 7.70605 7.32275 7.69718 7.22936 7.67277C7.12164 7.64456 7.09595 7.54431 7.18275 7.49062C7.21211 7.47247 7.26121 7.49192 7.29186 7.53387C7.34292 7.60372 7.35465 7.60233 7.43139 7.51749C7.53099 7.40732 7.50415 7.36922 7.31649 7.35441C7.23988 7.34838 7.08315 7.29923 6.96829 7.24521C6.7108 7.12408 6.57266 7.1181 6.57349 7.22813ZM7.03659 7.42537C7.03659 7.45089 7.01698 7.47178 6.99296 7.47178C6.96894 7.47178 6.93643 7.45089 6.92067 7.42537C6.9049 7.39984 6.92456 7.37896 6.9643 7.37896C7.00404 7.37896 7.03659 7.39984 7.03659 7.42537ZM17.116 7.55958C16.826 7.73895 16.7496 7.95744 16.9178 8.12586C17.0356 8.24374 17.2706 8.21766 17.5021 8.06103C17.7213 7.91275 17.7759 7.76322 17.6652 7.61425C17.5508 7.46018 17.3146 7.43669 17.116 7.55958ZM17.5423 7.71269C17.6089 7.92264 17.0999 8.2061 17.0218 8.00251C16.9815 7.8973 17.0814 7.7079 17.2029 7.65899C17.3874 7.58478 17.5078 7.60386 17.5423 7.71269ZM17.8873 8.32115C17.8873 8.39559 17.4609 8.55435 17.2752 8.54906C17.1462 8.54539 17.1409 8.55273 17.171 8.69302C17.1884 8.77433 17.2205 8.87499 17.2423 8.91671C17.3025 9.03185 17.5077 9.06601 17.6355 8.98219C17.6956 8.94274 17.7963 8.91044 17.8591 8.91044C17.9784 8.91044 18.1191 8.80278 18.1191 8.71144C18.1191 8.61524 17.9683 8.26072 17.9273 8.26072C17.9053 8.26072 17.8873 8.28792 17.8873 8.32115ZM17.9336 8.65246C17.9336 8.8051 17.8704 8.83433 17.773 8.72662C17.6806 8.62452 17.7128 8.53918 17.8436 8.53918C17.9081 8.53918 17.9336 8.57124 17.9336 8.65246ZM17.5858 8.77187C17.5858 8.93337 17.3935 8.96224 17.3363 8.80927C17.3057 8.72759 17.3142 8.69386 17.3714 8.66954C17.5046 8.61278 17.5858 8.65153 17.5858 8.77187ZM17.3487 9.42915C17.3824 9.5978 17.4268 9.65628 17.4569 9.57177C17.4913 9.47552 17.609 9.50666 17.609 9.612C17.609 9.68737 17.5875 9.70459 17.5163 9.68593C17.444 9.667 17.4235 9.68454 17.4235 9.76562C17.4235 9.90099 17.4709 9.94536 17.5349 9.86971C17.5629 9.83657 17.7371 9.76144 17.922 9.70278C18.1761 9.62217 18.2582 9.57562 18.2582 9.51222C18.2582 9.41142 18.1057 9.37133 17.7566 9.38042C17.6209 9.3839 17.4864 9.36316 17.4575 9.33425C17.3632 9.2399 17.3186 9.27879 17.3487 9.42915ZM17.9336 9.56016C17.8429 9.61882 17.7481 9.61882 17.7481 9.56016C17.7481 9.53464 17.8055 9.51408 17.8757 9.51445C17.975 9.51501 17.9878 9.52513 17.9336 9.56016ZM5.74699 9.84043C5.61201 9.96629 5.61878 10.1222 5.76517 10.2598C5.86129 10.3502 5.93405 10.3723 6.13506 10.3723C6.34405 10.3723 6.40559 10.352 6.50844 10.2491C6.75114 10.0062 6.52634 9.7458 6.07385 9.7458C5.91109 9.7458 5.82025 9.77211 5.74699 9.84043ZM6.40285 9.98555C6.51131 10.1577 6.27028 10.2914 5.98779 10.2158C5.87919 10.1867 5.85415 10.1546 5.85415 10.0446C5.85415 9.93083 5.87641 9.90498 5.99326 9.88303C6.17128 9.84966 6.34452 9.89301 6.40285 9.98555ZM18.2217 10.1442C18.1844 10.2108 18.1234 10.2194 17.8238 10.2001L17.4699 10.1774V10.3721C17.4699 10.6848 17.7414 10.8375 18.0916 10.7218C18.2925 10.6555 18.3973 10.5181 18.3973 10.3213C18.3973 10.1387 18.287 10.0275 18.2217 10.1442ZM18.2118 10.4154C18.2118 10.5334 18.0705 10.6276 17.8932 10.6276C17.7043 10.6276 17.609 10.5622 17.609 10.4326C17.609 10.3608 17.6511 10.3491 17.9104 10.3491C18.1408 10.3491 18.2118 10.3647 18.2118 10.4154ZM5.76772 10.7963C5.68592 10.8782 5.64548 10.9684 5.64548 11.0691C5.64548 11.2388 5.76679 11.3812 5.82753 11.2829C5.84724 11.2509 5.98654 11.2078 6.13701 11.187C6.35504 11.157 6.41843 11.1628 6.44913 11.2159C6.47913 11.2677 6.50218 11.2704 6.55346 11.2278C6.64894 11.1485 6.6341 10.9374 6.52314 10.7963C6.43911 10.6893 6.39339 10.674 6.15853 10.674C5.9302 10.674 5.87168 10.6923 5.76772 10.7963ZM6.3307 10.839C6.45608 10.9269 6.46573 11.0452 6.34753 11.0452C6.30005 11.0452 6.16441 11.0585 6.04612 11.0748C5.83866 11.1032 5.83097 11.1 5.83097 10.9858C5.83097 10.8988 5.86486 10.855 5.95848 10.8207C6.14151 10.7538 6.21426 10.7574 6.3307 10.839ZM17.486 11.1134C17.3464 11.2113 17.3249 11.3501 17.4287 11.4822C17.602 11.7026 18.0382 11.7501 18.2198 11.5684C18.2948 11.4934 18.3037 11.4491 18.2701 11.3192C18.2456 11.2249 18.1837 11.1382 18.1162 11.1039C17.9611 11.0253 17.6041 11.0307 17.486 11.1134ZM17.9694 11.1877C18.1347 11.2454 18.1683 11.3064 18.1145 11.4513C18.0415 11.6479 17.5163 11.5549 17.5163 11.3454C17.5163 11.2839 17.6931 11.1445 17.776 11.1405C17.8041 11.1392 17.8911 11.1604 17.9694 11.1877ZM6.52652 11.5056C6.52652 11.5333 6.36849 11.629 6.17536 11.7183C5.90878 11.8415 5.82809 11.9002 5.84038 11.9618C5.85434 12.0315 5.91244 12.043 6.24955 12.043C6.46564 12.043 6.66855 12.0599 6.70041 12.0806C6.76978 12.1255 6.78068 11.9413 6.71483 11.8372C6.67903 11.7805 6.66118 11.7801 6.59608 11.8342C6.53111 11.8882 6.5134 11.888 6.47969 11.8334C6.42298 11.7416 6.47227 11.6862 6.58026 11.7205C6.65928 11.7456 6.67041 11.7313 6.65752 11.6215C6.64333 11.5007 6.52652 11.3973 6.52652 11.5056ZM6.34104 11.8342C6.34104 11.8597 6.3045 11.8803 6.25989 11.8799C6.19052 11.8793 6.18885 11.8726 6.2483 11.8342C6.3358 11.7776 6.34104 11.7776 6.34104 11.8342ZM6.46336 12.4143C6.44871 12.4526 6.38709 12.4839 6.32648 12.4839C6.20276 12.4839 6.06282 12.6144 6.06282 12.7296C6.06282 12.8299 6.2087 13.1336 6.25688 13.1336C6.27765 13.1336 6.29467 13.1052 6.29467 13.0705C6.29467 12.9993 6.75336 12.8088 6.9248 12.8088C6.98628 12.8088 7.03659 12.7869 7.03659 12.76C7.03659 12.6882 6.89271 12.4197 6.83303 12.3802C6.73992 12.3186 6.49133 12.3415 6.46336 12.4143ZM6.80312 12.5273C6.86827 12.6492 6.86577 12.6584 6.75044 12.7202C6.66739 12.7647 6.63934 12.7598 6.58996 12.6922C6.54776 12.6345 6.54372 12.5848 6.57632 12.5239C6.63619 12.412 6.74228 12.4135 6.80312 12.5273ZM6.42622 12.7341C6.44509 12.8322 6.35755 12.905 6.26411 12.8691C6.19831 12.8438 6.17962 12.7073 6.23443 12.6525C6.29198 12.5949 6.40902 12.6448 6.42622 12.7341ZM16.9615 12.7593C16.8899 12.8932 16.9029 12.948 17.0062 12.948C17.1076 12.948 17.12 12.9821 17.0554 13.0842C17.0193 13.1414 17.0022 13.1417 16.9352 13.086C16.8672 13.0295 16.8486 13.0326 16.7925 13.1094C16.7057 13.2283 16.7111 13.2893 16.8052 13.2531C16.8477 13.2368 17.0343 13.2686 17.2199 13.3238C17.7642 13.4855 17.8477 13.39 17.4351 13.0774C17.2885 12.9664 17.1479 12.8291 17.1227 12.7725C17.0664 12.6459 17.024 12.6424 16.9615 12.7593ZM16.193 13.2148C15.8502 13.7486 15.2685 14.3303 14.7225 14.6856C14.5019 14.8292 14.5842 14.7233 14.8152 14.5664C15.1363 14.3482 15.8282 13.6629 16.0391 13.3541C16.2207 13.0881 16.3488 12.9723 16.193 13.2148ZM6.8238 13.2214C6.66127 13.3206 6.48015 13.5335 6.48015 13.6254C6.48015 13.7346 6.6775 13.8762 6.82974 13.8762C6.91909 13.8762 7.05143 13.8217 7.16875 13.7367C7.33851 13.6135 7.36119 13.5755 7.36119 13.4134C7.36119 13.2793 7.33698 13.2167 7.27151 13.1817C7.13759 13.11 6.9841 13.1236 6.8238 13.2214ZM17.354 13.18C17.3698 13.2056 17.3513 13.2264 17.3131 13.2264C17.2748 13.2264 17.2306 13.2056 17.2149 13.18C17.1991 13.1545 17.2175 13.1336 17.2558 13.1336C17.294 13.1336 17.3382 13.1545 17.354 13.18ZM7.21266 13.3926C7.23589 13.5553 7.07847 13.7007 6.87175 13.7077C6.7184 13.7128 6.68654 13.6978 6.67481 13.6155C6.65543 13.4795 6.91668 13.2633 7.07786 13.282C7.15929 13.2915 7.20339 13.3277 7.21266 13.3926ZM16.5444 13.5261C16.4359 13.6417 16.4547 13.7628 16.5741 13.7169C16.6781 13.677 16.8241 13.796 16.772 13.8784C16.7116 13.974 16.718 14.1724 16.7836 14.2381C16.9082 14.3628 17.1007 14.2859 17.2503 14.0518C17.3505 13.8951 17.3504 13.8808 17.2497 13.8865C17.1272 13.8934 16.6739 13.5919 16.7009 13.5215C16.7433 13.411 16.6499 13.4137 16.5444 13.5261ZM7.5003 13.7876C7.4491 13.8238 7.44577 13.8429 7.48755 13.86C7.57996 13.8976 7.36249 14.1546 7.23817 14.1546C7.13388 14.1546 7.03659 14.2727 7.03659 14.3993C7.03659 14.474 7.30615 14.8043 7.36708 14.8043C7.38933 14.8043 7.40756 14.7643 7.40756 14.7155C7.40756 14.5888 7.86468 14.2306 7.94313 14.2958C8.05526 14.3889 8.07037 14.2447 7.96076 14.128C7.83398 13.9929 7.77852 13.9851 7.77852 14.1025C7.77852 14.2139 7.66143 14.3122 7.57046 14.2773C7.47243 14.2396 7.48305 14.1436 7.59601 14.0468C7.75566 13.91 7.66695 13.6698 7.5003 13.7876ZM17.0372 13.947C17.1263 14.0361 17.0845 14.1546 16.964 14.1546C16.8461 14.1546 16.8222 14.1099 16.871 13.9806C16.9176 13.8573 16.9426 13.8523 17.0372 13.947ZM16.0583 14.165C15.9587 14.3072 15.9672 14.3402 16.1034 14.3402C16.2562 14.3402 16.2914 14.4413 16.1917 14.5936C15.9927 14.8975 16.3878 15.087 16.6498 14.8134C16.7819 14.6753 16.8169 14.546 16.7111 14.5867C16.625 14.6197 16.2179 14.2588 16.2179 14.1495C16.2179 14.0318 16.1466 14.0387 16.0583 14.165ZM7.45124 14.3602C7.49534 14.4134 7.48662 14.4371 7.4076 14.4795C7.29775 14.5383 7.17571 14.4742 7.17571 14.3578C7.17571 14.2732 7.38057 14.275 7.45124 14.3602ZM16.5073 14.6366C16.5838 14.6947 16.5836 14.7019 16.5037 14.7743C16.3507 14.9129 16.2179 14.8386 16.3101 14.6661C16.3684 14.5572 16.3971 14.5528 16.5073 14.6366ZM8.33496 14.7059C8.33496 14.8637 8.22386 14.9087 8.05994 14.817C7.91318 14.7349 7.91272 14.735 7.79934 14.8649C7.73688 14.9366 7.68578 15.0141 7.68578 15.0374C7.68578 15.112 7.97123 15.4076 8.04334 15.4076C8.08442 15.4076 8.10269 15.3806 8.08781 15.3418C8.07394 15.3057 8.11503 15.2169 8.17911 15.1446C8.2432 15.0723 8.32773 14.9662 8.36701 14.9088C8.40623 14.8513 8.47769 14.8043 8.52578 14.8043C8.63493 14.8043 8.63707 14.7631 8.53204 14.6833C8.41625 14.5954 8.33496 14.6046 8.33496 14.7059ZM15.4841 14.7261C15.3605 14.8578 15.3573 14.8972 15.4703 14.8972C15.6042 14.8972 15.6872 15.019 15.6138 15.1076C15.5618 15.1702 15.5381 15.1619 15.4179 15.0389C15.3052 14.9235 15.2652 14.9075 15.1903 14.9476C15.0767 15.0084 15.0984 15.1514 15.2218 15.1553C15.3804 15.1602 15.476 15.2281 15.476 15.3358C15.476 15.4601 15.6109 15.5937 15.7347 15.592C15.8579 15.5903 16.1478 15.3425 16.1058 15.2747C16.0875 15.2449 16.0543 15.2317 16.0321 15.2454C16.0099 15.2591 15.954 15.2164 15.9078 15.1504C15.8616 15.0845 15.7746 14.9688 15.7145 14.8933C15.6258 14.7818 15.616 14.7432 15.6623 14.6874C15.7605 14.5689 15.5986 14.6041 15.4841 14.7261ZM14.5486 14.7776C14.5486 14.8174 14.0179 15.0836 13.971 15.0674C13.9444 15.0581 14.0582 14.9857 14.224 14.9062C14.5574 14.7465 14.5486 14.75 14.5486 14.7776ZM8.03207 14.9599C8.10988 15.0169 8.11137 15.0321 8.04816 15.1224C7.97898 15.2213 7.97777 15.2213 7.89602 15.131C7.85072 15.0808 7.82596 15.0077 7.84098 14.9685C7.87465 14.8807 7.92092 14.8786 8.03207 14.9599ZM8.97548 15.2336C8.96106 15.3833 8.95929 15.3843 8.73871 15.3688C8.33909 15.3407 8.25048 15.5746 8.56598 15.8247C8.73134 15.9557 8.8902 15.9824 8.81902 15.8671C8.77836 15.8013 9.01614 15.4192 9.15414 15.3287L9.2735 15.2505L9.17005 15.1666C9.02537 15.0494 8.99212 15.0608 8.97548 15.2336ZM13.8739 15.1231C13.8081 15.1834 13.2465 15.3618 13.1369 15.3573C13.0844 15.3551 13.2085 15.2954 13.4125 15.2247C13.809 15.0871 13.9462 15.0569 13.8739 15.1231ZM15.8933 15.327C15.8933 15.3974 15.7437 15.4935 15.675 15.4671C15.5938 15.4359 15.5997 15.3624 15.6917 15.2606C15.7499 15.1963 15.7833 15.1884 15.8308 15.2279C15.8652 15.2564 15.8933 15.301 15.8933 15.327ZM14.5504 15.3236C14.4381 15.4442 14.4328 15.5269 14.5237 15.7445C14.593 15.9104 14.8362 16.1502 14.9352 16.1502C15.014 16.1502 15.2441 15.9263 15.2441 15.8497C15.2441 15.619 14.9315 15.222 14.75 15.222C14.6922 15.222 14.6024 15.2677 14.5504 15.3236ZM9.42091 15.4889C9.41882 15.559 9.38326 15.7373 9.34185 15.885C9.26427 16.1617 9.27535 16.2894 9.37695 16.2894C9.43028 16.2894 9.53614 16.1518 9.74291 15.8137C9.78584 15.7436 9.85053 15.6861 9.8867 15.6861C9.98264 15.6861 10.0267 15.5896 9.95227 15.5424C9.84631 15.4752 9.71286 15.4919 9.74226 15.5686C9.77453 15.6527 9.71276 15.6959 9.61432 15.6581C9.5283 15.625 9.51592 15.5164 9.59517 15.49C9.67182 15.4644 9.598 15.3612 9.50308 15.3612C9.44938 15.3612 9.42346 15.4014 9.42091 15.4889ZM14.9648 15.5328C15.0861 15.6872 15.0777 15.9326 14.9502 15.9568C14.7806 15.989 14.5282 15.5997 14.6211 15.4493C14.6743 15.363 14.8685 15.4102 14.9648 15.5328ZM8.75424 15.526C8.80349 15.5854 8.80048 15.6114 8.73672 15.6751C8.6673 15.7446 8.65241 15.7452 8.58828 15.6811C8.51001 15.6027 8.54103 15.4541 8.63568 15.4541C8.66804 15.4541 8.72141 15.4864 8.75424 15.526ZM13.9458 15.5796C13.7067 15.6671 13.5836 15.9762 13.7371 16.1038C13.7754 16.1356 13.8067 16.208 13.8067 16.2647C13.8067 16.3845 13.9396 16.5216 14.0394 16.5048C14.1456 16.4868 14.4558 16.3772 14.4558 16.3575C14.4558 16.3479 14.405 16.2891 14.3427 16.2268C14.2701 16.1541 14.2088 16.0123 14.1712 15.8303C14.1142 15.5541 14.0898 15.527 13.9458 15.5796ZM14.061 15.9657C14.015 16.0401 13.8062 16.0172 13.7743 15.9341C13.7553 15.8846 13.7837 15.8258 13.8541 15.7688C13.9629 15.6806 13.9635 15.6807 14.0261 15.8003C14.0607 15.8663 14.0764 15.9407 14.061 15.9657ZM9.54059 15.8717C9.51328 15.9228 9.48323 15.9645 9.47373 15.9645C9.46427 15.9645 9.46747 15.9228 9.48077 15.8717C9.49413 15.8207 9.52422 15.7789 9.54764 15.7789C9.57115 15.7789 9.568 15.8204 9.54059 15.8717ZM13.1311 15.8769C13.1136 15.9053 13.1278 15.9462 13.1628 15.9678C13.2114 15.9979 13.2135 16.0199 13.1718 16.0616C13.0892 16.1442 12.9748 16.0799 13.0042 15.9674C13.0247 15.8888 13.0076 15.8717 12.9079 15.8717C12.7875 15.8717 12.7332 15.9854 12.8371 16.0201C12.8648 16.0293 12.9381 16.1814 12.9997 16.3579C13.1863 16.8919 13.3185 16.8873 13.3227 16.3469C13.3246 16.11 13.3481 15.9446 13.3864 15.8985C13.4394 15.8346 13.4291 15.8253 13.305 15.8253C13.2269 15.8253 13.1486 15.8485 13.1311 15.8769ZM11.1867 15.9922C10.9808 16.2146 10.991 16.7572 11.2021 16.8107C11.3487 16.8478 11.5641 16.7577 11.6195 16.636C11.7288 16.396 11.6694 16.0674 11.4922 15.9312C11.3807 15.8456 11.3092 15.8599 11.1867 15.9922ZM12.2342 15.9548C12.0077 15.9916 11.9103 16.2413 11.997 16.5632C12.055 16.7788 12.1792 16.8678 12.4098 16.8591C12.616 16.8514 12.6941 16.7747 12.5804 16.6915C12.5069 16.6377 12.4982 16.5811 12.5176 16.2794C12.5421 15.8963 12.5486 15.9037 12.2342 15.9548ZM11.5083 16.2049C11.5528 16.3111 11.5575 16.3892 11.5246 16.4835C11.4677 16.6468 11.4203 16.677 11.2768 16.641C11.1764 16.6158 11.1636 16.5872 11.1636 16.3906C11.1636 16.2686 11.1886 16.1437 11.2192 16.1131C11.3204 16.0117 11.4435 16.0509 11.5083 16.2049ZM12.3692 16.3795C12.3692 16.5312 12.347 16.6689 12.3199 16.6857C12.228 16.7425 12.091 16.5621 12.091 16.3843C12.091 16.1988 12.1569 16.1038 12.2857 16.1038C12.3567 16.1038 12.3692 16.1449 12.3692 16.3795ZM14.1689 16.2553C14.1888 16.3587 14.0585 16.4102 13.9678 16.3348C13.9138 16.29 13.9104 16.2624 13.9525 16.2116C14.0231 16.1266 14.1491 16.152 14.1689 16.2553ZM13.2032 16.3242C13.2026 16.4237 13.1925 16.4365 13.1575 16.3822C13.0989 16.2914 13.0989 16.1966 13.1575 16.1966C13.183 16.1966 13.2035 16.254 13.2032 16.3242Z" fill="url(#paint2_linear_1806_1200)"/>
</g>
<defs>
<linearGradient id="paint0_linear_1806_1200" x1="6.44185" y1="2.47081" x2="21.7588" y2="24.2851" gradientUnits="userSpaceOnUse">
<stop stop-color="#D2A321"/>
<stop offset="1" stop-color="#EBC143"/>
</linearGradient>
<linearGradient id="paint1_linear_1806_1200" x1="10.663" y1="7.21367" x2="14.7163" y2="11.8878" gradientUnits="userSpaceOnUse">
<stop stop-color="#CFA01E"/>
<stop offset="1" stop-color="#F0C649"/>
</linearGradient>
<linearGradient id="paint2_linear_1806_1200" x1="7.8" y1="5.01704" x2="15.5" y2="16.917" gradientUnits="userSpaceOnUse">
<stop stop-color="#CFA01E"/>
<stop offset="1" stop-color="#F0C649"/>
</linearGradient>
<clipPath id="clip0_1806_1200">
<rect width="24" height="24" fill="white" transform="translate(0 0.500488)"/>
</clipPath>
</defs>
</svg>
