<svg width="176" height="176" viewBox="0 0 176 176" fill="none" xmlns="http://www.w3.org/2000/svg">
<path d="M88.0001 14.6666C47.6667 14.6666 14.6667 47.6666 14.6667 88C14.6667 128.333 47.6667 161.333 88.0001 161.333C128.333 161.333 161.333 128.333 161.333 88C161.333 47.6666 128.333 14.6666 88.0001 14.6666ZM118.8 75.5333L83.6001 110.733C80.6667 113.667 76.2668 113.667 73.3334 110.733L57.2001 94.6C54.2668 91.6666 54.2668 87.2666 57.2001 84.3333C60.1334 81.4 64.5334 81.4 67.4667 84.3333L78.4667 95.3333L108.533 65.2666C111.467 62.3333 115.867 62.3333 118.8 65.2666C121.733 68.2 121.733 72.6 118.8 75.5333Z" fill="#03C22D"/>
</svg>
