<svg width="18" height="18" viewBox="0 0 18 18" fill="none" xmlns="http://www.w3.org/2000/svg">
<path d="M12.7399 3.26621L14.7334 5.2587L12.7399 3.26621ZM14.0218 1.5109L8.63167 6.90107C8.35316 7.17919 8.16321 7.53353 8.08578 7.91944L7.58789 10.4117L10.0802 9.91287C10.466 9.83569 10.8199 9.64651 11.0985 9.36792L16.4887 3.97775C16.6507 3.81577 16.7791 3.62348 16.8668 3.41185C16.9545 3.20022 16.9996 2.97339 16.9996 2.74433C16.9996 2.51526 16.9545 2.28843 16.8668 2.0768C16.7791 1.86517 16.6507 1.67288 16.4887 1.5109C16.3267 1.34893 16.1344 1.22044 15.9228 1.13278C15.7112 1.04512 15.4843 1 15.2553 1C15.0262 1 14.7994 1.04512 14.5877 1.13278C14.3761 1.22044 14.1838 1.34893 14.0218 1.5109V1.5109Z" stroke="#333333" stroke-width="1.5" stroke-linecap="round" stroke-linejoin="round"/>
<path d="M15.1178 12.2939V15.1175C15.1178 15.6167 14.9195 16.0955 14.5665 16.4485C14.2134 16.8015 13.7347 16.9999 13.2354 16.9999H2.88237C2.38314 16.9999 1.90435 16.8015 1.55133 16.4485C1.19832 16.0955 1 15.6167 1 15.1175V4.76445C1 4.26522 1.19832 3.78643 1.55133 3.43341C1.90435 3.0804 2.38314 2.88208 2.88237 2.88208H5.70593" stroke="#333333" stroke-width="1.5" stroke-linecap="round" stroke-linejoin="round"/>
</svg>
