<svg width="18" height="18" viewBox="0 0 18 18" fill="none" xmlns="http://www.w3.org/2000/svg">
<g clip-path="url(#clip0_174:1564)">
<path d="M3.94968 7.32375C4.30059 6.26209 4.97782 5.33836 5.88476 4.68435C6.7917 4.03034 7.88202 3.67945 9.00018 3.68175C10.2677 3.68175 11.4137 4.13175 12.3137 4.86825L14.9327 2.25C13.3367 0.85875 11.2914 0 9.00018 0C5.45268 0 2.39868 2.0235 0.930176 4.9875L3.94968 7.32375Z" fill="#EA4335"/>
<path d="M12.03 13.5097C11.2125 14.0369 10.1745 14.3182 8.99998 14.3182C7.88629 14.3205 6.80009 13.9724 5.89516 13.3232C4.99024 12.674 4.31244 11.7566 3.95773 10.7009L0.927734 13.0012C1.67117 14.5059 2.82169 15.772 4.2486 16.6556C5.67552 17.5392 7.32164 18.005 8.99998 17.9999C11.1997 17.9999 13.3012 17.2177 14.8755 15.7499L12.0307 13.5097H12.03Z" fill="#34A853"/>
<path d="M14.8755 15.75C16.5217 14.214 17.5905 11.928 17.5905 9.00003C17.5905 8.46753 17.5087 7.89528 17.3865 7.36353H9V10.8413H13.827C13.5893 12.0105 12.9495 12.9158 12.0308 13.5098L14.8755 15.75Z" fill="#4A90E2"/>
<path d="M3.95784 10.701C3.77435 10.1527 3.68114 9.57825 3.68184 9.00005C3.68184 8.41355 3.77559 7.8503 3.94959 7.3238L0.930087 4.98755C0.312371 6.23456 -0.00605996 7.60844 8.73409e-05 9.00005C8.73409e-05 10.44 0.333837 11.7975 0.927837 13.0013L3.95784 10.701Z" fill="#FBBC05"/>
</g>
<defs>
<clipPath id="clip0_174:1564">
<rect width="18" height="18" fill="white"/>
</clipPath>
</defs>
</svg>
