<svg width="40" height="40" viewBox="0 0 40 40" fill="none" xmlns="http://www.w3.org/2000/svg">
<rect width="40" height="40" rx="10" fill="#0A66C2"/>
<path d="M27.0409 27.0412H24.0776V22.4004C24.0776 21.2937 24.0578 19.8691 22.5363 19.8691C20.9929 19.8691 20.7567 21.0749 20.7567 22.3198V27.0409H17.7934V17.4975H20.6382V18.8017H20.678C20.9627 18.3149 21.3741 17.9144 21.8684 17.6429C22.3627 17.3715 22.9214 17.2391 23.4849 17.26C26.4884 17.26 27.0422 19.2357 27.0422 21.8058L27.0409 27.0412ZM14.4497 16.193C13.4999 16.1932 12.7298 15.4233 12.7297 14.4736C12.7295 13.5238 13.4993 12.7537 14.4491 12.7536C15.3988 12.7533 16.1689 13.5232 16.1691 14.4729C16.1691 14.929 15.988 15.3665 15.6656 15.6891C15.3432 16.0116 14.9058 16.1929 14.4497 16.193ZM15.9314 27.0413H12.9649V17.4975H15.9313V27.0412L15.9314 27.0413ZM28.5183 10.0015H11.4759C10.6704 9.99239 10.0098 10.6376 10 11.4431V28.5566C10.0095 29.3625 10.67 30.0083 11.4758 29.9999H28.5183C29.3258 30.0099 29.9888 29.364 30 28.5566V11.4418C29.9885 10.6347 29.3254 9.98958 28.5183 10.0001" fill="white"/>
</svg>
