<svg width="24" height="24" viewBox="0 0 24 24" fill="none" xmlns="http://www.w3.org/2000/svg">
<path d="M19.0409 19.0412H16.0776V14.4004C16.0776 13.2937 16.0578 11.8691 14.5363 11.8691C12.9929 11.8691 12.7567 13.0749 12.7567 14.3198V19.0409H9.79343V9.49747H12.6382V10.8017H12.678C12.9627 10.3149 13.3741 9.91443 13.8684 9.64295C14.3627 9.37147 14.9214 9.23914 15.4849 9.26005C18.4884 9.26005 19.0422 11.2357 19.0422 13.8058L19.0409 19.0412ZM6.44969 8.19302C5.49992 8.19317 4.72984 7.42333 4.72969 6.47356C4.72953 5.5238 5.4993 4.75372 6.44906 4.75356C7.39883 4.75333 8.1689 5.52317 8.16906 6.47294C8.16914 6.92903 7.98804 7.36648 7.6656 7.68906C7.34316 8.01163 6.90578 8.19291 6.44969 8.19302ZM7.9314 19.0413H4.96492V9.49747H7.93133V19.0412L7.9314 19.0413ZM20.5183 2.00146H3.47586C2.67039 1.99239 2.00984 2.63763 2 3.4431V20.5566C2.00953 21.3625 2.67 22.0083 3.47578 21.9999H20.5183C21.3258 22.0099 21.9888 21.364 22 20.5566V3.44177C21.9885 2.63474 21.3254 1.98958 20.5183 2.00013" fill="#0A66C2"/>
</svg>
