<svg width="98" height="98" viewBox="0 0 98 98" fill="none" xmlns="http://www.w3.org/2000/svg">
<path d="M28.5834 85.75H69.4168C73.9271 85.75 77.5834 82.0937 77.5834 77.5833V38.4414C77.5834 37.3584 77.1532 36.3198 76.3875 35.554L54.2794 13.446C53.5136 12.6802 52.475 12.25 51.3921 12.25H28.5834C24.0731 12.25 20.4167 15.9063 20.4167 20.4167V77.5833C20.4167 82.0937 24.0731 85.75 28.5834 85.75Z" stroke="#8999AB" stroke-width="2" stroke-linecap="round" stroke-linejoin="round"/>
<path d="M29.5322 72.5063V75.5532H28.1436V67.1509H30.6924C31.6572 67.1509 32.4053 67.3755 32.9365 67.8247C33.4678 68.2739 33.7334 68.9067 33.7334 69.7231C33.7334 70.5396 33.4561 71.2075 32.9014 71.7271C32.3467 72.2466 31.5967 72.5063 30.6514 72.5063H29.5322ZM29.5322 68.2993V71.3696H30.4346C31.0322 71.3696 31.4873 71.231 31.7998 70.9536C32.1123 70.6763 32.2686 70.2856 32.2686 69.7817C32.2686 68.7935 31.6943 68.2993 30.5459 68.2993H29.5322ZM35.1631 75.5532V67.1509H37.5889C40.6865 67.1509 42.2354 68.5161 42.2354 71.2466C42.2354 72.5435 41.8057 73.5864 40.9463 74.3755C40.0869 75.1606 38.9346 75.5532 37.4893 75.5532H35.1631ZM36.5518 68.3345V74.3755H37.665C38.6455 74.3755 39.4072 74.106 39.9502 73.5669C40.4971 73.0278 40.7705 72.2661 40.7705 71.2817C40.7705 69.3169 39.7529 68.3345 37.7178 68.3345H36.5518ZM48.3115 68.3345H45.1709V70.8599H48.0654V72.0376H45.1709V75.5532H43.7764V67.1509H48.3115V68.3345Z" fill="#8999AB"/>
</svg>
