<svg width="14" height="15" viewBox="0 0 14 15" fill="none" xmlns="http://www.w3.org/2000/svg">
<path d="M6.70867 1.91572L2.29788 2.79788L1.41572 7.20867C1.4016 7.2793 1.40513 7.35232 1.426 7.42126C1.44687 7.49019 1.48444 7.5529 1.53537 7.60383L7.24763 13.3161C7.28825 13.3567 7.33648 13.3889 7.38956 13.4109C7.44264 13.4329 7.49953 13.4442 7.55699 13.4442C7.61444 13.4442 7.67133 13.4329 7.72441 13.4109C7.77749 13.3889 7.82572 13.3567 7.86635 13.3161L12.8161 8.36635C12.8567 8.32572 12.8889 8.27749 12.9109 8.22441C12.9329 8.17133 12.9442 8.11444 12.9442 8.05699C12.9442 7.99954 12.9329 7.94264 12.9109 7.88956C12.8889 7.83648 12.8567 7.78826 12.8161 7.74763L7.10383 2.03537C7.0529 1.98444 6.99019 1.94687 6.92125 1.926C6.85232 1.90513 6.7793 1.9016 6.70867 1.91572V1.91572Z" stroke="#F9F9F9" stroke-linecap="round" stroke-linejoin="round"/>
<path d="M4.59375 5.75C4.95619 5.75 5.25 5.45619 5.25 5.09375C5.25 4.73131 4.95619 4.4375 4.59375 4.4375C4.23131 4.4375 3.9375 4.73131 3.9375 5.09375C3.9375 5.45619 4.23131 5.75 4.59375 5.75Z" fill="#F9F9F9"/>
</svg>
