<svg width="18" height="18" viewBox="0 0 18 18" fill="none" xmlns="http://www.w3.org/2000/svg">
<path d="M2.59961 4.19995H15.3996L14.1356 15.5759C14.0923 15.9675 13.9061 16.3292 13.6126 16.592C13.3192 16.8547 12.9391 17 12.5452 17H5.45401C5.06012 17 4.68006 16.8547 4.38661 16.592C4.09316 16.3292 3.90694 15.9675 3.86361 15.5759L2.59961 4.19995Z" stroke="#333333" stroke-width="1.5" stroke-linecap="round" stroke-linejoin="round"/>
<path d="M5.2762 1.9176C5.4056 1.64317 5.61036 1.4112 5.8666 1.24873C6.12284 1.08626 6.41999 0.999996 6.7234 1H11.277C11.5805 0.999845 11.8779 1.08604 12.1343 1.24851C12.3906 1.41099 12.5955 1.64305 12.725 1.9176L13.8002 4.2H4.2002L5.2762 1.9176Z" stroke="#333333" stroke-width="1.5" stroke-linecap="round" stroke-linejoin="round"/>
<path d="M1 4.19995H17" stroke="#333333" stroke-width="1.5" stroke-linecap="round" stroke-linejoin="round"/>
<path d="M7.40039 8.19995V12.2" stroke="#333333" stroke-width="1.5" stroke-linecap="round" stroke-linejoin="round"/>
<path d="M10.5996 8.19995V12.2" stroke="#333333" stroke-width="1.5" stroke-linecap="round" stroke-linejoin="round"/>
</svg>
