<svg width="24" height="24" viewBox="0 0 24 24" fill="none" xmlns="http://www.w3.org/2000/svg">
<path d="M22 5.92406C21.2641 6.25039 20.4733 6.47094 19.6433 6.57016C20.4905 6.06234 21.1411 5.2582 21.4474 4.30008C20.642 4.77804 19.7608 5.11479 18.8419 5.29578C18.0934 4.49836 17.027 4 15.8468 4C13.5807 4 11.7434 5.83719 11.7434 8.10313C11.7434 8.42477 11.7798 8.73789 11.8497 9.03828C8.43953 8.86711 5.41609 7.23359 3.39227 4.75109C3.03914 5.35711 2.8368 6.06203 2.8368 6.81391C2.8368 8.2375 3.56125 9.49336 4.66219 10.2292C4.01059 10.2088 3.37332 10.0328 2.80359 9.71594C2.80336 9.73313 2.80336 9.75031 2.80336 9.76758C2.80336 11.7556 4.21773 13.4141 6.09477 13.791C5.49054 13.9553 4.85674 13.9794 4.2418 13.8613C4.76391 15.4915 6.2793 16.6777 8.07477 16.7109C6.67047 17.8114 4.90117 18.4674 2.97883 18.4674C2.64758 18.4674 2.32102 18.448 2 18.4101C3.81586 19.5743 5.97266 20.2536 8.28984 20.2536C15.8373 20.2536 19.9644 14.0012 19.9644 8.57898C19.9644 8.40102 19.9605 8.22406 19.9525 8.04813C20.7558 7.46741 21.4492 6.74814 22 5.92406Z" fill="#25ADFA"/>
</svg>
