<svg width="80" height="80" viewBox="0 0 80 80" fill="none" xmlns="http://www.w3.org/2000/svg">
<path d="M59.96 8.69768C44.5911 8.98435 33.8889 1.2199 26.4822 1.3599C19.0756 1.4999 3.60224 6.04657 4.24001 40.1155C4.87779 74.1843 25.8933 78.791 34.04 78.6399C72.1822 77.9266 87.1756 8.18879 59.96 8.69768Z" fill="#EFEFEF"/>
<path d="M8.87665 59.6829L10.448 58.1115L13.5907 61.2542L12.0193 62.8256L8.87665 59.6829Z" fill="#A4AFC1"/>
<path d="M17.9092 68.7157L19.4805 67.1444L22.6232 70.287L21.0519 71.8584L17.9092 68.7157Z" fill="#A4AFC1"/>
<path d="M8.47784 70.298L11.6205 67.1553L13.1919 68.7266L10.0492 71.8693L8.47784 70.298Z" fill="#A4AFC1"/>
<path d="M17.5096 61.2634L20.6523 58.1207L22.2236 59.6921L19.0809 62.8348L17.5096 61.2634Z" fill="#A4AFC1"/>
<path d="M56.1111 23.889V28.3335H15V23.889C15 21.4446 17 19.4446 19.4444 19.4446H51.6667C54.1111 19.4446 56.1111 21.4446 56.1111 23.889Z" fill="#D2E2F4"/>
<path d="M56.1111 28.3334L56.1089 49.4445C56.1089 51.8978 54.1178 53.8889 51.6644 53.8889H19.4444C17 53.8889 15 51.8889 15 49.4445V28.3334H56.1111Z" fill="#F3F3F1"/>
<path d="M24.4444 19.4446H19.4444C17 19.4446 15 21.4446 15 23.889V28.3335H20V23.889C20 21.4446 22 19.4446 24.4444 19.4446Z" fill="#D2E2F4"/>
<path d="M20 49.4445V28.3334H15V49.4445C15 51.8889 17 53.8889 19.4444 53.8889H24.4444C22 53.8889 20 51.8889 20 49.4445Z" fill="#D5DBE1"/>
<path d="M52.2222 65.0002C59.2792 65.0002 65 59.2793 65 52.2224C65 45.1654 59.2792 39.4446 52.2222 39.4446C45.1653 39.4446 39.4445 45.1654 39.4445 52.2224C39.4445 59.2793 45.1653 65.0002 52.2222 65.0002Z" fill="#D2E2F4"/>
<path d="M44.4445 52.2224C44.4445 46.0224 48.8622 40.8557 54.7222 39.6935C53.9133 39.5335 53.0778 39.4446 52.2222 39.4446C45.1645 39.4446 39.4445 45.1646 39.4445 52.2224C39.4445 59.2801 45.1645 65.0002 52.2222 65.0002C53.0778 65.0002 53.9133 64.9135 54.7222 64.7513C48.8622 63.589 44.4445 58.4224 44.4445 52.2224Z" fill="#D2E2F4"/>
<path d="M32.2223 55.5555H19.4445C16.0734 55.5555 13.3334 52.8155 13.3334 49.4444V23.8888C13.3334 20.5177 16.0734 17.7777 19.4445 17.7777H51.6667C55.0378 17.7777 57.7778 20.5177 57.7778 23.8888V32.7777H54.4445V23.8888C54.4445 22.3577 53.1978 21.111 51.6667 21.111H19.4445C17.9134 21.111 16.6667 22.3577 16.6667 23.8888V49.4444C16.6667 50.9755 17.9134 52.2222 19.4445 52.2222H32.2223V55.5555Z" fill="#101521"/>
<path d="M15 26.6666H56.1111V30H15V26.6666Z" fill="#101521"/>
<path d="M22.2222 15H25.5556V23.8889H22.2222V15Z" fill="#101521"/>
<path d="M45.5555 15H48.8889V23.8889H45.5555V15Z" fill="#101521"/>
<path d="M52.2222 66.6666C44.2578 66.6666 37.7778 60.1866 37.7778 52.2222C37.7778 44.2577 44.2578 37.7777 52.2222 37.7777C60.1867 37.7777 66.6667 44.2577 66.6667 52.2222C66.6667 60.1866 60.1867 66.6666 52.2222 66.6666ZM52.2222 41.111C46.0955 41.111 41.1111 46.0955 41.1111 52.2222C41.1111 58.3488 46.0955 63.3333 52.2222 63.3333C58.3489 63.3333 63.3333 58.3488 63.3333 52.2222C63.3333 46.0955 58.3489 41.111 52.2222 41.111Z" fill="#101521"/>
<path d="M50.5555 46.1111H53.8889V58.3333H50.5555V46.1111Z" fill="#101521"/>
<path d="M46.1111 50.5554H58.3333V53.8887H46.1111V50.5554Z" fill="#101521"/>
</svg>
