<svg width="80" height="80" viewBox="0 0 80 80" fill="none" xmlns="http://www.w3.org/2000/svg">
<path d="M29.8023 77.7757C43.7979 71.4223 56.7023 74.3112 63.4467 71.2512C70.1912 68.189 82.5956 57.8823 68.5134 26.8557C54.4312 -4.171 33.3112 -0.0776709 25.8912 3.289C-8.84659 19.0557 5.01341 89.0268 29.8023 77.7757Z" fill="#EFEFEF"/>
<path d="M41.6667 25.4356C41.6667 25.9467 41.3311 26.3867 40.8667 26.5378L30.0733 30.0733L26.5378 40.8667C26.3867 41.3311 25.9467 41.6667 25.4356 41.6667C24.9378 41.6667 24.52 41.3533 24.3578 40.9244L15.0822 16.5778C15.0222 16.4489 15 16.3111 15 16.16C15 15.5222 15.5222 15 16.16 15C16.3111 15 16.4489 15.0222 16.5778 15.0822L40.9267 24.3578C41.3533 24.5178 41.6667 24.9356 41.6667 25.4356Z" fill="#F3F3F1"/>
<path d="M20.0822 16.5778C20.0578 16.5244 20.06 16.46 20.0467 16.4044L16.5778 15.0822C16.4489 15.0222 16.3111 15 16.16 15C15.5222 15 15 15.5222 15 16.16C15 16.3111 15.0222 16.4489 15.08 16.5778L24.3556 40.9267C24.5178 41.3556 24.9356 41.6689 25.4333 41.6689C25.9444 41.6689 26.3844 41.3333 26.5356 40.8689L27.8289 36.92L20.0822 16.5778Z" fill="#D5DBE1"/>
<path d="M50 65C58.2843 65 65 58.2843 65 50C65 41.7157 58.2843 35 50 35C41.7157 35 35 41.7157 35 50C35 58.2843 41.7157 65 50 65Z" fill="#D2E2F4"/>
<path d="M40 50C40 42.5689 45.4089 36.4178 52.5 35.2244C51.6844 35.0867 50.8533 35 50 35C41.7156 35 35 41.7156 35 50C35 58.2844 41.7156 65 50 65C50.8533 65 51.6844 64.9111 52.5 64.7756C45.4089 63.5822 40 57.4311 40 50Z" fill="#D2E2F4"/>
<path d="M17.5 52.5H21.9444V54.7222H17.5V52.5Z" fill="#A4AFC1"/>
<path d="M4.72217 52.5H9.16661V54.7222H4.72217V52.5Z" fill="#A4AFC1"/>
<path d="M12.5 44.7223H14.7222V49.1667H12.5V44.7223Z" fill="#A4AFC1"/>
<path d="M12.5 57.5H14.7222V61.9444H12.5V57.5Z" fill="#A4AFC1"/>
<path d="M44.49 46.8578L46.847 44.5008L55.4879 53.1417L53.1308 55.4987L44.49 46.8578Z" fill="#101521"/>
<path d="M44.49 53.1422L53.1308 44.5013L55.4879 46.8583L46.847 55.4992L44.49 53.1422Z" fill="#101521"/>
<path d="M25.4356 43.3334C24.2712 43.3334 23.2112 42.6023 22.7978 41.5156L13.5245 17.1712C13.4112 16.9334 13.3334 16.56 13.3334 16.1578C13.3334 14.6 14.6023 13.3334 16.16 13.3334C16.5512 13.3334 16.92 13.4089 17.2534 13.5578L41.5178 22.7978C42.6023 23.2112 43.3334 24.2689 43.3334 25.4356C43.3334 26.66 42.5512 27.74 41.3867 28.1223L31.3934 31.3956L28.12 41.3867C27.7423 42.5467 26.6623 43.3334 25.4356 43.3334ZM17.0378 17.04L25.4 38.9823L28.4889 29.5534C28.6556 29.0489 29.0489 28.6534 29.5534 28.4889L38.9823 25.4L17.0378 17.04ZM15.9823 16.6378C15.9912 16.64 16 16.6445 16.0112 16.6467L15.9823 16.6378ZM16.5978 15.8823L16.6378 15.9867C16.6267 15.9578 16.6134 15.92 16.5978 15.8823Z" fill="#101521"/>
<path d="M50 66.6667C40.8089 66.6667 33.3334 59.1912 33.3334 50C33.3334 40.8089 40.8089 33.3334 50 33.3334C59.1912 33.3334 66.6667 40.8089 66.6667 50C66.6667 59.1912 59.1912 66.6667 50 66.6667ZM50 36.6667C42.6467 36.6667 36.6667 42.6467 36.6667 50C36.6667 57.3534 42.6467 63.3334 50 63.3334C57.3534 63.3334 63.3334 57.3534 63.3334 50C63.3334 42.6467 57.3534 36.6667 50 36.6667Z" fill="#101521"/>
</svg>
