<svg width="130" height="155" viewBox="0 0 130 155" fill="none" xmlns="http://www.w3.org/2000/svg">
<path d="M86.3354 114.75C86.365 115.009 86.3238 115.277 86.2118 115.552C86.0972 115.804 85.9458 116.048 85.7577 116.284C85.5669 116.497 85.3499 116.688 85.1065 116.859C84.8605 117.007 84.6196 117.094 84.3837 117.121C84.2186 117.139 84.0522 117.146 83.8844 117.142C83.7166 117.137 83.5501 117.144 83.385 117.163C83.1727 117.187 83.0393 117.274 82.9846 117.423C82.9273 117.549 82.8713 117.687 82.8167 117.836C82.7857 117.983 82.7179 118.122 82.6134 118.253C82.5116 118.408 82.3074 118.503 82.0007 118.538C81.812 118.559 81.6089 118.558 81.3912 118.535C81.1736 118.512 80.9586 118.513 80.7463 118.537C80.2982 118.588 79.8712 118.72 79.4655 118.934C79.086 119.168 78.6604 119.312 78.1887 119.365C77.7877 119.411 77.1782 119.409 76.3601 119.359C75.5447 119.332 74.7082 119.224 73.8504 119.036C73.0189 118.868 72.275 118.63 71.6188 118.323C70.9598 117.992 70.6008 117.567 70.5417 117.049C70.496 116.648 70.6744 116.222 71.0769 115.771C71.5002 115.293 71.9667 114.774 72.4764 114.215C72.9833 113.632 73.4246 112.997 73.8002 112.31C74.1994 111.62 74.3506 110.851 74.2539 110.003C74.1974 109.508 74.0362 109.037 73.7702 108.59C73.5278 108.14 73.2304 107.732 72.8781 107.366C72.5231 106.977 72.1249 106.629 71.6837 106.321C71.266 106.01 70.8628 105.722 70.474 105.456C70.3507 105.422 70.1711 105.419 69.9353 105.446C69.2984 105.518 68.6697 105.661 68.0489 105.875C67.4255 106.066 66.7954 106.197 66.1586 106.269C65.8284 106.307 65.481 106.299 65.1165 106.245C64.7755 106.188 64.5245 105.978 64.3636 105.614C63.7853 105.991 63.2056 106.355 62.6246 106.707C62.0409 107.036 61.4428 107.343 60.8301 107.628C60.4453 107.815 60.1625 107.954 59.9819 108.047C59.8249 108.136 59.7045 108.233 59.6209 108.338C59.5609 108.441 59.5181 108.589 59.4924 108.783C59.4903 108.974 59.4387 109.254 59.3375 109.624C59.27 109.87 59.247 110.088 59.2685 110.276C59.29 110.465 59.3142 110.677 59.341 110.912C59.376 111.219 59.3452 111.473 59.2488 111.675C59.1497 111.853 59.0387 112.033 58.916 112.214C58.8142 112.369 58.7138 112.535 58.6146 112.714C58.5155 112.892 58.4807 113.111 58.5103 113.37C58.5345 113.582 58.5914 113.767 58.6809 113.923L58.6657 114.104C58.706 114.458 58.8326 114.73 59.0455 114.92C59.2557 115.087 59.4972 115.215 59.7701 115.303C60.0639 115.365 60.3695 115.426 60.6868 115.485C61.0042 115.545 61.2889 115.632 61.5409 115.746C61.7929 115.861 62.0438 116.071 62.2937 116.377C62.5645 116.656 62.804 116.975 63.0121 117.333C63.2411 117.665 63.436 118.013 63.5969 118.377C63.7552 118.717 63.8491 119.016 63.8786 119.275L63.8988 119.452L63.4389 119.505C62.4954 119.612 61.5573 119.766 60.6246 119.968C59.7128 120.143 58.8023 120.331 57.8932 120.53C56.9867 120.752 56.0658 120.952 55.1304 121.13C54.2213 121.329 53.295 121.483 52.3515 121.59C52.0213 121.628 51.5365 121.671 50.8969 121.72C50.281 121.766 49.6597 121.765 49.033 121.717C48.409 121.693 47.8477 121.589 47.3491 121.407C46.8714 121.199 46.6057 120.859 46.5519 120.388C46.4955 119.893 46.5546 119.469 46.7293 119.115C46.9275 118.758 47.1914 118.454 47.5211 118.201C47.8716 117.923 48.2628 117.687 48.6949 117.495C49.1478 117.276 49.5902 117.071 50.0223 116.878C50.4779 116.683 50.8981 116.492 51.283 116.305C51.6914 116.115 52.0237 115.887 52.2799 115.619C52.536 115.351 52.7289 114.947 52.8585 114.407C52.9854 113.844 53.0728 113.249 53.1209 112.623C53.169 111.997 53.2066 111.384 53.2338 110.784C53.2582 110.161 53.2857 109.668 53.3162 109.307C53.3263 109.186 53.322 109.043 53.3032 108.878C53.3053 108.687 53.2956 108.497 53.2741 108.309C53.2761 108.118 53.2678 107.94 53.249 107.775C53.2538 107.607 53.2757 107.485 53.3148 107.409C53.505 106.982 53.655 106.726 53.7649 106.642C53.8984 106.555 53.986 106.485 54.0278 106.433C54.0932 106.378 54.1151 106.256 54.0936 106.067C54.093 105.852 54.0564 105.427 53.9839 104.791C53.9516 104.508 53.9864 104.289 54.0882 104.134C54.1874 103.956 54.2892 103.801 54.3937 103.67C54.5217 103.536 54.6394 103.415 54.7466 103.308C54.8511 103.176 54.8926 103.016 54.8711 102.828C54.8334 102.498 54.7055 102.214 54.4873 101.976C54.2663 101.715 54.137 101.42 54.0994 101.09C54.0779 100.901 54.1063 100.731 54.1845 100.579C54.2627 100.427 54.3541 100.285 54.4586 100.154C54.5867 100.02 54.6912 99.8885 54.7721 99.76C54.8503 99.6079 54.8787 99.4375 54.8572 99.249C54.8276 98.9898 54.7391 98.7373 54.5916 98.4915C54.4677 98.2431 54.391 97.9892 54.3614 97.73C54.3399 97.5415 54.3841 97.4052 54.494 97.3211C54.6247 97.2107 54.7582 97.1239 54.8943 97.0607C55.0541 96.9948 55.1916 96.9433 55.3068 96.9063C55.4429 96.8431 55.507 96.7761 55.4989 96.7055C55.412 96.5721 55.2743 96.5162 55.0856 96.5377C54.8025 96.5699 54.6785 96.7392 54.7134 97.0455C54.5349 96.9465 54.3786 96.833 54.2445 96.705C54.1078 96.5535 54.0286 96.3835 54.0072 96.195C53.9803 95.9593 54.0151 95.7405 54.1115 95.5386C54.2052 95.3131 54.3081 95.0627 54.4201 94.7874C54.5556 94.5094 54.6635 94.1987 54.7439 93.8554C54.8242 93.5121 54.8375 93.1048 54.7837 92.6335C54.7273 92.1387 54.6028 91.6754 54.4102 91.2438C54.2149 90.7887 54.0904 90.3254 54.0367 89.8541C54.0098 89.6185 54.0301 89.3775 54.0976 89.1311C54.1887 88.8821 54.2929 88.6434 54.4102 88.4152C54.5484 88.1608 54.6762 87.9195 54.7935 87.6913C54.9318 87.4369 55.0215 87.176 55.0627 86.9088C55.1532 86.445 55.1702 85.9656 55.1138 85.4708C55.0809 84.9733 55.0363 84.4771 54.9798 83.9822C54.947 83.4847 54.9273 82.9976 54.9207 82.521C54.9351 82.0181 55.036 81.5411 55.2235 81.0901C55.3927 80.6889 55.5229 80.3638 55.614 80.1147C55.705 79.8657 55.7857 79.6297 55.8558 79.4069C55.9233 79.1606 55.9776 78.9037 56.0188 78.6365C56.0573 78.3457 56.0865 77.9724 56.1062 77.5166C56.1462 76.8198 56.2478 76.1399 56.4111 75.4768C56.598 74.8111 56.6997 74.1311 56.7161 73.437C56.7042 72.9133 56.678 72.4746 56.6377 72.1212C56.6183 71.7415 56.6397 71.4049 56.7018 71.1114C56.7875 70.8152 56.9479 70.5463 57.1832 70.3047C57.4421 70.0604 57.8424 69.8 58.3843 69.5235C58.9734 69.2416 59.5705 69.0304 60.1757 68.8899C60.7782 68.7259 61.3861 68.6089 61.9993 68.5391C62.7069 68.4586 63.4422 68.4107 64.205 68.3955C64.3214 68.788 64.5164 69.1358 64.7899 69.4389C65.0607 69.7184 65.3433 69.9965 65.6376 70.2733C65.9556 70.5474 66.2514 70.836 66.5248 71.1391C66.8192 71.4159 67.0364 71.7492 67.1765 72.139C67.3562 72.6676 67.4861 73.1779 67.5661 73.6701C67.667 74.136 67.9212 74.5845 68.3288 75.0155C68.5234 75.2559 68.6409 75.5528 68.6812 75.9063C68.743 76.4483 68.7314 76.9747 68.6463 77.4857C68.5612 77.9966 68.5482 78.5113 68.6073 79.0297C68.6423 79.3361 68.7944 79.8319 69.0637 80.5174C69.333 81.2028 69.6444 81.9432 69.9979 82.7384C70.3487 83.51 70.6864 84.2712 71.0109 85.022C71.3328 85.7492 71.5769 86.3182 71.7432 86.7289C72.0576 87.6002 72.2685 88.5071 72.376 89.4496C72.5071 90.3895 72.7652 91.2911 73.1503 92.1543C73.5409 93.0646 73.896 93.979 74.2158 94.8974C74.5328 95.7922 74.7832 96.7305 74.9668 97.7121C75.1188 98.6257 75.3388 99.5077 75.6269 100.358C75.9124 101.185 76.2109 102.022 76.5226 102.87C76.8317 103.694 77.1184 104.533 77.383 105.386C77.6711 106.236 77.8689 107.133 77.9764 108.075C78.0167 108.429 78.0229 108.798 77.9952 109.183C77.991 109.565 77.8753 109.913 77.6481 110.225C78.2106 110.758 78.8374 111.331 79.5286 111.944C80.2434 112.555 80.9302 113.026 81.5891 113.357C81.8411 113.471 82.2188 113.536 82.7222 113.55C83.2256 113.565 83.7316 113.602 84.2404 113.664C84.7701 113.699 85.2357 113.801 85.6372 113.97C86.0597 114.113 86.2924 114.373 86.3354 114.75ZM69.3387 97.3859C69.3145 97.1739 69.2011 96.9123 68.9984 96.6012C68.7929 96.2665 68.5599 95.8992 68.2993 95.4992C68.0622 95.0965 67.8329 94.6571 67.6114 94.1811C67.3898 93.705 67.2482 93.196 67.1864 92.6541C67.1138 92.0178 66.9483 91.4041 66.6897 90.8129C66.4284 90.1982 66.2262 89.5767 66.0829 88.9485C65.9766 88.4355 65.8531 87.8767 65.7125 87.2721C65.5928 86.6412 65.4076 86.0655 65.1572 85.545C64.904 85.001 64.5567 84.575 64.1155 84.2672C63.6951 83.9331 63.1193 83.8077 62.3881 83.8909C62.3624 84.0848 62.296 84.2356 62.1888 84.3433C62.079 84.4274 61.9455 84.5142 61.7884 84.6037C61.6523 84.6669 61.5044 84.7315 61.3446 84.7974C61.1849 84.8633 61.0646 84.9606 60.9837 85.0891C61.0153 85.1571 61.0392 85.2618 61.0553 85.4032C61.1037 85.8274 61.055 86.2387 60.9093 86.6372C60.7845 87.0094 60.6729 87.3921 60.5743 87.7853C60.4549 88.2046 60.3854 88.6422 60.3657 89.098C60.3668 89.5275 60.3916 89.9543 60.44 90.3785C60.483 90.7555 60.5364 91.1194 60.6003 91.4702C60.6642 91.821 60.7163 92.1731 60.7566 92.5266C60.8184 93.0685 60.825 93.5452 60.7763 93.9565C60.725 94.3443 60.6592 94.7098 60.5788 95.0531C60.4985 95.3964 60.4287 95.7266 60.3693 96.0437C60.3072 96.3372 60.2949 96.6489 60.3325 96.9788C60.4131 97.6857 60.5066 98.2957 60.6129 98.8087C60.7192 99.3218 60.875 99.7456 61.0804 100.08C61.2832 100.391 61.5486 100.624 61.8767 100.777C62.2022 100.907 62.6361 100.942 63.1786 100.88C63.556 100.837 64.0931 100.728 64.79 100.553C65.5104 100.376 66.2123 100.141 66.8957 99.8481C67.6 99.5292 68.1915 99.1635 68.6701 98.751C69.1723 98.3358 69.3952 97.8808 69.3387 97.3859Z" fill="#E02340"/>
<path fill-rule="evenodd" clip-rule="evenodd" d="M57.1433 45.1886C52.0152 45.7815 43.6179 48.6173 38.3966 51.5199C29.494 56.4687 21.4662 64.4532 16.8005 72.9996C14.4323 77.3377 13.1888 80.5349 11.2651 87.2322C9.59676 93.0395 9.57489 105.566 11.221 112.302C13.9178 123.338 18.2906 131.225 25.9887 138.938C29.2288 142.185 32.1755 144.609 35.0622 146.4C37.6945 148.034 41.0493 149.92 41.9015 150.244C42.4684 150.46 43.427 150.865 44.0311 151.145C46.1402 152.123 50.987 153.547 54.6024 154.252C59.3431 155.177 70.9174 155.263 74.9335 154.404C81.555 152.987 84.2231 152.099 89.3967 149.588C100.441 144.23 109.198 135.457 114.645 124.294C118.74 115.901 120.001 110.21 120 100.138C119.999 93.1875 119.483 88.8137 118.188 84.768C116.954 80.9108 116.602 79.9187 115.959 78.486C115.577 77.6357 115.265 76.8349 115.265 76.7062C115.265 76.1567 111.313 69.5994 109.467 67.087C105.398 61.5456 99.252 55.9269 93.7687 52.7348C92.4662 51.9768 91.1546 51.2037 90.854 51.0167C88.5408 49.5796 82.6415 47.4027 77.4752 46.0805C74.4191 45.298 72.9016 45.1485 66.8077 45.0304C62.9002 44.9545 58.5511 45.0256 57.1433 45.1886ZM73.5516 47.3776C91.0526 50.4427 105.46 61.244 112.974 76.9323C119.025 89.5674 119.866 103.214 115.455 117.225C114.82 119.243 110.745 127.697 110.055 128.429C109.815 128.684 108.984 129.878 108.21 131.081C106.315 134.027 98.609 141.561 95.0272 143.968C85.9839 150.047 75.7172 153.197 64.986 153.185C56.8084 153.176 49.5377 151.51 42.0327 147.926C26.455 140.486 15.561 125.974 12.5275 108.623C10.085 94.6512 13.7069 79.9985 22.5694 67.9986C25.083 64.5951 31.7197 58.2256 35.1084 55.9644C46.6317 48.2753 60.7167 45.1292 73.5516 47.3776ZM55.1489 48.3738C49.2218 49.7018 46.5228 50.6487 41.2545 53.2475C36.2904 55.6961 32.5373 58.4516 28.0523 62.9403C20.1571 70.8421 15.8951 78.8659 13.454 90.4239C12.5759 94.5804 12.6605 105.637 13.6045 110.163C15.1376 117.51 18.5584 125.482 22.3584 130.564C25.82 135.193 28.7813 138.296 32.1956 140.87C33.2977 141.701 34.2814 142.475 34.3816 142.589C35.4138 143.771 41.7416 147.167 46.2226 148.945C63.8438 155.936 84.9321 152.274 99.3216 139.723C115.583 125.538 121.628 103.067 114.642 82.7665C113.787 80.2818 110.073 72.5566 109.733 72.5566C109.569 72.5566 109.435 72.375 109.435 72.1529C109.435 71.5958 104.772 65.4451 102.829 63.4384C101.497 62.0634 99.3814 60.2289 95.899 57.4288C93.576 55.5615 88.6316 52.8603 84.6603 51.289C77.403 48.4175 73.5778 47.751 64.6548 47.802C59.8743 47.8293 56.7348 48.0182 55.1489 48.3738ZM74.2766 49.8367C76.0801 50.1594 79.1952 50.9685 81.1991 51.6344C84.8676 52.8537 91.5051 56.0374 92.8579 57.2265C93.2587 57.5787 94.5703 58.5326 95.7726 59.3465C98.3106 61.0643 103.831 66.6166 106.282 69.917C107.215 71.1728 107.978 72.278 107.978 72.3728C107.978 72.468 108.491 73.3796 109.117 74.3988C110.739 77.0369 113.223 82.8307 114.145 86.1281C117.341 97.5541 116.392 110.466 111.61 120.614C111.015 121.877 110.528 122.98 110.528 123.065C110.528 123.59 106.901 129.208 104.934 131.73C97.3538 141.443 85.0432 148.577 72.6371 150.444C69.1679 150.966 60.2478 151.221 59.5949 150.817C59.4477 150.726 58.1004 150.481 56.6004 150.272C52.146 149.652 46.1931 147.657 41.7507 145.297C32.9847 140.64 26.7035 134.675 21.002 125.592C18.6382 121.826 16.0036 114.759 14.927 109.294C14.002 104.599 14.069 94.7004 15.0575 90.0593C16.3487 83.9979 16.6125 83.2595 19.7756 76.855C24.5842 67.1191 32.5916 59.2145 42.5912 54.3323C47.8406 51.7693 47.3801 51.9651 49.8703 51.2322C57.6821 48.9331 66.431 48.4328 74.2766 49.8367ZM64.0322 50.3833C63.8846 50.6221 63.9571 50.8821 64.1928 50.9605C64.4661 51.0517 64.6217 52.0085 64.6217 53.5954C64.6217 55.1823 64.4661 56.1391 64.1928 56.2303C63.2477 56.5453 64.3969 57.2418 65.8619 57.2418C67.8628 57.2418 68.6855 56.3743 68.8848 54.0548C68.997 52.7505 68.8495 52.0245 68.2906 51.1341C67.6329 50.0857 67.3597 49.949 65.9238 49.949C65.0308 49.949 64.1797 50.1444 64.0322 50.3833ZM58.2946 51.436C58.1678 52.0719 58.0636 53.5239 58.0636 54.662C58.0636 55.8 57.8668 56.9282 57.6264 57.1688C57.2864 57.5091 57.4497 57.6064 58.362 57.6064C59.4309 57.6064 59.5147 57.5258 59.3063 56.6948C59.114 55.9276 59.2058 55.7832 59.8853 55.7832C60.5648 55.7832 60.6566 55.9276 60.4642 56.6948C60.2846 57.411 60.3738 57.6053 60.8803 57.6009C61.2348 57.5977 61.7707 57.4336 62.0713 57.2363C62.5562 56.9176 62.5562 56.8378 62.0731 56.5267C61.7733 56.3342 61.1175 54.8982 60.6158 53.3361C59.6004 50.1762 58.6946 49.4345 58.2946 51.436ZM72.0742 51.5735C71.327 52.321 71.1798 52.822 71.1798 54.6164C71.1798 57.0157 71.8203 57.971 73.4292 57.971C74.4256 57.971 75.1674 57.2662 75.8458 55.6749C76.49 54.1635 76.3756 52.7206 75.5252 51.6391C74.5699 50.423 73.2485 50.3979 72.0742 51.5735ZM67.751 52.3191C68.1627 53.9611 67.2864 56.1479 66.2167 56.1479C65.8418 56.1479 65.7147 55.5477 65.7147 53.7777C65.7147 51.4976 65.7489 51.4076 66.6186 51.4076C67.2788 51.4076 67.5841 51.6533 67.751 52.3191ZM50.4125 52.2331C49.0954 52.8285 49.071 52.8763 49.8077 53.4156C50.5961 53.9925 51.2526 56.1373 51.2301 58.0622C51.2213 58.8145 51.2552 59.4296 51.3055 59.4296C51.8053 59.4296 54.0132 58.4761 54.5113 58.0451C55.1995 57.4496 55.3788 55.6038 54.7845 55.2363C54.5841 55.1123 54.4202 54.5402 54.4202 53.9644C54.4202 52.0132 52.62 51.2354 50.4125 52.2331ZM74.9856 53.1768C75.2578 54.4658 74.7543 56.1821 73.9618 56.6667C73.0408 57.2305 71.7722 55.656 72.0928 54.3476C72.7041 51.855 74.5488 51.1082 74.9856 53.1768ZM53.2062 54.1139C52.9111 54.884 51.6443 54.8479 51.3426 54.0607C50.9841 53.1265 52.2017 52.3126 52.9049 53.0167C53.192 53.3037 53.3275 53.7978 53.2062 54.1139ZM59.8798 54.2335C59.8827 54.4844 59.7213 54.6893 59.5209 54.6893C59.3205 54.6893 59.1591 54.2379 59.1621 53.6865C59.1664 52.9051 59.2459 52.8045 59.5209 53.2307C59.7151 53.5316 59.8765 53.983 59.8798 54.2335ZM44.1528 54.5201C42.7967 55.257 42.5971 56.2241 43.4234 58.0524C44.5106 60.4575 45.5475 61.3698 46.8897 61.1011C48.3842 60.8017 48.6509 60.3087 48.4716 58.176C48.3449 56.67 48.1048 56.1778 47.0034 55.1677C45.5132 53.8007 45.4874 53.7948 44.1528 54.5201ZM46.7181 56.177C47.4708 56.9858 47.9058 58.5271 47.6034 59.3155C47.4027 59.8387 46.1184 59.9485 45.417 59.5025C45.1744 59.3479 44.708 58.5804 44.3805 57.7964C43.8209 56.4552 43.8241 56.3426 44.4362 55.8948C45.3445 55.2297 45.9001 55.2986 46.7181 56.177ZM54.4202 56.6948C54.4202 57.2155 53.356 57.971 52.6226 57.971C52.0753 57.971 52.1365 55.8791 52.6896 55.6804C53.3403 55.447 54.4202 56.0797 54.4202 56.6948ZM87.5196 57.1506C87.0135 57.7023 86.2338 58.6865 85.7872 59.3384C85.3405 59.9904 84.7266 60.5235 84.4231 60.5235C83.6857 60.5235 83.9633 61.2462 84.9536 61.904C85.6924 62.3952 85.7533 62.377 85.7533 61.6619C85.7533 61.139 85.9825 60.8882 86.4605 60.8882C87.4311 60.8882 87.7258 61.4967 86.9622 61.9245C86.4324 62.2213 86.4098 62.3671 86.8172 62.8583C87.4792 63.6565 88.4075 63.6178 88.1565 62.8025C88.0482 62.4517 88.3645 61.0158 88.8589 59.6119C89.3533 58.2081 89.7585 56.8545 89.7596 56.6037C89.7621 55.8 88.4694 56.1158 87.5196 57.1506ZM37.8319 58.1898C35.706 59.2936 34.8257 60.5235 36.1618 60.5235C36.5837 60.5235 37.0733 60.9968 37.4304 61.7494C37.7499 62.4237 38.2709 63.1912 38.5882 63.4545C38.9559 63.7601 39.0877 64.2403 38.9522 64.781C38.707 65.7597 39.2914 65.8881 40.3476 65.0873C41.0184 64.5794 40.9309 63.1777 40.2547 63.596C39.7716 63.8946 39.0036 62.8065 39.2481 62.1691C39.5687 61.3323 40.4198 61.5077 41.1029 62.5513C41.5113 63.1748 41.9791 63.4476 42.5111 63.3717C43.5578 63.2226 43.6405 61.7702 42.5974 61.8625C41.7824 61.9347 40.5753 60.7047 40.5753 59.8019C40.5753 59.4664 40.2012 58.8403 39.7439 58.4104C38.9642 57.6772 38.8455 57.6637 37.8319 58.1898ZM56.7884 59.1922C47.0926 61.4307 41.3973 64.6297 34.6399 71.633C29.5833 76.8736 26.3672 83.0589 24.3014 91.5178C23.356 95.3892 23.3673 104.066 24.3233 108.109C25.2975 112.231 26.1811 114.821 27.6508 117.864C31.5678 125.974 37.469 132.122 45.3893 136.344C51.4272 139.563 55.57 140.688 62.4356 140.972C69.1453 141.25 73.2875 140.77 77.92 139.178C84.2202 137.012 89.0371 134.127 93.5363 129.825C98.9558 124.643 102.307 118.985 105.023 110.431C106.352 106.247 106.476 94.4386 105.236 90.2201C102.844 82.0817 100.813 78.1895 95.6924 71.9356C94.3917 70.3469 89.0498 65.9213 86.7589 64.5338C80.25 60.5928 73.8161 58.7346 65.8969 58.5078C61.128 58.3711 59.9676 58.4582 56.7884 59.1922ZM88.045 59.065C87.94 59.4661 87.6019 59.7942 87.2937 59.7942C86.8223 59.7942 86.8383 59.6783 87.3928 59.065C87.7553 58.6639 88.0934 58.3357 88.1437 58.3357C88.1944 58.3357 88.1495 58.6639 88.045 59.065ZM39.4095 59.5065C39.4696 59.8169 39.2466 60.343 38.9136 60.6759C38.3496 61.2404 38.276 61.2371 37.8301 60.6289C37.4289 60.0816 37.4457 59.8723 37.935 59.3297C38.597 58.5953 39.2477 58.6733 39.4095 59.5065ZM93.1005 59.5208C93.3188 60.5964 91.2479 63.2955 89.7654 63.868L88.8585 64.218L89.7654 64.9145C90.7793 65.6937 91.4493 65.6522 91.3047 64.819C91.1306 63.818 92.1609 63.3167 93.4609 63.7703C94.4788 64.1254 94.732 64.0766 95.4724 63.3805C96.6408 62.2818 96.5351 61.5183 95.0312 60.1968C93.6806 59.0099 92.9446 58.7521 93.1005 59.5208ZM69.1759 60.7066C72.0687 60.9184 76.1282 61.8096 78.2844 62.7062C84.7852 65.41 88.938 68.1474 93.0841 72.4622C98.7638 78.373 101.931 84.3359 103.595 92.2471C104.893 98.4244 104.45 105.549 102.34 112.429C101.757 114.33 99.408 119.179 98.7806 119.777C98.5255 120.021 98.4559 120.021 98.5714 119.777C101.327 113.972 101.699 113.009 102.871 108.663C103.935 104.714 103.922 95.6678 102.846 91.2917C101.472 85.7077 98.7314 79.8129 95.8841 76.3189C94.7572 74.9359 90.2292 70.4257 88.7325 69.1954C82.8185 64.3344 73.7021 61.2667 65.1682 61.2659C54.9467 61.2648 45.7464 64.8839 38.2283 71.8627C34.147 75.6509 29.7403 82.7122 28.1234 88.0538C25.7184 95.9996 25.8233 105.42 28.3959 112.486C28.9063 113.889 29.4251 115.365 29.5483 115.766C29.9633 117.117 32.8601 121.742 34.8523 124.233C39.1198 129.571 44.1579 133.361 50.2551 135.821C56.1483 138.199 58.7882 138.64 66.2991 138.499C70.6245 138.418 72.6404 138.491 71.9955 138.704C71.4468 138.886 68.3744 139.05 65.1682 139.069C60.7331 139.095 58.6851 138.947 56.6062 138.45C48.8145 136.59 42.9115 133.291 37.2679 127.644C30.3152 120.688 26.5341 112.788 25.7358 103.551C24.8858 93.717 27.2817 84.8891 32.9905 76.8189C38.1102 69.5819 45.8276 64.2552 54.9667 61.651C57.3305 60.9775 64.0977 60.141 65.3503 60.3675C65.6509 60.4218 67.3724 60.5746 69.1759 60.7066ZM94.8577 61.4304C95.3168 61.9843 95.1317 63.076 94.5787 63.076C94.41 63.076 93.9604 62.8477 93.5789 62.5684C92.9898 62.1374 92.9584 61.973 93.3716 61.4745C93.9749 60.747 94.2835 60.7379 94.8577 61.4304ZM31.3146 63.4632C30.0303 64.5918 29.5348 65.7878 30.5058 65.4152C31.0497 65.2062 34.3703 68.4384 34.3772 69.1837C34.383 69.7926 34.5984 69.7587 35.4706 69.0116C36.408 68.2079 36.3957 67.8958 35.4207 67.7507C34.2326 67.5734 33.7527 66.5703 34.4989 65.8235C35.6039 64.7176 35.044 63.0355 33.4095 62.5509C32.8328 62.3799 32.2673 62.626 31.3146 63.4632ZM71.3619 63.2645C72.965 63.5303 75.1219 63.9876 76.1548 64.2811C80.4376 65.4983 86.8667 69.2727 90.7214 72.8334C92.6699 74.6332 97.4121 80.7045 97.4121 81.3987C97.4121 81.6179 97.6336 82.0565 97.9047 82.373C98.7194 83.3251 100.742 88.5898 101.478 91.6743C102.474 95.8443 102.449 104.21 101.43 108.432C98.0584 122.391 87.3979 133.011 73.3658 136.391C69.1081 137.416 60.9714 137.438 56.7884 136.435C53.6817 135.691 48.4221 133.667 47.469 132.85C47.1527 132.579 46.7228 132.357 46.5137 132.357C45.8681 132.357 39.8292 127.682 38.1332 125.869C37.25 124.925 36.0113 123.415 35.3806 122.512C34.7499 121.61 34.0595 120.693 33.8464 120.475C33.1035 119.714 29.968 113.126 29.4197 111.171C27.1695 103.157 27.3171 95.2393 29.8569 87.6891C32.7428 79.111 39.1235 71.7161 47.8621 66.823C51.3758 64.8554 58.6079 62.8893 63.3465 62.614C65.3995 62.4944 67.9769 62.7037 71.3619 63.2645ZM33.8963 64.016C34.0176 64.3322 33.8486 64.8598 33.5207 65.188C32.9683 65.7404 32.8802 65.7404 32.3278 65.188C31.5831 64.4423 31.9249 63.4406 32.9242 63.4406C33.3378 63.4406 33.775 63.6995 33.8963 64.016ZM98.5051 64.3847C98.5051 65.1836 95.9482 67.8163 95.1725 67.8163C94.1378 67.8163 94.0187 68.5168 94.9251 69.273C95.9843 70.1566 96.3158 70.1784 96.3307 69.366C96.3369 69.0149 96.5475 68.4581 96.7982 68.1281C97.1942 67.6074 97.3462 67.5953 97.9495 68.0369C99.5588 69.2147 101.674 68.1594 101.237 66.3964C100.79 64.5943 98.5051 62.9112 98.5051 64.3847ZM100.157 67.0462C99.8703 67.9519 99.6178 67.9953 98.6705 67.3022C97.9779 66.7953 97.9779 66.7774 98.6676 66.0146C99.2721 65.3466 99.4378 65.3116 99.8845 65.7586C100.2 66.0748 100.307 66.5762 100.157 67.0462ZM26.5308 68.4165C26.0397 68.947 25.6375 69.5214 25.6375 69.6927C25.6375 69.8641 25.6389 70.1256 25.6408 70.2736C25.6422 70.422 25.8473 70.5453 26.0962 70.5471C26.8955 70.554 29.9808 73.0817 29.9953 73.7417C30.0135 74.5636 30.4686 74.553 31.2282 73.7129C32.0597 72.7933 32.0021 72.0622 31.116 72.2941C30.0354 72.577 29.4244 71.6454 29.9928 70.5821C30.4744 69.6814 30.2216 68.2032 29.5049 67.7306C28.6768 67.1847 27.3987 67.4794 26.5308 68.4165ZM29.2809 69.4801C29.2809 70.1598 28.6691 70.4552 27.8202 70.1854C26.9422 69.9064 26.9043 69.5177 27.68 68.7414C28.1317 68.2892 28.3809 68.252 28.773 68.5777C29.0524 68.8096 29.2809 69.2158 29.2809 69.4801ZM103.56 69.0925C103.535 69.1928 103.494 69.4098 103.469 69.5742C103.334 70.4639 100.057 72.6664 99.2021 72.4428C98.3627 72.223 98.2548 73.0875 99.0258 73.8587C99.7614 74.5953 100.327 74.5049 100.327 73.6505C100.327 73.2494 100.477 72.9212 100.661 72.9212C100.845 72.9212 101.254 72.8221 101.569 72.701C102.665 72.2802 102.695 73.6604 101.608 74.5275C100.823 75.1543 100.656 75.5167 100.858 76.1538C101.167 77.1299 102.359 77.0533 102.274 76.063C102.205 75.248 103.385 74.017 104.243 74.0097C106.112 73.9933 106.625 72.029 105.236 70.2072C104.345 69.0375 103.684 68.5977 103.56 69.0925ZM104.626 71.171C105.23 71.7755 105.175 72.9212 104.543 72.9212C104.257 72.9212 103.759 72.6576 103.437 72.3356C102.985 71.8835 102.948 71.6341 103.274 71.2417C103.79 70.6193 104.061 70.6051 104.626 71.171ZM22.3632 74.2886C22.3657 74.6398 23.3443 75.8037 24.5379 76.8754C25.7311 77.9471 26.6718 78.9316 26.6281 79.0632C26.404 79.736 27.2624 79.5547 27.7452 78.8273C28.2651 78.0437 28.2501 77.974 27.5164 77.7822C26.67 77.5605 26.4682 76.7729 27.1502 76.351C27.3808 76.2085 27.7667 76.3612 28.0075 76.6909C28.4086 77.2397 28.5008 77.2287 29.1038 76.5622C29.8864 75.6965 29.6754 75.3971 28.201 75.2808C27.5991 75.2334 26.3676 74.8473 25.4651 74.4228C23.442 73.4711 22.3566 73.4241 22.3632 74.2886ZM26.0018 75.8384C26.0018 76.0389 25.8477 76.203 25.659 76.203C25.4702 76.203 25.2148 76.0389 25.091 75.8384C24.9671 75.6378 25.1216 75.4737 25.4338 75.4737C25.746 75.4737 26.0018 75.6378 26.0018 75.8384ZM105.197 76.8929C102.919 78.3022 102.318 80.0189 103.64 81.3422C104.566 82.2684 106.412 82.0635 108.231 80.8328C109.953 79.6678 110.382 78.4929 109.512 77.3224C108.613 76.1118 106.758 75.9273 105.197 76.8929ZM108.547 78.0958C109.07 79.7455 105.071 81.9727 104.457 80.373C104.14 79.5464 104.925 78.0583 105.88 77.6739C107.33 77.0909 108.275 77.2408 108.547 78.0958ZM111.257 82.8766C111.257 83.4615 107.907 84.7089 106.448 84.6674C105.434 84.6385 105.393 84.6962 105.629 85.7985C105.766 86.4373 106.019 87.2282 106.19 87.556C106.663 88.4607 108.274 88.7291 109.279 88.0705C109.752 87.7606 110.542 87.5068 111.036 87.5068C111.973 87.5068 113.079 86.6608 113.079 85.9432C113.079 85.1873 111.893 82.4019 111.572 82.4019C111.399 82.4019 111.257 82.6155 111.257 82.8766ZM111.621 85.4798C111.621 86.6791 111.124 86.9088 110.359 86.0625C109.633 85.2603 109.886 84.5897 110.914 84.5897C111.421 84.5897 111.621 84.8417 111.621 85.4798ZM108.889 86.418C108.889 87.6869 107.378 87.9137 106.928 86.7119C106.688 86.0701 106.754 85.805 107.204 85.614C108.25 85.168 108.889 85.4725 108.889 86.418ZM107.025 91.5824C107.29 92.9075 107.639 93.3669 107.876 92.7029C108.146 91.9466 109.071 92.1913 109.071 93.019C109.071 93.6112 108.902 93.7465 108.342 93.5999C107.774 93.4511 107.614 93.589 107.614 94.226C107.614 95.2896 107.986 95.6382 108.488 95.0439C108.709 94.7835 110.077 94.1932 111.53 93.7323C113.526 93.0989 114.172 92.7332 114.172 92.2351C114.172 91.4431 112.973 91.128 110.23 91.1995C109.165 91.2268 108.107 91.0638 107.88 90.8367C107.14 90.0954 106.789 90.4009 107.025 91.5824ZM111.621 92.6117C110.908 93.0726 110.164 93.0726 110.164 92.6117C110.164 92.4112 110.615 92.2497 111.166 92.2526C111.947 92.2569 112.047 92.3364 111.621 92.6117ZM15.8692 94.8138C14.8086 95.8027 14.8618 97.0275 16.012 98.109C16.7673 98.819 17.3389 98.9929 18.9183 98.9929C20.5604 98.9929 21.0439 98.8332 21.852 98.0248C23.7589 96.1163 21.9926 94.0703 18.4374 94.0703C17.1586 94.0703 16.4449 94.277 15.8692 94.8138ZM21.0224 95.954C21.8746 97.3065 19.9808 98.357 17.7612 97.763C16.9079 97.5347 16.7112 97.2824 16.7112 96.4178C16.7112 95.5241 16.8861 95.321 17.8042 95.1485C19.2029 94.8864 20.5641 95.2269 21.0224 95.954ZM113.885 97.2007C113.592 97.724 113.113 97.7914 110.759 97.6401L107.978 97.4614V98.9911C107.978 101.448 110.111 102.648 112.863 101.739C114.441 101.218 115.265 100.138 115.265 98.5918C115.265 97.1573 114.398 96.2833 113.885 97.2007ZM113.807 99.3317C113.807 100.259 112.696 100.998 111.304 100.998C109.819 100.998 109.071 100.485 109.071 99.467C109.071 98.9021 109.401 98.8106 111.439 98.8106C113.249 98.8106 113.807 98.9335 113.807 99.3317ZM16.0321 102.324C15.3894 102.967 15.0717 103.677 15.0717 104.468C15.0717 105.801 16.0248 106.92 16.5021 106.147C16.6569 105.896 17.7514 105.557 18.9337 105.394C20.6468 105.158 21.1448 105.204 21.386 105.621C21.6217 106.028 21.8028 106.049 22.2058 105.714C22.9559 105.091 22.8394 103.433 21.9675 102.324C21.3073 101.483 20.9481 101.363 19.1027 101.363C17.3087 101.363 16.8489 101.507 16.0321 102.324ZM20.4555 102.66C21.4407 103.35 21.5164 104.28 20.5877 104.28C20.2147 104.28 19.149 104.384 18.2195 104.512C16.5895 104.736 16.529 104.711 16.529 103.813C16.529 103.13 16.7953 102.785 17.5309 102.516C18.969 101.991 19.5406 102.019 20.4555 102.66ZM108.104 104.816C107.008 105.585 106.839 106.675 107.654 107.714C109.016 109.445 112.443 109.819 113.87 108.391C114.459 107.801 114.529 107.454 114.265 106.433C114.073 105.692 113.586 105.011 113.056 104.741C111.837 104.123 109.032 104.166 108.104 104.816ZM111.902 105.4C113.201 105.853 113.465 106.332 113.043 107.471C112.469 109.016 108.342 108.285 108.342 106.638C108.342 106.156 109.731 105.06 110.383 105.028C110.603 105.018 111.287 105.185 111.902 105.4ZM21.9941 107.897C21.9941 108.115 20.7524 108.867 19.235 109.568C17.1404 110.536 16.5064 110.998 16.603 111.482C16.7126 112.029 17.1692 112.12 19.8179 112.12C21.5157 112.12 23.1101 112.253 23.3604 112.415C23.9054 112.768 23.991 111.321 23.4737 110.502C23.1924 110.058 23.0521 110.054 22.5406 110.479C22.0302 110.903 21.891 110.902 21.6261 110.473C21.1805 109.751 21.5678 109.316 22.4164 109.586C23.0372 109.783 23.1246 109.671 23.0233 108.808C22.9119 107.859 21.9941 107.046 21.9941 107.897ZM20.5367 110.479C20.5367 110.68 20.2496 110.841 19.8991 110.838C19.3541 110.833 19.341 110.781 19.8081 110.479C20.4956 110.034 20.5367 110.034 20.5367 110.479ZM21.4979 115.037C21.3827 115.338 20.8985 115.584 20.4223 115.584C19.4503 115.584 18.3507 116.609 18.3507 117.515C18.3507 118.303 19.4969 120.689 19.8755 120.689C20.0387 120.689 20.1724 120.465 20.1724 120.193C20.1724 119.633 23.7764 118.136 25.1234 118.136C25.6065 118.136 26.0018 117.964 26.0018 117.754C26.0018 117.189 24.8713 115.079 24.4024 114.769C23.6708 114.285 21.7176 114.465 21.4979 115.037ZM24.1674 115.925C24.6793 116.882 24.6596 116.955 23.7535 117.44C23.101 117.79 22.8805 117.751 22.4925 117.22C22.161 116.767 22.1293 116.377 22.3854 115.898C22.8558 115.019 23.6894 115.031 24.1674 115.925ZM21.206 117.55C21.3543 118.32 20.6664 118.893 19.9323 118.61C19.4153 118.412 19.2685 117.339 19.6991 116.908C20.1513 116.456 21.0709 116.848 21.206 117.55ZM103.983 117.748C103.42 118.8 103.522 119.23 104.335 119.23C105.131 119.23 105.228 119.499 104.721 120.301C104.437 120.75 104.303 120.752 103.776 120.314C103.243 119.871 103.097 119.895 102.656 120.499C101.974 121.432 102.016 121.912 102.755 121.628C103.089 121.5 104.555 121.75 106.013 122.183C110.29 123.454 110.946 122.703 107.705 120.247C106.552 119.375 105.448 118.297 105.25 117.852C104.808 116.857 104.474 116.83 103.983 117.748ZM97.9448 121.327C95.2512 125.521 90.6813 130.092 86.3909 132.883C84.6577 134.011 85.3041 133.179 87.1196 131.946C89.6422 130.232 95.0789 124.847 96.7359 122.421C98.163 120.331 99.169 119.421 97.9448 121.327ZM24.3299 121.378C23.0529 122.158 21.6298 123.831 21.6298 124.553C21.6298 125.411 23.1804 126.523 24.3765 126.523C25.0786 126.523 26.1184 126.095 27.0402 125.427C28.374 124.46 28.5522 124.161 28.5522 122.887C28.5522 121.834 28.362 121.342 27.8476 121.066C26.7953 120.503 25.5894 120.61 24.3299 121.378ZM107.067 121.054C107.191 121.254 107.046 121.418 106.746 121.418C106.445 121.418 106.098 121.254 105.974 121.054C105.85 120.853 105.995 120.689 106.295 120.689C106.596 120.689 106.943 120.853 107.067 121.054ZM27.3852 122.724C27.5677 124.002 26.3308 125.145 24.7066 125.199C23.5017 125.239 23.2514 125.122 23.1592 124.475C23.007 123.406 25.0596 121.708 26.3261 121.855C26.9659 121.929 27.3123 122.213 27.3852 122.724ZM100.706 123.773C99.8532 124.681 100.001 125.632 100.94 125.272C101.757 124.958 102.903 125.893 102.494 126.541C102.02 127.292 102.07 128.851 102.586 129.367C103.564 130.347 105.077 129.743 106.252 127.903C107.039 126.672 107.039 126.56 106.247 126.604C105.285 126.658 101.724 124.289 101.936 123.737C102.269 122.868 101.535 122.89 100.706 123.773ZM29.6452 125.827C29.243 126.112 29.2167 126.262 29.545 126.396C30.2711 126.692 28.5624 128.711 27.5856 128.711C26.7662 128.711 26.0018 129.639 26.0018 130.634C26.0018 131.221 28.1197 133.816 28.5985 133.816C28.7733 133.816 28.9165 133.502 28.9165 133.118C28.9165 132.123 32.5082 129.308 33.1246 129.82C34.0056 130.552 34.1244 129.419 33.2631 128.502C32.267 127.44 31.8312 127.379 31.8312 128.302C31.8312 129.177 30.9113 129.949 30.1964 129.675C29.4262 129.379 29.5097 128.625 30.3972 127.864C31.6516 126.789 30.9546 124.902 29.6452 125.827ZM104.578 127.08C105.278 127.78 104.95 128.711 104.003 128.711C103.076 128.711 102.889 128.36 103.272 127.344C103.638 126.375 103.835 126.335 104.578 127.08ZM96.8864 128.792C96.1041 129.91 96.1712 130.17 97.2412 130.17C98.4417 130.17 98.7183 130.964 97.9346 132.16C96.3716 134.548 99.4757 136.037 101.534 133.887C102.572 132.802 102.847 131.786 102.016 132.106C101.339 132.365 98.1408 129.53 98.1408 128.671C98.1408 127.746 97.5804 127.8 96.8864 128.792ZM29.2597 130.326C29.6062 130.744 29.5377 130.931 28.9169 131.263C28.0538 131.725 27.0948 131.222 27.0948 130.307C27.0948 129.643 28.7045 129.657 29.2597 130.326ZM100.415 132.498C101.016 132.955 101.014 133.011 100.386 133.58C99.1839 134.669 98.1404 134.085 98.8655 132.73C99.3231 131.874 99.549 131.84 100.415 132.498ZM36.2033 133.042C36.2033 134.283 35.3303 134.636 34.0424 133.915C32.8893 133.27 32.8856 133.271 31.9948 134.292C31.504 134.855 31.1025 135.464 31.1025 135.647C31.1025 136.233 33.3454 138.556 33.912 138.556C34.2348 138.556 34.3783 138.344 34.2614 138.039C34.1524 137.755 34.4752 137.058 34.9787 136.489C35.4823 135.922 36.1464 135.088 36.455 134.636C36.7633 134.185 37.3247 133.816 37.7025 133.816C38.5602 133.816 38.5769 133.492 37.7517 132.865C36.842 132.174 36.2033 132.247 36.2033 133.042ZM92.3748 133.201C91.4038 134.236 91.3787 134.545 92.2669 134.545C93.3184 134.545 93.9709 135.503 93.3938 136.199C92.9858 136.691 92.7996 136.625 91.8552 135.659C90.9695 134.752 90.6555 134.626 90.0667 134.941C89.1744 135.419 89.3449 136.543 90.3144 136.573C91.5601 136.612 92.3114 137.145 92.3114 137.992C92.3114 138.969 93.3716 140.018 94.344 140.005C95.3124 139.991 97.5895 138.045 97.2602 137.512C97.1159 137.277 96.855 137.174 96.6809 137.281C96.5067 137.389 96.0673 137.054 95.7041 136.535C95.3408 136.017 94.6577 135.108 94.1855 134.515C93.4885 133.639 93.4113 133.335 93.7749 132.897C94.547 131.966 93.275 132.243 92.3748 133.201ZM85.0246 133.606C85.0246 133.919 80.8551 136.01 80.4868 135.883C80.2773 135.81 81.1717 135.241 82.4742 134.616C85.0938 133.362 85.0246 133.389 85.0246 133.606ZM33.8234 135.039C34.4348 135.486 34.4464 135.605 33.9499 136.315C33.4063 137.092 33.3968 137.092 32.7545 136.382C32.3985 135.988 32.2039 135.414 32.322 135.106C32.5865 134.416 32.9501 134.4 33.8234 135.039ZM41.2359 137.189C41.1226 138.365 41.1087 138.373 39.3756 138.251C36.2357 138.03 35.5395 139.868 38.0184 141.833C39.3176 142.863 40.5659 143.072 40.0066 142.167C39.6871 141.649 41.5554 138.647 42.6397 137.936L43.5775 137.321L42.7647 136.662C41.6279 135.741 41.3667 135.831 41.2359 137.189ZM79.7235 136.321C79.2061 136.794 74.7936 138.196 73.9327 138.161C73.5206 138.143 74.4952 137.675 76.0983 137.118C79.2138 136.038 80.2915 135.801 79.7235 136.321ZM95.5904 137.922C95.5904 138.476 94.4147 139.231 93.8751 139.024C93.2368 138.778 93.2834 138.2 94.0063 137.401C94.4635 136.895 94.7258 136.834 95.0993 137.144C95.3693 137.368 95.5904 137.719 95.5904 137.922ZM85.0388 137.896C84.1564 138.844 84.1152 139.493 84.829 141.203C85.3733 142.506 87.2842 144.39 88.0621 144.39C88.6811 144.39 90.4897 142.631 90.4897 142.029C90.4897 140.217 88.0333 137.098 86.6069 137.098C86.153 137.098 85.4472 137.457 85.0388 137.896ZM44.7357 139.194C44.7193 139.746 44.4399 141.147 44.1145 142.307C43.505 144.481 43.5921 145.484 44.3903 145.484C44.8093 145.484 45.6411 144.403 47.2657 141.747C47.6031 141.195 48.1113 140.744 48.3955 140.744C49.1493 140.744 49.4954 139.986 48.9107 139.615C48.0782 139.087 47.0296 139.218 47.2606 139.821C47.5142 140.482 47.0289 140.821 46.2554 140.524C45.5795 140.264 45.4823 139.411 46.1049 139.203C46.7072 139.002 46.1271 138.192 45.3813 138.192C44.9594 138.192 44.7558 138.507 44.7357 139.194ZM88.2949 139.54C89.248 140.752 89.1817 142.681 88.1801 142.871C86.8474 143.124 84.8643 140.065 85.5941 138.883C86.0127 138.206 87.5382 138.577 88.2949 139.54ZM39.4976 139.486C39.8846 139.953 39.8609 140.157 39.3599 140.658C38.8145 141.204 38.6975 141.209 38.1937 140.705C37.5787 140.089 37.8224 138.921 38.566 138.921C38.8203 138.921 39.2397 139.175 39.4976 139.486ZM80.2882 139.908C78.4097 140.595 77.4424 143.024 78.6487 144.026C78.9493 144.276 79.1952 144.844 79.1952 145.29C79.1952 146.231 80.2398 147.309 81.0238 147.177C81.8581 147.036 84.2959 146.174 84.2959 146.02C84.2959 145.944 83.8963 145.482 83.4073 144.993C82.8364 144.421 82.3547 143.307 82.0593 141.877C81.6115 139.707 81.4198 139.494 80.2882 139.908ZM81.1936 142.941C80.8322 143.526 79.1912 143.345 78.9409 142.693C78.7915 142.304 79.0145 141.842 79.5676 141.393C80.4227 140.701 80.4278 140.702 80.9196 141.641C81.1914 142.16 81.3146 142.745 81.1936 142.941ZM45.6761 142.203C45.4615 142.604 45.2254 142.932 45.1507 142.932C45.0764 142.932 45.1015 142.604 45.2061 142.203C45.311 141.802 45.5475 141.473 45.7315 141.473C45.9162 141.473 45.8914 141.8 45.6761 142.203ZM73.8872 142.243C73.7494 142.466 73.8613 142.788 74.136 142.957C74.5178 143.194 74.5346 143.367 74.207 143.694C73.5582 144.344 72.659 143.838 72.89 142.954C73.0514 142.336 72.9166 142.203 72.1332 142.203C71.1878 142.203 70.7611 143.096 71.5769 143.368C71.7951 143.441 72.3704 144.635 72.855 146.023C74.3211 150.218 75.3594 150.182 75.393 145.936C75.4079 144.075 75.5923 142.775 75.8932 142.413C76.3093 141.911 76.2284 141.838 75.2534 141.838C74.6399 141.838 74.0249 142.02 73.8872 142.243ZM58.6097 143.149C56.9917 144.896 57.0722 149.16 58.731 149.58C59.8824 149.872 61.5751 149.164 62.0105 148.207C62.8688 146.322 62.4025 143.74 61.01 142.67C60.1341 141.997 59.5727 142.109 58.6097 143.149ZM66.8398 142.855C65.0607 143.144 64.2956 145.106 64.9762 147.635C65.432 149.329 66.4077 150.029 68.2195 149.961C69.8401 149.9 70.4533 149.297 69.5599 148.644C68.9824 148.221 68.9147 147.776 69.0666 145.406C69.2597 142.396 69.3103 142.454 66.8398 142.855ZM61.1364 144.821C61.4865 145.655 61.523 146.269 61.265 147.009C60.818 148.292 60.4449 148.529 59.318 148.247C58.5292 148.049 58.4279 147.824 58.4279 146.28C58.4279 145.321 58.6247 144.339 58.8651 144.099C59.6605 143.303 60.6278 143.61 61.1364 144.821ZM67.9007 146.192C67.9007 147.384 67.7266 148.466 67.5134 148.598C66.7917 149.044 65.7147 147.627 65.7147 146.23C65.7147 144.773 66.2331 144.026 67.2449 144.026C67.8027 144.026 67.9007 144.349 67.9007 146.192ZM82.0414 145.216C82.1981 146.029 81.1743 146.434 80.4613 145.841C80.0372 145.489 80.0102 145.273 80.3414 144.873C80.8956 144.205 81.8855 144.405 82.0414 145.216ZM74.4533 145.758C74.449 146.539 74.3695 146.64 74.0945 146.214C73.6339 145.5 73.6339 144.755 74.0945 144.755C74.2948 144.755 74.4563 145.207 74.4533 145.758Z" fill="#E02340"/>
<path d="M3.9375 17.5508C3.30469 17.5508 2.78516 17.3711 2.37891 17.0117C1.98047 16.6523 1.78125 16.1992 1.78125 15.6523C1.78125 15.0898 1.98047 14.625 2.37891 14.2578C2.78516 13.8906 3.30469 13.707 3.9375 13.707C4.55469 13.707 5.0625 13.8945 5.46094 14.2695C5.86719 14.6445 6.07031 15.1055 6.07031 15.6523C6.07031 16.2148 5.86719 16.6719 5.46094 17.0234C5.0625 17.375 4.55469 17.5508 3.9375 17.5508ZM5.90625 30.7812H2.01562L2.44922 19.1797H5.44922L5.90625 30.7812ZM13.5586 26H9.77344V9.19531H13.5586V26ZM28.6172 26H24.9258V19.332C24.9258 17.4727 24.2617 16.543 22.9336 16.543C22.293 16.543 21.7656 16.7891 21.3516 17.2812C20.9375 17.7734 20.7305 18.3984 20.7305 19.1562V26H17.0273V14H20.7305V15.8984H20.7773C21.6602 14.4375 22.9453 13.707 24.6328 13.707C27.2891 13.707 28.6172 15.3555 28.6172 18.6523V26ZM40.6523 25.5664C39.8164 26.0508 38.6094 26.293 37.0312 26.293C35.1875 26.293 33.6953 25.7344 32.5547 24.6172C31.4141 23.5 30.8438 22.0586 30.8438 20.293C30.8438 18.2539 31.4531 16.6484 32.6719 15.4766C33.8984 14.2969 35.5352 13.707 37.582 13.707C38.9961 13.707 40.0195 13.8945 40.6523 14.2695V17.4102C39.8789 16.832 39.0156 16.543 38.0625 16.543C37 16.543 36.1562 16.8555 35.5312 17.4805C34.9141 18.0977 34.6055 18.9531 34.6055 20.0469C34.6055 21.1094 34.9023 21.9453 35.4961 22.5547C36.0898 23.1562 36.9062 23.457 37.9453 23.457C38.8672 23.457 39.7695 23.168 40.6523 22.5898V25.5664ZM48.8086 26.293C46.8086 26.293 45.2344 25.7344 44.0859 24.6172C42.9453 23.4922 42.375 21.9688 42.375 20.0469C42.375 18.0625 42.9688 16.5117 44.1562 15.3945C45.3438 14.2695 46.9492 13.707 48.9727 13.707C50.9648 13.707 52.5273 14.2695 53.6602 15.3945C54.793 16.5117 55.3594 17.9922 55.3594 19.8359C55.3594 21.8281 54.7734 23.4023 53.6016 24.5586C52.4375 25.7148 50.8398 26.293 48.8086 26.293ZM48.9023 16.543C48.0273 16.543 47.3477 16.8438 46.8633 17.4453C46.3789 18.0469 46.1367 18.8984 46.1367 20C46.1367 22.3047 47.0664 23.457 48.9258 23.457C50.6992 23.457 51.5859 22.2734 51.5859 19.9062C51.5859 17.6641 50.6914 16.543 48.9023 16.543ZM65.5898 17.3398C65.1445 17.0977 64.625 16.9766 64.0312 16.9766C63.2266 16.9766 62.5977 17.2734 62.1445 17.8672C61.6914 18.4531 61.4648 19.2539 61.4648 20.2695V26H57.7617V14H61.4648V16.2266H61.5117C62.0977 14.6016 63.1523 13.7891 64.6758 13.7891C65.0664 13.7891 65.3711 13.8359 65.5898 13.9297V17.3398ZM75.1523 17.3398C74.707 17.0977 74.1875 16.9766 73.5938 16.9766C72.7891 16.9766 72.1602 17.2734 71.707 17.8672C71.2539 18.4531 71.0273 19.2539 71.0273 20.2695V26H67.3242V14H71.0273V16.2266H71.0742C71.6602 14.6016 72.7148 13.7891 74.2383 13.7891C74.6289 13.7891 74.9336 13.8359 75.1523 13.9297V17.3398ZM87.5742 21.0547H79.7461C79.8711 22.7969 80.9688 23.668 83.0391 23.668C84.3594 23.668 85.5195 23.3555 86.5195 22.7305V25.4023C85.4102 25.9961 83.9688 26.293 82.1953 26.293C80.2578 26.293 78.7539 25.7578 77.6836 24.6875C76.6133 23.6094 76.0781 22.1094 76.0781 20.1875C76.0781 18.1953 76.6562 16.6172 77.8125 15.4531C78.9688 14.2891 80.3906 13.707 82.0781 13.707C83.8281 13.707 85.1797 14.2266 86.1328 15.2656C87.0938 16.3047 87.5742 17.7148 87.5742 19.4961V21.0547ZM84.1406 18.7812C84.1406 17.0625 83.4453 16.2031 82.0547 16.2031C81.4609 16.2031 80.9453 16.4492 80.5078 16.9414C80.0781 17.4336 79.8164 18.0469 79.7227 18.7812H84.1406ZM98.8711 25.5664C98.0352 26.0508 96.8281 26.293 95.25 26.293C93.4062 26.293 91.9141 25.7344 90.7734 24.6172C89.6328 23.5 89.0625 22.0586 89.0625 20.293C89.0625 18.2539 89.6719 16.6484 90.8906 15.4766C92.1172 14.2969 93.7539 13.707 95.8008 13.707C97.2148 13.707 98.2383 13.8945 98.8711 14.2695V17.4102C98.0977 16.832 97.2344 16.543 96.2812 16.543C95.2188 16.543 94.375 16.8555 93.75 17.4805C93.1328 18.0977 92.8242 18.9531 92.8242 20.0469C92.8242 21.1094 93.1211 21.9453 93.7148 22.5547C94.3086 23.1562 95.125 23.457 96.1641 23.457C97.0859 23.457 97.9883 23.168 98.8711 22.5898V25.5664ZM108.562 25.8594C108.016 26.1484 107.191 26.293 106.09 26.293C103.48 26.293 102.176 24.9375 102.176 22.2266V16.7305H100.23V14H102.176V11.4102L105.867 10.3555V14H108.562V16.7305H105.867V21.582C105.867 22.832 106.363 23.457 107.355 23.457C107.746 23.457 108.148 23.3438 108.562 23.1172V25.8594ZM120.645 26H117.141V24.2773H117.094C116.289 25.6211 115.098 26.293 113.52 26.293C112.355 26.293 111.438 25.9648 110.766 25.3086C110.102 24.6445 109.77 23.7617 109.77 22.6602C109.77 20.332 111.148 18.9883 113.906 18.6289L117.164 18.1953C117.164 16.8828 116.453 16.2266 115.031 16.2266C113.602 16.2266 112.242 16.6523 110.953 17.5039V14.7148C111.469 14.4492 112.172 14.2148 113.062 14.0117C113.961 13.8086 114.777 13.707 115.512 13.707C118.934 13.707 120.645 15.4141 120.645 18.8281V26ZM117.164 21.125V20.3164L114.984 20.5977C113.781 20.7539 113.18 21.2969 113.18 22.2266C113.18 22.6484 113.324 22.9961 113.613 23.2695C113.91 23.5352 114.309 23.668 114.809 23.668C115.504 23.668 116.07 23.4297 116.508 22.9531C116.945 22.4688 117.164 21.8594 117.164 21.125ZM127.875 9.19531L127.418 20.7734H124.418L123.984 9.19531H127.875ZM125.953 26.2695C125.328 26.2695 124.812 26.082 124.406 25.707C124 25.3242 123.797 24.8633 123.797 24.3242C123.797 23.7617 124 23.3008 124.406 22.9414C124.82 22.582 125.336 22.4023 125.953 22.4023C126.578 22.4023 127.09 22.5859 127.488 22.9531C127.887 23.3125 128.086 23.7695 128.086 24.3242C128.086 24.8867 127.887 25.3516 127.488 25.7188C127.098 26.0859 126.586 26.2695 125.953 26.2695Z" fill="#E02340"/>
</svg>
