<svg width="144" height="155" viewBox="0 0 144 155" fill="none" xmlns="http://www.w3.org/2000/svg">
<path d="M3.9375 17.5508C3.30469 17.5508 2.78516 17.3711 2.37891 17.0117C1.98047 16.6523 1.78125 16.1992 1.78125 15.6523C1.78125 15.0898 1.98047 14.625 2.37891 14.2578C2.78516 13.8906 3.30469 13.707 3.9375 13.707C4.55469 13.707 5.0625 13.8945 5.46094 14.2695C5.86719 14.6445 6.07031 15.1055 6.07031 15.6523C6.07031 16.2148 5.86719 16.6719 5.46094 17.0234C5.0625 17.375 4.55469 17.5508 3.9375 17.5508ZM5.90625 30.7812H2.01562L2.44922 19.1797H5.44922L5.90625 30.7812ZM24.5508 26H20.4258L19.2305 22.2617H13.2539L12.0703 26H7.96875L14.0859 9.19531H18.5742L24.5508 26ZM18.3633 19.3555L16.5586 13.707C16.4258 13.2852 16.332 12.7812 16.2773 12.1953H16.1836C16.1445 12.6875 16.0469 13.1758 15.8906 13.6602L14.0625 19.3555H18.3633ZM30.0352 24.6055H29.9883V31.5195H26.2852V14H29.9883V15.8047H30.0352C30.9492 14.4062 32.2344 13.707 33.8906 13.707C35.4453 13.707 36.6445 14.2422 37.4883 15.3125C38.3398 16.375 38.7656 17.8242 38.7656 19.6602C38.7656 21.6602 38.2695 23.2656 37.2773 24.4766C36.293 25.6875 34.9805 26.293 33.3398 26.293C31.8945 26.293 30.793 25.7305 30.0352 24.6055ZM29.9297 19.6836V20.6445C29.9297 21.4727 30.1484 22.1484 30.5859 22.6719C31.0234 23.1953 31.5977 23.457 32.3086 23.457C33.1523 23.457 33.8047 23.1328 34.2656 22.4844C34.7344 21.8281 34.9688 20.9023 34.9688 19.707C34.9688 17.5977 34.1484 16.543 32.5078 16.543C31.75 16.543 31.1289 16.832 30.6445 17.4102C30.168 17.9805 29.9297 18.7383 29.9297 19.6836ZM44.918 24.6055H44.8711V31.5195H41.168V14H44.8711V15.8047H44.918C45.832 14.4062 47.1172 13.707 48.7734 13.707C50.3281 13.707 51.5273 14.2422 52.3711 15.3125C53.2227 16.375 53.6484 17.8242 53.6484 19.6602C53.6484 21.6602 53.1523 23.2656 52.1602 24.4766C51.1758 25.6875 49.8633 26.293 48.2227 26.293C46.7773 26.293 45.6758 25.7305 44.918 24.6055ZM44.8125 19.6836V20.6445C44.8125 21.4727 45.0312 22.1484 45.4688 22.6719C45.9062 23.1953 46.4805 23.457 47.1914 23.457C48.0352 23.457 48.6875 23.1328 49.1484 22.4844C49.6172 21.8281 49.8516 20.9023 49.8516 19.707C49.8516 17.5977 49.0312 16.543 47.3906 16.543C46.6328 16.543 46.0117 16.832 45.5273 17.4102C45.0508 17.9805 44.8125 18.7383 44.8125 19.6836ZM63.8789 17.3398C63.4336 17.0977 62.9141 16.9766 62.3203 16.9766C61.5156 16.9766 60.8867 17.2734 60.4336 17.8672C59.9805 18.4531 59.7539 19.2539 59.7539 20.2695V26H56.0508V14H59.7539V16.2266H59.8008C60.3867 14.6016 61.4414 13.7891 62.9648 13.7891C63.3555 13.7891 63.6602 13.8359 63.8789 13.9297V17.3398ZM71.2383 26.293C69.2383 26.293 67.6641 25.7344 66.5156 24.6172C65.375 23.4922 64.8047 21.9688 64.8047 20.0469C64.8047 18.0625 65.3984 16.5117 66.5859 15.3945C67.7734 14.2695 69.3789 13.707 71.4023 13.707C73.3945 13.707 74.957 14.2695 76.0898 15.3945C77.2227 16.5117 77.7891 17.9922 77.7891 19.8359C77.7891 21.8281 77.2031 23.4023 76.0312 24.5586C74.8672 25.7148 73.2695 26.293 71.2383 26.293ZM71.332 16.543C70.457 16.543 69.7773 16.8438 69.293 17.4453C68.8086 18.0469 68.5664 18.8984 68.5664 20C68.5664 22.3047 69.4961 23.457 71.3555 23.457C73.1289 23.457 74.0156 22.2734 74.0156 19.9062C74.0156 17.6641 73.1211 16.543 71.332 16.543ZM83.9414 24.6055H83.8945V26H80.1914V8.23438H83.8945V15.8047H83.9414C84.8555 14.4062 86.1562 13.707 87.8438 13.707C89.3906 13.707 90.582 14.2383 91.418 15.3008C92.2539 16.3633 92.6719 17.8164 92.6719 19.6602C92.6719 21.6602 92.1836 23.2656 91.207 24.4766C90.2305 25.6875 88.9258 26.293 87.293 26.293C85.8164 26.293 84.6992 25.7305 83.9414 24.6055ZM83.8359 19.543V20.7734C83.8359 21.5469 84.0586 22.1875 84.5039 22.6953C84.9492 23.2031 85.5195 23.457 86.2148 23.457C87.0586 23.457 87.7109 23.1328 88.1719 22.4844C88.6406 21.8281 88.875 20.9023 88.875 19.707C88.875 18.7148 88.6602 17.9414 88.2305 17.3867C87.8086 16.8242 87.2031 16.543 86.4141 16.543C85.6719 16.543 85.0547 16.8203 84.5625 17.375C84.0781 17.9297 83.8359 18.6523 83.8359 19.543ZM104.824 26H101.32V24.2773H101.273C100.469 25.6211 99.2773 26.293 97.6992 26.293C96.5352 26.293 95.6172 25.9648 94.9453 25.3086C94.2812 24.6445 93.9492 23.7617 93.9492 22.6602C93.9492 20.332 95.3281 18.9883 98.0859 18.6289L101.344 18.1953C101.344 16.8828 100.633 16.2266 99.2109 16.2266C97.7812 16.2266 96.4219 16.6523 95.1328 17.5039V14.7148C95.6484 14.4492 96.3516 14.2148 97.2422 14.0117C98.1406 13.8086 98.957 13.707 99.6914 13.707C103.113 13.707 104.824 15.4141 104.824 18.8281V26ZM101.344 21.125V20.3164L99.1641 20.5977C97.9609 20.7539 97.3594 21.2969 97.3594 22.2266C97.3594 22.6484 97.5039 22.9961 97.793 23.2695C98.0898 23.5352 98.4883 23.668 98.9883 23.668C99.6836 23.668 100.25 23.4297 100.688 22.9531C101.125 22.4688 101.344 21.8594 101.344 21.125ZM119.496 26H115.793V24.3477H115.746C114.902 25.6445 113.664 26.293 112.031 26.293C110.531 26.293 109.324 25.7656 108.41 24.7109C107.496 23.6484 107.039 22.168 107.039 20.2695C107.039 18.2852 107.543 16.6953 108.551 15.5C109.559 14.3047 110.879 13.707 112.512 13.707C114.059 13.707 115.137 14.2617 115.746 15.3711H115.793V8.23438H119.496V26ZM115.863 20.1641V19.2617C115.863 18.4805 115.637 17.832 115.184 17.3164C114.73 16.8008 114.141 16.543 113.414 16.543C112.594 16.543 111.953 16.8672 111.492 17.5156C111.031 18.1562 110.801 19.0391 110.801 20.1641C110.801 21.2188 111.023 22.0312 111.469 22.6016C111.914 23.1719 112.531 23.457 113.32 23.457C114.07 23.457 114.68 23.1562 115.148 22.5547C115.625 21.9531 115.863 21.1562 115.863 20.1641ZM128.332 26.293C126.332 26.293 124.758 25.7344 123.609 24.6172C122.469 23.4922 121.898 21.9688 121.898 20.0469C121.898 18.0625 122.492 16.5117 123.68 15.3945C124.867 14.2695 126.473 13.707 128.496 13.707C130.488 13.707 132.051 14.2695 133.184 15.3945C134.316 16.5117 134.883 17.9922 134.883 19.8359C134.883 21.8281 134.297 23.4023 133.125 24.5586C131.961 25.7148 130.363 26.293 128.332 26.293ZM128.426 16.543C127.551 16.543 126.871 16.8438 126.387 17.4453C125.902 18.0469 125.66 18.8984 125.66 20C125.66 22.3047 126.59 23.457 128.449 23.457C130.223 23.457 131.109 22.2734 131.109 19.9062C131.109 17.6641 130.215 16.543 128.426 16.543ZM141.586 9.19531L141.129 20.7734H138.129L137.695 9.19531H141.586ZM139.664 26.2695C139.039 26.2695 138.523 26.082 138.117 25.707C137.711 25.3242 137.508 24.8633 137.508 24.3242C137.508 23.7617 137.711 23.3008 138.117 22.9414C138.531 22.582 139.047 22.4023 139.664 22.4023C140.289 22.4023 140.801 22.5859 141.199 22.9531C141.598 23.3125 141.797 23.7695 141.797 24.3242C141.797 24.8867 141.598 25.3516 141.199 25.7188C140.809 26.0859 140.297 26.2695 139.664 26.2695Z" fill="#00B94A"/>
<path d="M93.3349 114.75C93.3645 115.009 93.3233 115.277 93.2113 115.552C93.0967 115.804 92.9453 116.048 92.7572 116.284C92.5664 116.497 92.3494 116.688 92.106 116.859C91.86 117.007 91.6191 117.094 91.3832 117.121C91.2181 117.139 91.0517 117.146 90.8839 117.142C90.7161 117.137 90.5496 117.144 90.3845 117.163C90.1722 117.187 90.0388 117.274 89.9842 117.423C89.9268 117.549 89.8708 117.687 89.8162 117.836C89.7852 117.983 89.7174 118.122 89.6129 118.253C89.5111 118.408 89.3069 118.503 89.0002 118.538C88.8115 118.559 88.6084 118.558 88.3907 118.535C88.1731 118.512 87.9581 118.513 87.7458 118.537C87.2977 118.588 86.8707 118.72 86.465 118.934C86.0855 119.168 85.6599 119.312 85.1882 119.365C84.7872 119.411 84.1777 119.409 83.3596 119.359C82.5442 119.332 81.7077 119.224 80.8499 119.036C80.0184 118.868 79.2745 118.63 78.6183 118.323C77.9593 117.992 77.6003 117.567 77.5412 117.049C77.4955 116.648 77.6739 116.222 78.0764 115.771C78.4997 115.293 78.9662 114.774 79.4759 114.215C79.9828 113.632 80.4241 112.997 80.7997 112.31C81.1989 111.62 81.3501 110.851 81.2534 110.003C81.1969 109.508 81.0357 109.037 80.7697 108.59C80.5273 108.14 80.2299 107.732 79.8776 107.366C79.5226 106.977 79.1245 106.629 78.6832 106.321C78.2655 106.01 77.8623 105.722 77.4735 105.456C77.3502 105.422 77.1706 105.419 76.9348 105.446C76.2979 105.518 75.6692 105.661 75.0485 105.875C74.4251 106.066 73.7949 106.197 73.1581 106.269C72.8279 106.307 72.4805 106.299 72.116 106.245C71.775 106.188 71.5241 105.978 71.3631 105.614C70.7848 105.991 70.2052 106.355 69.6241 106.707C69.0405 107.036 68.4423 107.343 67.8296 107.628C67.4448 107.815 67.162 107.954 66.9814 108.047C66.8244 108.136 66.704 108.233 66.6204 108.338C66.5604 108.441 66.5176 108.589 66.4919 108.783C66.4898 108.974 66.4382 109.254 66.337 109.624C66.2695 109.87 66.2465 110.088 66.268 110.276C66.2895 110.465 66.3137 110.677 66.3405 110.912C66.3755 111.219 66.3447 111.473 66.2483 111.675C66.1492 111.853 66.0383 112.033 65.9155 112.214C65.8137 112.369 65.7133 112.535 65.6141 112.714C65.515 112.892 65.4802 113.111 65.5098 113.37C65.534 113.582 65.5909 113.767 65.6804 113.923L65.6652 114.104C65.7055 114.458 65.8321 114.73 66.045 114.92C66.2552 115.087 66.4967 115.215 66.7696 115.303C67.0634 115.365 67.369 115.426 67.6863 115.485C68.0037 115.545 68.2884 115.632 68.5404 115.746C68.7924 115.861 69.0433 116.071 69.2932 116.377C69.564 116.656 69.8035 116.975 70.0116 117.333C70.2406 117.665 70.4355 118.013 70.5964 118.377C70.7547 118.717 70.8486 119.016 70.8781 119.275L70.8983 119.452L70.4384 119.505C69.4949 119.612 68.5568 119.766 67.6241 119.968C66.7123 120.143 65.8018 120.331 64.8927 120.53C63.9862 120.752 63.0653 120.952 62.1299 121.13C61.2208 121.329 60.2945 121.483 59.351 121.59C59.0208 121.628 58.536 121.671 57.8964 121.72C57.2805 121.766 56.6592 121.765 56.0325 121.717C55.4085 121.693 54.8472 121.589 54.3486 121.407C53.8709 121.199 53.6052 120.859 53.5514 120.388C53.495 119.893 53.5541 119.469 53.7288 119.115C53.927 118.758 54.191 118.454 54.5206 118.201C54.8711 117.923 55.2623 117.687 55.6944 117.495C56.1473 117.276 56.5898 117.071 57.0218 116.878C57.4774 116.683 57.8976 116.492 58.2825 116.305C58.6909 116.115 59.0232 115.887 59.2794 115.619C59.5355 115.351 59.7284 114.947 59.858 114.407C59.9849 113.844 60.0724 113.249 60.1204 112.623C60.1685 111.997 60.2061 111.384 60.2333 110.784C60.2578 110.161 60.2852 109.668 60.3157 109.307C60.3258 109.186 60.3215 109.043 60.3027 108.878C60.3048 108.687 60.2951 108.497 60.2736 108.309C60.2757 108.118 60.2673 107.94 60.2485 107.775C60.2533 107.607 60.2752 107.485 60.3143 107.409C60.5045 106.982 60.6545 106.726 60.7644 106.642C60.8979 106.555 60.9855 106.485 61.0273 106.433C61.0927 106.378 61.1146 106.256 61.0931 106.067C61.0925 105.852 61.0559 105.427 60.9834 104.791C60.9512 104.508 60.9859 104.289 61.0877 104.134C61.1869 103.956 61.2887 103.801 61.3932 103.67C61.5213 103.536 61.6389 103.415 61.7461 103.308C61.8506 103.176 61.8921 103.016 61.8706 102.828C61.833 102.498 61.705 102.214 61.4868 101.976C61.2658 101.715 61.1366 101.42 61.0989 101.09C61.0774 100.901 61.1058 100.731 61.184 100.579C61.2622 100.427 61.3536 100.285 61.4581 100.154C61.5862 100.02 61.6907 99.8885 61.7716 99.76C61.8498 99.6079 61.8782 99.4375 61.8567 99.249C61.8271 98.9898 61.7386 98.7373 61.5911 98.4915C61.4672 98.2431 61.3905 97.9892 61.3609 97.73C61.3394 97.5415 61.3836 97.4052 61.4935 97.3211C61.6242 97.2107 61.7577 97.1239 61.8938 97.0607C62.0536 96.9948 62.1911 96.9433 62.3063 96.9063C62.4425 96.8431 62.5065 96.7761 62.4984 96.7055C62.4116 96.5721 62.2738 96.5162 62.0851 96.5377C61.802 96.5699 61.678 96.7392 61.7129 97.0455C61.5344 96.9465 61.3781 96.833 61.244 96.705C61.1073 96.5535 61.0282 96.3835 61.0067 96.195C60.9798 95.9593 61.0146 95.7405 61.111 95.5386C61.2048 95.3131 61.3076 95.0627 61.4196 94.7874C61.5551 94.5094 61.6631 94.1987 61.7434 93.8554C61.8237 93.5121 61.837 93.1048 61.7832 92.6335C61.7268 92.1387 61.6023 91.6754 61.4097 91.2438C61.2144 90.7887 61.0899 90.3254 61.0362 89.8541C61.0093 89.6185 61.0296 89.3775 61.0971 89.1311C61.1882 88.8821 61.2924 88.6434 61.4097 88.4152C61.5479 88.1608 61.6757 87.9195 61.7931 87.6913C61.9313 87.4369 62.021 87.176 62.0622 86.9088C62.1527 86.445 62.1697 85.9656 62.1133 85.4708C62.0804 84.9733 62.0358 84.4771 61.9794 83.9822C61.9465 83.4847 61.9268 82.9976 61.9202 82.521C61.9346 82.0181 62.0355 81.5411 62.223 81.0901C62.3923 80.6889 62.5224 80.3638 62.6135 80.1147C62.7046 79.8657 62.7852 79.6297 62.8553 79.4069C62.9228 79.1606 62.9771 78.9037 63.0183 78.6365C63.0569 78.3457 63.086 77.9724 63.1057 77.5166C63.1457 76.8198 63.2473 76.1399 63.4106 75.4768C63.5975 74.8111 63.6992 74.1311 63.7156 73.437C63.7037 72.9133 63.6776 72.4746 63.6372 72.1212C63.6178 71.7415 63.6392 71.4049 63.7013 71.1114C63.787 70.8152 63.9475 70.5463 64.1827 70.3047C64.4416 70.0604 64.8419 69.8 65.3838 69.5235C65.9729 69.2416 66.57 69.0304 67.1752 68.8899C67.7777 68.7259 68.3856 68.6089 68.9989 68.5391C69.7064 68.4586 70.4417 68.4107 71.2045 68.3955C71.3209 68.788 71.5159 69.1358 71.7894 69.4389C72.0602 69.7184 72.3428 69.9965 72.6372 70.2733C72.9551 70.5474 73.2509 70.836 73.5243 71.1391C73.8187 71.4159 74.0359 71.7492 74.176 72.139C74.3557 72.6676 74.4856 73.1779 74.5656 73.6701C74.6665 74.136 74.9207 74.5845 75.3283 75.0155C75.5229 75.2559 75.6404 75.5528 75.6807 75.9063C75.7425 76.4483 75.7309 76.9747 75.6458 77.4857C75.5607 77.9966 75.5477 78.5113 75.6068 79.0297C75.6418 79.3361 75.7939 79.8319 76.0632 80.5174C76.3325 81.2028 76.6439 81.9432 76.9974 82.7384C77.3482 83.51 77.6859 84.2712 78.0105 85.022C78.3323 85.7492 78.5764 86.3182 78.7427 86.7289C79.0571 87.6002 79.268 88.5071 79.3755 89.4496C79.5066 90.3895 79.7647 91.2911 80.1498 92.1543C80.5404 93.0646 80.8955 93.979 81.2153 94.8974C81.5323 95.7922 81.7827 96.7305 81.9663 97.7121C82.1183 98.6257 82.3383 99.5077 82.6264 100.358C82.9119 101.185 83.2104 102.022 83.5221 102.87C83.8312 103.694 84.1179 104.533 84.3825 105.386C84.6706 106.236 84.8684 107.133 84.9759 108.075C85.0162 108.429 85.0224 108.798 84.9947 109.183C84.9905 109.565 84.8748 109.913 84.6476 110.225C85.2101 110.758 85.8369 111.331 86.5281 111.944C87.2429 112.555 87.9297 113.026 88.5887 113.357C88.8406 113.471 89.2183 113.536 89.7217 113.55C90.2251 113.565 90.7312 113.602 91.2399 113.664C91.7696 113.699 92.2352 113.801 92.6367 113.97C93.0592 114.113 93.2919 114.373 93.3349 114.75ZM76.3382 97.3859C76.314 97.1739 76.2006 96.9123 75.9979 96.6012C75.7925 96.2665 75.5594 95.8992 75.2988 95.4992C75.0617 95.0965 74.8324 94.6571 74.6109 94.1811C74.3893 93.705 74.2477 93.196 74.1859 92.6541C74.1133 92.0178 73.9478 91.4041 73.6892 90.8129C73.428 90.1982 73.2257 89.5767 73.0824 88.9485C72.9761 88.4355 72.8526 87.8767 72.712 87.2721C72.5923 86.6412 72.4072 86.0655 72.1567 85.545C71.9035 85.001 71.5562 84.575 71.115 84.2672C70.6946 83.9331 70.1188 83.8077 69.3876 83.8909C69.3619 84.0848 69.2955 84.2356 69.1883 84.3433C69.0785 84.4274 68.945 84.5142 68.788 84.6037C68.6518 84.6669 68.5039 84.7315 68.3441 84.7974C68.1844 84.8633 68.0641 84.9606 67.9832 85.0891C68.0148 85.1571 68.0387 85.2618 68.0548 85.4032C68.1032 85.8274 68.0545 86.2387 67.9088 86.6372C67.784 87.0094 67.6724 87.3921 67.5739 87.7853C67.4544 88.2046 67.3849 88.6422 67.3652 89.098C67.3664 89.5275 67.3911 89.9543 67.4395 90.3785C67.4825 90.7555 67.5359 91.1194 67.5998 91.4702C67.6637 91.821 67.7158 92.1731 67.7561 92.5266C67.8179 93.0685 67.8245 93.5452 67.7759 93.9565C67.7245 94.3443 67.6587 94.7098 67.5784 95.0531C67.498 95.3964 67.4282 95.7266 67.3688 96.0437C67.3067 96.3372 67.2944 96.6489 67.332 96.9788C67.4127 97.6857 67.5061 98.2957 67.6124 98.8087C67.7187 99.3218 67.8745 99.7456 68.08 100.08C68.2827 100.391 68.5481 100.624 68.8762 100.777C69.2017 100.907 69.6356 100.942 70.1781 100.88C70.5555 100.837 71.0926 100.728 71.7895 100.553C72.5099 100.376 73.2118 100.141 73.8952 99.8481C74.5995 99.5292 75.191 99.1635 75.6696 98.751C76.1718 98.3358 76.3947 97.8808 76.3382 97.3859Z" fill="#00B94A"/>
<path fill-rule="evenodd" clip-rule="evenodd" d="M64.1433 45.1886C59.0152 45.7815 50.6179 48.6173 45.3966 51.5199C36.494 56.4687 28.4662 64.4532 23.8005 72.9996C21.4323 77.3377 20.1888 80.5349 18.2651 87.2322C16.5968 93.0395 16.5749 105.566 18.221 112.302C20.9178 123.338 25.2906 131.225 32.9887 138.938C36.2288 142.185 39.1755 144.609 42.0622 146.4C44.6945 148.034 48.0493 149.92 48.9015 150.244C49.4684 150.46 50.427 150.865 51.0311 151.145C53.1402 152.123 57.987 153.547 61.6024 154.252C66.3431 155.177 77.9174 155.263 81.9335 154.404C88.555 152.987 91.2231 152.099 96.3967 149.588C107.441 144.23 116.198 135.457 121.645 124.294C125.74 115.901 127.001 110.21 127 100.138C126.999 93.1875 126.483 88.8137 125.188 84.768C123.954 80.9108 123.602 79.9187 122.959 78.486C122.577 77.6357 122.265 76.8349 122.265 76.7062C122.265 76.1567 118.313 69.5994 116.467 67.087C112.398 61.5456 106.252 55.9269 100.769 52.7348C99.4662 51.9768 98.1546 51.2037 97.854 51.0167C95.5408 49.5796 89.6415 47.4027 84.4752 46.0805C81.4191 45.298 79.9016 45.1485 73.8077 45.0304C69.9002 44.9545 65.5511 45.0256 64.1433 45.1886ZM80.5516 47.3776C98.0526 50.4427 112.46 61.244 119.974 76.9323C126.025 89.5674 126.866 103.214 122.455 117.225C121.82 119.243 117.745 127.697 117.055 128.429C116.815 128.684 115.984 129.878 115.21 131.081C113.315 134.027 105.609 141.561 102.027 143.968C92.9839 150.047 82.7172 153.197 71.986 153.185C63.8084 153.176 56.5377 151.51 49.0327 147.926C33.455 140.486 22.561 125.974 19.5275 108.623C17.085 94.6512 20.7069 79.9985 29.5694 67.9986C32.083 64.5951 38.7197 58.2256 42.1084 55.9644C53.6317 48.2753 67.7167 45.1292 80.5516 47.3776ZM62.1489 48.3738C56.2218 49.7018 53.5228 50.6487 48.2545 53.2475C43.2904 55.6961 39.5373 58.4516 35.0523 62.9403C27.1571 70.8421 22.8951 78.8659 20.454 90.4239C19.5759 94.5804 19.6605 105.637 20.6045 110.163C22.1376 117.51 25.5584 125.482 29.3584 130.564C32.82 135.193 35.7813 138.296 39.1956 140.87C40.2977 141.701 41.2814 142.475 41.3816 142.589C42.4138 143.771 48.7416 147.167 53.2226 148.945C70.8438 155.936 91.9321 152.274 106.322 139.723C122.583 125.538 128.628 103.067 121.642 82.7665C120.787 80.2818 117.073 72.5566 116.733 72.5566C116.569 72.5566 116.435 72.375 116.435 72.1529C116.435 71.5958 111.772 65.4451 109.829 63.4384C108.497 62.0634 106.381 60.2289 102.899 57.4288C100.576 55.5615 95.6316 52.8603 91.6603 51.289C84.403 48.4175 80.5778 47.751 71.6548 47.802C66.8743 47.8293 63.7348 48.0182 62.1489 48.3738ZM81.2766 49.8367C83.0801 50.1594 86.1952 50.9685 88.1991 51.6344C91.8676 52.8537 98.5051 56.0374 99.8579 57.2265C100.259 57.5787 101.57 58.5326 102.773 59.3465C105.311 61.0643 110.831 66.6166 113.282 69.917C114.215 71.1728 114.978 72.278 114.978 72.3728C114.978 72.468 115.491 73.3796 116.117 74.3988C117.739 77.0369 120.223 82.8307 121.145 86.1281C124.341 97.5541 123.392 110.466 118.61 120.614C118.015 121.877 117.528 122.98 117.528 123.065C117.528 123.59 113.901 129.208 111.934 131.73C104.354 141.443 92.0432 148.577 79.6371 150.444C76.1679 150.966 67.2478 151.221 66.5949 150.817C66.4477 150.726 65.1004 150.481 63.6004 150.272C59.146 149.652 53.1931 147.657 48.7507 145.297C39.9847 140.64 33.7035 134.675 28.002 125.592C25.6382 121.826 23.0036 114.759 21.927 109.294C21.002 104.599 21.069 94.7004 22.0575 90.0593C23.3487 83.9979 23.6125 83.2595 26.7756 76.855C31.5842 67.1191 39.5916 59.2145 49.5912 54.3323C54.8406 51.7693 54.3801 51.9651 56.8703 51.2322C64.6821 48.9331 73.431 48.4328 81.2766 49.8367ZM71.0322 50.3833C70.8846 50.6221 70.9571 50.8821 71.1928 50.9605C71.4661 51.0517 71.6217 52.0085 71.6217 53.5954C71.6217 55.1823 71.4661 56.1391 71.1928 56.2303C70.2477 56.5453 71.3969 57.2418 72.8619 57.2418C74.8628 57.2418 75.6855 56.3743 75.8848 54.0548C75.997 52.7505 75.8495 52.0245 75.2906 51.1341C74.6329 50.0857 74.3597 49.949 72.9238 49.949C72.0308 49.949 71.1797 50.1444 71.0322 50.3833ZM65.2946 51.436C65.1678 52.0719 65.0636 53.5239 65.0636 54.662C65.0636 55.8 64.8668 56.9282 64.6264 57.1688C64.2864 57.5091 64.4497 57.6064 65.362 57.6064C66.4309 57.6064 66.5147 57.5258 66.3063 56.6948C66.114 55.9276 66.2058 55.7832 66.8853 55.7832C67.5648 55.7832 67.6566 55.9276 67.4642 56.6948C67.2846 57.411 67.3738 57.6053 67.8803 57.6009C68.2348 57.5977 68.7707 57.4336 69.0713 57.2363C69.5562 56.9176 69.5562 56.8378 69.0731 56.5267C68.7733 56.3342 68.1175 54.8982 67.6158 53.3361C66.6004 50.1762 65.6946 49.4345 65.2946 51.436ZM79.0742 51.5735C78.327 52.321 78.1798 52.822 78.1798 54.6164C78.1798 57.0157 78.8203 57.971 80.4292 57.971C81.4256 57.971 82.1674 57.2662 82.8458 55.6749C83.49 54.1635 83.3756 52.7206 82.5252 51.6391C81.5699 50.423 80.2485 50.3979 79.0742 51.5735ZM74.751 52.3191C75.1627 53.9611 74.2864 56.1479 73.2167 56.1479C72.8418 56.1479 72.7147 55.5477 72.7147 53.7777C72.7147 51.4976 72.7489 51.4076 73.6186 51.4076C74.2788 51.4076 74.5841 51.6533 74.751 52.3191ZM57.4125 52.2331C56.0954 52.8285 56.071 52.8763 56.8077 53.4156C57.5961 53.9925 58.2526 56.1373 58.2301 58.0622C58.2213 58.8145 58.2552 59.4296 58.3055 59.4296C58.8053 59.4296 61.0132 58.4761 61.5113 58.0451C62.1995 57.4496 62.3788 55.6038 61.7845 55.2363C61.5841 55.1123 61.4202 54.5402 61.4202 53.9644C61.4202 52.0132 59.62 51.2354 57.4125 52.2331ZM81.9856 53.1768C82.2578 54.4658 81.7543 56.1821 80.9618 56.6667C80.0408 57.2305 78.7722 55.656 79.0928 54.3476C79.7041 51.855 81.5488 51.1082 81.9856 53.1768ZM60.2062 54.1139C59.9111 54.884 58.6443 54.8479 58.3426 54.0607C57.9841 53.1265 59.2017 52.3126 59.9049 53.0167C60.192 53.3037 60.3275 53.7978 60.2062 54.1139ZM66.8798 54.2335C66.8827 54.4844 66.7213 54.6893 66.5209 54.6893C66.3205 54.6893 66.1591 54.2379 66.1621 53.6865C66.1664 52.9051 66.2459 52.8045 66.5209 53.2307C66.7151 53.5316 66.8765 53.983 66.8798 54.2335ZM51.1528 54.5201C49.7967 55.257 49.5971 56.2241 50.4234 58.0524C51.5106 60.4575 52.5475 61.3698 53.8897 61.1011C55.3842 60.8017 55.6509 60.3087 55.4716 58.176C55.3449 56.67 55.1048 56.1778 54.0034 55.1677C52.5132 53.8007 52.4874 53.7948 51.1528 54.5201ZM53.7181 56.177C54.4708 56.9858 54.9058 58.5271 54.6034 59.3155C54.4027 59.8387 53.1184 59.9485 52.417 59.5025C52.1744 59.3479 51.708 58.5804 51.3805 57.7964C50.8209 56.4552 50.8241 56.3426 51.4362 55.8948C52.3445 55.2297 52.9001 55.2986 53.7181 56.177ZM61.4202 56.6948C61.4202 57.2155 60.356 57.971 59.6226 57.971C59.0753 57.971 59.1365 55.8791 59.6896 55.6804C60.3403 55.447 61.4202 56.0797 61.4202 56.6948ZM94.5196 57.1506C94.0135 57.7023 93.2338 58.6865 92.7872 59.3384C92.3405 59.9904 91.7266 60.5235 91.4231 60.5235C90.6857 60.5235 90.9633 61.2462 91.9536 61.904C92.6924 62.3952 92.7533 62.377 92.7533 61.6619C92.7533 61.139 92.9825 60.8882 93.4605 60.8882C94.4311 60.8882 94.7258 61.4967 93.9622 61.9245C93.4324 62.2213 93.4098 62.3671 93.8172 62.8583C94.4792 63.6565 95.4075 63.6178 95.1565 62.8025C95.0482 62.4517 95.3645 61.0158 95.8589 59.6119C96.3533 58.2081 96.7585 56.8545 96.7596 56.6037C96.7621 55.8 95.4694 56.1158 94.5196 57.1506ZM44.8319 58.1898C42.706 59.2936 41.8257 60.5235 43.1618 60.5235C43.5837 60.5235 44.0733 60.9968 44.4304 61.7494C44.7499 62.4237 45.2709 63.1912 45.5882 63.4545C45.9559 63.7601 46.0877 64.2403 45.9522 64.781C45.707 65.7597 46.2914 65.8881 47.3476 65.0873C48.0184 64.5794 47.9309 63.1777 47.2547 63.596C46.7716 63.8946 46.0036 62.8065 46.2481 62.1691C46.5687 61.3323 47.4198 61.5077 48.1029 62.5513C48.5113 63.1748 48.9791 63.4476 49.5111 63.3717C50.5578 63.2226 50.6405 61.7702 49.5974 61.8625C48.7824 61.9347 47.5753 60.7047 47.5753 59.8019C47.5753 59.4664 47.2012 58.8403 46.7439 58.4104C45.9642 57.6772 45.8455 57.6637 44.8319 58.1898ZM63.7884 59.1922C54.0926 61.4307 48.3973 64.6297 41.6399 71.633C36.5833 76.8736 33.3672 83.0589 31.3014 91.5178C30.356 95.3892 30.3673 104.066 31.3233 108.109C32.2975 112.231 33.1811 114.821 34.6508 117.864C38.5678 125.974 44.469 132.122 52.3893 136.344C58.4272 139.563 62.57 140.688 69.4356 140.972C76.1453 141.25 80.2875 140.77 84.92 139.178C91.2202 137.012 96.0371 134.127 100.536 129.825C105.956 124.643 109.307 118.985 112.023 110.431C113.352 106.247 113.476 94.4386 112.236 90.2201C109.844 82.0817 107.813 78.1895 102.692 71.9356C101.392 70.3469 96.0498 65.9213 93.7589 64.5338C87.25 60.5928 80.8161 58.7346 72.8969 58.5078C68.128 58.3711 66.9676 58.4582 63.7884 59.1922ZM95.045 59.065C94.94 59.4661 94.6019 59.7942 94.2937 59.7942C93.8223 59.7942 93.8383 59.6783 94.3928 59.065C94.7553 58.6639 95.0934 58.3357 95.1437 58.3357C95.1944 58.3357 95.1495 58.6639 95.045 59.065ZM46.4095 59.5065C46.4696 59.8169 46.2466 60.343 45.9136 60.6759C45.3496 61.2404 45.276 61.2371 44.8301 60.6289C44.4289 60.0816 44.4457 59.8723 44.935 59.3297C45.597 58.5953 46.2477 58.6733 46.4095 59.5065ZM100.101 59.5208C100.319 60.5964 98.2479 63.2955 96.7654 63.868L95.8585 64.218L96.7654 64.9145C97.7793 65.6937 98.4493 65.6522 98.3047 64.819C98.1306 63.818 99.1609 63.3167 100.461 63.7703C101.479 64.1254 101.732 64.0766 102.472 63.3805C103.641 62.2818 103.535 61.5183 102.031 60.1968C100.681 59.0099 99.9446 58.7521 100.101 59.5208ZM76.1759 60.7066C79.0687 60.9184 83.1282 61.8096 85.2844 62.7062C91.7852 65.41 95.938 68.1474 100.084 72.4622C105.764 78.373 108.931 84.3359 110.595 92.2471C111.893 98.4244 111.45 105.549 109.34 112.429C108.757 114.33 106.408 119.179 105.781 119.777C105.526 120.021 105.456 120.021 105.571 119.777C108.327 113.972 108.699 113.009 109.871 108.663C110.935 104.714 110.922 95.6678 109.846 91.2917C108.472 85.7077 105.731 79.8129 102.884 76.3189C101.757 74.9359 97.2292 70.4257 95.7325 69.1954C89.8185 64.3344 80.7021 61.2667 72.1682 61.2659C61.9467 61.2648 52.7464 64.8839 45.2283 71.8627C41.147 75.6509 36.7403 82.7122 35.1234 88.0538C32.7184 95.9996 32.8233 105.42 35.3959 112.486C35.9063 113.889 36.4251 115.365 36.5483 115.766C36.9633 117.117 39.8601 121.742 41.8523 124.233C46.1198 129.571 51.1579 133.361 57.2551 135.821C63.1483 138.199 65.7882 138.64 73.2991 138.499C77.6245 138.418 79.6404 138.491 78.9955 138.704C78.4468 138.886 75.3744 139.05 72.1682 139.069C67.7331 139.095 65.6851 138.947 63.6062 138.45C55.8145 136.59 49.9115 133.291 44.2679 127.644C37.3152 120.688 33.5341 112.788 32.7358 103.551C31.8858 93.717 34.2817 84.8891 39.9905 76.8189C45.1102 69.5819 52.8276 64.2552 61.9667 61.651C64.3305 60.9775 71.0977 60.141 72.3503 60.3675C72.6509 60.4218 74.3724 60.5746 76.1759 60.7066ZM101.858 61.4304C102.317 61.9843 102.132 63.076 101.579 63.076C101.41 63.076 100.96 62.8477 100.579 62.5684C99.9898 62.1374 99.9584 61.973 100.372 61.4745C100.975 60.747 101.284 60.7379 101.858 61.4304ZM38.3146 63.4632C37.0303 64.5918 36.5348 65.7878 37.5058 65.4152C38.0497 65.2062 41.3703 68.4384 41.3772 69.1837C41.383 69.7926 41.5984 69.7587 42.4706 69.0116C43.408 68.2079 43.3957 67.8958 42.4207 67.7507C41.2326 67.5734 40.7527 66.5703 41.4989 65.8235C42.6039 64.7176 42.044 63.0355 40.4095 62.5509C39.8328 62.3799 39.2673 62.626 38.3146 63.4632ZM78.3619 63.2645C79.965 63.5303 82.1219 63.9876 83.1548 64.2811C87.4376 65.4983 93.8667 69.2727 97.7214 72.8334C99.6699 74.6332 104.412 80.7045 104.412 81.3987C104.412 81.6179 104.634 82.0565 104.905 82.373C105.719 83.3251 107.742 88.5898 108.478 91.6743C109.474 95.8443 109.449 104.21 108.43 108.432C105.058 122.391 94.3979 133.011 80.3658 136.391C76.1081 137.416 67.9714 137.438 63.7884 136.435C60.6817 135.691 55.4221 133.667 54.469 132.85C54.1527 132.579 53.7228 132.357 53.5137 132.357C52.8681 132.357 46.8292 127.682 45.1332 125.869C44.25 124.925 43.0113 123.415 42.3806 122.512C41.7499 121.61 41.0595 120.693 40.8464 120.475C40.1035 119.714 36.968 113.126 36.4197 111.171C34.1695 103.157 34.3171 95.2393 36.8569 87.6891C39.7428 79.111 46.1235 71.7161 54.8621 66.823C58.3758 64.8554 65.6079 62.8893 70.3465 62.614C72.3995 62.4944 74.9769 62.7037 78.3619 63.2645ZM40.8963 64.016C41.0176 64.3322 40.8486 64.8598 40.5207 65.188C39.9683 65.7404 39.8802 65.7404 39.3278 65.188C38.5831 64.4423 38.9249 63.4406 39.9242 63.4406C40.3378 63.4406 40.775 63.6995 40.8963 64.016ZM105.505 64.3847C105.505 65.1836 102.948 67.8163 102.173 67.8163C101.138 67.8163 101.019 68.5168 101.925 69.273C102.984 70.1566 103.316 70.1784 103.331 69.366C103.337 69.0149 103.548 68.4581 103.798 68.1281C104.194 67.6074 104.346 67.5953 104.95 68.0369C106.559 69.2147 108.674 68.1594 108.237 66.3964C107.79 64.5943 105.505 62.9112 105.505 64.3847ZM107.157 67.0462C106.87 67.9519 106.618 67.9953 105.671 67.3022C104.978 66.7953 104.978 66.7774 105.668 66.0146C106.272 65.3466 106.438 65.3116 106.885 65.7586C107.2 66.0748 107.307 66.5762 107.157 67.0462ZM33.5308 68.4165C33.0397 68.947 32.6375 69.5214 32.6375 69.6927C32.6375 69.8641 32.6389 70.1256 32.6408 70.2736C32.6422 70.422 32.8473 70.5453 33.0962 70.5471C33.8955 70.554 36.9808 73.0817 36.9953 73.7417C37.0135 74.5636 37.4686 74.553 38.2282 73.7129C39.0597 72.7933 39.0021 72.0622 38.116 72.2941C37.0354 72.577 36.4244 71.6454 36.9928 70.5821C37.4744 69.6814 37.2216 68.2032 36.5049 67.7306C35.6768 67.1847 34.3987 67.4794 33.5308 68.4165ZM36.2809 69.4801C36.2809 70.1598 35.6691 70.4552 34.8202 70.1854C33.9422 69.9064 33.9043 69.5177 34.68 68.7414C35.1317 68.2892 35.3809 68.252 35.773 68.5777C36.0524 68.8096 36.2809 69.2158 36.2809 69.4801ZM110.56 69.0925C110.535 69.1928 110.494 69.4098 110.469 69.5742C110.334 70.4639 107.057 72.6664 106.202 72.4428C105.363 72.223 105.255 73.0875 106.026 73.8587C106.761 74.5953 107.327 74.5049 107.327 73.6505C107.327 73.2494 107.477 72.9212 107.661 72.9212C107.845 72.9212 108.254 72.8221 108.569 72.701C109.665 72.2802 109.695 73.6604 108.608 74.5275C107.823 75.1543 107.656 75.5167 107.858 76.1538C108.167 77.1299 109.359 77.0533 109.274 76.063C109.205 75.248 110.385 74.017 111.243 74.0097C113.112 73.9933 113.625 72.029 112.236 70.2072C111.345 69.0375 110.684 68.5977 110.56 69.0925ZM111.626 71.171C112.23 71.7755 112.175 72.9212 111.543 72.9212C111.257 72.9212 110.759 72.6576 110.437 72.3356C109.985 71.8835 109.948 71.6341 110.274 71.2417C110.79 70.6193 111.061 70.6051 111.626 71.171ZM29.3632 74.2886C29.3657 74.6398 30.3443 75.8037 31.5379 76.8754C32.7311 77.9471 33.6718 78.9316 33.6281 79.0632C33.404 79.736 34.2624 79.5547 34.7452 78.8273C35.2651 78.0437 35.2501 77.974 34.5164 77.7822C33.67 77.5605 33.4682 76.7729 34.1502 76.351C34.3808 76.2085 34.7667 76.3612 35.0075 76.6909C35.4086 77.2397 35.5008 77.2287 36.1038 76.5622C36.8864 75.6965 36.6754 75.3971 35.201 75.2808C34.5991 75.2334 33.3676 74.8473 32.4651 74.4228C30.442 73.4711 29.3566 73.4241 29.3632 74.2886ZM33.0018 75.8384C33.0018 76.0389 32.8477 76.203 32.659 76.203C32.4702 76.203 32.2148 76.0389 32.091 75.8384C31.9671 75.6378 32.1216 75.4737 32.4338 75.4737C32.746 75.4737 33.0018 75.6378 33.0018 75.8384ZM112.197 76.8929C109.919 78.3022 109.318 80.0189 110.64 81.3422C111.566 82.2684 113.412 82.0635 115.231 80.8328C116.953 79.6678 117.382 78.4929 116.512 77.3224C115.613 76.1118 113.758 75.9273 112.197 76.8929ZM115.547 78.0958C116.07 79.7455 112.071 81.9727 111.457 80.373C111.14 79.5464 111.925 78.0583 112.88 77.6739C114.33 77.0909 115.275 77.2408 115.547 78.0958ZM118.257 82.8766C118.257 83.4615 114.907 84.7089 113.448 84.6674C112.434 84.6385 112.393 84.6962 112.629 85.7985C112.766 86.4373 113.019 87.2282 113.19 87.556C113.663 88.4607 115.274 88.7291 116.279 88.0705C116.752 87.7606 117.542 87.5068 118.036 87.5068C118.973 87.5068 120.079 86.6608 120.079 85.9432C120.079 85.1873 118.893 82.4019 118.572 82.4019C118.399 82.4019 118.257 82.6155 118.257 82.8766ZM118.621 85.4798C118.621 86.6791 118.124 86.9088 117.359 86.0625C116.633 85.2603 116.886 84.5897 117.914 84.5897C118.421 84.5897 118.621 84.8417 118.621 85.4798ZM115.889 86.418C115.889 87.6869 114.378 87.9137 113.928 86.7119C113.688 86.0701 113.754 85.805 114.204 85.614C115.25 85.168 115.889 85.4725 115.889 86.418ZM114.025 91.5824C114.29 92.9075 114.639 93.3669 114.876 92.7029C115.146 91.9466 116.071 92.1913 116.071 93.019C116.071 93.6112 115.902 93.7465 115.342 93.5999C114.774 93.4511 114.614 93.589 114.614 94.226C114.614 95.2896 114.986 95.6382 115.488 95.0439C115.709 94.7835 117.077 94.1932 118.53 93.7323C120.526 93.0989 121.172 92.7332 121.172 92.2351C121.172 91.4431 119.973 91.128 117.23 91.1995C116.165 91.2268 115.107 91.0638 114.88 90.8367C114.14 90.0954 113.789 90.4009 114.025 91.5824ZM118.621 92.6117C117.908 93.0726 117.164 93.0726 117.164 92.6117C117.164 92.4112 117.615 92.2497 118.166 92.2526C118.947 92.2569 119.047 92.3364 118.621 92.6117ZM22.8692 94.8138C21.8086 95.8027 21.8618 97.0275 23.012 98.109C23.7673 98.819 24.3389 98.9929 25.9183 98.9929C27.5604 98.9929 28.0439 98.8332 28.852 98.0248C30.7589 96.1163 28.9926 94.0703 25.4374 94.0703C24.1586 94.0703 23.4449 94.277 22.8692 94.8138ZM28.0224 95.954C28.8746 97.3065 26.9808 98.357 24.7612 97.763C23.9079 97.5347 23.7112 97.2824 23.7112 96.4178C23.7112 95.5241 23.8861 95.321 24.8042 95.1485C26.2029 94.8864 27.5641 95.2269 28.0224 95.954ZM120.885 97.2007C120.592 97.724 120.113 97.7914 117.759 97.6401L114.978 97.4614V98.9911C114.978 101.448 117.111 102.648 119.863 101.739C121.441 101.218 122.265 100.138 122.265 98.5918C122.265 97.1573 121.398 96.2833 120.885 97.2007ZM120.807 99.3317C120.807 100.259 119.696 100.998 118.304 100.998C116.819 100.998 116.071 100.485 116.071 99.467C116.071 98.9021 116.401 98.8106 118.439 98.8106C120.249 98.8106 120.807 98.9335 120.807 99.3317ZM23.0321 102.324C22.3894 102.967 22.0717 103.677 22.0717 104.468C22.0717 105.801 23.0248 106.92 23.5021 106.147C23.6569 105.896 24.7514 105.557 25.9337 105.394C27.6468 105.158 28.1448 105.204 28.386 105.621C28.6217 106.028 28.8028 106.049 29.2058 105.714C29.9559 105.091 29.8394 103.433 28.9675 102.324C28.3073 101.483 27.9481 101.363 26.1027 101.363C24.3087 101.363 23.8489 101.507 23.0321 102.324ZM27.4555 102.66C28.4407 103.35 28.5164 104.28 27.5877 104.28C27.2147 104.28 26.149 104.384 25.2195 104.512C23.5895 104.736 23.529 104.711 23.529 103.813C23.529 103.13 23.7953 102.785 24.5309 102.516C25.969 101.991 26.5406 102.019 27.4555 102.66ZM115.104 104.816C114.008 105.585 113.839 106.675 114.654 107.714C116.016 109.445 119.443 109.819 120.87 108.391C121.459 107.801 121.529 107.454 121.265 106.433C121.073 105.692 120.586 105.011 120.056 104.741C118.837 104.123 116.032 104.166 115.104 104.816ZM118.902 105.4C120.201 105.853 120.465 106.332 120.043 107.471C119.469 109.016 115.342 108.285 115.342 106.638C115.342 106.156 116.731 105.06 117.383 105.028C117.603 105.018 118.287 105.185 118.902 105.4ZM28.9941 107.897C28.9941 108.115 27.7524 108.867 26.235 109.568C24.1404 110.536 23.5064 110.998 23.603 111.482C23.7126 112.029 24.1692 112.12 26.8179 112.12C28.5157 112.12 30.1101 112.253 30.3604 112.415C30.9054 112.768 30.991 111.321 30.4737 110.502C30.1924 110.058 30.0521 110.054 29.5406 110.479C29.0302 110.903 28.891 110.902 28.6261 110.473C28.1805 109.751 28.5678 109.316 29.4164 109.586C30.0372 109.783 30.1246 109.671 30.0233 108.808C29.9119 107.859 28.9941 107.046 28.9941 107.897ZM27.5367 110.479C27.5367 110.68 27.2496 110.841 26.8991 110.838C26.3541 110.833 26.341 110.781 26.8081 110.479C27.4956 110.034 27.5367 110.034 27.5367 110.479ZM28.4979 115.037C28.3827 115.338 27.8985 115.584 27.4223 115.584C26.4503 115.584 25.3507 116.609 25.3507 117.515C25.3507 118.303 26.4969 120.689 26.8755 120.689C27.0387 120.689 27.1724 120.465 27.1724 120.193C27.1724 119.633 30.7764 118.136 32.1234 118.136C32.6065 118.136 33.0018 117.964 33.0018 117.754C33.0018 117.189 31.8713 115.079 31.4024 114.769C30.6708 114.285 28.7176 114.465 28.4979 115.037ZM31.1674 115.925C31.6793 116.882 31.6596 116.955 30.7535 117.44C30.101 117.79 29.8805 117.751 29.4925 117.22C29.161 116.767 29.1293 116.377 29.3854 115.898C29.8558 115.019 30.6894 115.031 31.1674 115.925ZM28.206 117.55C28.3543 118.32 27.6664 118.893 26.9323 118.61C26.4153 118.412 26.2685 117.339 26.6991 116.908C27.1513 116.456 28.0709 116.848 28.206 117.55ZM110.983 117.748C110.42 118.8 110.522 119.23 111.335 119.23C112.131 119.23 112.228 119.499 111.721 120.301C111.437 120.75 111.303 120.752 110.776 120.314C110.243 119.871 110.097 119.895 109.656 120.499C108.974 121.432 109.016 121.912 109.755 121.628C110.089 121.5 111.555 121.75 113.013 122.183C117.29 123.454 117.946 122.703 114.705 120.247C113.552 119.375 112.448 118.297 112.25 117.852C111.808 116.857 111.474 116.83 110.983 117.748ZM104.945 121.327C102.251 125.521 97.6813 130.092 93.3909 132.883C91.6577 134.011 92.3041 133.179 94.1196 131.946C96.6422 130.232 102.079 124.847 103.736 122.421C105.163 120.331 106.169 119.421 104.945 121.327ZM31.3299 121.378C30.0529 122.158 28.6298 123.831 28.6298 124.553C28.6298 125.411 30.1804 126.523 31.3765 126.523C32.0786 126.523 33.1184 126.095 34.0402 125.427C35.374 124.46 35.5522 124.161 35.5522 122.887C35.5522 121.834 35.362 121.342 34.8476 121.066C33.7953 120.503 32.5894 120.61 31.3299 121.378ZM114.067 121.054C114.191 121.254 114.046 121.418 113.746 121.418C113.445 121.418 113.098 121.254 112.974 121.054C112.85 120.853 112.995 120.689 113.295 120.689C113.596 120.689 113.943 120.853 114.067 121.054ZM34.3852 122.724C34.5677 124.002 33.3308 125.145 31.7066 125.199C30.5017 125.239 30.2514 125.122 30.1592 124.475C30.007 123.406 32.0596 121.708 33.3261 121.855C33.9659 121.929 34.3123 122.213 34.3852 122.724ZM107.706 123.773C106.853 124.681 107.001 125.632 107.94 125.272C108.757 124.958 109.903 125.893 109.494 126.541C109.02 127.292 109.07 128.851 109.586 129.367C110.564 130.347 112.077 129.743 113.252 127.903C114.039 126.672 114.039 126.56 113.247 126.604C112.285 126.658 108.724 124.289 108.936 123.737C109.269 122.868 108.535 122.89 107.706 123.773ZM36.6452 125.827C36.243 126.112 36.2167 126.262 36.545 126.396C37.2711 126.692 35.5624 128.711 34.5856 128.711C33.7662 128.711 33.0018 129.639 33.0018 130.634C33.0018 131.221 35.1197 133.816 35.5985 133.816C35.7733 133.816 35.9165 133.502 35.9165 133.118C35.9165 132.123 39.5082 129.308 40.1246 129.82C41.0056 130.552 41.1244 129.419 40.2631 128.502C39.267 127.44 38.8312 127.379 38.8312 128.302C38.8312 129.177 37.9113 129.949 37.1964 129.675C36.4262 129.379 36.5097 128.625 37.3972 127.864C38.6516 126.789 37.9546 124.902 36.6452 125.827ZM111.578 127.08C112.278 127.78 111.95 128.711 111.003 128.711C110.076 128.711 109.889 128.36 110.272 127.344C110.638 126.375 110.835 126.335 111.578 127.08ZM103.886 128.792C103.104 129.91 103.171 130.17 104.241 130.17C105.442 130.17 105.718 130.964 104.935 132.16C103.372 134.548 106.476 136.037 108.534 133.887C109.572 132.802 109.847 131.786 109.016 132.106C108.339 132.365 105.141 129.53 105.141 128.671C105.141 127.746 104.58 127.8 103.886 128.792ZM36.2597 130.326C36.6062 130.744 36.5377 130.931 35.9169 131.263C35.0538 131.725 34.0948 131.222 34.0948 130.307C34.0948 129.643 35.7045 129.657 36.2597 130.326ZM107.415 132.498C108.016 132.955 108.014 133.011 107.386 133.58C106.184 134.669 105.14 134.085 105.865 132.73C106.323 131.874 106.549 131.84 107.415 132.498ZM43.2033 133.042C43.2033 134.283 42.3303 134.636 41.0424 133.915C39.8893 133.27 39.8856 133.271 38.9948 134.292C38.504 134.855 38.1025 135.464 38.1025 135.647C38.1025 136.233 40.3454 138.556 40.912 138.556C41.2348 138.556 41.3783 138.344 41.2614 138.039C41.1524 137.755 41.4752 137.058 41.9787 136.489C42.4823 135.922 43.1464 135.088 43.455 134.636C43.7633 134.185 44.3247 133.816 44.7025 133.816C45.5602 133.816 45.5769 133.492 44.7517 132.865C43.842 132.174 43.2033 132.247 43.2033 133.042ZM99.3748 133.201C98.4038 134.236 98.3787 134.545 99.2669 134.545C100.318 134.545 100.971 135.503 100.394 136.199C99.9858 136.691 99.7996 136.625 98.8552 135.659C97.9695 134.752 97.6555 134.626 97.0667 134.941C96.1744 135.419 96.3449 136.543 97.3144 136.573C98.5601 136.612 99.3114 137.145 99.3114 137.992C99.3114 138.969 100.372 140.018 101.344 140.005C102.312 139.991 104.59 138.045 104.26 137.512C104.116 137.277 103.855 137.174 103.681 137.281C103.507 137.389 103.067 137.054 102.704 136.535C102.341 136.017 101.658 135.108 101.186 134.515C100.489 133.639 100.411 133.335 100.775 132.897C101.547 131.966 100.275 132.243 99.3748 133.201ZM92.0246 133.606C92.0246 133.919 87.8551 136.01 87.4868 135.883C87.2773 135.81 88.1717 135.241 89.4742 134.616C92.0938 133.362 92.0246 133.389 92.0246 133.606ZM40.8234 135.039C41.4348 135.486 41.4464 135.605 40.9499 136.315C40.4063 137.092 40.3968 137.092 39.7545 136.382C39.3985 135.988 39.2039 135.414 39.322 135.106C39.5865 134.416 39.9501 134.4 40.8234 135.039ZM48.2359 137.189C48.1226 138.365 48.1087 138.373 46.3756 138.251C43.2357 138.03 42.5395 139.868 45.0184 141.833C46.3176 142.863 47.5659 143.072 47.0066 142.167C46.6871 141.649 48.5554 138.647 49.6397 137.936L50.5775 137.321L49.7647 136.662C48.6279 135.741 48.3667 135.831 48.2359 137.189ZM86.7235 136.321C86.2061 136.794 81.7936 138.196 80.9327 138.161C80.5206 138.143 81.4952 137.675 83.0983 137.118C86.2138 136.038 87.2915 135.801 86.7235 136.321ZM102.59 137.922C102.59 138.476 101.415 139.231 100.875 139.024C100.237 138.778 100.283 138.2 101.006 137.401C101.464 136.895 101.726 136.834 102.099 137.144C102.369 137.368 102.59 137.719 102.59 137.922ZM92.0388 137.896C91.1564 138.844 91.1152 139.493 91.829 141.203C92.3733 142.506 94.2842 144.39 95.0621 144.39C95.6811 144.39 97.4897 142.631 97.4897 142.029C97.4897 140.217 95.0333 137.098 93.6069 137.098C93.153 137.098 92.4472 137.457 92.0388 137.896ZM51.7357 139.194C51.7193 139.746 51.4399 141.147 51.1145 142.307C50.505 144.481 50.5921 145.484 51.3903 145.484C51.8093 145.484 52.6411 144.403 54.2657 141.747C54.6031 141.195 55.1113 140.744 55.3955 140.744C56.1493 140.744 56.4954 139.986 55.9107 139.615C55.0782 139.087 54.0296 139.218 54.2606 139.821C54.5142 140.482 54.0289 140.821 53.2554 140.524C52.5795 140.264 52.4823 139.411 53.1049 139.203C53.7072 139.002 53.1271 138.192 52.3813 138.192C51.9594 138.192 51.7558 138.507 51.7357 139.194ZM95.2949 139.54C96.248 140.752 96.1817 142.681 95.1801 142.871C93.8474 143.124 91.8643 140.065 92.5941 138.883C93.0127 138.206 94.5382 138.577 95.2949 139.54ZM46.4976 139.486C46.8846 139.953 46.8609 140.157 46.3599 140.658C45.8145 141.204 45.6975 141.209 45.1937 140.705C44.5787 140.089 44.8224 138.921 45.566 138.921C45.8203 138.921 46.2397 139.175 46.4976 139.486ZM87.2882 139.908C85.4097 140.595 84.4424 143.024 85.6487 144.026C85.9493 144.276 86.1952 144.844 86.1952 145.29C86.1952 146.231 87.2398 147.309 88.0238 147.177C88.8581 147.036 91.2959 146.174 91.2959 146.02C91.2959 145.944 90.8963 145.482 90.4073 144.993C89.8364 144.421 89.3547 143.307 89.0593 141.877C88.6115 139.707 88.4198 139.494 87.2882 139.908ZM88.1936 142.941C87.8322 143.526 86.1912 143.345 85.9409 142.693C85.7915 142.304 86.0145 141.842 86.5676 141.393C87.4227 140.701 87.4278 140.702 87.9196 141.641C88.1914 142.16 88.3146 142.745 88.1936 142.941ZM52.6761 142.203C52.4615 142.604 52.2254 142.932 52.1507 142.932C52.0764 142.932 52.1015 142.604 52.2061 142.203C52.311 141.802 52.5475 141.473 52.7315 141.473C52.9162 141.473 52.8914 141.8 52.6761 142.203ZM80.8872 142.243C80.7494 142.466 80.8613 142.788 81.136 142.957C81.5178 143.194 81.5346 143.367 81.207 143.694C80.5582 144.344 79.659 143.838 79.89 142.954C80.0514 142.336 79.9166 142.203 79.1332 142.203C78.1878 142.203 77.7611 143.096 78.5769 143.368C78.7951 143.441 79.3704 144.635 79.855 146.023C81.3211 150.218 82.3594 150.182 82.393 145.936C82.4079 144.075 82.5923 142.775 82.8932 142.413C83.3093 141.911 83.2284 141.838 82.2534 141.838C81.6399 141.838 81.0249 142.02 80.8872 142.243ZM65.6097 143.149C63.9917 144.896 64.0722 149.16 65.731 149.58C66.8824 149.872 68.5751 149.164 69.0105 148.207C69.8688 146.322 69.4025 143.74 68.01 142.67C67.1341 141.997 66.5727 142.109 65.6097 143.149ZM73.8398 142.855C72.0607 143.144 71.2956 145.106 71.9762 147.635C72.432 149.329 73.4077 150.029 75.2195 149.961C76.8401 149.9 77.4533 149.297 76.5599 148.644C75.9824 148.221 75.9147 147.776 76.0666 145.406C76.2597 142.396 76.3103 142.454 73.8398 142.855ZM68.1364 144.821C68.4865 145.655 68.523 146.269 68.265 147.009C67.818 148.292 67.4449 148.529 66.318 148.247C65.5292 148.049 65.4279 147.824 65.4279 146.28C65.4279 145.321 65.6247 144.339 65.8651 144.099C66.6605 143.303 67.6278 143.61 68.1364 144.821ZM74.9007 146.192C74.9007 147.384 74.7266 148.466 74.5134 148.598C73.7917 149.044 72.7147 147.627 72.7147 146.23C72.7147 144.773 73.2331 144.026 74.2449 144.026C74.8027 144.026 74.9007 144.349 74.9007 146.192ZM89.0414 145.216C89.1981 146.029 88.1743 146.434 87.4613 145.841C87.0372 145.489 87.0102 145.273 87.3414 144.873C87.8956 144.205 88.8855 144.405 89.0414 145.216ZM81.4533 145.758C81.449 146.539 81.3695 146.64 81.0945 146.214C80.6339 145.5 80.6339 144.755 81.0945 144.755C81.2948 144.755 81.4563 145.207 81.4533 145.758Z" fill="#00B94A"/>
</svg>
