<svg width="304" height="304" viewBox="0 0 304 304" fill="none" xmlns="http://www.w3.org/2000/svg">
<path d="M131.851 111.496L101.727 225.673L135.737 205.265L155.171 233.934L152.742 113.925L131.851 111.496Z" fill="url(#paint0_linear_354_3151)"/>
<path d="M137.091 199.128L109.008 215.983L135.254 116.491L148.257 118.002L150.299 218.603L137.091 199.128Z" fill="white"/>
<path opacity="0.3" d="M153.3 141.376L152.742 113.939L131.865 111.496L125.421 135.918C127.721 140.552 129.299 146.711 133.335 148.024C138.778 149.78 146.025 141.219 152.027 141.219C152.455 141.232 152.881 141.285 153.3 141.376Z" fill="black"/>
<path d="M173.367 112.367L221.375 220.25L189.671 204.231L169.944 236.955L153.137 118.11L173.367 112.367Z" fill="url(#paint1_linear_354_3151)"/>
<path d="M158.213 121.411L170.809 117.838L211.991 210.396L187.95 198.243L172.666 223.604L158.213 121.411Z" fill="white"/>
<path opacity="0.3" d="M173.374 112.367L153.143 118.11L156.362 140.797H156.661C162.663 140.797 169.944 149.324 175.361 147.568C179.512 146.207 181.063 139.722 183.479 135.047L173.374 112.367Z" fill="black"/>
<path d="M217.135 82.6372C217.135 88.639 206.703 92.9192 204.941 98.329C203.124 103.943 208.983 113.524 205.581 118.199C202.178 122.874 191.202 120.288 186.486 123.718C181.771 127.147 180.954 138.361 175.34 140.178C169.896 141.941 162.643 133.373 156.641 133.373C150.639 133.373 143.365 141.907 137.948 140.178C132.334 138.361 131.47 127.12 126.802 123.718C122.134 120.315 111.151 122.915 107.701 118.199C104.251 113.483 110.164 103.943 108.341 98.3358C106.585 92.892 96.1533 88.639 96.1533 82.6372C96.1533 76.6354 106.585 72.3552 108.341 66.9454C110.164 61.3315 104.305 51.7504 107.701 47.0755C111.097 42.4007 122.079 44.9865 126.802 41.5569C131.524 38.1273 132.334 26.913 137.948 25.0962C143.392 23.3337 150.639 31.8669 156.641 31.8669C162.643 31.8669 169.924 23.3337 175.34 25.0962C180.947 26.913 181.812 38.1545 186.486 41.5569C191.161 44.9593 202.137 42.3598 205.581 47.0755C209.024 51.7912 203.124 61.3655 204.941 66.9386C206.717 72.328 217.135 76.6082 217.135 82.6372Z" fill="url(#paint2_linear_354_3151)"/>
<path opacity="0.6" d="M210.535 82.637C210.535 87.9855 201.239 91.7962 199.647 96.6207C198.021 101.622 203.24 110.155 200.212 114.313C197.184 118.471 187.405 116.178 183.2 119.233C178.995 122.288 178.273 132.278 173.272 133.904C168.447 135.469 161.962 127.868 156.614 127.868C151.265 127.868 144.794 135.442 139.99 133.877C134.988 132.25 134.219 122.241 130.055 119.206C125.89 116.171 116.105 118.491 113.043 114.286C109.981 110.081 115.234 101.595 113.614 96.5935C112.043 91.7689 102.727 87.9583 102.727 82.6097C102.727 77.2612 112.015 73.4505 113.614 68.626C115.234 63.6245 110.015 55.0913 113.043 50.9336C116.071 46.7759 125.856 49.0691 130.055 46.0137C134.253 42.9584 134.988 32.969 139.99 31.3427C144.807 29.7776 151.299 37.3785 156.641 37.3785C161.983 37.3785 168.474 29.7776 173.299 31.3427C178.3 32.969 179.069 42.9788 183.227 46.0137C187.385 49.0487 197.184 46.6942 200.239 50.9336C203.294 55.173 198.048 63.6245 199.674 68.626C201.273 73.4505 210.535 77.2612 210.535 82.637Z" fill="white"/>
<path d="M156.641 127.548C181.46 127.548 201.579 107.429 201.579 82.6098C201.579 57.7909 181.46 37.6711 156.641 37.6711C131.822 37.6711 111.702 57.7909 111.702 82.6098C111.702 107.429 131.822 127.548 156.641 127.548Z" fill="white"/>
<path d="M135.227 61.5423C140.596 58.9021 144.835 57.3982 151.714 49.1985H168.481V102.521H177.239V115.048H139.561V102.548H148.979V67.5986L139.561 72.0284L135.227 61.5423Z" fill="black"/>
<path opacity="0.2" d="M227.955 302.757C263.214 302.757 291.797 297.158 291.797 290.25C291.797 283.343 263.214 277.743 227.955 277.743C192.696 277.743 164.113 283.343 164.113 290.25C164.113 297.158 192.696 302.757 227.955 302.757Z" fill="black"/>
<path d="M286.973 131.25C285.972 126.575 285.414 126.8 279.739 125.017C273.499 123.058 267.019 121.971 260.482 121.785C256.274 121.626 252.067 122.115 248.009 123.234C248.009 123.234 240.877 124.126 235.76 125.276C231.371 134.04 236.325 146.071 236.325 146.071C236.325 146.071 242.558 159.762 242.558 166.778C242.558 173.794 237.209 186.035 236.992 186.369C236.774 186.702 220.517 214.949 216.394 224.55C212.27 234.152 212.168 238.024 214.393 241.807C216.618 245.591 242 280.547 242 280.547C242 280.547 235.195 288.338 232.092 290.345C228.989 292.353 225.09 292.666 226.451 294.34C227.812 296.014 236.801 296.674 239.251 296.116C241.701 295.558 247.267 290.672 250.492 288.44C253.718 286.208 256.617 284.65 255.392 281.867C254.167 279.084 251.493 276.634 250.383 274.381C249.274 272.129 245.259 265.699 243.034 257.683C240.809 249.667 239.142 244.883 236.577 240.541C234.011 236.2 232.235 234.533 232.235 234.533C232.235 234.533 241.809 225.734 246.933 221.284C252.057 216.834 256.617 213.159 256.617 213.159C256.617 213.159 273.982 195.344 275.541 191.445C277.099 187.546 281.332 175.304 284.448 164.621C287.565 153.937 287.973 135.925 286.973 131.25Z" fill="url(#paint3_linear_354_3151)" stroke="black" stroke-width="0.967197" stroke-linecap="round" stroke-linejoin="round"/>
<path d="M236.325 146.058C236.325 146.058 231.371 134.027 235.76 125.262C234.555 125.516 233.367 125.843 232.202 126.242C227.976 127.8 207.378 136.449 205.261 137.375C203.145 138.3 199.253 141.492 200.253 144.86C201.253 148.228 202.812 149.201 209.936 149.31C217.061 149.419 236.325 146.058 236.325 146.058Z" fill="black" stroke="black" stroke-width="0.967197" stroke-linecap="round" stroke-linejoin="round"/>
<path d="M221.184 85.2775C221.184 85.2775 227.526 88.503 227.86 89.0609C228.193 89.6189 227.751 90.837 227.302 91.7284C226.853 92.6198 224.41 94.7361 223.3 95.1784C222.191 95.6207 223.076 92.2864 223.076 90.4151C223.076 88.5438 219.844 86.9651 219.51 86.0737C219.177 85.1822 220.327 84.9373 221.184 85.2775Z" fill="white" stroke="black" stroke-width="0.967197" stroke-linecap="round" stroke-linejoin="round"/>
<path d="M209.045 148.507L206.602 149.188C204.152 149.868 199.92 150.188 199.253 149.297C198.586 148.405 196.245 136.606 196.578 130.039C196.912 123.473 206.711 95.4167 207.827 93.2936C208.943 91.1705 218.51 84.2773 218.51 84.2773C218.51 84.2773 219.735 83.9438 221.184 85.2844C222.634 86.6249 226.751 89.4013 226.526 90.5104C226.302 91.6196 223.968 94.9675 222.961 95.859C221.953 96.7504 220.402 95.859 220.402 95.859C220.402 95.859 219.177 97.9684 217.619 98.6421C216.06 99.3158 212.386 98.5264 212.386 98.5264C212.386 98.5264 209.385 117.233 210.27 124.385C211.154 131.536 212.944 139.859 211.631 143.867" fill="black"/>
<path d="M209.045 148.507L206.602 149.188C204.152 149.868 199.92 150.188 199.253 149.297C198.586 148.405 196.245 136.606 196.578 130.039C196.912 123.473 206.711 95.4167 207.827 93.2936C208.943 91.1705 218.51 84.2773 218.51 84.2773C218.51 84.2773 219.735 83.9438 221.184 85.2844C222.634 86.6249 226.751 89.4013 226.526 90.5104C226.302 91.6196 223.968 94.9675 222.961 95.859C221.953 96.7504 220.402 95.859 220.402 95.859C220.402 95.859 219.177 97.9684 217.619 98.6421C216.06 99.3158 212.386 98.5264 212.386 98.5264C212.386 98.5264 209.385 117.233 210.27 124.385C211.154 131.536 212.944 139.859 211.631 143.867" stroke="black" stroke-width="0.967197" stroke-linecap="round" stroke-linejoin="round"/>
<path d="M217.605 98.635C219.163 97.9545 220.388 95.8519 220.388 95.8519C220.388 95.8519 221.946 96.7433 222.947 95.8519C223.947 94.9604 226.288 91.6193 226.512 90.5033C226.737 89.3873 222.613 86.611 221.171 85.2773C219.728 83.9435 218.496 84.2702 218.496 84.2702C218.496 84.2702 208.922 91.177 207.813 93.2865C207.541 93.8036 206.758 95.8519 205.717 98.7303C207.577 100.026 209.731 100.837 211.984 101.092C212.216 99.4856 212.372 98.4989 212.372 98.4989C212.372 98.4989 216.06 99.3019 217.605 98.635Z" fill="white" stroke="black" stroke-width="0.967197" stroke-linecap="round" stroke-linejoin="round"/>
<path d="M227.52 91.5173C227.52 91.5173 229.078 91.9596 228.636 93.0756C228.193 94.1916 226.519 95.4096 225.519 95.3007C224.519 95.1919 224.294 93.8513 224.961 92.7421C225.628 91.633 226.962 91.0682 227.52 91.5173Z" fill="white" stroke="black" stroke-width="0.967197" stroke-linecap="round" stroke-linejoin="round"/>
<path d="M220.402 95.852C220.402 95.852 219.51 94.8449 220.068 94.0691C220.626 93.2934 221.735 93.8446 221.735 93.8446L220.068 91.7283" stroke="black" stroke-width="0.967197" stroke-linecap="round" stroke-linejoin="round"/>
<path d="M233.623 177.114C237.104 177.114 239.925 174.293 239.925 170.813C239.925 167.333 237.104 164.512 233.623 164.512C230.143 164.512 227.322 167.333 227.322 170.813C227.322 174.293 230.143 177.114 233.623 177.114Z" fill="white" stroke="black" stroke-width="0.967197" stroke-linecap="round" stroke-linejoin="round"/>
<path d="M231.97 164.634C232.63 162.854 233.674 161.241 235.027 159.91C236.381 158.578 238.011 157.561 239.802 156.931C246.035 154.604 256.188 152.168 262.061 144.458C267.933 136.748 265.81 122.002 265.81 122.002L270.376 122.622C270.376 122.622 269.764 137.361 266.831 145.186C263.898 153.012 254.963 157.435 247.873 158.646C240.782 159.857 234.91 159.742 231.97 164.634Z" fill="white" stroke="black" stroke-width="0.967197" stroke-linecap="round" stroke-linejoin="round"/>
<path d="M231.969 164.634C231.969 164.634 231.235 159.619 235.76 154.359C240.285 149.099 247.627 143.356 248.852 137.973C250.077 132.591 248.73 123.295 248.73 123.295L252.642 122.193C253.719 127.064 253.761 132.106 252.765 136.993C251.05 144.574 246.892 148.249 241.755 152.161C236.617 156.074 231.969 164.634 231.969 164.634Z" fill="white" stroke="black" stroke-width="0.967197" stroke-linecap="round" stroke-linejoin="round"/>
<path d="M282.406 127.242C281.094 128.325 280.013 129.662 279.23 131.173C278.446 132.684 277.976 134.337 277.847 136.034C277.398 141.825 278.398 157.074 278.398 163.09C278.398 169.105 273.948 178.115 274.615 182.79C275.282 187.464 281.42 193.031 284.747 189.363C288.075 185.695 290.647 173.889 291.872 158.633C293.097 143.376 292.096 133.142 290.205 130.053C288.313 126.963 285.19 124.901 282.406 127.242Z" fill="black" stroke="black" stroke-width="0.967197" stroke-linecap="round" stroke-linejoin="round"/>
<path d="M286.081 184.797C285.401 188.58 283.298 192.282 281.073 193.031C278.848 193.779 276.309 190.697 272.723 184.906C269.137 179.115 267.28 172.773 265.919 166.091C264.712 159.982 263.822 153.816 263.251 147.616C263.135 145.057 263.251 144.383 264.694 142.852C266.136 141.321 271.376 140.069 271.376 140.069L272.267 138.511C272.71 137.735 275.051 137.286 276.16 137.96C277.269 138.633 277.834 142.301 277.834 142.301C277.834 142.301 280.95 144.077 280.95 145.86C280.95 147.643 278.943 149.535 276.718 152.542C274.493 155.55 273.826 154.434 273.601 157.217C273.377 160 274.962 163.675 277.718 166.233C280.474 168.792 284.523 171.909 285.625 176.917" fill="black"/>
<path d="M286.081 184.797C285.401 188.58 283.298 192.282 281.073 193.031C278.848 193.779 276.309 190.697 272.723 184.906C269.137 179.115 267.28 172.773 265.919 166.091C264.712 159.982 263.822 153.816 263.251 147.616C263.135 145.057 263.251 144.383 264.694 142.852C266.136 141.321 271.376 140.069 271.376 140.069L272.267 138.511C272.71 137.735 275.051 137.286 276.16 137.96C277.269 138.633 277.834 142.301 277.834 142.301C277.834 142.301 280.95 144.077 280.95 145.86C280.95 147.643 278.943 149.535 276.718 152.542C274.493 155.55 273.826 154.434 273.601 157.217C273.377 160 274.962 163.675 277.718 166.233C280.474 168.792 284.523 171.909 285.625 176.917" stroke="black" stroke-width="0.967197" stroke-linecap="round" stroke-linejoin="round"/>
<path d="M273.595 157.802C273.595 157.598 273.595 157.387 273.595 157.19C273.819 154.407 274.486 155.516 276.711 152.515C278.936 149.514 280.944 147.616 280.944 145.833C280.944 144.05 277.827 142.274 277.827 142.274C277.827 142.274 277.269 138.599 276.153 137.932C275.037 137.266 272.703 137.708 272.261 138.484L271.363 140.042C271.363 140.042 266.13 141.267 264.68 142.825C263.231 144.383 263.122 145.057 263.238 147.588C263.306 149.249 263.85 153.713 264.599 158.476C267.602 159.087 270.716 158.854 273.595 157.802Z" fill="white" stroke="black" stroke-width="0.967197" stroke-linecap="round" stroke-linejoin="round"/>
<path d="M275.65 191.125C262.244 186.641 245.634 184.518 238.121 183.729C237.502 185.266 237.053 186.26 236.992 186.355C236.767 186.689 220.517 214.935 216.394 224.537C212.27 234.138 212.168 238.01 214.393 241.794C216.618 245.577 242 280.533 242 280.533C246.083 280.036 249.723 277.294 251.302 275.94C250.944 275.456 250.625 274.944 250.349 274.409C249.233 272.184 245.225 265.726 243 257.71C240.775 249.694 239.108 244.91 236.543 240.569C233.977 236.227 232.201 234.56 232.201 234.56C232.201 234.56 241.775 225.762 246.899 221.311C252.023 216.861 256.583 213.186 256.583 213.186C256.583 213.186 273.948 195.371 275.507 191.472C275.554 191.363 275.595 191.248 275.65 191.125Z" fill="#A6A6A6" stroke="black" stroke-width="0.967197" stroke-linecap="round" stroke-linejoin="round"/>
<path d="M251.302 275.94C250.023 278.362 244.674 282.983 244.674 282.983C244.674 282.983 243.313 281.533 242.558 280.533C241.966 279.778 241.762 279.968 241.694 280.111L242 280.533C242 280.533 235.195 288.324 232.092 290.332C228.989 292.339 225.09 292.666 226.451 294.34C227.812 296.014 236.801 296.674 239.251 296.116C241.701 295.558 247.267 290.672 250.492 288.44C253.718 286.208 256.617 284.65 255.392 281.867C254.405 279.71 252.588 277.75 251.302 275.94Z" fill="url(#paint4_linear_354_3151)" stroke="black" stroke-width="0.967197" stroke-linecap="round" stroke-linejoin="round"/>
<path d="M237.434 294.782C235.127 295.381 228.955 294.102 226.206 293.421C226.148 293.575 226.137 293.742 226.174 293.903C226.212 294.063 226.296 294.208 226.417 294.319C227.778 295.986 236.767 296.653 239.217 296.095C241.667 295.537 247.233 290.652 250.458 288.42C253.684 286.188 256.583 284.629 255.358 281.846C255.215 281.526 255.052 281.207 254.875 280.894C254.296 281.669 253.616 282.54 252.908 283.405C250.908 285.875 240.442 294 237.434 294.782Z" fill="white" stroke="black" stroke-width="0.967197" stroke-linecap="round" stroke-linejoin="round"/>
<path d="M268.831 196.705C268.831 196.705 259.114 188.022 249.683 184.906C240.251 181.789 222.627 182.68 218.177 184.463C213.726 186.246 215.618 191.948 215.727 198.488C215.836 205.027 220.293 217.187 222.185 224.094C224.076 231.001 224.743 238.677 224.968 241.344C225.192 244.012 225.192 245.019 225.192 245.019C225.192 245.019 212.835 244.91 209.603 244.576C206.37 244.243 204.485 245.257 203.927 246.359C203.597 246.931 203.479 247.601 203.594 248.251C203.594 248.251 211.943 253.695 219.177 256.709C226.41 259.724 233.317 261.609 234.209 261.16C235.1 260.711 235.985 253.926 235.985 249.251C235.985 244.576 237.434 222.087 237.434 218.079V207.729C237.434 207.729 259.032 219.195 267.606 216.52C276.18 213.846 275.65 191.125 275.65 191.125L268.715 188.914" fill="#A6A6A6"/>
<path d="M268.831 196.705C268.831 196.705 259.114 188.022 249.683 184.906C240.251 181.789 222.627 182.68 218.177 184.463C213.726 186.246 215.618 191.948 215.727 198.488C215.836 205.027 220.293 217.187 222.185 224.094C224.076 231.001 224.743 238.677 224.968 241.344C225.192 244.012 225.192 245.019 225.192 245.019C225.192 245.019 212.835 244.91 209.603 244.576C206.37 244.243 204.485 245.257 203.927 246.359C203.597 246.931 203.479 247.601 203.594 248.251C203.594 248.251 211.943 253.695 219.177 256.709C226.41 259.724 233.317 261.609 234.209 261.16C235.1 260.711 235.985 253.926 235.985 249.251C235.985 244.576 237.434 222.087 237.434 218.079V207.729C237.434 207.729 259.032 219.195 267.606 216.52C276.18 213.846 275.65 191.125 275.65 191.125L268.715 188.914" stroke="black" stroke-width="0.967197" stroke-linecap="round" stroke-linejoin="round"/>
<path d="M225.192 245.019C225.192 245.019 212.835 244.91 209.603 244.577C206.37 244.243 204.485 245.257 203.927 246.36C203.597 246.931 203.479 247.601 203.594 248.251C203.594 248.251 211.943 253.695 219.177 256.71C226.41 259.724 233.317 261.609 234.209 261.16C234.991 260.772 235.774 255.464 235.951 251.007C231.364 247.101 225.192 245.019 225.192 245.019Z" fill="url(#paint5_linear_354_3151)" stroke="black" stroke-width="0.967197" stroke-linecap="round" stroke-linejoin="round"/>
<path d="M234.208 261.16C234.555 260.99 234.889 259.799 235.202 258.22C231.317 257.936 227.494 257.09 223.852 255.709C217.557 253.334 207.302 248.347 203.805 246.625C203.569 247.133 203.495 247.7 203.594 248.251C203.594 248.251 211.943 253.695 219.177 256.71C226.41 259.724 233.317 261.602 234.208 261.16Z" fill="white" stroke="black" stroke-width="0.967197" stroke-linecap="round" stroke-linejoin="round"/>
<path d="M237.434 207.729C237.434 207.729 237.325 198.045 232.426 193.255" stroke="black" stroke-width="0.967197" stroke-linecap="round" stroke-linejoin="round"/>
<path d="M229.854 111.149C229.854 111.149 232.507 119.852 233.678 122.928C234.848 126.004 234.95 127.691 238.659 131.203C242.368 134.714 243.116 137.463 246.934 137.776C250.751 138.089 252.241 135.735 252.241 135.735C252.241 135.735 252.772 139.239 254.786 140.294C256.8 141.348 261.258 141.566 264.013 136.156C266.769 130.747 265.075 128.1 264.122 125.555C263.17 123.01 261.89 119.825 261.89 119.825C263.275 117.915 263.992 115.603 263.932 113.245C263.721 109.536 262.659 109.107 261.496 108.788C260.332 108.468 257.039 110.591 255.664 109.958C254.289 109.325 256.617 105.712 252.901 105.399C249.186 105.086 245.368 110.162 238.686 110.7C232.004 111.237 229.609 109.135 229.854 111.149Z" fill="white" stroke="black" stroke-width="0.967197" stroke-linecap="round" stroke-linejoin="round"/>
<path d="M252.207 135.762L258.25 128.957C260.904 125.99 260.904 121.533 260.904 121.533" fill="white"/>
<path d="M252.207 135.762L258.25 128.957C260.904 125.99 260.904 121.533 260.904 121.533" stroke="black" stroke-width="0.967197" stroke-linecap="round" stroke-linejoin="round"/>
<path d="M240.326 121.547C240.326 121.547 241.068 124.949 240.326 126.637C239.584 128.324 240.217 129.188 241.49 129.29C242.099 129.394 242.725 129.321 243.293 129.08" stroke="black" stroke-width="0.967197" stroke-linecap="round" stroke-linejoin="round"/>
<path d="M244.252 121.866C244.252 121.866 244.994 119.641 248.492 120.274" stroke="black" stroke-width="1.93439" stroke-linecap="round" stroke-linejoin="round"/>
<path d="M235.447 122.499C235.447 122.499 237.489 121.335 238.945 122.928" stroke="black" stroke-width="1.93439" stroke-linecap="round" stroke-linejoin="round"/>
<path d="M233.644 119.111C233.644 119.111 236.08 116.668 238.945 120.472" stroke="black" stroke-width="0.967197" stroke-linecap="round" stroke-linejoin="round"/>
<path d="M242.34 119.424C242.34 119.424 243.504 115.504 247.103 116.021" stroke="black" stroke-width="0.967197" stroke-linecap="round" stroke-linejoin="round"/>
<path d="M245.627 130.141C245.627 130.141 251.146 129.079 252.207 122.608C252.207 122.608 254.929 126.97 253.044 130.467C251.159 133.965 248.601 133.427 248.601 133.427L245.627 130.141Z" stroke="black" stroke-width="0.967197" stroke-linecap="round" stroke-linejoin="round"/>
<path d="M233.426 98.8462C233.426 98.8462 236.189 95.0287 233.113 95.5595C230.037 96.0903 224.947 102.031 225.58 107.652C226.213 113.272 237.563 114.545 243.082 113.701C246.394 113.184 249.467 111.664 251.887 109.346C251.887 109.346 249.846 113.701 251.996 114.225C254.147 114.749 255.174 114.225 255.174 114.225C255.174 114.225 257.216 118.791 257.828 117.41C258.44 116.028 257.678 114.946 258.039 113.17C258.89 109.033 261.965 109.135 261.965 109.135C261.965 109.135 262.496 98.8462 258.679 94.845C254.861 90.8438 244.885 90.3879 240.748 92.511C236.611 94.634 233.426 98.8462 233.426 98.8462Z" fill="black" stroke="black" stroke-width="0.967197" stroke-linecap="round" stroke-linejoin="round"/>
<path opacity="0.2" d="M73.2898 302.758C108.549 302.758 137.132 297.158 137.132 290.251C137.132 283.343 108.549 277.743 73.2898 277.743C38.0307 277.743 9.44751 283.343 9.44751 290.251C9.44751 297.158 38.0307 302.758 73.2898 302.758Z" fill="black"/>
<path d="M30.9165 276.505C30.9165 276.505 22.6079 280.792 19.2872 284.671C15.9665 288.549 19.7023 291.176 26.4866 288.964C33.271 286.753 35.7615 277.199 35.7615 277.199C35.7615 277.199 33.4071 275.26 30.9165 276.505Z" fill="url(#paint6_linear_354_3151)" stroke="black" stroke-width="0.967197" stroke-linecap="round" stroke-linejoin="round"/>
<path d="M119.106 276.505C119.106 276.505 127.415 280.792 130.736 284.671C134.056 288.549 130.32 291.176 123.536 288.964C116.752 286.753 114.261 277.199 114.261 277.199C114.261 277.199 116.616 275.26 119.106 276.505Z" fill="url(#paint7_linear_354_3151)" stroke="black" stroke-width="0.967197" stroke-linecap="round" stroke-linejoin="round"/>
<path d="M66.7842 100.949L66.6821 108.332C63.5935 107.612 60.5471 106.721 57.5569 105.664C52.6371 103.922 51.4326 105.46 48.5338 107.917C45.635 110.373 31.9302 126.188 30.474 127.501C29.0178 128.814 24.5266 135.667 24.5266 139.185C24.5266 142.703 27.2961 145.132 32.8284 142.158C38.3607 139.185 48.5134 131.189 48.5134 131.189C48.5134 131.189 53.7462 146.772 53.8483 149.439C53.9504 152.107 50.2554 157.945 48.3092 163.28C46.3631 168.615 45.4444 183.477 44.1243 188.601C42.8042 193.725 39.4086 199.06 36.748 212.69C34.0873 226.32 33.8764 236.785 33.2639 239.446C32.6515 242.107 31.8349 252.266 30.9027 260.241C29.9704 268.216 29.3648 277.049 30.3923 277.975C31.4198 278.9 34.3867 279.512 35.8361 277.975C37.2855 276.437 48.0234 249.19 50.2078 242.937C52.3921 236.683 66.9203 208.382 68.1519 205.204C69.3836 202.027 71.6019 197.638 71.6019 197.638C71.6019 197.638 79.1892 211.785 81.7478 218.855C84.3064 225.925 98.3583 253.198 102.257 260.364C106.157 267.529 112.505 277.069 114.247 277.995C115.989 278.92 118.8 278.349 119.106 276.505C119.412 274.661 116.507 246.319 114.343 240.984C112.179 235.649 110.757 232.682 110.144 228.79C109.532 224.897 103.577 193.01 100.815 187.165C98.052 181.32 97.6369 180.197 97.5349 179.884C97.4328 179.571 95.4934 172.712 92.6082 165.737C89.723 158.762 86.5656 152.515 86.5656 152.515L91.7917 138.164C91.7917 138.164 99.481 154.053 103.067 157.435C106.653 160.817 118.344 175.372 118.344 175.372L122.032 171.684L110.144 151.27C110.144 151.27 107.579 138.048 104.503 129.74C101.427 121.431 99.1748 115.286 95.1736 113.408C91.1724 111.53 82.5644 111.047 81.0265 110.435C79.4886 109.822 79.999 109.305 79.8969 108.999C79.7949 108.693 80.4141 101.827 80.4141 101.827C80.4141 101.827 74.7049 103.82 71.983 102.997C70.2075 102.427 68.4709 101.743 66.7842 100.949Z" fill="black" stroke="black" stroke-width="0.967197" stroke-linecap="round" stroke-linejoin="round"/>
<path d="M88.8659 174.631L77.0188 189.989" stroke="#101521" stroke-width="0.967197" stroke-linecap="round" stroke-linejoin="round"/>
<path d="M51.1335 175.951L64.3008 189.554" stroke="#101521" stroke-width="0.967197" stroke-linecap="round" stroke-linejoin="round"/>
<path d="M53.3315 183.844L66.4919 192.18" stroke="#101521" stroke-width="0.967197" stroke-linecap="round" stroke-linejoin="round"/>
<path d="M86.5727 152.515L91.7987 138.164C91.7987 138.164 89.0292 118.703 83.7555 111.013C82.8352 110.911 81.9248 110.734 81.0336 110.482C79.4957 109.87 80.0061 109.353 79.904 109.047C79.8019 108.74 80.4212 101.874 80.4212 101.874C80.4212 101.874 74.7052 103.821 71.9833 102.997C70.1987 102.431 68.453 101.749 66.7572 100.956L66.6551 108.339C66.6551 108.339 65.2942 108.033 63.1711 107.448C60.9187 110.34 51.8208 122.336 48.5068 131.196C48.5068 131.196 53.7397 146.779 53.8418 149.447C53.9166 151.379 51.9977 154.972 50.1944 158.837C53.5356 161.076 59.5033 163.723 69.2477 163.9C80.9451 164.111 87.2191 161.416 89.9955 159.708C88.1037 155.53 86.5727 152.515 86.5727 152.515Z" fill="url(#paint8_linear_354_3151)" stroke="black" stroke-width="0.967197" stroke-linecap="round" stroke-linejoin="round"/>
<path d="M79.6456 118.703C81.6871 116.716 82.3131 113.701 82.2791 110.768C81.8555 110.711 81.4385 110.613 81.0338 110.476C79.4959 109.863 80.0063 109.346 79.9042 109.04C79.8021 108.734 80.4214 101.868 80.4214 101.868C80.4214 101.868 74.7054 103.821 71.9835 102.997C70.1989 102.431 68.4532 101.749 66.7574 100.956L66.6554 108.339C66.6554 108.339 66.2267 108.244 65.4849 108.06C64.9201 110.238 63.8314 116.096 67.3699 119.308C70.7722 122.357 76.4678 121.765 79.6456 118.703Z" fill="#A6A6A6" stroke="black" stroke-width="0.967197" stroke-linecap="round" stroke-linejoin="round"/>
<path d="M62.8854 107.304C62.8854 107.304 62.5792 114.994 60.633 119.199C58.6869 123.404 56.6318 124.017 56.6318 124.017C57.4506 124.536 58.3083 124.991 59.1972 125.378C60.8372 126.058 61.1434 125.786 61.1434 125.786C61.1434 125.786 64.2191 123.84 65.6549 118.709C66.5305 115.333 66.8771 111.841 66.6825 108.359L62.8854 107.304Z" fill="white" stroke="black" stroke-width="0.967197" stroke-linecap="round" stroke-linejoin="round"/>
<path d="M68.6557 68.0137C68.6557 68.0137 68.5264 64.5365 74.8412 62.8625C81.156 61.1885 86.7087 66.2104 87.2191 69.5652C87.7294 72.9199 86.7087 74.7232 85.933 75.009C85.1572 75.2948 81.8093 71.9128 76.7806 70.2457C71.7519 68.5785 68.0093 69.5652 68.6557 68.0137Z" fill="black" stroke="black" stroke-width="0.967197" stroke-linecap="round" stroke-linejoin="round"/>
<path d="M62.2048 84.9099C62.2048 84.9099 61.4358 82.5895 59.4829 84.0049C57.5299 85.4203 58.4486 89.8093 59.3536 91.0954C60.2586 92.3815 62.0755 92.3884 62.4429 91.4833C62.8104 90.5783 62.8308 85.4203 62.8308 85.4203" fill="#A6A6A6"/>
<path d="M62.2048 84.9099C62.2048 84.9099 61.4358 82.5895 59.4829 84.0049C57.5299 85.4203 58.4486 89.8093 59.3536 91.0954C60.2586 92.3815 62.0755 92.3884 62.4429 91.4833C62.8104 90.5783 62.8308 85.4203 62.8308 85.4203" stroke="black" stroke-width="0.967197" stroke-linecap="round" stroke-linejoin="round"/>
<path d="M61.9531 73.6887C61.9531 73.6887 59.7551 76.9142 60.7895 80.1396C61.8238 83.3651 61.3066 85.6787 61.3066 89.4213C61.3066 93.1639 64.0285 98.1858 65.8182 101.282C67.6078 104.378 71.2211 108.053 75.0862 106.896C78.9514 105.739 84.6129 97.6687 85.6744 93.9329C86.736 90.197 86.3209 89.292 86.9606 87.7405C88.0485 84.9944 88.576 82.0584 88.512 79.1053C88.512 74.8523 83.4833 69.1771 77.291 67.3739C71.0987 65.5706 64.2735 67.3739 61.9531 73.6887Z" fill="#A6A6A6" stroke="black" stroke-width="0.967197" stroke-linecap="round" stroke-linejoin="round"/>
<path d="M85.416 88.6457C85.416 88.6457 86.4503 85.5495 88.3829 86.4546C90.3154 87.3596 89.5397 92.1297 87.995 93.5451C86.4503 94.9605 84.7695 94.3209 84.7695 93.4158" fill="#A6A6A6"/>
<path d="M85.416 88.6457C85.416 88.6457 86.4503 85.5495 88.3829 86.4546C90.3154 87.3596 89.5397 92.1297 87.995 93.5451C86.4503 94.9605 84.7695 94.3209 84.7695 93.4158" stroke="black" stroke-width="0.967197" stroke-linecap="round" stroke-linejoin="round"/>
<path d="M70.8469 92.7693C71.4752 93.3933 72.3178 93.7541 73.203 93.7781C74.0881 93.8021 74.9491 93.4876 75.6103 92.8986" stroke="black" stroke-width="0.967197" stroke-linecap="round" stroke-linejoin="round"/>
<path d="M69.7175 95.7839C69.7175 95.7839 72.8409 98.5058 77.1415 95.7227" stroke="black" stroke-width="0.967197" stroke-linecap="round" stroke-linejoin="round"/>
<path d="M68.7715 89.6527C69.2939 89.6527 69.7174 88.9672 69.7174 88.1216C69.7174 87.2761 69.2939 86.5906 68.7715 86.5906C68.2492 86.5906 67.8257 87.2761 67.8257 88.1216C67.8257 88.9672 68.2492 89.6527 68.7715 89.6527Z" fill="black"/>
<path d="M77.9647 89.6527C78.487 89.6527 78.9105 88.9672 78.9105 88.1216C78.9105 87.2761 78.487 86.5906 77.9647 86.5906C77.4423 86.5906 77.0188 87.2761 77.0188 88.1216C77.0188 88.9672 77.4423 89.6527 77.9647 89.6527Z" fill="black"/>
<path d="M66.179 84.3521C66.8012 83.7957 67.5633 83.4193 68.3833 83.2634C69.2034 83.1075 70.0504 83.1781 70.8334 83.4675" stroke="black" stroke-width="0.967197" stroke-linecap="round" stroke-linejoin="round"/>
<path d="M75.6646 83.8212C75.6646 83.8212 79.1418 82.2902 81.0267 85.3523" stroke="black" stroke-width="0.967197" stroke-linecap="round" stroke-linejoin="round"/>
<path d="M77.291 67.3738C71.1055 65.5637 64.2735 67.3738 61.9531 73.6886C61.9531 73.6886 59.7551 76.9141 60.7895 80.1395C61.1185 81.1633 61.3196 82.2238 61.3883 83.2969L61.5652 83.4875C62.338 82.6215 62.8313 81.5423 62.9806 80.3913C63.2392 78.4587 67.4921 73.5865 74.4602 74.0765C81.4283 74.5664 84.7694 79.5203 85.4159 82.7185C86.0623 85.9168 84.3884 88.2576 86.9606 87.7404C88.0485 84.9943 88.576 82.0583 88.512 79.1052C88.512 74.8522 83.4833 69.1771 77.291 67.3738Z" fill="black" stroke="black" stroke-width="0.967197" stroke-linecap="round" stroke-linejoin="round"/>
<path d="M122.039 171.684L128.701 173.045C129.239 173.151 129.721 173.446 130.062 173.875C131.185 175.284 133.702 178.516 133.941 179.469C134.247 180.7 134.247 181.007 133.839 181.007C133.287 180.983 132.739 180.915 132.199 180.802C131.681 180.7 129.735 177.931 128.197 177.829C126.694 177.599 125.217 177.221 123.788 176.699C123.788 176.699 127.068 179.163 127.789 179.775C128.51 180.387 128.402 180.7 127.891 180.905C127.381 181.109 126.66 180.802 125.945 180.496C125.231 180.19 124.918 180.081 122.454 179.06C119.991 178.04 118.371 175.365 118.371 175.365L122.039 171.684Z" fill="#A6A6A6" stroke="black" stroke-width="0.967197" stroke-linecap="round" stroke-linejoin="round"/>
<path d="M95.9021 127.195L91.7988 138.164L95.487 131.604" stroke="#101521" stroke-width="0.967197" stroke-linecap="round" stroke-linejoin="round"/>
<path d="M48.5341 119.09V131.189L46.4858 122.377" stroke="#101521" stroke-width="0.967197" stroke-linecap="round" stroke-linejoin="round"/>
<path d="M68.8329 127.297C69.3665 127.663 69.9701 127.916 70.6059 128.039C71.2416 128.162 71.8959 128.153 72.5278 128.011C74.5693 127.501 80.1083 123.5 83.4971 118.988C86.8859 114.477 88.4169 111.898 88.4169 111.898L82.9731 110.258C82.9731 110.258 80.1015 118.049 76.3113 121.431C72.521 124.813 66.8799 126.453 66.8799 126.453L68.8329 127.297Z" fill="white" stroke="black" stroke-width="0.967197" stroke-linecap="round" stroke-linejoin="round"/>
<path d="M43.512 90.6938C43.512 90.6938 67.7098 126.677 68.8326 127.297C69.3651 127.596 69.9124 127.869 70.4725 128.113C70.4725 128.113 64.7361 128.113 63.0961 126.752C61.4562 125.391 48.3298 101.023 47.2002 98.3559C46.2879 96.3193 45.261 94.3359 44.1245 92.4154L43.1038 90.4624L43.512 90.6938Z" fill="white" stroke="black" stroke-width="0.967197" stroke-linecap="round" stroke-linejoin="round"/>
<path d="M43.5122 90.6938C43.5122 90.6938 53.5628 119.607 54.3998 121.655C55.2368 123.704 58.088 125.35 59.6259 125.555L61.1637 125.759C61.1637 125.759 53.8895 113.864 50.7116 106.705C47.5338 99.5468 43.5122 90.6938 43.5122 90.6938Z" fill="white" stroke="black" stroke-width="0.967197" stroke-linecap="round" stroke-linejoin="round"/>
<path d="M40.7973 91.9324C44.2811 91.9324 47.1053 89.1082 47.1053 85.6244C47.1053 82.1406 44.2811 79.3164 40.7973 79.3164C37.3134 79.3164 34.4893 82.1406 34.4893 85.6244C34.4893 89.1082 37.3134 91.9324 40.7973 91.9324Z" fill="white" stroke="black" stroke-width="0.967197" stroke-linecap="round" stroke-linejoin="round"/>
<path d="M34.904 140.927C31.6241 142.675 25.1596 146.772 23.9348 144.928C22.7099 143.084 22.9072 132.625 25.8809 126.371C28.8546 120.118 34.2167 108.937 34.3869 107.018C34.557 105.1 34.1283 92.3815 34.3052 91.8575C34.4821 91.3335 39.7898 88.4551 39.7898 88.4551C40.0694 88.3862 40.3636 88.4077 40.6301 88.5165C40.8967 88.6253 41.1219 88.8159 41.2733 89.0607C41.7972 89.9318 44.1517 92.4631 44.0632 93.1436C43.9748 93.8241 43.8863 94.3616 43.8863 94.3616C43.8863 94.3616 45.2813 95.151 44.9342 96.4575C44.5872 97.764 43.9748 101.772 43.1922 102.296C42.5411 102.61 41.8044 102.701 41.0964 102.555C41.0088 103.503 40.7433 104.426 40.3138 105.276C39.7082 106.236 39.0958 106.76 39.0073 107.018C38.9188 107.277 37.0543 137.443 36.0268 138.47" fill="black"/>
<path d="M34.904 140.927C31.6241 142.675 25.1596 146.772 23.9348 144.928C22.7099 143.084 22.9072 132.625 25.8809 126.371C28.8546 120.118 34.2167 108.937 34.3869 107.018C34.557 105.1 34.1283 92.3815 34.3052 91.8575C34.4821 91.3335 39.7898 88.4551 39.7898 88.4551C40.0694 88.3862 40.3636 88.4077 40.6301 88.5165C40.8967 88.6253 41.1219 88.8159 41.2733 89.0607C41.7972 89.9318 44.1517 92.4631 44.0632 93.1436C43.9748 93.8241 43.8863 94.3616 43.8863 94.3616C43.8863 94.3616 45.2813 95.151 44.9342 96.4575C44.5872 97.764 43.9748 101.772 43.1922 102.296C42.5411 102.61 41.8044 102.701 41.0964 102.555C41.0088 103.503 40.7433 104.426 40.3138 105.276C39.7082 106.236 39.0958 106.76 39.0073 107.018C38.9188 107.277 37.0543 137.443 36.0268 138.47" stroke="black" stroke-width="0.967197" stroke-linecap="round" stroke-linejoin="round"/>
<path d="M43.8865 94.3822C43.8865 94.3822 43.975 93.865 44.0634 93.1641C44.1519 92.4632 41.7975 89.9387 41.2735 89.0813C41.1221 88.8364 40.8969 88.6458 40.6303 88.537C40.3638 88.4282 40.0696 88.4067 39.7901 88.4756C39.7901 88.4756 34.4755 91.3472 34.3054 91.878C34.1353 92.4088 34.4823 102.732 34.4279 106.168C35.0573 106.681 35.7999 107.036 36.594 107.204C37.3881 107.372 38.2108 107.348 38.9939 107.134C38.9939 107.073 38.9939 107.032 38.9939 107.019C39.0824 106.76 39.6744 106.236 40.3004 105.277C40.7299 104.426 40.9954 103.503 41.083 102.555C41.791 102.701 42.5277 102.61 43.1788 102.296C43.9614 101.772 44.5398 97.7641 44.9208 96.4576C45.3019 95.1511 43.8865 94.3822 43.8865 94.3822Z" fill="#A6A6A6" stroke="black" stroke-width="0.967197" stroke-linecap="round" stroke-linejoin="round"/>
<path d="M43.8866 94.3819L39.4431 92.6399" stroke="black" stroke-width="0.967197" stroke-linecap="round" stroke-linejoin="round"/>
<path d="M38.9189 95.0833C38.9189 95.0833 43.5394 96.1244 43.9749 96.8253C44.2471 97.303 44.3968 97.8407 44.4104 98.3904" stroke="black" stroke-width="0.967197" stroke-linecap="round" stroke-linejoin="round"/>
<path d="M39.1846 97.6074C39.1846 97.6074 42.6686 98.39 43.1926 98.8255C43.7165 99.261 43.7982 101.091 43.7982 101.091" stroke="black" stroke-width="0.967197" stroke-linecap="round" stroke-linejoin="round"/>
<path d="M41.0967 102.575V101.18L42.0561 101.092" stroke="black" stroke-width="0.967197" stroke-linecap="round" stroke-linejoin="round"/>
<path d="M68.7304 164.614L67.4988 181.422L69.4517 181.728C69.4517 181.728 69.4517 163.995 68.7304 164.614Z" fill="white" stroke="black" stroke-width="0.967197" stroke-linecap="round" stroke-linejoin="round"/>
<path d="M69.9419 165.226L70.5543 183.885L73.6301 183.783L70.6564 165.41C70.6564 165.41 70.1665 163.688 69.9419 165.226Z" fill="white" stroke="black" stroke-width="0.967197" stroke-linecap="round" stroke-linejoin="round"/>
<path d="M122.222 15.7598L125.72 19.2234L127.653 16.1544L122.222 15.7598Z" fill="#B7B7B7"/>
<path d="M78.4336 21.5779L81.9312 25.0347L83.8638 21.9658L78.4336 21.5779Z" fill="#B7B7B7"/>
<path d="M50.9019 7.49219L54.3995 10.9558L56.3321 7.88006L50.9019 7.49219Z" fill="#B7B7B7"/>
<path d="M161.697 34.3911L159.499 38.7938L163.017 39.6716L161.697 34.3911Z" fill="#B7B7B7"/>
<path d="M195.238 3.22534L193.04 7.62802L196.558 8.50584L195.238 3.22534Z" fill="#B7B7B7"/>
<path d="M122.481 41.6725L119.058 38.134L117.064 41.1622L122.481 41.6725Z" fill="url(#paint9_linear_354_3151)"/>
<path d="M102.42 42.9857L99.0045 39.4473L97.0039 42.4754L102.42 42.9857Z" fill="url(#paint10_linear_354_3151)"/>
<path d="M145.638 27.2192L149.639 24.3544L146.937 21.9319L145.638 27.2192Z" fill="url(#paint11_linear_354_3151)"/>
<path d="M100.583 12.9631L104.585 10.1051L101.883 7.67578L100.583 12.9631Z" fill="url(#paint12_linear_354_3151)"/>
<path d="M177.171 38.4675L181.172 35.6095L178.47 33.1802L177.171 38.4675Z" fill="url(#paint13_linear_354_3151)"/>
<path d="M16.9936 40.8286L14.7957 45.2245L18.3137 46.1091L16.9936 40.8286Z" fill="#B7B7B7"/>
<path d="M39.3537 44.1152L37.1558 48.5179L40.6738 49.3957L39.3537 44.1152Z" fill="#B7B7B7"/>
<path d="M27.1058 29.029L23.683 25.4905L21.6824 28.5186L27.1058 29.029Z" fill="url(#paint14_linear_354_3151)"/>
<path d="M120.916 63.7402L124.924 60.8822L122.223 58.4529L120.916 63.7402Z" fill="url(#paint15_linear_354_3151)"/>
<path d="M227.533 29.4304L231.031 32.8872L232.963 29.8183L227.533 29.4304Z" fill="#B7B7B7"/>
<path d="M267.014 38.4128L264.809 42.8155L268.334 43.6933L267.014 38.4128Z" fill="#B7B7B7"/>
<path d="M213.739 15.1335L211.542 19.5362L215.06 20.4208L213.739 15.1335Z" fill="#B7B7B7"/>
<path d="M289.375 41.6997L287.17 46.1024L290.695 46.987L289.375 41.6997Z" fill="#B7B7B7"/>
<path d="M300.555 24.9326L298.35 29.3353L301.875 30.2131L300.555 24.9326Z" fill="#B7B7B7"/>
<path d="M227.798 45.6869L224.375 42.1484L222.375 45.1834L227.798 45.6869Z" fill="url(#paint16_linear_354_3151)"/>
<path d="M207.738 47.0072L204.315 43.4688L202.314 46.4969L207.738 47.0072Z" fill="url(#paint17_linear_354_3151)"/>
<path d="M250.288 13.5685L254.289 10.7105L251.588 8.28125L250.288 13.5685Z" fill="url(#paint18_linear_354_3151)"/>
<path d="M205.9 8.94819L209.902 6.08338L207.2 3.66089L205.9 8.94819Z" fill="url(#paint19_linear_354_3151)"/>
<path d="M271.995 19.196L275.996 16.338L273.295 13.9155L271.995 19.196Z" fill="url(#paint20_linear_354_3151)"/>
<path d="M226.233 67.7617L230.234 64.8969L227.533 62.4744L226.233 67.7617Z" fill="url(#paint21_linear_354_3151)"/>
<path d="M63.8445 38.4538L67.8457 35.5958L65.1442 33.1665L63.8445 38.4538Z" fill="url(#paint22_linear_354_3151)"/>
<path d="M194.448 91.4355L190.95 87.9719L189.018 91.0409L194.448 91.4355Z" fill="#B7B7B7"/>
<path d="M228.315 89.1287L224.818 85.6719L222.885 88.7408L228.315 89.1287Z" fill="#B7B7B7"/>
<path d="M266.851 93.5178L263.353 90.0542L261.421 93.13L266.851 93.5178Z" fill="#B7B7B7"/>
<path d="M154.967 82.4465L157.172 78.0438L153.647 77.166L154.967 82.4465Z" fill="#B7B7B7"/>
<path d="M132.606 79.1599L134.811 74.7572L131.286 73.8794L132.606 79.1599Z" fill="#B7B7B7"/>
<path d="M243.184 87.0125L246.607 90.5509L248.607 87.516L243.184 87.0125Z" fill="url(#paint23_linear_354_3151)"/>
<path d="M145.563 80.4937L141.562 83.3516L144.263 85.7741L145.563 80.4937Z" fill="url(#paint24_linear_354_3151)"/>
<path d="M147.536 64.7065L143.535 67.5713L146.236 69.9938L147.536 64.7065Z" fill="url(#paint25_linear_354_3151)"/>
<path d="M299.677 76.0159L301.875 71.6132L298.35 70.7354L299.677 76.0159Z" fill="#B7B7B7"/>
<path d="M277.31 72.7292L279.514 68.3265L275.99 67.4487L277.31 72.7292Z" fill="#B7B7B7"/>
<path d="M290.266 74.0632L286.265 76.9212L288.966 79.3437L290.266 74.0632Z" fill="url(#paint26_linear_354_3151)"/>
<path d="M100.44 64.8904L96.9428 61.4268L95.0103 64.5025L100.44 64.8904Z" fill="#B7B7B7"/>
<path d="M49.6566 78.425L51.8545 74.0292L48.3364 73.1445L49.6566 78.425Z" fill="#B7B7B7"/>
<path d="M27.296 75.1382L29.4939 70.7355L25.9758 69.8577L27.296 75.1382Z" fill="#B7B7B7"/>
<path d="M16.1158 91.9118L18.3137 87.5092L14.7957 86.6313L16.1158 91.9118Z" fill="#B7B7B7"/>
<path d="M39.5447 90.2241L42.9675 93.7626L44.9681 90.7345L39.5447 90.2241Z" fill="url(#paint27_linear_354_3151)"/>
<path d="M110.77 90.2104L106.769 93.0752L109.47 95.4977L110.77 90.2104Z" fill="url(#paint28_linear_354_3151)"/>
<path d="M42.2255 60.6851L38.2175 63.5499L40.919 65.9724L42.2255 60.6851Z" fill="url(#paint29_linear_354_3151)"/>
<path d="M246.389 62.311L242.388 65.169L245.089 67.5915L246.389 62.311Z" fill="url(#paint30_linear_354_3151)"/>
<path d="M88.3481 108.1L91.8458 111.564L93.7783 108.495L88.3481 108.1Z" fill="#B7B7B7"/>
<path d="M49.8127 103.718L53.3104 107.175L55.2429 104.106L49.8127 103.718Z" fill="#B7B7B7"/>
<path d="M161.697 114.783L159.499 119.185L163.017 120.063L161.697 114.783Z" fill="#B7B7B7"/>
<path d="M56.4069 137.762L54.209 142.165L57.727 143.043L56.4069 137.762Z" fill="#B7B7B7"/>
<path d="M122.481 122.064L119.058 118.525L117.064 121.553L122.481 122.064Z" fill="url(#paint31_linear_354_3151)"/>
<path d="M102.42 123.377L99.0045 119.839L97.0039 122.867L102.42 123.377Z" fill="url(#paint32_linear_354_3151)"/>
<path d="M73.4869 110.223L70.0641 106.685L68.0635 109.713L73.4869 110.223Z" fill="url(#paint33_linear_354_3151)"/>
<path d="M171.808 102.99L168.386 99.4512L166.385 102.479L171.808 102.99Z" fill="url(#paint34_linear_354_3151)"/>
<path d="M145.638 107.61L149.639 104.746L146.937 102.323L145.638 107.61Z" fill="url(#paint35_linear_354_3151)"/>
<path d="M171.108 116.742L175.109 113.878L172.407 111.455L171.108 116.742Z" fill="url(#paint36_linear_354_3151)"/>
<path d="M169.135 132.529L173.136 129.665L170.434 127.242L169.135 132.529Z" fill="url(#paint37_linear_354_3151)"/>
<path d="M16.9936 121.213L14.7957 125.616L18.3137 126.5L16.9936 121.213Z" fill="#B7B7B7"/>
<path d="M39.3537 124.507L37.1558 128.909L40.6738 129.787L39.3537 124.507Z" fill="#B7B7B7"/>
<path d="M27.1058 109.421L23.683 105.882L21.6824 108.91L27.1058 109.421Z" fill="url(#paint38_linear_354_3151)"/>
<path d="M26.4048 123.173L30.406 120.308L27.7045 117.885L26.4048 123.173Z" fill="url(#paint39_linear_354_3151)"/>
<path d="M120.916 144.132L124.924 141.267L122.223 138.844L120.916 144.132Z" fill="url(#paint40_linear_354_3151)"/>
<path d="M193.666 112.122L197.163 115.586L199.096 112.51L193.666 112.122Z" fill="#B7B7B7"/>
<path d="M267.014 118.804L264.809 123.207L268.334 124.085L267.014 118.804Z" fill="#B7B7B7"/>
<path d="M289.375 122.091L287.17 126.494L290.695 127.378L289.375 122.091Z" fill="#B7B7B7"/>
<path d="M300.555 105.324L298.35 109.727L301.875 110.604L300.555 105.324Z" fill="#B7B7B7"/>
<path d="M207.738 127.399L204.315 123.86L202.314 126.888L207.738 127.399Z" fill="url(#paint41_linear_354_3151)"/>
<path d="M201.103 203.619L197.68 200.08L195.687 203.108L201.103 203.619Z" fill="url(#paint42_linear_354_3151)"/>
<path d="M162.159 5.2873L166.161 2.42249L163.459 0L162.159 5.2873Z" fill="url(#paint43_linear_354_3151)"/>
<path d="M226.233 148.153L230.234 145.288L227.533 142.866L226.233 148.153Z" fill="url(#paint44_linear_354_3151)"/>
<path d="M70.2747 134.925L74.2827 132.06L71.5812 129.638L70.2747 134.925Z" fill="url(#paint45_linear_354_3151)"/>
<path d="M228.315 169.52L224.818 166.063L222.885 169.132L228.315 169.52Z" fill="#B7B7B7"/>
<path d="M154.967 162.838L157.172 158.435L153.647 157.558L154.967 162.838Z" fill="#B7B7B7"/>
<path d="M132.606 159.551L134.811 155.149L131.286 154.271L132.606 159.551Z" fill="#B7B7B7"/>
<path d="M194.183 155.564L197.605 159.102L199.606 156.074L194.183 155.564Z" fill="url(#paint46_linear_354_3151)"/>
<path d="M214.243 154.25L217.666 157.788L219.667 154.754L214.243 154.25Z" fill="url(#paint47_linear_354_3151)"/>
<path d="M243.184 218.011L246.607 221.549L248.607 218.521L243.184 218.011Z" fill="url(#paint48_linear_354_3151)"/>
<path d="M171.033 170.017L167.032 172.882L169.733 175.304L171.033 170.017Z" fill="url(#paint49_linear_354_3151)"/>
<path d="M147.536 145.098L143.535 147.962L146.236 150.385L147.536 145.098Z" fill="url(#paint50_linear_354_3151)"/>
<path d="M299.677 207.021L301.875 202.619L298.35 201.741L299.677 207.021Z" fill="#B7B7B7"/>
<path d="M277.31 153.121L279.514 148.718L275.99 147.84L277.31 153.121Z" fill="#B7B7B7"/>
<path d="M290.266 205.062L286.265 207.926L288.966 210.349L290.266 205.062Z" fill="url(#paint51_linear_354_3151)"/>
<path d="M195.748 133.489L191.747 136.354L194.448 138.776L195.748 133.489Z" fill="url(#paint52_linear_354_3151)"/>
<path d="M123.005 165.505L119.507 162.042L117.575 165.11L123.005 165.505Z" fill="#B7B7B7"/>
<path d="M49.6566 158.816L51.8545 154.421L48.3364 153.536L49.6566 158.816Z" fill="#B7B7B7"/>
<path d="M102.931 164.41L105.129 160.007L101.611 159.129L102.931 164.41Z" fill="#B7B7B7"/>
<path d="M27.296 155.53L29.4939 151.134L25.9758 150.249L27.296 155.53Z" fill="#B7B7B7"/>
<path d="M16.1158 172.303L18.3137 167.9L14.7957 167.022L16.1158 172.303Z" fill="#B7B7B7"/>
<path d="M108.933 150.229L112.355 153.767L114.349 150.739L108.933 150.229Z" fill="url(#paint53_linear_354_3151)"/>
<path d="M39.5447 170.616L42.9675 174.154L44.9681 171.126L39.5447 170.616Z" fill="url(#paint54_linear_354_3151)"/>
<path d="M65.7224 165.995L61.7212 168.86L64.4227 171.282L65.7224 165.995Z" fill="url(#paint55_linear_354_3151)"/>
<path d="M79.08 238.486L75.0789 241.351L77.7803 243.774L79.08 238.486Z" fill="url(#paint56_linear_354_3151)"/>
<path d="M157.566 205.817L153.565 208.682L156.266 211.104L157.566 205.817Z" fill="url(#paint57_linear_354_3151)"/>
<path d="M246.389 142.696L242.388 145.561L245.089 147.983L246.389 142.696Z" fill="url(#paint58_linear_354_3151)"/>
<path d="M122.222 243.597L125.72 247.061L127.653 243.985L122.222 243.597Z" fill="#B7B7B7"/>
<path d="M47.4175 212.417L50.9151 215.874L52.8477 212.805L47.4175 212.417Z" fill="#B7B7B7"/>
<path d="M161.697 252.579L159.499 256.982L163.017 257.859L161.697 252.579Z" fill="#B7B7B7"/>
<path d="M108.429 190.39L106.224 194.793L109.749 195.671L108.429 190.39Z" fill="#B7B7B7"/>
<path d="M184.057 255.873L181.859 260.268L185.377 261.153L184.057 255.873Z" fill="#B7B7B7"/>
<path d="M195.238 239.099L193.04 243.501L196.558 244.379L195.238 239.099Z" fill="#B7B7B7"/>
<path d="M122.481 259.86L119.058 256.322L117.064 259.35L122.481 259.86Z" fill="url(#paint59_linear_354_3151)"/>
<path d="M71.0848 218.923L67.6688 215.384L65.6682 218.412L71.0848 218.923Z" fill="url(#paint60_linear_354_3151)"/>
<path d="M145.638 245.407L149.639 242.542L146.937 240.12L145.638 245.407Z" fill="url(#paint61_linear_354_3151)"/>
<path d="M169.135 270.326L173.136 267.461L170.434 265.039L169.135 270.326Z" fill="url(#paint62_linear_354_3151)"/>
<path d="M14.5983 229.913L12.3936 234.315L15.9184 235.193L14.5983 229.913Z" fill="#B7B7B7"/>
<path d="M36.9587 233.199L34.7607 237.602L38.2788 238.487L36.9587 233.199Z" fill="#B7B7B7"/>
<path d="M24.7035 218.12L21.2875 214.581L19.2869 217.609L24.7035 218.12Z" fill="url(#paint63_linear_354_3151)"/>
<path d="M120.916 286.766L124.924 283.908L122.223 281.479L120.916 286.766Z" fill="url(#paint64_linear_354_3151)"/>
<path d="M227.533 191.017L231.031 194.48L232.963 191.404L227.533 191.017Z" fill="#B7B7B7"/>
<path d="M267.014 250.612L264.809 255.015L268.334 255.893L267.014 250.612Z" fill="#B7B7B7"/>
<path d="M213.739 194.412L211.542 198.815L215.06 199.692L213.739 194.412Z" fill="#B7B7B7"/>
<path d="M289.375 253.899L287.17 258.302L290.695 259.179L289.375 253.899Z" fill="#B7B7B7"/>
<path d="M300.555 237.132L298.35 241.528L301.875 242.413L300.555 237.132Z" fill="#B7B7B7"/>
<path d="M207.738 265.188L204.315 261.656L202.314 264.685L207.738 265.188Z" fill="url(#paint65_linear_354_3151)"/>
<path d="M277.119 238.813L273.703 235.274L271.703 238.303L277.119 238.813Z" fill="url(#paint66_linear_354_3151)"/>
<path d="M250.948 243.433L254.949 240.568L252.247 238.146L250.948 243.433Z" fill="url(#paint67_linear_354_3151)"/>
<path d="M274.445 268.352L278.446 265.488L275.745 263.065L274.445 268.352Z" fill="url(#paint68_linear_354_3151)"/>
<path d="M226.233 290.788L230.234 287.923L227.533 285.5L226.233 290.788Z" fill="url(#paint69_linear_354_3151)"/>
<path d="M54.8621 263.262L58.8633 260.398L56.1618 257.975L54.8621 263.262Z" fill="url(#paint70_linear_354_3151)"/>
<path d="M122.222 296.088L125.72 296.83L127.653 296.17L122.222 296.088Z" fill="#B7B7B7"/>
<path d="M88.3481 282.187L91.8458 282.935L93.7783 282.275L88.3481 282.187Z" fill="#B7B7B7"/>
<path d="M49.8127 281.248L53.3104 281.989L55.2429 281.329L49.8127 281.248Z" fill="#B7B7B7"/>
<path d="M161.697 283.622L159.499 284.568L163.017 284.758L161.697 283.622Z" fill="#B7B7B7"/>
<path d="M108.429 282.425L106.224 283.37L109.749 283.561L108.429 282.425Z" fill="#B7B7B7"/>
<path d="M184.057 284.33L181.859 285.276L185.377 285.466L184.057 284.33Z" fill="#B7B7B7"/>
<path d="M195.238 280.73L193.04 281.676L196.558 281.867L195.238 280.73Z" fill="#B7B7B7"/>
<path d="M113.437 294.197L110.021 293.435L108.021 294.088L113.437 294.197Z" fill="url(#paint71_linear_354_3151)"/>
<path d="M102.42 285.467L99.0045 284.711L97.0039 285.358L102.42 285.467Z" fill="url(#paint72_linear_354_3151)"/>
<path d="M73.4869 282.643L70.0641 281.887L68.0635 282.534L73.4869 282.643Z" fill="url(#paint73_linear_354_3151)"/>
<path d="M171.808 281.091L168.386 280.336L166.385 280.982L171.808 281.091Z" fill="url(#paint74_linear_354_3151)"/>
<path d="M145.638 282.085L149.639 281.472L146.937 280.948L145.638 282.085Z" fill="url(#paint75_linear_354_3151)"/>
<path d="M100.583 281.098L104.585 280.479L101.883 279.961L100.583 281.098Z" fill="url(#paint76_linear_354_3151)"/>
<path d="M171.108 284.044L175.109 283.432L172.407 282.908L171.108 284.044Z" fill="url(#paint77_linear_354_3151)"/>
<path d="M169.135 287.433L173.136 286.821L170.434 286.297L169.135 287.433Z" fill="url(#paint78_linear_354_3151)"/>
<path d="M16.9936 285.004L14.7957 285.95L18.3137 286.14L16.9936 285.004Z" fill="#B7B7B7"/>
<path d="M39.3537 285.711L37.1558 286.657L40.6738 286.848L39.3537 285.711Z" fill="#B7B7B7"/>
<path d="M18.6675 292.877L15.2447 292.122L13.2441 292.775L18.6675 292.877Z" fill="url(#paint79_linear_354_3151)"/>
<path d="M33.8215 294.673L37.8227 294.061L35.1212 293.537L33.8215 294.673Z" fill="url(#paint80_linear_354_3151)"/>
<path d="M24.4312 288.814L28.4324 288.202L25.7309 287.678L24.4312 288.814Z" fill="url(#paint81_linear_354_3151)"/>
<path d="M120.916 289.924L124.924 289.311L122.223 288.787L120.916 289.924Z" fill="url(#paint82_linear_354_3151)"/>
<path d="M227.533 282.561L231.031 283.303L232.963 282.642L227.533 282.561Z" fill="#B7B7B7"/>
<path d="M193.666 283.051L197.163 283.799L199.096 283.139L193.666 283.051Z" fill="#B7B7B7"/>
<path d="M267.014 284.486L264.809 285.432L268.334 285.623L267.014 284.486Z" fill="#B7B7B7"/>
<path d="M213.739 283.289L211.542 284.235L215.06 284.418L213.739 283.289Z" fill="#B7B7B7"/>
<path d="M289.375 285.194L287.17 286.14L290.695 286.331L289.375 285.194Z" fill="#B7B7B7"/>
<path d="M170.039 293.537L167.841 294.482L171.359 294.673L170.039 293.537Z" fill="#B7B7B7"/>
<path d="M300.555 281.594L298.35 282.54L301.875 282.731L300.555 281.594Z" fill="#B7B7B7"/>
<path d="M227.798 286.051L224.375 285.289L222.375 285.943L227.798 286.051Z" fill="url(#paint83_linear_354_3151)"/>
<path d="M207.738 286.331L204.315 285.575L202.314 286.222L207.738 286.331Z" fill="url(#paint84_linear_354_3151)"/>
<path d="M291.293 294.306L287.877 293.544L285.877 294.197L291.293 294.306Z" fill="url(#paint85_linear_354_3151)"/>
<path d="M277.119 281.955L273.703 281.193L271.703 281.846L277.119 281.955Z" fill="url(#paint86_linear_354_3151)"/>
<path d="M250.948 282.949L254.949 282.329L252.247 281.812L250.948 282.949Z" fill="url(#paint87_linear_354_3151)"/>
<path d="M205.9 281.962L209.902 281.343L207.2 280.826L205.9 281.962Z" fill="url(#paint88_linear_354_3151)"/>
<path d="M276.418 284.908L280.419 284.296L277.718 283.772L276.418 284.908Z" fill="url(#paint89_linear_354_3151)"/>
<path d="M274.445 288.297L278.446 287.685L275.745 287.161L274.445 288.297Z" fill="url(#paint90_linear_354_3151)"/>
<path d="M250.09 299.655L247.886 300.6L251.411 300.791L250.09 299.655Z" fill="#B7B7B7"/>
<path d="M272.451 300.362L270.253 301.308L273.771 301.499L272.451 300.362Z" fill="#B7B7B7"/>
<path d="M260.196 297.123L256.78 296.361L254.779 297.014L260.196 297.123Z" fill="url(#paint91_linear_354_3151)"/>
<path d="M259.495 300.076L263.496 299.464L260.795 298.94L259.495 300.076Z" fill="url(#paint92_linear_354_3151)"/>
<path d="M257.521 303.465L261.523 302.853L258.821 302.329L257.521 303.465Z" fill="url(#paint93_linear_354_3151)"/>
<path d="M193.094 297.967L197.095 297.347L194.394 296.83L193.094 297.967Z" fill="url(#paint94_linear_354_3151)"/>
<path d="M70.2747 287.95L74.2827 287.331L71.5812 286.814L70.2747 287.95Z" fill="url(#paint95_linear_354_3151)"/>
<path d="M58.6455 292.795L62.1432 293.537L64.0757 292.877L58.6455 292.795Z" fill="#B7B7B7"/>
<path d="M72.7179 296.075L69.3019 295.32L67.3013 295.966L72.7179 296.075Z" fill="url(#paint96_linear_354_3151)"/>
<path d="M43.784 293.251L40.3612 292.489L38.3606 293.142L43.784 293.251Z" fill="url(#paint97_linear_354_3151)"/>
<path d="M40.572 298.559L44.58 297.94L41.8785 297.422L40.572 298.559Z" fill="url(#paint98_linear_354_3151)"/>
<defs>
<linearGradient id="paint0_linear_354_3151" x1="101.727" y1="116.297" x2="183.357" y2="143.959" gradientUnits="userSpaceOnUse">
<stop stop-color="#F6FA00"/>
<stop offset="1" stop-color="#FFE835"/>
</linearGradient>
<linearGradient id="paint1_linear_354_3151" x1="153.137" y1="117.253" x2="251.54" y2="159.094" gradientUnits="userSpaceOnUse">
<stop stop-color="#F6FA00"/>
<stop offset="1" stop-color="#FFE835"/>
</linearGradient>
<linearGradient id="paint2_linear_354_3151" x1="96.1533" y1="29.3882" x2="220.211" y2="130.216" gradientUnits="userSpaceOnUse">
<stop stop-color="#F6FA00"/>
<stop offset="1" stop-color="#FFE835"/>
</linearGradient>
<linearGradient id="paint3_linear_354_3151" x1="212.946" y1="128.601" x2="327.269" y2="166.486" gradientUnits="userSpaceOnUse">
<stop stop-color="#F6FA00"/>
<stop offset="1" stop-color="#FFE835"/>
</linearGradient>
<linearGradient id="paint4_linear_354_3151" x1="226.172" y1="276.739" x2="248.359" y2="301.688" gradientUnits="userSpaceOnUse">
<stop stop-color="#F6FA00"/>
<stop offset="1" stop-color="#FFE835"/>
</linearGradient>
<linearGradient id="paint5_linear_354_3151" x1="203.551" y1="245.168" x2="220.449" y2="270.598" gradientUnits="userSpaceOnUse">
<stop stop-color="#F6FA00"/>
<stop offset="1" stop-color="#FFE835"/>
</linearGradient>
<linearGradient id="paint6_linear_354_3151" x1="18.0569" y1="276.624" x2="33.0641" y2="291.698" gradientUnits="userSpaceOnUse">
<stop stop-color="#F6FA00"/>
<stop offset="1" stop-color="#FFE835"/>
</linearGradient>
<linearGradient id="paint7_linear_354_3151" x1="114.261" y1="276.624" x2="129.268" y2="291.698" gradientUnits="userSpaceOnUse">
<stop stop-color="#F6FA00"/>
<stop offset="1" stop-color="#FFE835"/>
</linearGradient>
<linearGradient id="paint8_linear_354_3151" x1="48.5068" y1="103.425" x2="105.874" y2="134.05" gradientUnits="userSpaceOnUse">
<stop stop-color="#F6FA00"/>
<stop offset="1" stop-color="#FFE835"/>
</linearGradient>
<linearGradient id="paint9_linear_354_3151" x1="117.064" y1="38.2728" x2="120.888" y2="42.8166" gradientUnits="userSpaceOnUse">
<stop stop-color="#F6FA00"/>
<stop offset="1" stop-color="#FFE835"/>
</linearGradient>
<linearGradient id="paint10_linear_354_3151" x1="97.0039" y1="39.586" x2="100.827" y2="44.1298" gradientUnits="userSpaceOnUse">
<stop stop-color="#F6FA00"/>
<stop offset="1" stop-color="#FFE835"/>
</linearGradient>
<linearGradient id="paint11_linear_354_3151" x1="145.638" y1="22.1392" x2="150.703" y2="25.1149" gradientUnits="userSpaceOnUse">
<stop stop-color="#F6FA00"/>
<stop offset="1" stop-color="#FFE835"/>
</linearGradient>
<linearGradient id="paint12_linear_354_3151" x1="100.583" y1="7.88313" x2="105.648" y2="10.8588" gradientUnits="userSpaceOnUse">
<stop stop-color="#F6FA00"/>
<stop offset="1" stop-color="#FFE835"/>
</linearGradient>
<linearGradient id="paint13_linear_354_3151" x1="177.171" y1="33.3875" x2="182.236" y2="36.3632" gradientUnits="userSpaceOnUse">
<stop stop-color="#F6FA00"/>
<stop offset="1" stop-color="#FFE835"/>
</linearGradient>
<linearGradient id="paint14_linear_354_3151" x1="21.6824" y1="25.6292" x2="25.5051" y2="30.1778" gradientUnits="userSpaceOnUse">
<stop stop-color="#F6FA00"/>
<stop offset="1" stop-color="#FFE835"/>
</linearGradient>
<linearGradient id="paint15_linear_354_3151" x1="120.916" y1="58.6602" x2="125.985" y2="61.6434" gradientUnits="userSpaceOnUse">
<stop stop-color="#F6FA00"/>
<stop offset="1" stop-color="#FFE835"/>
</linearGradient>
<linearGradient id="paint16_linear_354_3151" x1="222.375" y1="42.2872" x2="226.197" y2="46.8357" gradientUnits="userSpaceOnUse">
<stop stop-color="#F6FA00"/>
<stop offset="1" stop-color="#FFE835"/>
</linearGradient>
<linearGradient id="paint17_linear_354_3151" x1="202.314" y1="43.6075" x2="206.137" y2="48.156" gradientUnits="userSpaceOnUse">
<stop stop-color="#F6FA00"/>
<stop offset="1" stop-color="#FFE835"/>
</linearGradient>
<linearGradient id="paint18_linear_354_3151" x1="250.288" y1="8.4886" x2="255.353" y2="11.4642" gradientUnits="userSpaceOnUse">
<stop stop-color="#F6FA00"/>
<stop offset="1" stop-color="#FFE835"/>
</linearGradient>
<linearGradient id="paint19_linear_354_3151" x1="205.9" y1="3.86823" x2="210.965" y2="6.84388" gradientUnits="userSpaceOnUse">
<stop stop-color="#F6FA00"/>
<stop offset="1" stop-color="#FFE835"/>
</linearGradient>
<linearGradient id="paint20_linear_354_3151" x1="271.995" y1="14.1226" x2="277.057" y2="17.1001" gradientUnits="userSpaceOnUse">
<stop stop-color="#F6FA00"/>
<stop offset="1" stop-color="#FFE835"/>
</linearGradient>
<linearGradient id="paint21_linear_354_3151" x1="226.233" y1="62.6817" x2="231.298" y2="65.6574" gradientUnits="userSpaceOnUse">
<stop stop-color="#F6FA00"/>
<stop offset="1" stop-color="#FFE835"/>
</linearGradient>
<linearGradient id="paint22_linear_354_3151" x1="63.8445" y1="33.3738" x2="68.9095" y2="36.3495" gradientUnits="userSpaceOnUse">
<stop stop-color="#F6FA00"/>
<stop offset="1" stop-color="#FFE835"/>
</linearGradient>
<linearGradient id="paint23_linear_354_3151" x1="243.184" y1="87.1512" x2="247.007" y2="91.6997" gradientUnits="userSpaceOnUse">
<stop stop-color="#F6FA00"/>
<stop offset="1" stop-color="#FFE835"/>
</linearGradient>
<linearGradient id="paint24_linear_354_3151" x1="141.562" y1="80.7007" x2="146.623" y2="83.6782" gradientUnits="userSpaceOnUse">
<stop stop-color="#F6FA00"/>
<stop offset="1" stop-color="#FFE835"/>
</linearGradient>
<linearGradient id="paint25_linear_354_3151" x1="143.535" y1="64.9139" x2="148.6" y2="67.8895" gradientUnits="userSpaceOnUse">
<stop stop-color="#F6FA00"/>
<stop offset="1" stop-color="#FFE835"/>
</linearGradient>
<linearGradient id="paint26_linear_354_3151" x1="286.265" y1="74.2703" x2="291.327" y2="77.2478" gradientUnits="userSpaceOnUse">
<stop stop-color="#F6FA00"/>
<stop offset="1" stop-color="#FFE835"/>
</linearGradient>
<linearGradient id="paint27_linear_354_3151" x1="39.5447" y1="90.3629" x2="43.3674" y2="94.9114" gradientUnits="userSpaceOnUse">
<stop stop-color="#F6FA00"/>
<stop offset="1" stop-color="#FFE835"/>
</linearGradient>
<linearGradient id="paint28_linear_354_3151" x1="106.769" y1="90.4178" x2="111.834" y2="93.3934" gradientUnits="userSpaceOnUse">
<stop stop-color="#F6FA00"/>
<stop offset="1" stop-color="#FFE835"/>
</linearGradient>
<linearGradient id="paint29_linear_354_3151" x1="38.2175" y1="60.8924" x2="43.2867" y2="63.8756" gradientUnits="userSpaceOnUse">
<stop stop-color="#F6FA00"/>
<stop offset="1" stop-color="#FFE835"/>
</linearGradient>
<linearGradient id="paint30_linear_354_3151" x1="242.388" y1="62.5181" x2="247.449" y2="65.4956" gradientUnits="userSpaceOnUse">
<stop stop-color="#F6FA00"/>
<stop offset="1" stop-color="#FFE835"/>
</linearGradient>
<linearGradient id="paint31_linear_354_3151" x1="117.064" y1="118.664" x2="120.888" y2="123.208" gradientUnits="userSpaceOnUse">
<stop stop-color="#F6FA00"/>
<stop offset="1" stop-color="#FFE835"/>
</linearGradient>
<linearGradient id="paint32_linear_354_3151" x1="97.0039" y1="119.978" x2="100.827" y2="124.521" gradientUnits="userSpaceOnUse">
<stop stop-color="#F6FA00"/>
<stop offset="1" stop-color="#FFE835"/>
</linearGradient>
<linearGradient id="paint33_linear_354_3151" x1="68.0635" y1="106.824" x2="71.8862" y2="111.372" gradientUnits="userSpaceOnUse">
<stop stop-color="#F6FA00"/>
<stop offset="1" stop-color="#FFE835"/>
</linearGradient>
<linearGradient id="paint34_linear_354_3151" x1="166.385" y1="99.5899" x2="170.208" y2="104.138" gradientUnits="userSpaceOnUse">
<stop stop-color="#F6FA00"/>
<stop offset="1" stop-color="#FFE835"/>
</linearGradient>
<linearGradient id="paint35_linear_354_3151" x1="145.638" y1="102.53" x2="150.703" y2="105.506" gradientUnits="userSpaceOnUse">
<stop stop-color="#F6FA00"/>
<stop offset="1" stop-color="#FFE835"/>
</linearGradient>
<linearGradient id="paint36_linear_354_3151" x1="171.108" y1="111.662" x2="176.173" y2="114.638" gradientUnits="userSpaceOnUse">
<stop stop-color="#F6FA00"/>
<stop offset="1" stop-color="#FFE835"/>
</linearGradient>
<linearGradient id="paint37_linear_354_3151" x1="169.135" y1="127.45" x2="174.2" y2="130.425" gradientUnits="userSpaceOnUse">
<stop stop-color="#F6FA00"/>
<stop offset="1" stop-color="#FFE835"/>
</linearGradient>
<linearGradient id="paint38_linear_354_3151" x1="21.6824" y1="106.021" x2="25.5051" y2="110.569" gradientUnits="userSpaceOnUse">
<stop stop-color="#F6FA00"/>
<stop offset="1" stop-color="#FFE835"/>
</linearGradient>
<linearGradient id="paint39_linear_354_3151" x1="26.4048" y1="118.093" x2="31.4698" y2="121.068" gradientUnits="userSpaceOnUse">
<stop stop-color="#F6FA00"/>
<stop offset="1" stop-color="#FFE835"/>
</linearGradient>
<linearGradient id="paint40_linear_354_3151" x1="120.916" y1="139.052" x2="125.985" y2="142.035" gradientUnits="userSpaceOnUse">
<stop stop-color="#F6FA00"/>
<stop offset="1" stop-color="#FFE835"/>
</linearGradient>
<linearGradient id="paint41_linear_354_3151" x1="202.314" y1="123.999" x2="206.137" y2="128.548" gradientUnits="userSpaceOnUse">
<stop stop-color="#F6FA00"/>
<stop offset="1" stop-color="#FFE835"/>
</linearGradient>
<linearGradient id="paint42_linear_354_3151" x1="195.687" y1="200.219" x2="199.51" y2="204.763" gradientUnits="userSpaceOnUse">
<stop stop-color="#F6FA00"/>
<stop offset="1" stop-color="#FFE835"/>
</linearGradient>
<linearGradient id="paint43_linear_354_3151" x1="162.159" y1="0.207345" x2="167.224" y2="3.18299" gradientUnits="userSpaceOnUse">
<stop stop-color="#F6FA00"/>
<stop offset="1" stop-color="#FFE835"/>
</linearGradient>
<linearGradient id="paint44_linear_354_3151" x1="226.233" y1="143.073" x2="231.298" y2="146.049" gradientUnits="userSpaceOnUse">
<stop stop-color="#F6FA00"/>
<stop offset="1" stop-color="#FFE835"/>
</linearGradient>
<linearGradient id="paint45_linear_354_3151" x1="70.2747" y1="129.845" x2="75.3438" y2="132.828" gradientUnits="userSpaceOnUse">
<stop stop-color="#F6FA00"/>
<stop offset="1" stop-color="#FFE835"/>
</linearGradient>
<linearGradient id="paint46_linear_354_3151" x1="194.183" y1="155.702" x2="198.005" y2="160.251" gradientUnits="userSpaceOnUse">
<stop stop-color="#F6FA00"/>
<stop offset="1" stop-color="#FFE835"/>
</linearGradient>
<linearGradient id="paint47_linear_354_3151" x1="214.243" y1="154.389" x2="218.066" y2="158.937" gradientUnits="userSpaceOnUse">
<stop stop-color="#F6FA00"/>
<stop offset="1" stop-color="#FFE835"/>
</linearGradient>
<linearGradient id="paint48_linear_354_3151" x1="243.184" y1="218.15" x2="247.007" y2="222.698" gradientUnits="userSpaceOnUse">
<stop stop-color="#F6FA00"/>
<stop offset="1" stop-color="#FFE835"/>
</linearGradient>
<linearGradient id="paint49_linear_354_3151" x1="167.032" y1="170.224" x2="172.097" y2="173.2" gradientUnits="userSpaceOnUse">
<stop stop-color="#F6FA00"/>
<stop offset="1" stop-color="#FFE835"/>
</linearGradient>
<linearGradient id="paint50_linear_354_3151" x1="143.535" y1="145.305" x2="148.6" y2="148.281" gradientUnits="userSpaceOnUse">
<stop stop-color="#F6FA00"/>
<stop offset="1" stop-color="#FFE835"/>
</linearGradient>
<linearGradient id="paint51_linear_354_3151" x1="286.265" y1="205.269" x2="291.33" y2="208.245" gradientUnits="userSpaceOnUse">
<stop stop-color="#F6FA00"/>
<stop offset="1" stop-color="#FFE835"/>
</linearGradient>
<linearGradient id="paint52_linear_354_3151" x1="191.747" y1="133.696" x2="196.812" y2="136.672" gradientUnits="userSpaceOnUse">
<stop stop-color="#F6FA00"/>
<stop offset="1" stop-color="#FFE835"/>
</linearGradient>
<linearGradient id="paint53_linear_354_3151" x1="108.933" y1="150.368" x2="112.756" y2="154.911" gradientUnits="userSpaceOnUse">
<stop stop-color="#F6FA00"/>
<stop offset="1" stop-color="#FFE835"/>
</linearGradient>
<linearGradient id="paint54_linear_354_3151" x1="39.5447" y1="170.754" x2="43.3674" y2="175.303" gradientUnits="userSpaceOnUse">
<stop stop-color="#F6FA00"/>
<stop offset="1" stop-color="#FFE835"/>
</linearGradient>
<linearGradient id="paint55_linear_354_3151" x1="61.7212" y1="166.202" x2="66.7862" y2="169.178" gradientUnits="userSpaceOnUse">
<stop stop-color="#F6FA00"/>
<stop offset="1" stop-color="#FFE835"/>
</linearGradient>
<linearGradient id="paint56_linear_354_3151" x1="75.0789" y1="238.694" x2="80.1438" y2="241.669" gradientUnits="userSpaceOnUse">
<stop stop-color="#F6FA00"/>
<stop offset="1" stop-color="#FFE835"/>
</linearGradient>
<linearGradient id="paint57_linear_354_3151" x1="153.565" y1="206.024" x2="158.63" y2="209" gradientUnits="userSpaceOnUse">
<stop stop-color="#F6FA00"/>
<stop offset="1" stop-color="#FFE835"/>
</linearGradient>
<linearGradient id="paint58_linear_354_3151" x1="242.388" y1="142.903" x2="247.453" y2="145.879" gradientUnits="userSpaceOnUse">
<stop stop-color="#F6FA00"/>
<stop offset="1" stop-color="#FFE835"/>
</linearGradient>
<linearGradient id="paint59_linear_354_3151" x1="117.064" y1="256.46" x2="120.888" y2="261.004" gradientUnits="userSpaceOnUse">
<stop stop-color="#F6FA00"/>
<stop offset="1" stop-color="#FFE835"/>
</linearGradient>
<linearGradient id="paint60_linear_354_3151" x1="65.6682" y1="215.523" x2="69.4917" y2="220.067" gradientUnits="userSpaceOnUse">
<stop stop-color="#F6FA00"/>
<stop offset="1" stop-color="#FFE835"/>
</linearGradient>
<linearGradient id="paint61_linear_354_3151" x1="145.638" y1="240.327" x2="150.703" y2="243.303" gradientUnits="userSpaceOnUse">
<stop stop-color="#F6FA00"/>
<stop offset="1" stop-color="#FFE835"/>
</linearGradient>
<linearGradient id="paint62_linear_354_3151" x1="169.135" y1="265.246" x2="174.2" y2="268.222" gradientUnits="userSpaceOnUse">
<stop stop-color="#F6FA00"/>
<stop offset="1" stop-color="#FFE835"/>
</linearGradient>
<linearGradient id="paint63_linear_354_3151" x1="19.2869" y1="214.72" x2="23.1104" y2="219.264" gradientUnits="userSpaceOnUse">
<stop stop-color="#F6FA00"/>
<stop offset="1" stop-color="#FFE835"/>
</linearGradient>
<linearGradient id="paint64_linear_354_3151" x1="120.916" y1="281.686" x2="125.985" y2="284.669" gradientUnits="userSpaceOnUse">
<stop stop-color="#F6FA00"/>
<stop offset="1" stop-color="#FFE835"/>
</linearGradient>
<linearGradient id="paint65_linear_354_3151" x1="202.314" y1="261.795" x2="206.128" y2="266.342" gradientUnits="userSpaceOnUse">
<stop stop-color="#F6FA00"/>
<stop offset="1" stop-color="#FFE835"/>
</linearGradient>
<linearGradient id="paint66_linear_354_3151" x1="271.703" y1="235.413" x2="275.526" y2="239.957" gradientUnits="userSpaceOnUse">
<stop stop-color="#F6FA00"/>
<stop offset="1" stop-color="#FFE835"/>
</linearGradient>
<linearGradient id="paint67_linear_354_3151" x1="250.948" y1="238.353" x2="256.013" y2="241.329" gradientUnits="userSpaceOnUse">
<stop stop-color="#F6FA00"/>
<stop offset="1" stop-color="#FFE835"/>
</linearGradient>
<linearGradient id="paint68_linear_354_3151" x1="274.445" y1="263.273" x2="279.51" y2="266.248" gradientUnits="userSpaceOnUse">
<stop stop-color="#F6FA00"/>
<stop offset="1" stop-color="#FFE835"/>
</linearGradient>
<linearGradient id="paint69_linear_354_3151" x1="226.233" y1="285.708" x2="231.298" y2="288.683" gradientUnits="userSpaceOnUse">
<stop stop-color="#F6FA00"/>
<stop offset="1" stop-color="#FFE835"/>
</linearGradient>
<linearGradient id="paint70_linear_354_3151" x1="54.8621" y1="258.182" x2="59.9271" y2="261.158" gradientUnits="userSpaceOnUse">
<stop stop-color="#F6FA00"/>
<stop offset="1" stop-color="#FFE835"/>
</linearGradient>
<linearGradient id="paint71_linear_354_3151" x1="108.021" y1="293.465" x2="108.314" y2="295.083" gradientUnits="userSpaceOnUse">
<stop stop-color="#F6FA00"/>
<stop offset="1" stop-color="#FFE835"/>
</linearGradient>
<linearGradient id="paint72_linear_354_3151" x1="97.0039" y1="284.741" x2="97.2922" y2="286.346" gradientUnits="userSpaceOnUse">
<stop stop-color="#F6FA00"/>
<stop offset="1" stop-color="#FFE835"/>
</linearGradient>
<linearGradient id="paint73_linear_354_3151" x1="68.0635" y1="281.917" x2="68.3514" y2="283.522" gradientUnits="userSpaceOnUse">
<stop stop-color="#F6FA00"/>
<stop offset="1" stop-color="#FFE835"/>
</linearGradient>
<linearGradient id="paint74_linear_354_3151" x1="166.385" y1="280.365" x2="166.673" y2="281.97" gradientUnits="userSpaceOnUse">
<stop stop-color="#F6FA00"/>
<stop offset="1" stop-color="#FFE835"/>
</linearGradient>
<linearGradient id="paint75_linear_354_3151" x1="145.638" y1="280.993" x2="146.442" y2="283.191" gradientUnits="userSpaceOnUse">
<stop stop-color="#F6FA00"/>
<stop offset="1" stop-color="#FFE835"/>
</linearGradient>
<linearGradient id="paint76_linear_354_3151" x1="100.583" y1="280.006" x2="101.388" y2="282.204" gradientUnits="userSpaceOnUse">
<stop stop-color="#F6FA00"/>
<stop offset="1" stop-color="#FFE835"/>
</linearGradient>
<linearGradient id="paint77_linear_354_3151" x1="171.108" y1="282.952" x2="171.912" y2="285.151" gradientUnits="userSpaceOnUse">
<stop stop-color="#F6FA00"/>
<stop offset="1" stop-color="#FFE835"/>
</linearGradient>
<linearGradient id="paint78_linear_354_3151" x1="169.135" y1="286.341" x2="169.939" y2="288.539" gradientUnits="userSpaceOnUse">
<stop stop-color="#F6FA00"/>
<stop offset="1" stop-color="#FFE835"/>
</linearGradient>
<linearGradient id="paint79_linear_354_3151" x1="13.2441" y1="292.151" x2="13.5321" y2="293.756" gradientUnits="userSpaceOnUse">
<stop stop-color="#F6FA00"/>
<stop offset="1" stop-color="#FFE835"/>
</linearGradient>
<linearGradient id="paint80_linear_354_3151" x1="33.8215" y1="293.581" x2="34.6258" y2="295.78" gradientUnits="userSpaceOnUse">
<stop stop-color="#F6FA00"/>
<stop offset="1" stop-color="#FFE835"/>
</linearGradient>
<linearGradient id="paint81_linear_354_3151" x1="24.4312" y1="287.722" x2="25.2354" y2="289.921" gradientUnits="userSpaceOnUse">
<stop stop-color="#F6FA00"/>
<stop offset="1" stop-color="#FFE835"/>
</linearGradient>
<linearGradient id="paint82_linear_354_3151" x1="120.916" y1="288.832" x2="121.719" y2="291.031" gradientUnits="userSpaceOnUse">
<stop stop-color="#F6FA00"/>
<stop offset="1" stop-color="#FFE835"/>
</linearGradient>
<linearGradient id="paint83_linear_354_3151" x1="222.375" y1="285.319" x2="222.668" y2="286.938" gradientUnits="userSpaceOnUse">
<stop stop-color="#F6FA00"/>
<stop offset="1" stop-color="#FFE835"/>
</linearGradient>
<linearGradient id="paint84_linear_354_3151" x1="202.314" y1="285.605" x2="202.602" y2="287.21" gradientUnits="userSpaceOnUse">
<stop stop-color="#F6FA00"/>
<stop offset="1" stop-color="#FFE835"/>
</linearGradient>
<linearGradient id="paint85_linear_354_3151" x1="285.877" y1="293.574" x2="286.17" y2="295.192" gradientUnits="userSpaceOnUse">
<stop stop-color="#F6FA00"/>
<stop offset="1" stop-color="#FFE835"/>
</linearGradient>
<linearGradient id="paint86_linear_354_3151" x1="271.703" y1="281.223" x2="271.996" y2="282.841" gradientUnits="userSpaceOnUse">
<stop stop-color="#F6FA00"/>
<stop offset="1" stop-color="#FFE835"/>
</linearGradient>
<linearGradient id="paint87_linear_354_3151" x1="250.948" y1="281.857" x2="251.752" y2="284.055" gradientUnits="userSpaceOnUse">
<stop stop-color="#F6FA00"/>
<stop offset="1" stop-color="#FFE835"/>
</linearGradient>
<linearGradient id="paint88_linear_354_3151" x1="205.9" y1="280.87" x2="206.705" y2="283.069" gradientUnits="userSpaceOnUse">
<stop stop-color="#F6FA00"/>
<stop offset="1" stop-color="#FFE835"/>
</linearGradient>
<linearGradient id="paint89_linear_354_3151" x1="276.418" y1="283.817" x2="277.222" y2="286.015" gradientUnits="userSpaceOnUse">
<stop stop-color="#F6FA00"/>
<stop offset="1" stop-color="#FFE835"/>
</linearGradient>
<linearGradient id="paint90_linear_354_3151" x1="274.445" y1="287.205" x2="275.249" y2="289.404" gradientUnits="userSpaceOnUse">
<stop stop-color="#F6FA00"/>
<stop offset="1" stop-color="#FFE835"/>
</linearGradient>
<linearGradient id="paint91_linear_354_3151" x1="254.779" y1="296.391" x2="255.073" y2="298.009" gradientUnits="userSpaceOnUse">
<stop stop-color="#F6FA00"/>
<stop offset="1" stop-color="#FFE835"/>
</linearGradient>
<linearGradient id="paint92_linear_354_3151" x1="259.495" y1="298.984" x2="260.299" y2="301.183" gradientUnits="userSpaceOnUse">
<stop stop-color="#F6FA00"/>
<stop offset="1" stop-color="#FFE835"/>
</linearGradient>
<linearGradient id="paint93_linear_354_3151" x1="257.521" y1="302.373" x2="258.326" y2="304.571" gradientUnits="userSpaceOnUse">
<stop stop-color="#F6FA00"/>
<stop offset="1" stop-color="#FFE835"/>
</linearGradient>
<linearGradient id="paint94_linear_354_3151" x1="193.094" y1="296.875" x2="193.898" y2="299.073" gradientUnits="userSpaceOnUse">
<stop stop-color="#F6FA00"/>
<stop offset="1" stop-color="#FFE835"/>
</linearGradient>
<linearGradient id="paint95_linear_354_3151" x1="70.2747" y1="286.859" x2="71.0779" y2="289.058" gradientUnits="userSpaceOnUse">
<stop stop-color="#F6FA00"/>
<stop offset="1" stop-color="#FFE835"/>
</linearGradient>
<linearGradient id="paint96_linear_354_3151" x1="67.3013" y1="295.349" x2="67.5896" y2="296.954" gradientUnits="userSpaceOnUse">
<stop stop-color="#F6FA00"/>
<stop offset="1" stop-color="#FFE835"/>
</linearGradient>
<linearGradient id="paint97_linear_354_3151" x1="38.3606" y1="292.519" x2="38.6536" y2="294.137" gradientUnits="userSpaceOnUse">
<stop stop-color="#F6FA00"/>
<stop offset="1" stop-color="#FFE835"/>
</linearGradient>
<linearGradient id="paint98_linear_354_3151" x1="40.572" y1="297.467" x2="41.3752" y2="299.666" gradientUnits="userSpaceOnUse">
<stop stop-color="#F6FA00"/>
<stop offset="1" stop-color="#FFE835"/>
</linearGradient>
</defs>
</svg>
