<svg xmlns="http://www.w3.org/2000/svg" width="174" height="176" viewBox="0 0 174 176" fill="none">
  <path d="M136.041 50.7012C143.663 50.7012 149.841 44.3229 149.841 36.4548C149.841 28.5867 143.663 22.2083 136.041 22.2083C128.419 22.2083 122.24 28.5867 122.24 36.4548C122.24 44.3229 128.419 50.7012 136.041 50.7012Z" stroke="#263238" stroke-linecap="round" stroke-linejoin="round"/>
  <path d="M136.041 47.8331C142.128 47.8331 147.063 42.7389 147.063 36.4548C147.063 30.1707 142.128 25.0764 136.041 25.0764C129.953 25.0764 125.018 30.1707 125.018 36.4548C125.018 42.7389 129.953 47.8331 136.041 47.8331Z" stroke="#263238" stroke-linecap="round" stroke-linejoin="round"/>
  <path d="M136.041 47.8331C142.128 47.8331 147.063 42.7389 147.063 36.4548C147.063 30.1707 142.128 25.0764 136.041 25.0764C129.953 25.0764 125.018 30.1707 125.018 36.4548C125.018 42.7389 129.953 47.8331 136.041 47.8331Z" stroke="#263238" stroke-linecap="round" stroke-linejoin="round"/>
  <path d="M132.126 33.7093L136.041 36.4548H145.666" stroke="#263238" stroke-width="2" stroke-linecap="round" stroke-linejoin="round"/>
  <path d="M137.109 36.4548C137.11 36.6731 137.048 36.8868 136.931 37.0688C136.814 37.2507 136.647 37.3927 136.452 37.4768C136.257 37.561 136.042 37.5834 135.834 37.5413C135.627 37.4992 135.436 37.3945 135.286 37.2403C135.136 37.0862 135.034 36.8897 134.993 36.6756C134.951 36.4615 134.972 36.2395 135.053 36.0377C135.134 35.8359 135.271 35.6634 135.446 35.542C135.622 35.4206 135.829 35.3558 136.041 35.3558C136.323 35.3558 136.594 35.4714 136.795 35.6774C136.995 35.8834 137.108 36.1629 137.109 36.4548Z" fill="white" stroke="#263238" stroke-linecap="round" stroke-linejoin="round"/>
  <path d="M115.2 154.647C115.2 154.647 116.913 157.098 117.487 158.659C118.061 160.22 117.202 161.278 114.772 162.36C112.342 163.443 110.775 163.284 108.634 163.586C106.493 163.888 105.495 165.743 102.353 166.36C99.2103 166.977 96.6417 166.515 96.7842 165.437C96.9267 164.358 100.924 163.12 102.78 160.808C104.636 158.495 108.064 154.483 108.064 154.483L115.2 154.647Z" fill="white" stroke="#263238" stroke-linecap="round" stroke-linejoin="round"/>
  <path d="M115.199 154.647L113.616 154.614L112.726 155.603C112.603 155.857 112.494 156.117 112.397 156.383C111.871 157.789 111.06 160.804 112.563 163.092C113.323 162.926 114.064 162.681 114.776 162.36C117.206 161.278 118.061 160.199 117.491 158.659C116.921 157.119 115.199 154.647 115.199 154.647Z" fill="#9E9E9E" stroke="#263238" stroke-linecap="round" stroke-linejoin="round"/>
  <path d="M102.756 123.02C102.756 123.02 106.587 132.356 107.05 137.103C107.514 141.851 115.48 153.086 115.94 153.879C116.399 154.671 115.635 155.921 114.562 156.248C113.49 156.575 111.341 158.291 108.582 156.882C105.824 155.472 103.833 149.76 97.6983 141.691C91.5638 133.622 86.0467 126.656 86.3554 122.861C86.6641 119.065 90.7999 118.906 94.4806 119.38C98.1614 119.854 102.756 123.02 102.756 123.02Z" fill="#4F4F4F" stroke="#263238" stroke-linecap="round" stroke-linejoin="round"/>
  <path d="M98.9253 158.324C98.9253 158.324 95.0942 162.438 93.7129 163.071C92.3317 163.705 86.3555 165.76 86.3555 166.871C86.3555 167.982 92.0269 168.767 94.3264 168.767C96.6258 168.767 101.055 167.026 102.452 166.552C103.849 166.078 108.428 165.286 110.114 164.019C111.8 162.753 109.041 157.691 109.041 157.691L98.9253 158.324Z" fill="white" stroke="#263238" stroke-linecap="round" stroke-linejoin="round"/>
  <path d="M92.4264 168.644C92.2745 167.519 91.9315 166.431 91.4133 165.429C91.2076 165.025 90.9636 164.643 90.685 164.289C88.627 165.135 86.3711 166.172 86.3711 166.855C86.3553 167.721 89.8143 168.391 92.4264 168.644Z" fill="#9E9E9E" stroke="#263238" stroke-linecap="round" stroke-linejoin="round"/>
  <path d="M106.409 157.838C106.137 158.441 105.94 159.078 105.823 159.733C105.475 161.715 105.72 164.007 105.997 165.612C107.58 165.204 109.239 164.661 110.113 164.003C111.799 162.74 109.041 157.674 109.041 157.674L106.409 157.838Z" fill="#9E9E9E" stroke="#263238" stroke-linecap="round" stroke-linejoin="round"/>
  <path d="M77.7668 120.83C77.7668 120.83 77.8658 124.156 80.8341 128.875C83.8024 133.594 97.8762 153.858 97.8762 153.858C97.8762 153.858 97.8762 157.396 98.1057 158.103C98.3353 158.81 109.073 160.702 109.761 158.577C110.45 156.453 107.019 151.971 107.019 151.971L96.7284 122.248C96.7284 122.248 93.5306 115.642 88.9594 114.935C84.3882 114.228 77.7668 117.766 77.7668 120.83Z" fill="#6B6B6B" stroke="#263238" stroke-linecap="round" stroke-linejoin="round"/>
  <path d="M164.422 48.6585L153.166 48.7974C153.166 48.7974 152.089 48.6585 151.82 49.4919C151.82 49.4919 148.991 56.846 148.856 59.5016C148.721 62.1572 149.398 61.7283 148.318 65.201C147.237 68.6738 144.142 76.8817 142.381 83.5535C140.026 92.5418 139.417 102.045 139.266 111.303C139.243 112.786 138.38 125.57 140.62 125.57C142.48 125.57 154.587 127.915 154.793 124.503C155.616 110.902 153.237 97.6161 157.812 84.3869C159.589 79.2514 161.628 73.8257 163.136 68.4531C164.643 63.0806 164.909 57.4956 165.906 51.9964C166.579 48.2417 164.422 48.6585 164.422 48.6585Z" fill="#263238" stroke="#263238" stroke-linecap="round" stroke-linejoin="round"/>
  <path d="M164.422 48.6585L153.166 48.7974C153.166 48.7974 152.089 48.6585 151.82 49.4919C151.82 49.4919 149.469 55.6203 148.955 58.7008C148.599 60.0532 148.477 61.4598 148.595 62.8559C148.848 65.2705 149.517 67.4276 152.857 68.2938C155.754 69.0374 159.34 68.4245 160.682 66.4512C162.071 65.3808 161.81 63.4565 162.66 61.5893C164.006 58.6681 164.544 53.9411 165.625 51.1629C165.741 50.8762 165.873 50.5966 166.021 50.3254C165.858 48.3847 164.422 48.6585 164.422 48.6585Z" fill="#828282" stroke="#263238" stroke-linecap="round" stroke-linejoin="round"/>
  <path d="M162.241 55.7755C161.149 59.8366 161.806 60.9642 160.709 67.9587C159.613 74.9533 155.683 82.8507 154.155 90.0699C152.628 97.2892 153.281 122.787 153.498 123.915C153.583 124.515 153.614 125.123 153.593 125.729C154.326 125.447 154.781 125.055 154.804 124.524C155.628 110.923 153.249 97.6364 157.824 84.4073C159.601 79.2717 161.639 73.8461 163.147 68.4735C164.655 63.101 164.916 57.516 165.918 52.0168C166.314 49.7084 165.676 48.9812 165.126 48.7483V48.7728C163.881 50.9716 162.912 53.3246 162.241 55.7755Z" fill="#696969" stroke="#263238" stroke-linecap="round" stroke-linejoin="round"/>
  <path d="M128.121 159.913L127.999 159.815V142.57H130.401V131.669H121.52V142.57H123.93V160.113L102.689 167.1V168.836C102.689 169.362 102.891 169.866 103.251 170.237C103.611 170.609 104.099 170.818 104.608 170.818C105.117 170.818 105.606 170.609 105.966 170.237C106.326 169.866 106.528 169.362 106.528 168.836V168.587L124.29 166.454V169.081C124.29 169.542 124.467 169.983 124.783 170.309C125.098 170.635 125.526 170.818 125.972 170.818C126.418 170.818 126.846 170.635 127.162 170.309C127.477 169.983 127.654 169.542 127.654 169.081V166.368L146.133 168.587V168.836C146.156 169.347 146.368 169.828 146.726 170.182C147.084 170.535 147.56 170.732 148.055 170.732C148.55 170.732 149.026 170.535 149.383 170.182C149.741 169.828 149.954 169.347 149.976 168.836V167.1L128.121 159.913Z" fill="#263238" stroke="#263238" stroke-linecap="round" stroke-linejoin="round"/>
  <path d="M128.003 159.815V142.664H123.918V159.823H128.007L128.003 159.815Z" fill="white" stroke="#263238" stroke-linecap="round" stroke-linejoin="round"/>
  <path d="M154.298 124.136H99.8435C98.9692 124.136 98.2604 124.867 98.2604 125.77V132.041C98.2604 132.944 98.9692 133.675 99.8435 133.675H154.298C155.172 133.675 155.881 132.944 155.881 132.041V125.77C155.881 124.867 155.172 124.136 154.298 124.136Z" fill="#263238" stroke="#263238" stroke-linecap="round" stroke-linejoin="round"/>
  <path d="M100.774 70.0302C100.774 70.0302 104.015 71.0802 105.127 71.4642C106.239 71.8483 109.944 75.6683 109.944 75.6683C109.944 75.6683 114.388 64.1959 114.76 63.146C115.132 62.096 115.314 61.4218 115.314 61.4218C114.73 61.6281 114.099 61.6472 113.505 61.4766C112.91 61.306 112.379 60.9536 111.982 60.4658C110.399 58.7458 112.445 55.3057 110.593 52.3396C108.741 49.3734 97.3462 55.6857 97.0691 58.7458C96.7921 61.8059 98.0862 68.3061 100.774 70.0302Z" fill="white" stroke="#263238" stroke-linecap="round" stroke-linejoin="round"/>
  <path d="M91.2356 52.4377C91.2356 52.4377 91.4216 55.0157 92.0667 56.0698C92.7118 57.1239 93.3648 59.0318 92.9018 59.8939C92.4387 60.7559 90.7725 61.712 91.0496 62.668C91.3266 63.624 93.5508 64.004 93.5508 64.004L94.1049 65.3441C94.1049 65.3441 95.8661 64.2941 97.4413 64.7721C99.0165 65.2501 101.886 64.674 102.535 62.954C103.184 61.234 103.275 54.9217 102.721 50.6196C102.167 46.3175 100.311 44.3074 96.9783 45.1531C93.6458 45.9988 91.0496 50.0558 91.2356 52.4377Z" fill="white" stroke="#263238" stroke-linecap="round" stroke-linejoin="round"/>
  <path d="M93.9939 57.2219C93.9939 57.2219 94.0137 54.7297 95.7709 54.4437" stroke="#263238" stroke-width="2" stroke-linecap="round" stroke-linejoin="round"/>
  <path d="M95.7433 57.9042C95.9451 58.4475 95.9174 58.9623 95.676 59.0563C95.4346 59.1503 95.0823 58.7907 94.8844 58.2392C94.6866 57.6876 94.7103 57.181 94.9478 57.083C95.1852 56.9849 95.5375 57.3649 95.7433 57.9042Z" fill="#263238"/>
  <path d="M98.6243 52.9156C98.6243 52.9156 99.4594 53.8676 98.0702 54.2516" stroke="#263238" stroke-linecap="round" stroke-linejoin="round"/>
  <path d="M99.7365 52.9156C99.7365 52.9156 99.4594 54.3456 100.568 54.3456" stroke="#263238" stroke-linecap="round" stroke-linejoin="round"/>
  <path d="M98.2523 55.0238C98.2523 55.0238 99.1784 54.2598 99.0874 55.5018" stroke="#263238" stroke-linecap="round" stroke-linejoin="round"/>
  <path d="M100.662 55.1219C100.662 55.1219 99.7363 55.0238 99.7363 55.4079" stroke="#263238" stroke-linecap="round" stroke-linejoin="round"/>
  <path d="M102.183 38.9675C100.227 39.3653 98.3241 40.0031 96.5151 40.8673C93.3489 42.383 91.6035 44.7854 88.8252 44.6914C86.0468 44.5974 85.1207 45.7414 86.6049 47.6535C88.089 49.5655 90.5864 49.3776 90.5864 49.3776C90.5864 49.3776 88.3621 51.5756 88.7341 53.0097C89.1062 54.4437 90.6774 54.1577 91.7895 52.6256C92.9016 51.0935 93.8278 48.9935 96.4201 48.4215C99.0124 47.8496 99.8475 47.8455 99.8475 47.8455C99.8475 47.8455 96.8831 50.2355 97.2552 51.1916C97.6272 52.1476 100.125 52.0536 101.237 53.2017C102.349 54.3497 101.423 62.19 100.497 63.24C99.5705 64.29 98.2723 63.91 96.6971 63.812C95.1219 63.7139 93.7367 64.102 94.1048 65.3441C94.4729 66.5861 95.87 72.7185 96.9821 73.1067C98.0942 73.4948 102.384 73.3927 106.817 67.3868C108.064 65.6954 105.867 59.4199 105.867 58.0799C105.867 56.7398 105.756 55.3384 106.069 54.0351C106.255 53.2711 106.908 52.5194 107.719 52.5112C108.84 52.5112 109.184 53.6143 109.39 54.554C109.853 56.6581 108.369 58.4762 108.646 58.7622C108.923 59.0482 110.779 60.7723 112.35 61.3443C113.921 61.9162 114.206 57.7122 114.946 54.46C115.686 51.2079 115.686 44.8998 111.982 40.9776C109.599 38.4405 105.76 38.2484 102.183 38.9675Z" fill="#263238" stroke="#263238" stroke-linecap="round" stroke-linejoin="round"/>
  <path d="M97.7301 66.345C97.9795 67.0068 97.8291 67.685 97.3977 67.8566C96.9663 68.0282 96.4122 67.636 96.1629 66.9741C95.9135 66.3123 96.0639 65.6382 96.4993 65.4666C96.9346 65.295 97.4848 65.6872 97.7301 66.345Z" fill="white"/>
  <path d="M110.873 60.3742C112.844 58.3399 112.844 55.0417 110.873 53.0074C108.903 50.9731 105.707 50.9731 103.737 53.0074C101.766 55.0417 101.766 58.3399 103.737 60.3742C105.707 62.4085 108.903 62.4085 110.873 60.3742Z" fill="white" stroke="#263238" stroke-linecap="round" stroke-linejoin="round"/>
  <path d="M106.148 54.3496L104.169 38.5466C104.159 38.4646 104.165 38.3812 104.187 38.3018C104.21 38.2224 104.248 38.1487 104.3 38.0856C104.352 38.0225 104.416 37.9713 104.488 37.9353C104.56 37.8993 104.639 37.8793 104.719 37.8766L107.743 37.7376C107.821 37.7349 107.9 37.7485 107.973 37.7777C108.046 37.8068 108.113 37.8509 108.17 37.9074C108.226 37.9638 108.271 38.0314 108.302 38.1061C108.333 38.1808 108.348 38.2612 108.348 38.3423L108.166 54.2516L106.148 54.3496Z" fill="url(#paint0_linear_471_1950)" stroke="#263238" stroke-linecap="round" stroke-linejoin="round"/>
  <path d="M107.304 59.8939C109.018 59.8939 110.407 58.4598 110.407 56.6908C110.407 54.9218 109.018 53.4877 107.304 53.4877C105.59 53.4877 104.201 54.9218 104.201 56.6908C104.201 58.4598 105.59 59.8939 107.304 59.8939Z" fill="url(#paint1_linear_471_1950)" stroke="#263238" stroke-linecap="round" stroke-linejoin="round"/>
  <path d="M70.6946 98.9847H74.0073C74.9173 98.9847 75.7901 99.3579 76.4336 100.022C77.0771 100.687 77.4386 101.587 77.4386 102.527V103.655H67.2672V102.527C67.2672 101.588 67.6282 100.688 68.2708 100.024C68.9135 99.3595 69.7853 98.9858 70.6946 98.9847Z" fill="#263238" stroke="#263238" stroke-linecap="round" stroke-linejoin="round"/>
  <path d="M103.053 90.8585C103.053 90.8585 83.589 96.8235 82.2077 96.8235C80.8265 96.8235 76.932 96.9501 74.4228 96.4149C71.9136 95.8797 70.0257 95.5079 69.0205 96.5457C68.0152 97.5834 67.2632 101.085 67.2632 101.085C67.7795 101.14 68.3008 101.05 68.7711 100.823C69.7764 100.435 70.4017 98.1023 70.4017 98.1023C70.4017 98.1023 73.0416 97.8408 74.1695 99.0093C75.2975 100.178 75.1748 100.304 74.4228 101.085C73.6708 101.865 71.407 101.992 70.9044 102.899C70.4017 103.806 72.159 103.548 72.9149 103.418C73.6708 103.287 75.6853 103.156 76.932 102.511C78.3524 101.801 79.8222 101.201 81.3291 100.717C81.9544 100.59 94.263 100.072 98.1574 100.072C102.052 100.072 107.074 99.0338 109.583 98.2575C111.005 97.8464 112.33 97.1402 113.478 96.182C113.478 96.182 104.688 90.8585 103.053 90.8585Z" fill="white" stroke="#263238" stroke-linecap="round" stroke-linejoin="round"/>
  <path d="M67.5958 95.6101C67.5958 95.6101 69.456 94.1147 71.3161 94.1147" stroke="#263238" stroke-linecap="round" stroke-linejoin="round"/>
  <path d="M67.184 94.3313C68.2764 93.334 69.6556 92.734 71.11 92.6235" stroke="#263238" stroke-linecap="round" stroke-linejoin="round"/>
  <path d="M112.599 77.7642L107.704 88.1375C107.704 88.1375 106.449 87.876 106.196 88.6564C106.015 89.1588 105.713 89.6048 105.317 89.9515L103.057 90.8585C103.057 90.8585 105.194 92.5417 107.957 95.0054C110.719 97.469 112.726 97.8653 112.726 97.8653C112.726 97.8653 117.752 93.0688 118.504 87.7534C119.256 82.4381 114.732 75.4313 112.599 77.7642Z" fill="url(#paint2_linear_471_1950)" stroke="#263238" stroke-linecap="round" stroke-linejoin="round"/>
  <path d="M78.4517 122.955C76.6232 119.417 77.0823 114.228 89.8777 111.867C102.673 109.505 111.186 109.885 111.186 109.885L113.486 106.878C113.486 106.878 141.297 110.216 141.752 110.923C142.207 111.63 141.503 117.051 141.067 119.887C140.632 122.722 140.216 125.161 136.789 126.342C133.362 127.523 117.986 127.2 109.987 126.256C101.988 125.312 89.4068 122.485 89.4068 122.485" fill="#6B6B6B"/>
  <path d="M78.4517 122.955C76.6232 119.417 77.0823 114.228 89.8777 111.867C102.673 109.505 111.186 109.885 111.186 109.885L113.486 106.878C113.486 106.878 141.297 110.216 141.752 110.923C142.207 111.63 141.503 117.051 141.067 119.887C140.632 122.722 140.216 125.161 136.789 126.342C133.362 127.523 117.986 127.2 109.987 126.256C101.988 125.312 89.4068 122.485 89.4068 122.485" stroke="#263238" stroke-linecap="round" stroke-linejoin="round"/>
  <path d="M86.2286 127.294C86.7099 127.911 87.2294 128.495 87.784 129.042" stroke="#263238" stroke-linecap="round" stroke-linejoin="round"/>
  <path d="M122.43 119.511C113.296 119.351 95.0821 119.511 91.4766 119.511C86.7273 119.511 83.5611 118.967 83.8263 122.236C83.9315 123.176 84.2182 124.084 84.6693 124.908" stroke="#263238" stroke-linecap="round" stroke-linejoin="round"/>
  <path d="M137.652 113.517C137.652 113.517 136.595 115.151 136.86 115.969C137.125 116.786 140.026 117.603 138.178 118.694C136.33 119.785 133.694 118.694 133.694 120.054C133.694 121.415 135.012 122.779 133.164 122.779C131.315 122.779 128.945 120.328 127.623 119.785C126.808 119.643 125.983 119.576 125.157 119.584" stroke="#263238" stroke-linecap="round" stroke-linejoin="round"/>
  <path d="M113.181 110.359C113.181 110.359 124.219 112.892 129.432 117.48" stroke="#263238" stroke-linecap="round" stroke-linejoin="round"/>
  <path d="M115.939 110.674C115.939 110.674 129.89 113.047 135.562 118.747" stroke="#263238" stroke-linecap="round" stroke-linejoin="round"/>
  <path d="M114.535 61.0296C114.535 61.0296 110.011 72.0607 108.756 78.1442C107.502 84.2276 109.888 87.0875 110.89 90.07C111.891 93.0525 115.16 100.693 115.16 100.693C115.16 100.693 112.651 104.063 112.39 106.139C112.128 108.214 112.766 107.953 121.433 110.543C127.346 112.291 133.494 113.036 139.639 112.749C141.396 112.618 142.409 111.192 142.777 110.155C143.145 109.117 143.28 98.7478 141.899 90.8381C140.517 82.9284 135.242 71.3948 127.706 65.9487C120.17 60.5026 115.663 60.1226 114.535 61.0296Z" fill="white" stroke="#263238" stroke-linecap="round" stroke-linejoin="round"/>
  <path d="M114.534 61.0296C114.534 61.0296 110.011 72.0607 108.756 78.1441C108 81.8212 108.57 84.3134 109.358 86.3725L117.697 60.8498C116.07 60.5026 115.005 60.6537 114.534 61.0296Z" fill="url(#paint3_linear_471_1950)" stroke="#263238" stroke-linecap="round" stroke-linejoin="round"/>
  <path d="M135.305 83.6719C135.784 83.739 136.267 83.7651 136.75 83.75" stroke="#263238" stroke-linecap="round" stroke-linejoin="round"/>
  <path d="M125.513 77.9562C125.513 77.9562 129.075 81.7599 133.35 83.2062" stroke="#263238" stroke-linecap="round" stroke-linejoin="round"/>
  <path d="M127.208 83.5576C127.208 83.5576 131.324 89.1548 136.936 90.1231" stroke="#263238" stroke-linecap="round" stroke-linejoin="round"/>
  <path d="M124.215 76.4119C126.595 77.3684 129.183 77.6354 131.699 77.184" stroke="#263238" stroke-linecap="round" stroke-linejoin="round"/>
  <path d="M131.41 102.641C132.113 103.247 132.775 103.902 133.389 104.602" stroke="#263238" stroke-linecap="round" stroke-linejoin="round"/>
  <path d="M121.223 97.6529C124.46 98.3228 127.522 99.6945 130.207 101.677" stroke="#263238" stroke-linecap="round" stroke-linejoin="round"/>
  <path d="M114.851 90.454C111.603 91.7054 108.232 92.5836 104.798 93.0729C99.6135 93.7266 90.6651 94.1923 90.1545 94.1678C89.644 94.1433 83.6242 91.2507 83.6242 91.2507C83.6242 91.2507 80.9686 88.9138 79.8406 88.8566C78.7127 88.7994 75.8077 89.0486 75.5306 89.5552C75.2536 90.0618 76.5003 90.3723 76.5003 90.3723L79.2707 90.5071C80.0227 90.5439 81.677 92.8318 81.677 92.8318C81.677 92.8318 78.9382 92.3089 77.933 92.2599C76.9277 92.2108 74.7193 93.7879 74.6995 94.176C74.6797 94.5641 75.305 94.7235 75.9304 94.7561C76.5557 94.7888 78.3644 93.8369 78.3644 93.8369L81.3327 94.891C81.3327 94.891 78.5069 96.182 78.0834 97.1993C77.6599 98.2166 77.2285 99.4913 77.2285 99.4913C77.2285 99.4913 77.3235 100.145 78.3446 99.8059C79.3657 99.4668 79.8208 97.804 79.8208 97.804L82.8802 96.9133C82.8802 96.9133 80.8063 98.188 80.6519 98.8295C80.4976 99.4709 80.0543 100.929 80.557 100.954C81.0596 100.978 82.4013 99.0991 82.4013 99.0991L84.6968 98.4332L87.8313 98.5884C88.5913 98.6029 89.3511 98.5523 90.1031 98.4373C96.5505 99.638 103.062 100.436 109.603 100.827C119.264 101.305 122.992 99.5404 125.6 97.4649C128.208 95.3894 122.533 90.4336 120.4 90.3274C118.266 90.2211 114.851 90.454 114.851 90.454Z" fill="white" stroke="#263238" stroke-linecap="round" stroke-linejoin="round"/>
  <path d="M117.083 66.68C117.083 66.68 113.806 69.5072 113.593 74.1689C113.379 78.8305 115.461 88.1457 115.461 88.1457L115.136 89.69L113.585 90.6502C113.585 90.6502 114.851 93.1791 119.521 95.4834C124.192 97.7877 128.284 98.7723 129.075 98.2902C129.867 97.8081 128.699 92.8237 128.862 86.6013C128.962 81.2061 128.235 75.8285 126.709 70.6675C125.608 67.2397 121.033 65.5851 119.648 65.6464" fill="url(#paint4_linear_471_1950)"/>
  <path d="M117.083 66.68C117.083 66.68 113.806 69.5072 113.593 74.1689C113.379 78.8305 115.461 88.1457 115.461 88.1457L115.136 89.69L113.585 90.6502C113.585 90.6502 114.851 93.1791 119.521 95.4834C124.192 97.7877 128.284 98.7723 129.075 98.2902C129.867 97.8081 128.699 92.8237 128.862 86.6013C128.962 81.2061 128.235 75.8285 126.709 70.6675C125.608 67.2397 121.033 65.5851 119.648 65.6464" stroke="#263238" stroke-linecap="round" stroke-linejoin="round"/>
  <path d="M115.136 89.686C115.136 89.686 118.876 93.1138 121.864 93.5183" stroke="#263238" stroke-linecap="round" stroke-linejoin="round"/>
  <path d="M81.8477 87.9332L86.3912 90.4908" stroke="#263238" stroke-linecap="round" stroke-linejoin="round"/>
  <path d="M83.0864 86.8669L87.2143 89.212" stroke="#263238" stroke-linecap="round" stroke-linejoin="round"/>
  <path d="M70.6036 32.4877H94.7894C96.0791 32.4877 97.1245 31.4085 97.1245 30.0772V22.8376C97.1245 21.5063 96.0791 20.4271 94.7894 20.4271L70.6036 20.4271C69.314 20.4271 68.2686 21.5063 68.2686 22.8376V30.0772C68.2686 31.4085 69.314 32.4877 70.6036 32.4877Z" fill="#263238" stroke="#263238" stroke-miterlimit="10"/>
  <path d="M75.119 29.6156C76.9004 29.6156 78.3446 28.1248 78.3446 26.2858C78.3446 24.4468 76.9004 22.9561 75.119 22.9561C73.3376 22.9561 71.8934 24.4468 71.8934 26.2858C71.8934 28.1248 73.3376 29.6156 75.119 29.6156Z" fill="url(#paint5_linear_471_1950)"/>
  <path d="M77.4425 25.7914C77.4411 25.5057 77.3456 25.2288 77.1716 25.0066C76.9976 24.7843 76.7555 24.6297 76.4851 24.5684C76.2147 24.5071 75.9322 24.5426 75.6839 24.6691C75.4357 24.7956 75.2365 25.0055 75.1193 25.2644C75.002 25.0055 74.8028 24.7956 74.5546 24.6691C74.3063 24.5426 74.0238 24.5071 73.7534 24.5684C73.483 24.6297 73.2409 24.7843 73.0669 25.0066C72.8929 25.2288 72.7974 25.5057 72.7961 25.7914C72.7944 26.0093 72.8491 26.2236 72.9544 26.4124C73.4768 27.5482 75.1193 28.7984 75.1193 28.7984C75.1193 28.7984 76.7617 27.5482 77.2841 26.4124C77.3872 26.2227 77.4417 26.009 77.4425 25.7914Z" fill="#263238" stroke="#263238" stroke-miterlimit="10"/>
  <path d="M73.8846 24.8681C73.9049 24.9337 73.9056 25.0041 73.8867 25.0702C73.8677 25.1362 73.8299 25.1948 73.7782 25.2384C73.7266 25.282 73.6634 25.3085 73.5969 25.3145C73.5304 25.3205 73.4637 25.3057 73.4055 25.2721C73.3473 25.2384 73.3002 25.1874 73.2704 25.1258C73.2406 25.0641 73.2295 24.9947 73.2385 24.9264C73.2475 24.8582 73.2762 24.7943 73.3208 24.7431C73.3654 24.6919 73.424 24.6557 73.4888 24.6393C73.5293 24.6275 73.5717 24.624 73.6136 24.6291C73.6554 24.6342 73.6959 24.6478 73.7326 24.669C73.7694 24.6903 73.8017 24.7188 73.8278 24.753C73.8539 24.7871 73.8732 24.8262 73.8846 24.8681Z" fill="url(#paint6_linear_471_1950)"/>
  <path d="M75.7779 25.2615C75.9564 25.217 76.0687 25.0423 76.0287 24.8712C75.9887 24.7001 75.8116 24.5974 75.6331 24.6419C75.4546 24.6863 75.3423 24.8611 75.3823 25.0321C75.4223 25.2032 75.5994 25.3059 75.7779 25.2615Z" fill="url(#paint7_linear_471_1950)"/>
  <path d="M90.2298 29.6156C92.0112 29.6156 93.4553 28.1248 93.4553 26.2858C93.4553 24.4468 92.0112 22.9561 90.2298 22.9561C88.4484 22.9561 87.0042 24.4468 87.0042 26.2858C87.0042 28.1248 88.4484 29.6156 90.2298 29.6156Z" fill="#808080"/>
  <path d="M92.7194 24.0714L92.1495 23.5035L90.139 25.6566L88.1245 23.5035L87.5546 24.0714L89.5888 26.245L87.5546 28.4185L88.1245 28.9864L90.139 26.8333L92.1495 28.9864L92.7194 28.4185L90.6891 26.245L92.7194 24.0714Z" fill="#263238"/>
  <path d="M82.7182 29.6156C84.4997 29.6156 85.9438 28.1248 85.9438 26.2858C85.9438 24.4468 84.4997 22.9561 82.7182 22.9561C80.9368 22.9561 79.4927 24.4468 79.4927 26.2858C79.4927 28.1248 80.9368 29.6156 82.7182 29.6156Z" fill="#808080"/>
  <path d="M85.2075 24.0714L84.6376 23.5035L82.627 25.6566L80.6165 23.5035L80.0466 24.0714L82.0769 26.245L80.0466 28.4185L80.6165 28.9864L82.627 26.8333L84.6376 28.9864L85.2075 28.4185L83.1772 26.245L85.2075 24.0714Z" fill="#263238"/>
  <path d="M87.2102 32.4346L88.9912 35.0902L86.8144 35.4988L89.5848 40.1972L84.6377 34.886L85.4292 34.0688L83.2524 31.6175" fill="#263238"/>
  <path d="M42.1711 105.697H60.4995C60.8511 105.697 61.1884 105.553 61.437 105.296C61.6856 105.04 61.8253 104.692 61.8253 104.329C61.8253 103.966 61.6856 103.618 61.437 103.361C61.1884 103.104 60.8511 102.96 60.4995 102.96H42.1711C41.6875 102.96 41.2104 102.845 40.7772 102.623C40.3439 102.401 39.9663 102.078 39.6739 101.681C39.3814 101.283 39.1821 100.821 39.0914 100.331C39.0008 99.8403 39.0213 99.3349 39.1514 98.854L45.654 74.8021C45.7073 74.6271 45.726 74.4428 45.7089 74.2602C45.6918 74.0775 45.6394 73.9003 45.5546 73.739C45.4699 73.5777 45.3546 73.4357 45.2156 73.3213C45.0766 73.2069 44.9168 73.1226 44.7456 73.0733C44.5744 73.0239 44.3953 73.0107 44.219 73.0342C44.0428 73.0578 43.8729 73.1176 43.7195 73.2103C43.5661 73.303 43.4323 73.4266 43.3261 73.5737C43.2199 73.7208 43.1434 73.8885 43.1012 74.0667L36.5986 98.1186C36.3579 99.0061 36.3194 99.9391 36.4864 100.844C36.6533 101.75 37.0211 102.603 37.5609 103.337C38.1007 104.071 38.7978 104.666 39.5977 105.076C40.3975 105.485 41.2783 105.698 42.1711 105.697Z" fill="#828282" stroke="#263238" stroke-linecap="round" stroke-linejoin="round"/>
  <path d="M50.8807 98.549L55.0305 98.0359L48.6039 42.6472L44.4542 43.1603L50.8807 98.549Z" fill="white" stroke="#263238" stroke-linecap="round" stroke-linejoin="round"/>
  <path d="M51.3727 41.6109L63.7723 36.1649" stroke="#263238" stroke-linecap="round" stroke-linejoin="round"/>
  <path d="M56.3836 97.4485L64.8294 100.443" stroke="#263238" stroke-linecap="round" stroke-linejoin="round"/>
  <path d="M44.4426 43.1675C44.4426 43.1675 37.0733 70.3203 50.8779 98.5558L44.4426 43.1675Z" fill="#263238" stroke="#263238" stroke-linecap="round" stroke-linejoin="round"/>
  <path d="M74.3319 100.962H71.9018V102.037H74.3319V100.962Z" fill="white" stroke="#263238" stroke-linecap="round" stroke-linejoin="round"/>
  <path d="M77.4584 100.962H75.0284V102.037H77.4584V100.962Z" fill="white" stroke="#263238" stroke-linecap="round" stroke-linejoin="round"/>
  <path d="M80.5811 100.962H78.151V102.037H80.5811V100.962Z" fill="white" stroke="#263238" stroke-linecap="round" stroke-linejoin="round"/>
  <path d="M83.7036 100.962H81.2736V102.037H83.7036V100.962Z" fill="white" stroke="#263238" stroke-linecap="round" stroke-linejoin="round"/>
  <path d="M86.8262 100.962H84.3962V102.037H86.8262V100.962Z" fill="white" stroke="#263238" stroke-linecap="round" stroke-linejoin="round"/>
  <path d="M89.9529 100.962H87.5228V102.037H89.9529V100.962Z" fill="white" stroke="#263238" stroke-linecap="round" stroke-linejoin="round"/>
  <path d="M93.0755 100.962H90.6454V102.037H93.0755V100.962Z" fill="white" stroke="#263238" stroke-linecap="round" stroke-linejoin="round"/>
  <path d="M96.1985 100.962H93.7684V102.037H96.1985V100.962Z" fill="white" stroke="#263238" stroke-linecap="round" stroke-linejoin="round"/>
  <path d="M99.2775 101.787H70.5126V103.826H99.2775V101.787Z" fill="white" stroke="#263238" stroke-linecap="round" stroke-linejoin="round"/>
  <path d="M27.8637 171.263H25.0142L24.4601 111.066H28.4178L27.8637 171.263Z" fill="white" stroke="#263238" stroke-linecap="round" stroke-linejoin="round"/>
  <path d="M104.905 171.263H102.056L101.502 111.066H105.46L104.905 171.263Z" fill="white" stroke="#263238" stroke-linecap="round" stroke-linejoin="round"/>
  <path d="M107.11 105.562H22.8772V115.678H107.11V105.562Z" fill="#263238" stroke="#263238" stroke-linecap="round" stroke-linejoin="round"/>
  <path d="M106.967 108.149H22.964V111.131H106.967V108.149Z" fill="#263238"/>
  <path d="M108.459 103.798H18.8318V108.508H108.459V103.798Z" fill="white" stroke="#263238" stroke-linecap="round" stroke-linejoin="round"/>
  <path d="M34.774 151.566C34.774 151.566 26.4627 137.753 25.6711 129.414C24.8796 121.075 30.9706 126.289 30.9706 126.289C30.9706 126.289 22.3862 94.4987 29.2014 92.4151C36.0167 90.3314 40.0734 128.908 40.0734 128.908C40.0734 128.908 44.8702 115.617 47.1419 119.784C49.4137 123.952 44.3715 146.104 44.3715 146.104C44.3715 146.104 49.9123 139.33 50.4308 143.497C50.9493 147.665 45.1314 156.526 45.1314 156.526" fill="url(#paint8_linear_471_1950)"/>
  <path d="M50.4229 149.479H29.9771L32.5299 171.108H47.8661L50.4229 149.479Z" fill="#263238"/>
  <path d="M45.8796 152.347C45.8796 152.347 50.4231 145.05 50.1698 140.09C49.9165 135.13 46.3822 143.477 46.3822 143.477C46.3822 143.477 49.4139 126.799 45.8796 123.674C42.3453 120.548 41.5894 138.791 41.5894 138.791C41.5894 138.791 33.761 103.099 29.4708 110.931C25.1806 118.763 35.2768 138.304 35.2768 138.304C35.2768 138.304 31.9958 131.788 31.4892 138.043C30.9826 144.298 33.5116 152.604 33.5116 152.604" stroke="#263238" stroke-miterlimit="10"/>
  <path d="M167.861 171.263H169.971" stroke="#263238" stroke-linecap="round" stroke-linejoin="round"/>
  <path d="M5.8587 171.263H163.112" stroke="#263238" stroke-linecap="round" stroke-linejoin="round"/>
  <defs>
    <linearGradient id="paint0_linear_471_1950" x1="104.164" y1="38.3888" x2="111.027" y2="39.7307" gradientUnits="userSpaceOnUse">
      <stop stop-color="#F6FA00"/>
      <stop offset="1" stop-color="#FFE835"/>
    </linearGradient>
    <linearGradient id="paint1_linear_471_1950" x1="104.201" y1="53.7389" x2="110.951" y2="58.8149" gradientUnits="userSpaceOnUse">
      <stop stop-color="#F6FA00"/>
      <stop offset="1" stop-color="#FFE835"/>
    </linearGradient>
    <linearGradient id="paint2_linear_471_1950" x1="103.057" y1="78.1092" x2="122.736" y2="89.6481" gradientUnits="userSpaceOnUse">
      <stop stop-color="#F6FA00"/>
      <stop offset="1" stop-color="#FFE835"/>
    </linearGradient>
    <linearGradient id="paint3_linear_471_1950" x1="108.401" y1="61.6633" x2="123.074" y2="65.7805" gradientUnits="userSpaceOnUse">
      <stop stop-color="#F6FA00"/>
      <stop offset="1" stop-color="#FFE835"/>
    </linearGradient>
    <linearGradient id="paint4_linear_471_1950" x1="113.577" y1="66.9296" x2="137.147" y2="75.7399" gradientUnits="userSpaceOnUse">
      <stop stop-color="#F6FA00"/>
      <stop offset="1" stop-color="#FFE835"/>
    </linearGradient>
    <linearGradient id="paint5_linear_471_1950" x1="71.8934" y1="23.2172" x2="78.91" y2="28.4939" gradientUnits="userSpaceOnUse">
      <stop stop-color="#F6FA00"/>
      <stop offset="1" stop-color="#FFE835"/>
    </linearGradient>
    <linearGradient id="paint6_linear_471_1950" x1="73.2355" y1="24.6539" x2="73.9606" y2="25.1971" gradientUnits="userSpaceOnUse">
      <stop stop-color="#F6FA00"/>
      <stop offset="1" stop-color="#FFE835"/>
    </linearGradient>
    <linearGradient id="paint7_linear_471_1950" x1="75.3156" y1="24.7466" x2="76.1036" y2="25.1245" gradientUnits="userSpaceOnUse">
      <stop stop-color="#F6FA00"/>
      <stop offset="1" stop-color="#FFE835"/>
    </linearGradient>
    <linearGradient id="paint8_linear_471_1950" x1="25.6002" y1="94.851" x2="64.4265" y2="106.526" gradientUnits="userSpaceOnUse">
      <stop stop-color="#F6FA00"/>
      <stop offset="1" stop-color="#FFE835"/>
    </linearGradient>
  </defs>
</svg>
