<svg width="80" height="80" viewBox="0 0 80 80" fill="none" xmlns="http://www.w3.org/2000/svg">
<path d="M9.25995 61.3844C9.25995 46.0133 1.29773 35.4578 1.29773 28.0511C1.29773 20.6444 5.55551 5.08887 39.6288 5.08887C73.7022 5.08887 78.7022 26.0155 78.7022 34.1622C78.7044 72.3111 9.25995 88.6066 9.25995 61.3844Z" fill="#EFEFEF"/>
<path d="M15.4908 10.3961L18.6335 7.25342L20.2049 8.82477L17.0622 11.9675L15.4908 10.3961Z" fill="#A4AFC1"/>
<path d="M6.45532 19.428L9.59802 16.2853L11.1694 17.8566L8.02667 20.9993L6.45532 19.428Z" fill="#A4AFC1"/>
<path d="M6.45728 8.43201L8.02862 6.86066L11.1713 10.0034L9.59997 11.5747L6.45728 8.43201Z" fill="#A4AFC1"/>
<path d="M68.1822 71.9157C66.3444 71.9157 64.8489 70.4201 64.8489 68.5824C64.8489 66.7446 66.3444 65.249 68.1822 65.249C70.02 65.249 71.5156 66.7446 71.5156 68.5824C71.5156 70.4201 70.02 71.9157 68.1822 71.9157ZM68.1822 67.4712C67.5711 67.4712 67.0711 67.969 67.0711 68.5824C67.0711 69.1957 67.5711 69.6935 68.1822 69.6935C68.7933 69.6935 69.2933 69.1957 69.2933 68.5824C69.2933 67.969 68.7933 67.4712 68.1822 67.4712Z" fill="#A4AFC1"/>
<path d="M58.3334 65H21.6667V59.4444C21.6667 56.9889 23.6556 55 26.1112 55H53.889C56.3445 55 58.3334 56.9889 58.3334 59.4444V65Z" fill="#F3F3F1"/>
<path d="M36.6666 54.4445V50.7111L36.7555 18.8889L23.3333 27.7778L23.911 31.2667L24.2221 33.0667L24.6444 35.6445L25.4888 40.7111L27.0666 50.9622L27.6844 55H36.7555L36.6666 54.4445Z" fill="#D2E2F4"/>
<path d="M41.1111 54.4446V14.4446L58.8889 21.1112L58.0889 25.089L57.4666 28.2446L57.1778 29.6668L56.1778 34.6668L53.3155 50.8846L52.8711 54.4446H41.1111Z" fill="#D2E2F4"/>
<path d="M41.1111 14.4446V54.4446H45.5555V16.1112L41.1111 14.4446Z" fill="#D2E2F4"/>
<path d="M36.6666 52.7778H31.5177L30.8999 48.74L29.3221 38.4889L28.4777 33.4222L28.0555 30.8445L27.7444 29.0445L27.1666 25.5556L36.7555 19.2067V18.8889L23.3333 27.7778L23.911 31.2667L24.2221 33.0667L24.6444 35.6445L25.4888 40.7111L27.0666 50.9622L27.6844 55H36.7555L36.6666 54.4445V52.7778Z" fill="#D2E2F4"/>
<path d="M30.5556 55H26.1112C23.6556 55 21.6667 56.9889 21.6667 59.4444V65H26.1112V59.4444C26.1112 56.9889 28.1001 55 30.5556 55Z" fill="#D5DBE1"/>
<path d="M58.3333 66.6667H21.6667C20.7467 66.6667 20 65.92 20 65V59.4445C20 56.0734 22.74 53.3334 26.1111 53.3334H53.8889C57.26 53.3334 60 56.0734 60 59.4445V65C60 65.92 59.2533 66.6667 58.3333 66.6667ZM23.3333 63.3334H56.6667V59.4445C56.6667 57.9134 55.42 56.6667 53.8889 56.6667H26.1111C24.58 56.6667 23.3333 57.9134 23.3333 59.4445V63.3334Z" fill="#101521"/>
<path d="M36.7556 56.6667H27.6845C26.8622 56.6667 26.16 56.0645 26.0378 55.2534L21.6889 28.0512C21.5822 27.4023 21.8667 26.7534 22.4133 26.3889L35.8356 17.5C36.3445 17.1623 37.0045 17.1289 37.5467 17.4223C38.0889 17.7134 38.4267 18.28 38.4245 18.8934L38.3334 54.3112L38.4 54.7356C38.4778 55.2178 38.34 55.7089 38.0222 56.08C37.7089 56.4534 37.2445 56.6667 36.7556 56.6667ZM29.1156 53.3334H35L35.08 21.9978L25.1533 28.5712L27.1333 40.4378L29.1156 53.3334Z" fill="#101521"/>
<path d="M52.8711 56.111H41.1111C40.1911 56.111 39.4445 55.3643 39.4445 54.4443V14.4443C39.4445 13.8977 39.7133 13.3843 40.1622 13.0755C40.6111 12.7621 41.1822 12.6932 41.6956 12.8843L47.1311 14.9221L45.9622 18.0443L42.7778 16.851V52.7777H51.4L51.6622 50.6777L54.5378 34.3777L56.9756 22.1732L51.7867 20.2288L52.9578 17.1088L59.4756 19.5532C60.2422 19.8399 60.6845 20.6399 60.5245 21.4421L57.8134 34.9955L54.9578 51.1777L54.5267 54.6532C54.42 55.4843 53.7111 56.111 52.8711 56.111Z" fill="#101521"/>
<path d="M35.5244 56.4668L33.9066 56.0601C29.9511 55.0646 26.3022 53.0712 23.3555 50.2912C17.06 44.3579 14.4577 35.4601 16.5622 27.0757L16.9688 25.4579L20.2022 26.269L19.7977 27.889C17.9866 35.1046 20.2244 42.7601 25.6444 47.8668C28.1777 50.2579 31.3177 51.9734 34.72 52.8268L36.3377 53.2334L35.5244 56.4668Z" fill="#101521"/>
<path d="M18.2385 43.3126L20.6872 35.6945L23.8605 36.7145L21.4119 44.3326L18.2385 43.3126Z" fill="#101521"/>
<path d="M14.3362 46.7854L14.9861 43.516L22.9633 45.1017L22.3134 48.3711L14.3362 46.7854Z" fill="#101521"/>
<path d="M23.526 51.2893L24.4711 43.5329L27.7789 43.936L26.8338 51.6924L23.526 51.2893Z" fill="#101521"/>
<path d="M20.7977 53.2102L20.9477 49.8802L29.8832 50.2827L29.7332 53.6127L20.7977 53.2102Z" fill="#101521"/>
<path d="M29.4022 47.4955H32.7356V55.0244H29.4022V47.4955Z" fill="#101521"/>
<path d="M12.5674 39.1385L13.9938 36.1258L20.9913 39.4388L19.565 42.4516L12.5674 39.1385Z" fill="#101521"/>
<path d="M16.3923 36.4602L19.9043 29.7905L22.8537 31.3436L19.3418 38.0132L16.3923 36.4602Z" fill="#101521"/>
<path d="M12.1017 28.7961L14.705 26.7128L19.8509 33.143L17.2475 35.2264L12.1017 28.7961Z" fill="#101521"/>
<path d="M44.4757 56.4668L43.6646 53.2334L45.2823 52.8268C48.6846 51.9712 51.8246 50.2557 54.3579 47.8668C59.7757 42.7579 62.0157 35.1023 60.2046 27.8868L59.7979 26.269L63.0312 25.4579L63.4379 27.0757C65.5423 35.4601 62.9401 44.3557 56.6446 50.2912C53.6979 53.069 50.049 55.0646 46.0934 56.0601L44.4757 56.4668Z" fill="#101521"/>
<path d="M54.9829 37.3018L58.1562 36.2851L60.5963 43.9011L57.4229 44.9178L54.9829 37.3018Z" fill="#101521"/>
<path d="M56.9471 45.0728L64.9222 43.4875L65.5721 46.7569L57.597 48.3421L56.9471 45.0728Z" fill="#101521"/>
<path d="M52.2463 43.978L55.5541 43.575L56.4993 51.3314L53.1915 51.7344L52.2463 43.978Z" fill="#101521"/>
<path d="M50.1293 50.2625L59.0648 49.86L59.2148 53.1899L50.2793 53.5924L50.1293 50.2625Z" fill="#101521"/>
<path d="M47.2644 47.4955H50.5977V55.0244H47.2644V47.4955Z" fill="#101521"/>
<path d="M59.0271 39.4946L66.0247 36.1816L67.4511 39.1944L60.4535 42.5074L59.0271 39.4946Z" fill="#101521"/>
<path d="M57.0413 31.8622L59.9907 30.3091L63.5026 36.9788L60.5532 38.5318L57.0413 31.8622Z" fill="#101521"/>
<path d="M60.1631 33.0983L65.3089 26.668L67.9123 28.7514L62.7664 35.1816L60.1631 33.0983Z" fill="#101521"/>
</svg>
