<svg xmlns="http://www.w3.org/2000/svg" width="80" height="80" viewBox="0 0 80 80" fill="none">
  <path d="M18.6154 70.7399C33.9866 70.7399 44.5421 78.7021 51.9488 78.7021C59.3554 78.7021 74.911 74.4443 74.911 40.371C74.911 6.29763 53.9843 1.29541 45.8377 1.29541C7.68878 1.29541 -8.60678 70.7399 18.6154 70.7399Z" fill="#EFEFEF"/>
  <path d="M34.4444 8.88883C32.6066 8.88883 31.1111 7.39328 31.1111 5.5555C31.1111 3.71772 32.6066 2.22217 34.4444 2.22217C36.2822 2.22217 37.7777 3.71772 37.7777 5.5555C37.7777 7.39328 36.2822 8.88883 34.4444 8.88883ZM34.4444 4.44439C33.8311 4.44439 33.3333 4.94217 33.3333 5.5555C33.3333 6.16883 33.8311 6.66661 34.4444 6.66661C35.0577 6.66661 35.5555 6.16883 35.5555 5.5555C35.5555 4.94217 35.0577 4.44439 34.4444 4.44439Z" fill="#B7B7B7"/>
  <path d="M40.0001 62.7776C51.3527 62.7776 60.5557 53.5746 60.5557 42.2221C60.5557 30.8695 51.3527 21.6665 40.0001 21.6665C28.6476 21.6665 19.4446 30.8695 19.4446 42.2221C19.4446 53.5746 28.6476 62.7776 40.0001 62.7776Z" fill="#F3F3F1"/>
  <path d="M42.2224 62.6443C41.489 62.7332 40.7557 62.7776 40.0002 62.7776C28.6446 62.7776 19.4446 53.5776 19.4446 42.2221C19.4446 30.8665 28.6446 21.6665 40.0002 21.6665C40.7557 21.6665 41.489 21.7109 42.2224 21.7998C31.9113 22.8887 23.889 31.6221 23.889 42.2221C23.889 52.8221 31.9113 61.5554 42.2224 62.6443Z" fill="#BFD8F4"/>
  <path d="M20.0549 64.1802L24.401 56.5746L27.2943 58.2279L22.9483 65.8335L20.0549 64.1802Z" fill="#101521"/>
  <path d="M52.6606 58.2134L55.554 56.56L59.9001 64.1657L57.0067 65.819L52.6606 58.2134Z" fill="#101521"/>
  <path d="M40.0001 64.4444C27.7467 64.4444 17.7778 54.4756 17.7778 42.2222C17.7778 29.9689 27.7467 20 40.0001 20C52.2534 20 62.2223 29.9689 62.2223 42.2222C62.2223 54.4756 52.2534 64.4444 40.0001 64.4444ZM40.0001 23.3333C29.5845 23.3333 21.1112 31.8067 21.1112 42.2222C21.1112 52.6378 29.5845 61.1111 40.0001 61.1111C50.4156 61.1111 58.8889 52.6378 58.8889 42.2222C58.8889 31.8067 50.4156 23.3333 40.0001 23.3333Z" fill="#101521"/>
  <path d="M15.96 29.7865L13.7422 25.3754C12.9978 23.8932 13.2844 22.1088 14.4578 20.9354L20.9355 14.4577C22.1089 13.2888 23.8911 12.9999 25.3711 13.7399L29.8066 15.9599L28.3155 18.9399L23.8778 16.7221C23.68 16.6199 23.4444 16.6621 23.2889 16.8177L16.8133 23.2932C16.66 23.4465 16.62 23.6843 16.7178 23.8799L18.9355 28.291L15.96 29.7865Z" fill="#101521"/>
  <path d="M64.0423 29.8047L61.06 28.3135L63.2778 23.8802C63.3756 23.6824 63.3378 23.4469 63.1845 23.2913L56.7067 16.8135C56.5534 16.658 56.3156 16.618 56.12 16.7202L51.7112 18.938L50.2134 15.9602L54.6245 13.7424C56.1067 12.9958 57.8912 13.2847 59.0645 14.4535L65.5423 20.9335C66.7134 22.1047 67.0023 23.8869 66.2623 25.3669L64.0423 29.8047Z" fill="#101521"/>
  <path d="M38.3335 21.6665H41.6668V25.5554H38.3335V21.6665Z" fill="#101521"/>
  <path d="M38.3335 58.8887H41.6668V62.7776H38.3335V58.8887Z" fill="#101521"/>
  <path d="M56.6665 40.5557H61.1087V43.889H56.6665V40.5557Z" fill="#101521"/>
  <path d="M19.4446 40.5557H23.3335V43.889H19.4446V40.5557Z" fill="#101521"/>
  <path d="M50.5984 29.2607L53.1 26.7592L55.457 29.1162L52.9554 31.6178L50.5984 29.2607Z" fill="#101521"/>
  <path d="M24.2781 55.5757L27.0279 52.8258L29.385 55.1828L26.6351 57.9327L24.2781 55.5757Z" fill="#101521"/>
  <path d="M50.5952 55.1855L52.9522 52.8285L55.7021 55.5784L53.3451 57.9354L50.5952 55.1855Z" fill="#101521"/>
  <path d="M24.2825 28.8828L26.6395 26.5258L29.3878 29.2741L27.0308 31.6311L24.2825 28.8828Z" fill="#101521"/>
  <path d="M44.3779 48.9555L38.8224 43.3999C38.5091 43.0866 38.3335 42.6644 38.3335 42.2222V32.2222H41.6668V41.5311L46.7335 46.5977L44.3779 48.9555Z" fill="#101521"/>
</svg>
