<svg width="80" height="80" viewBox="0 0 80 80" fill="none" xmlns="http://www.w3.org/2000/svg">
<path d="M18.6156 9.26007C33.9867 9.26007 44.5422 1.29785 51.9489 1.29785C59.3556 1.29785 74.9111 5.55563 74.9111 39.629C74.9111 73.7023 53.9845 78.7023 45.8378 78.7023C7.6889 78.7045 -8.60666 9.26007 18.6156 9.26007Z" fill="#EFEFEF"/>
<path d="M51.0445 17.2222C50.289 15.8889 48.8667 15 47.2223 15H21.6667C19.2223 15 17.2223 17 17.2223 19.4444V53.8889C17.2223 54.5022 17.349 55.0867 17.5756 55.6178L17.2223 56.1111C17.9778 57.4444 19.4001 58.3333 21.0445 58.3333H46.6001C49.0445 58.3333 51.0445 56.3333 51.0445 53.8889V19.4444C51.0445 18.8311 50.9178 18.2467 50.6912 17.7156L51.0445 17.2222Z" fill="#D2E2F4"/>
<path d="M62.7777 60.5556V28.3334C62.7777 25.8778 60.7888 23.8889 58.3332 23.8889H32.7777C30.3221 23.8889 28.3333 25.8778 28.3333 28.3334V60.5556C28.3333 63.0111 30.3221 65 32.7777 65H58.3332C60.7888 65 62.7777 63.0111 62.7777 60.5556Z" fill="#F3F3F1"/>
<path d="M22.2223 56.1111L22.5756 55.6178C22.349 55.0867 22.2223 54.5022 22.2223 53.8889V19.4444C22.2223 17 24.2223 15 26.6667 15H21.6667C19.2223 15 17.2223 17 17.2223 19.4444V53.8889C17.2223 54.5022 17.349 55.0867 17.5756 55.6178L17.2223 56.1111C17.9778 57.4444 19.4001 58.3333 21.0445 58.3333H26.0445C24.4001 58.3333 22.9778 57.4444 22.2223 56.1111Z" fill="#D2E2F4"/>
<path d="M33.3333 60.5556V28.3334C33.3333 25.8778 35.3221 23.8889 37.7777 23.8889H32.7777C30.3221 23.8889 28.3333 25.8778 28.3333 28.3334V60.5556C28.3333 63.0111 30.3221 65 32.7777 65H37.7777C35.3221 65 33.3333 63.0111 33.3333 60.5556Z" fill="#D5DBE1"/>
<path d="M37.2223 47.7777H53.889V51.111H37.2223V47.7777Z" fill="#101521"/>
<path d="M37.2223 56.6666H53.889V60H37.2223V56.6666Z" fill="#101521"/>
<path d="M37.2223 40H53.889V43.3333H37.2223V40Z" fill="#101521"/>
<path d="M37.2223 31.1111H53.889V34.4444H37.2223V31.1111Z" fill="#101521"/>
<path d="M23.3333 60H21.6667C18.2955 60 15.5555 57.26 15.5555 53.8889V19.4445C15.5555 16.0734 18.2955 13.3334 21.6667 13.3334H47.2222C49.4 13.3334 51.4222 14.5067 52.4955 16.4L53.3178 17.8489L50.4178 19.4934L49.5955 18.0445C49.1067 17.18 48.2178 16.6667 47.2222 16.6667H21.6667C20.1355 16.6667 18.8889 17.9134 18.8889 19.4445V53.8889C18.8889 55.42 20.1355 56.6667 21.6667 56.6667H23.3333V60Z" fill="#101521"/>
<path d="M58.3334 66.6667H32.7779C29.4067 66.6667 26.6667 63.9267 26.6667 60.5556V28.3334C26.6667 24.9623 29.4067 22.2223 32.7779 22.2223H58.3334C61.7045 22.2223 64.4445 24.9623 64.4445 28.3334V60.5556C64.4445 63.9267 61.7045 66.6667 58.3334 66.6667ZM32.7779 25.5556C31.2467 25.5556 30.0001 26.8023 30.0001 28.3334V60.5556C30.0001 62.0867 31.2467 63.3334 32.7779 63.3334H58.3334C59.8645 63.3334 61.1112 62.0867 61.1112 60.5556V28.3334C61.1112 26.8023 59.8645 25.5556 58.3334 25.5556H32.7779Z" fill="#101521"/>
<path d="M71.111 62.7778C69.2733 62.7778 67.7777 61.2822 67.7777 59.4444C67.7777 57.6066 69.2733 56.1111 71.111 56.1111C72.9488 56.1111 74.4444 57.6066 74.4444 59.4444C74.4444 61.2822 72.9488 62.7778 71.111 62.7778ZM71.111 58.3333C70.4977 58.3333 69.9999 58.8333 69.9999 59.4444C69.9999 60.0555 70.4977 60.5555 71.111 60.5555C71.7244 60.5555 72.2222 60.0555 72.2222 59.4444C72.2222 58.8333 71.7244 58.3333 71.111 58.3333Z" fill="#A4AFC1"/>
<path d="M15.4182 9.60266L18.5609 6.45997L20.1323 8.03131L16.9896 11.174L15.4182 9.60266Z" fill="#A4AFC1"/>
<path d="M6.38257 18.6366L9.52526 15.4939L11.0966 17.0652L7.95392 20.2079L6.38257 18.6366Z" fill="#A4AFC1"/>
<path d="M6.77698 8.0304L8.34833 6.45905L11.491 9.60174L9.91967 11.1731L6.77698 8.0304Z" fill="#A4AFC1"/>
</svg>
