<svg width="80" height="80" viewBox="0 0 80 80" fill="none" xmlns="http://www.w3.org/2000/svg">
<path d="M18.0312 12.3643C14.0201 27.2021 3.57786 35.3132 1.64453 42.4643C-0.288808 49.6154 -0.237698 65.7421 32.6556 74.6354C65.549 83.5287 75.8379 64.6332 77.9623 56.7665C87.9201 19.9399 25.1356 -13.9157 18.0312 12.3643Z" fill="#EFEFEF"/>
<path d="M26.7893 12.2607L29.932 9.11805L31.5034 10.6894L28.3607 13.8321L26.7893 12.2607Z" fill="#A4AFC1"/>
<path d="M17.7537 21.2948L20.8964 18.1521L22.4677 19.7234L19.325 22.8661L17.7537 21.2948Z" fill="#A4AFC1"/>
<path d="M17.7542 10.2952L19.3256 8.72382L22.4683 11.8665L20.8969 13.4379L17.7542 10.2952Z" fill="#A4AFC1"/>
<path d="M71.6178 66.1113C69.78 66.1113 68.2844 64.6157 68.2844 62.7779C68.2844 60.9401 69.78 59.4446 71.6178 59.4446C73.4555 59.4446 74.9511 60.9401 74.9511 62.7779C74.9511 64.6157 73.4555 66.1113 71.6178 66.1113ZM71.6178 61.6668C71.0044 61.6668 70.5066 62.1646 70.5066 62.7779C70.5066 63.3912 71.0044 63.889 71.6178 63.889C72.2311 63.889 72.7289 63.3912 72.7289 62.7779C72.7289 62.1646 72.2289 61.6668 71.6178 61.6668Z" fill="#A4AFC1"/>
<path fill-rule="evenodd" clip-rule="evenodd" d="M31.87 16.724C30.9879 17.5202 30.53 18.8871 30.5279 20.7294L30.5263 21.9294H27.0295C23.9218 21.9294 23.4034 22 22.3737 22.5647C21.7363 22.914 20.8526 23.6879 20.41 24.284C19.6124 25.3586 19.6045 25.4024 19.52 29.2652C19.4371 33.0595 19.4508 33.1744 20.0392 33.6166C20.3884 33.8789 21.1708 34.0706 21.8932 34.0706H23.1426L23.2161 47.1294C23.2566 54.3119 23.3911 60.4107 23.515 60.6824C23.7268 61.1465 23.3239 61.1765 16.8703 61.1765H10V62.5882V64H40H70V62.5882V61.1765H63.1297C56.6761 61.1765 56.2732 61.1465 56.485 60.6824C56.609 60.4107 56.7434 54.3119 56.784 47.1294L56.8574 34.0706H58.1068C58.8292 34.0706 59.6116 33.8789 59.9608 33.6166C60.5492 33.1744 60.5629 33.0595 60.48 29.2652C60.3955 25.4024 60.3876 25.3586 59.59 24.284C59.1474 23.6879 58.2637 22.914 57.6263 22.5647C56.5966 22 56.0782 21.9294 52.9705 21.9294H49.4737L49.4721 20.7294C49.47 18.8871 49.0121 17.5202 48.13 16.724L47.3282 16H40H32.6718L31.87 16.724ZM46.5268 20.4471L46.6066 21.9294H40.0137H33.4211V20.5648C33.4211 19.814 33.5021 19.1132 33.6011 19.0068C33.7 18.9006 36.6311 18.8478 40.1142 18.8893L46.4474 18.9647L46.5268 20.4471ZM56.9855 25.7285C57.5645 26.3494 57.6316 26.6577 57.6316 28.6932V30.9647H53.9474H50.2632V32.5176V34.0706H52.1053H53.9474V46.7607V59.4507L53.3118 60.243L52.6763 61.0353H39.9995H27.3226L26.6876 60.243L26.0526 59.4507V46.7607V34.0706H36.6761H47.2995L47.4626 33.0118C47.8108 30.7512 48.9729 30.9647 36.3158 30.9647H25V28.7192C25 27.4841 25.1374 26.15 25.3055 25.7544L25.6108 25.0353H40.9753H56.3397L56.9855 25.7285ZM30.6442 41.7715C30.5737 41.9691 30.5476 44.9234 30.5868 48.3362L30.6579 54.5412L32.0395 54.6264L33.4211 54.712V48.0617V41.4118H32.0971C31.2674 41.4118 30.725 41.5462 30.6442 41.7715ZM38.6842 48.0471V54.6824H40H41.3158V48.0471V41.4118H40H38.6842V48.0471ZM46.5789 48.0471V54.712L47.9605 54.6264L49.3421 54.5412V48.0471V41.5529L47.9605 41.4677L46.5789 41.3821V48.0471Z" fill="black"/>
<path d="M22.6316 26.7529C22.6316 25.6484 23.527 24.7529 24.6316 24.7529H55.6316C56.7362 24.7529 57.6316 25.6484 57.6316 26.7529V30.9647H22.6316V26.7529Z" fill="#D2E2F4"/>
</svg>
