<svg width="195" height="124" viewBox="0 0 195 124" fill="none" xmlns="http://www.w3.org/2000/svg">
<path d="M34.2363 119H31.9512L25.9307 109.736C25.7783 109.502 25.6523 109.259 25.5527 109.007H25.5C25.5469 109.276 25.5703 109.854 25.5703 110.738V119H23.5488V106.396H25.9834L31.8018 115.44C32.0479 115.815 32.2061 116.073 32.2764 116.214H32.3115C32.2529 115.88 32.2236 115.314 32.2236 114.518V106.396H34.2363V119ZM41.127 119.211C39.7383 119.211 38.6279 118.792 37.7959 117.954C36.9697 117.11 36.5566 115.994 36.5566 114.605C36.5566 113.094 36.9873 111.913 37.8486 111.063C38.7158 110.214 39.8818 109.789 41.3467 109.789C42.7529 109.789 43.8486 110.202 44.6338 111.028C45.4189 111.854 45.8115 113 45.8115 114.465C45.8115 115.9 45.3867 117.052 44.5371 117.919C43.6934 118.78 42.5566 119.211 41.127 119.211ZM41.2236 111.415C40.4268 111.415 39.7969 111.693 39.334 112.25C38.8711 112.807 38.6396 113.574 38.6396 114.553C38.6396 115.496 38.874 116.24 39.3428 116.785C39.8115 117.324 40.4385 117.594 41.2236 117.594C42.0264 117.594 42.6416 117.327 43.0693 116.794C43.5029 116.261 43.7197 115.502 43.7197 114.518C43.7197 113.527 43.5029 112.763 43.0693 112.224C42.6416 111.685 42.0264 111.415 41.2236 111.415ZM57.5977 118.903C57.1992 119.103 56.6748 119.202 56.0244 119.202C54.2783 119.202 53.4053 118.364 53.4053 116.688V111.6H51.9023V110H53.4053V107.917L55.4443 107.337V110H57.5977V111.6H55.4443V116.1C55.4443 116.633 55.541 117.014 55.7344 117.242C55.9277 117.471 56.25 117.585 56.7012 117.585C57.0469 117.585 57.3457 117.485 57.5977 117.286V118.903ZM60.3838 108.11C60.0498 108.11 59.7627 108.002 59.5225 107.785C59.2881 107.568 59.1709 107.293 59.1709 106.959C59.1709 106.625 59.2881 106.347 59.5225 106.124C59.7627 105.901 60.0498 105.79 60.3838 105.79C60.7295 105.79 61.0225 105.901 61.2627 106.124C61.5029 106.347 61.623 106.625 61.623 106.959C61.623 107.275 61.5029 107.548 61.2627 107.776C61.0225 107.999 60.7295 108.11 60.3838 108.11ZM61.3945 119H59.3555V110H61.3945V119ZM71.6865 115.054H65.5518C65.5752 115.886 65.8301 116.527 66.3164 116.979C66.8086 117.43 67.4824 117.655 68.3379 117.655C69.2988 117.655 70.1807 117.368 70.9834 116.794V118.438C70.1631 118.953 69.0791 119.211 67.7314 119.211C66.4072 119.211 65.3672 118.804 64.6113 117.989C63.8613 117.169 63.4863 116.018 63.4863 114.535C63.4863 113.135 63.8994 111.995 64.7256 111.116C65.5576 110.231 66.5889 109.789 67.8193 109.789C69.0498 109.789 70.002 110.185 70.6758 110.976C71.3496 111.767 71.6865 112.865 71.6865 114.271V115.054ZM69.7178 113.612C69.7119 112.88 69.5391 112.312 69.1992 111.907C68.8594 111.497 68.3906 111.292 67.793 111.292C67.207 111.292 66.709 111.506 66.2988 111.934C65.8945 112.361 65.6455 112.921 65.5518 113.612H69.7178ZM81.6445 119H79.6055V113.929C79.6055 112.247 79.0107 111.406 77.8213 111.406C77.2002 111.406 76.6875 111.641 76.2832 112.109C75.8789 112.572 75.6768 113.158 75.6768 113.867V119H73.6289V110H75.6768V111.494H75.7119C76.3857 110.357 77.3584 109.789 78.6299 109.789C79.6084 109.789 80.3555 110.108 80.8711 110.747C81.3867 111.38 81.6445 112.297 81.6445 113.498V119ZM91.7607 115.054H85.626C85.6494 115.886 85.9043 116.527 86.3906 116.979C86.8828 117.43 87.5566 117.655 88.4121 117.655C89.373 117.655 90.2549 117.368 91.0576 116.794V118.438C90.2373 118.953 89.1533 119.211 87.8057 119.211C86.4814 119.211 85.4414 118.804 84.6855 117.989C83.9355 117.169 83.5605 116.018 83.5605 114.535C83.5605 113.135 83.9736 111.995 84.7998 111.116C85.6318 110.231 86.6631 109.789 87.8936 109.789C89.124 109.789 90.0762 110.185 90.75 110.976C91.4238 111.767 91.7607 112.865 91.7607 114.271V115.054ZM89.792 113.612C89.7861 112.88 89.6133 112.312 89.2734 111.907C88.9336 111.497 88.4648 111.292 87.8672 111.292C87.2812 111.292 86.7832 111.506 86.373 111.934C85.9688 112.361 85.7197 112.921 85.626 113.612H89.792ZM93.1406 118.719V116.829C93.9023 117.409 94.7432 117.699 95.6631 117.699C96.8936 117.699 97.5088 117.336 97.5088 116.609C97.5088 116.404 97.4561 116.231 97.3506 116.091C97.2451 115.944 97.1016 115.815 96.9199 115.704C96.7441 115.593 96.5332 115.493 96.2871 115.405C96.0469 115.317 95.7773 115.218 95.4785 115.106C95.1094 114.96 94.7754 114.805 94.4766 114.641C94.1836 114.477 93.9375 114.292 93.7383 114.087C93.5449 113.876 93.3984 113.639 93.2988 113.375C93.1992 113.111 93.1494 112.804 93.1494 112.452C93.1494 112.019 93.252 111.638 93.457 111.31C93.6621 110.976 93.9375 110.697 94.2832 110.475C94.6289 110.246 95.0215 110.076 95.4609 109.965C95.9004 109.848 96.3545 109.789 96.8232 109.789C97.6553 109.789 98.3994 109.915 99.0557 110.167V111.951C98.4229 111.518 97.6963 111.301 96.876 111.301C96.6182 111.301 96.3838 111.327 96.1729 111.38C95.9678 111.433 95.792 111.506 95.6455 111.6C95.499 111.693 95.3848 111.808 95.3027 111.942C95.2207 112.071 95.1797 112.215 95.1797 112.373C95.1797 112.566 95.2207 112.73 95.3027 112.865C95.3848 113 95.5049 113.12 95.6631 113.226C95.8271 113.325 96.0205 113.419 96.2432 113.507C96.4717 113.589 96.7324 113.68 97.0254 113.779C97.4121 113.938 97.7578 114.099 98.0625 114.263C98.373 114.427 98.6367 114.614 98.8535 114.825C99.0703 115.03 99.2373 115.271 99.3545 115.546C99.4717 115.815 99.5303 116.138 99.5303 116.513C99.5303 116.97 99.4248 117.368 99.2139 117.708C99.0029 118.048 98.7217 118.329 98.3701 118.552C98.0186 118.774 97.6113 118.938 97.1484 119.044C96.6914 119.155 96.208 119.211 95.6982 119.211C94.7139 119.211 93.8613 119.047 93.1406 118.719ZM114.05 115.054H107.915C107.938 115.886 108.193 116.527 108.68 116.979C109.172 117.43 109.846 117.655 110.701 117.655C111.662 117.655 112.544 117.368 113.347 116.794V118.438C112.526 118.953 111.442 119.211 110.095 119.211C108.771 119.211 107.73 118.804 106.975 117.989C106.225 117.169 105.85 116.018 105.85 114.535C105.85 113.135 106.263 111.995 107.089 111.116C107.921 110.231 108.952 109.789 110.183 109.789C111.413 109.789 112.365 110.185 113.039 110.976C113.713 111.767 114.05 112.865 114.05 114.271V115.054ZM112.081 113.612C112.075 112.88 111.902 112.312 111.562 111.907C111.223 111.497 110.754 111.292 110.156 111.292C109.57 111.292 109.072 111.506 108.662 111.934C108.258 112.361 108.009 112.921 107.915 113.612H112.081ZM123.744 110L120.264 119H118.058L114.744 110H116.959L118.954 116.293C119.106 116.756 119.2 117.16 119.235 117.506H119.262C119.314 117.072 119.396 116.68 119.508 116.328L121.6 110H123.744ZM132.612 115.054H126.478C126.501 115.886 126.756 116.527 127.242 116.979C127.734 117.43 128.408 117.655 129.264 117.655C130.225 117.655 131.106 117.368 131.909 116.794V118.438C131.089 118.953 130.005 119.211 128.657 119.211C127.333 119.211 126.293 118.804 125.537 117.989C124.787 117.169 124.412 116.018 124.412 114.535C124.412 113.135 124.825 111.995 125.651 111.116C126.483 110.231 127.515 109.789 128.745 109.789C129.976 109.789 130.928 110.185 131.602 110.976C132.275 111.767 132.612 112.865 132.612 114.271V115.054ZM130.644 113.612C130.638 112.88 130.465 112.312 130.125 111.907C129.785 111.497 129.316 111.292 128.719 111.292C128.133 111.292 127.635 111.506 127.225 111.934C126.82 112.361 126.571 112.921 126.478 113.612H130.644ZM142.57 119H140.531V113.929C140.531 112.247 139.937 111.406 138.747 111.406C138.126 111.406 137.613 111.641 137.209 112.109C136.805 112.572 136.603 113.158 136.603 113.867V119H134.555V110H136.603V111.494H136.638C137.312 110.357 138.284 109.789 139.556 109.789C140.534 109.789 141.281 110.108 141.797 110.747C142.312 111.38 142.57 112.297 142.57 113.498V119ZM149.812 118.903C149.414 119.103 148.89 119.202 148.239 119.202C146.493 119.202 145.62 118.364 145.62 116.688V111.6H144.117V110H145.62V107.917L147.659 107.337V110H149.812V111.6H147.659V116.1C147.659 116.633 147.756 117.014 147.949 117.242C148.143 117.471 148.465 117.585 148.916 117.585C149.262 117.585 149.561 117.485 149.812 117.286V118.903ZM155.455 119.211C154.066 119.211 152.956 118.792 152.124 117.954C151.298 117.11 150.885 115.994 150.885 114.605C150.885 113.094 151.315 111.913 152.177 111.063C153.044 110.214 154.21 109.789 155.675 109.789C157.081 109.789 158.177 110.202 158.962 111.028C159.747 111.854 160.14 113 160.14 114.465C160.14 115.9 159.715 117.052 158.865 117.919C158.021 118.78 156.885 119.211 155.455 119.211ZM155.552 111.415C154.755 111.415 154.125 111.693 153.662 112.25C153.199 112.807 152.968 113.574 152.968 114.553C152.968 115.496 153.202 116.24 153.671 116.785C154.14 117.324 154.767 117.594 155.552 117.594C156.354 117.594 156.97 117.327 157.397 116.794C157.831 116.261 158.048 115.502 158.048 114.518C158.048 113.527 157.831 112.763 157.397 112.224C156.97 111.685 156.354 111.415 155.552 111.415ZM161.66 118.719V116.829C162.422 117.409 163.263 117.699 164.183 117.699C165.413 117.699 166.028 117.336 166.028 116.609C166.028 116.404 165.976 116.231 165.87 116.091C165.765 115.944 165.621 115.815 165.439 115.704C165.264 115.593 165.053 115.493 164.807 115.405C164.566 115.317 164.297 115.218 163.998 115.106C163.629 114.96 163.295 114.805 162.996 114.641C162.703 114.477 162.457 114.292 162.258 114.087C162.064 113.876 161.918 113.639 161.818 113.375C161.719 113.111 161.669 112.804 161.669 112.452C161.669 112.019 161.771 111.638 161.977 111.31C162.182 110.976 162.457 110.697 162.803 110.475C163.148 110.246 163.541 110.076 163.98 109.965C164.42 109.848 164.874 109.789 165.343 109.789C166.175 109.789 166.919 109.915 167.575 110.167V111.951C166.942 111.518 166.216 111.301 165.396 111.301C165.138 111.301 164.903 111.327 164.692 111.38C164.487 111.433 164.312 111.506 164.165 111.6C164.019 111.693 163.904 111.808 163.822 111.942C163.74 112.071 163.699 112.215 163.699 112.373C163.699 112.566 163.74 112.73 163.822 112.865C163.904 113 164.024 113.12 164.183 113.226C164.347 113.325 164.54 113.419 164.763 113.507C164.991 113.589 165.252 113.68 165.545 113.779C165.932 113.938 166.277 114.099 166.582 114.263C166.893 114.427 167.156 114.614 167.373 114.825C167.59 115.03 167.757 115.271 167.874 115.546C167.991 115.815 168.05 116.138 168.05 116.513C168.05 116.97 167.944 117.368 167.733 117.708C167.522 118.048 167.241 118.329 166.89 118.552C166.538 118.774 166.131 118.938 165.668 119.044C165.211 119.155 164.728 119.211 164.218 119.211C163.233 119.211 162.381 119.047 161.66 118.719ZM170.836 119.193C170.484 119.193 170.186 119.079 169.939 118.851C169.693 118.616 169.57 118.338 169.57 118.016C169.57 117.688 169.693 117.406 169.939 117.172C170.186 116.938 170.484 116.82 170.836 116.82C171.193 116.82 171.495 116.938 171.741 117.172C171.993 117.406 172.119 117.688 172.119 118.016C172.119 118.338 171.993 118.616 171.741 118.851C171.495 119.079 171.193 119.193 170.836 119.193Z" fill="#6D6D6D"/>
<path d="M117.96 8.69768C102.591 8.98435 91.8889 1.2199 84.4822 1.3599C77.0756 1.4999 61.6022 6.04657 62.24 40.1155C62.8778 74.1843 83.8933 78.791 92.04 78.6399C130.182 77.9266 145.176 8.18879 117.96 8.69768Z" fill="#EFEFEF"/>
<path d="M66.8766 59.6829L68.448 58.1115L71.5907 61.2542L70.0193 62.8256L66.8766 59.6829Z" fill="#B7B7B7"/>
<path d="M75.9092 68.7157L77.4805 67.1444L80.6232 70.287L79.0519 71.8584L75.9092 68.7157Z" fill="#B7B7B7"/>
<path d="M66.4778 70.298L69.6205 67.1553L71.1919 68.7266L68.0492 71.8693L66.4778 70.298Z" fill="#B7B7B7"/>
<path d="M75.5096 61.2634L78.6523 58.1207L80.2236 59.6921L77.0809 62.8348L75.5096 61.2634Z" fill="#B7B7B7"/>
<path d="M114.111 23.889V28.3335H73V23.889C73 21.4446 75 19.4446 77.4444 19.4446H109.667C112.111 19.4446 114.111 21.4446 114.111 23.889Z" fill="#BFD8F4"/>
<path d="M114.111 28.3334L114.109 49.4445C114.109 51.8978 112.118 53.8889 109.664 53.8889H77.4444C75 53.8889 73 51.8889 73 49.4445V28.3334H114.111Z" fill="#F3F3F1"/>
<path d="M82.4444 19.4446H77.4444C75 19.4446 73 21.4446 73 23.889V28.3335H78V23.889C78 21.4446 80 19.4446 82.4444 19.4446Z" fill="#BFD8F4"/>
<path d="M78 49.4445V28.3334H73V49.4445C73 51.8889 75 53.8889 77.4444 53.8889H82.4444C80 53.8889 78 51.8889 78 49.4445Z" fill="#BFD8F4"/>
<path d="M110.222 65.0002C117.279 65.0002 123 59.2793 123 52.2224C123 45.1654 117.279 39.4446 110.222 39.4446C103.165 39.4446 97.4445 45.1654 97.4445 52.2224C97.4445 59.2793 103.165 65.0002 110.222 65.0002Z" fill="#BFD8F4"/>
<path d="M102.444 52.2224C102.444 46.0224 106.862 40.8557 112.722 39.6935C111.913 39.5335 111.078 39.4446 110.222 39.4446C103.164 39.4446 97.4445 45.1646 97.4445 52.2224C97.4445 59.2801 103.164 65.0002 110.222 65.0002C111.078 65.0002 111.913 64.9135 112.722 64.7513C106.862 63.589 102.444 58.4224 102.444 52.2224Z" fill="#BFD8F4"/>
<path d="M90.2223 55.5555H77.4445C74.0734 55.5555 71.3334 52.8155 71.3334 49.4444V23.8888C71.3334 20.5177 74.0734 17.7777 77.4445 17.7777H109.667C113.038 17.7777 115.778 20.5177 115.778 23.8888V32.7777H112.444V23.8888C112.444 22.3577 111.198 21.111 109.667 21.111H77.4445C75.9134 21.111 74.6667 22.3577 74.6667 23.8888V49.4444C74.6667 50.9755 75.9134 52.2222 77.4445 52.2222H90.2223V55.5555Z" fill="#101521"/>
<path d="M73 26.6666H114.111V30H73V26.6666Z" fill="#101521"/>
<path d="M80.2222 15H83.5556V23.8889H80.2222V15Z" fill="#101521"/>
<path d="M103.556 15H106.889V23.8889H103.556V15Z" fill="#101521"/>
<path d="M110.222 66.6666C102.258 66.6666 95.7778 60.1866 95.7778 52.2222C95.7778 44.2577 102.258 37.7777 110.222 37.7777C118.187 37.7777 124.667 44.2577 124.667 52.2222C124.667 60.1866 118.187 66.6666 110.222 66.6666ZM110.222 41.111C104.096 41.111 99.1111 46.0955 99.1111 52.2222C99.1111 58.3488 104.096 63.3333 110.222 63.3333C116.349 63.3333 121.333 58.3488 121.333 52.2222C121.333 46.0955 116.349 41.111 110.222 41.111Z" fill="#101521"/>
<path d="M108.556 46.1111H111.889V58.3333H108.556V46.1111Z" fill="#101521"/>
<path d="M104.111 50.5554H116.333V53.8887H104.111V50.5554Z" fill="#101521"/>
</svg>
