<svg width="195" height="148" viewBox="0 0 195 148" fill="none" xmlns="http://www.w3.org/2000/svg">
<path d="M67.26 61.3844C67.26 46.0133 59.2977 35.4578 59.2977 28.0511C59.2977 20.6444 63.5555 5.08887 97.6288 5.08887C131.702 5.08887 136.702 26.0155 136.702 34.1622C136.704 72.3111 67.26 88.6066 67.26 61.3844Z" fill="#EFEFEF"/>
<path d="M104.445 36.6889C102.489 38.4667 102.489 41.5333 104.445 43.3111L108.2 46.6889C110.556 48.8 111.889 51.8 111.889 54.9556V65H84.1111V54.9556C84.1111 51.8 85.4445 48.8 87.8 46.6889L91.5556 43.3111C93.5112 41.5333 93.5112 38.4667 91.5556 36.6889L87.8 33.3111C85.4445 31.2 84.1111 28.2 84.1111 25.0444V15H111.889V25.0444C111.889 28.2 110.556 31.2 108.2 33.3111L104.445 36.6889Z" fill="#F3F3F1"/>
<path d="M89.1111 58.6111C89.1111 54.6844 90.4445 50.9511 92.8 48.3244L96.5556 44.12C98.5111 41.9067 98.5111 38.0911 96.5556 35.88L92.8 31.6756C90.4445 29.0489 89.1111 25.3156 89.1111 21.3889V15H84.1111V25.0444C84.1111 28.2 85.4445 31.2 87.8 33.3111L91.5556 36.6889C93.5111 38.4667 93.5111 41.5333 91.5556 43.3111L87.8 46.6889C85.4445 48.8 84.1111 51.8 84.1111 54.9556V65H89.1111V58.6111Z" fill="#BFD8F4"/>
<path d="M103.92 52.0311L97.9999 46.1111L92.0799 52.0311C91.2465 52.8644 90.7776 53.9955 90.7776 55.1733V65H105.222V55.1733C105.222 53.9955 104.753 52.8644 103.92 52.0311Z" fill="#BFD8F4"/>
<path d="M65.2224 13.6111H69.6668V15.8333H65.2224V13.6111Z" fill="#B7B7B7"/>
<path d="M72.4447 19.1667H74.6669V23.6112H72.4447V19.1667Z" fill="#B7B7B7"/>
<path d="M72.4447 6.38892H74.6669V10.8334H72.4447V6.38892Z" fill="#B7B7B7"/>
<path d="M126.889 25.5556C125.051 25.5556 123.556 24.06 123.556 22.2222C123.556 20.3845 125.051 18.8889 126.889 18.8889C128.727 18.8889 130.222 20.3845 130.222 22.2222C130.222 24.06 128.727 25.5556 126.889 25.5556ZM126.889 21.1111C126.278 21.1111 125.778 21.6111 125.778 22.2222C125.778 22.8334 126.278 23.3334 126.889 23.3334C127.5 23.3334 128 22.8334 128 22.2222C128 21.6111 127.5 21.1111 126.889 21.1111Z" fill="#B7B7B7"/>
<path d="M106.889 65H103.556V55.1734C103.556 54.4422 103.258 53.7267 102.742 53.2089L98 48.4689L93.2578 53.2111C92.7423 53.7267 92.4445 54.4445 92.4445 55.1756V65.0022H89.1111V55.1756C89.1111 53.5445 89.7467 52.0089 90.9023 50.8556L96.8223 44.9356C97.4734 44.2845 98.5289 44.2845 99.18 44.9356L105.1 50.8556C106.256 52.0111 106.891 53.5445 106.891 55.1756V65H106.889Z" fill="#101521"/>
<path d="M79.6668 13.3333H116.333V16.6666H79.6668V13.3333Z" fill="#101521"/>
<path d="M79.6668 63.3333H116.333V66.6666H79.6668V63.3333Z" fill="#101521"/>
<path d="M85.7778 65H82.4445V54.9489C82.4445 51.3333 83.9845 47.8711 86.6734 45.4533L90.4356 42.0667C91.0311 41.5333 91.3556 40.8022 91.3556 40.0022C91.3556 39.2022 91.0311 38.4733 90.4356 37.9378L86.6734 34.5511C83.9845 32.1289 82.4445 28.6667 82.4445 25.0511V15H85.7778V25.0511C85.7778 27.7222 86.9178 30.2822 88.9045 32.0689L92.6667 35.4556C93.9511 36.6133 94.6889 38.2689 94.6889 39.9978C94.6889 41.7267 93.9511 43.3822 92.6667 44.54L88.9045 47.9267C86.9156 49.7156 85.7778 52.2733 85.7778 54.9444V65Z" fill="#101521"/>
<path d="M113.555 65H110.222V54.9489C110.222 52.2778 109.082 49.7178 107.095 47.9311L103.333 44.5444C102.049 43.3867 101.311 41.7311 101.311 40.0022C101.311 38.2733 102.049 36.6178 103.333 35.46L107.095 32.0733C109.084 30.2844 110.222 27.7267 110.222 25.0556V15H113.555V25.0511C113.555 28.6667 112.015 32.1289 109.327 34.5467L105.564 37.9333C104.969 38.4667 104.644 39.1978 104.644 39.9978C104.644 40.7978 104.969 41.5267 105.564 42.0622L109.327 45.4489C112.015 47.8711 113.555 51.3333 113.555 54.9489V65Z" fill="#101521"/>
<path d="M70.667 119H68.3818L62.3613 109.736C62.209 109.502 62.083 109.259 61.9834 109.007H61.9307C61.9775 109.276 62.001 109.854 62.001 110.738V119H59.9795V106.396H62.4141L68.2324 115.44C68.4785 115.815 68.6367 116.073 68.707 116.214H68.7422C68.6836 115.88 68.6543 115.314 68.6543 114.518V106.396H70.667V119ZM77.5576 119.211C76.1689 119.211 75.0586 118.792 74.2266 117.954C73.4004 117.11 72.9873 115.994 72.9873 114.605C72.9873 113.094 73.418 111.913 74.2793 111.063C75.1465 110.214 76.3125 109.789 77.7773 109.789C79.1836 109.789 80.2793 110.202 81.0645 111.028C81.8496 111.854 82.2422 113 82.2422 114.465C82.2422 115.9 81.8174 117.052 80.9678 117.919C80.124 118.78 78.9873 119.211 77.5576 119.211ZM77.6543 111.415C76.8574 111.415 76.2275 111.693 75.7646 112.25C75.3018 112.807 75.0703 113.574 75.0703 114.553C75.0703 115.496 75.3047 116.24 75.7734 116.785C76.2422 117.324 76.8691 117.594 77.6543 117.594C78.457 117.594 79.0723 117.327 79.5 116.794C79.9336 116.261 80.1504 115.502 80.1504 114.518C80.1504 113.527 79.9336 112.763 79.5 112.224C79.0723 111.685 78.457 111.415 77.6543 111.415ZM94.0283 118.903C93.6299 119.103 93.1055 119.202 92.4551 119.202C90.709 119.202 89.8359 118.364 89.8359 116.688V111.6H88.333V110H89.8359V107.917L91.875 107.337V110H94.0283V111.6H91.875V116.1C91.875 116.633 91.9717 117.014 92.165 117.242C92.3584 117.471 92.6807 117.585 93.1318 117.585C93.4775 117.585 93.7764 117.485 94.0283 117.286V118.903ZM96.8145 108.11C96.4805 108.11 96.1934 108.002 95.9531 107.785C95.7188 107.568 95.6016 107.293 95.6016 106.959C95.6016 106.625 95.7188 106.347 95.9531 106.124C96.1934 105.901 96.4805 105.79 96.8145 105.79C97.1602 105.79 97.4531 105.901 97.6934 106.124C97.9336 106.347 98.0537 106.625 98.0537 106.959C98.0537 107.275 97.9336 107.548 97.6934 107.776C97.4531 107.999 97.1602 108.11 96.8145 108.11ZM97.8252 119H95.7861V110H97.8252V119ZM108.117 115.054H101.982C102.006 115.886 102.261 116.527 102.747 116.979C103.239 117.43 103.913 117.655 104.769 117.655C105.729 117.655 106.611 117.368 107.414 116.794V118.438C106.594 118.953 105.51 119.211 104.162 119.211C102.838 119.211 101.798 118.804 101.042 117.989C100.292 117.169 99.917 116.018 99.917 114.535C99.917 113.135 100.33 111.995 101.156 111.116C101.988 110.231 103.02 109.789 104.25 109.789C105.48 109.789 106.433 110.185 107.106 110.976C107.78 111.767 108.117 112.865 108.117 114.271V115.054ZM106.148 113.612C106.143 112.88 105.97 112.312 105.63 111.907C105.29 111.497 104.821 111.292 104.224 111.292C103.638 111.292 103.14 111.506 102.729 111.934C102.325 112.361 102.076 112.921 101.982 113.612H106.148ZM118.075 119H116.036V113.929C116.036 112.247 115.441 111.406 114.252 111.406C113.631 111.406 113.118 111.641 112.714 112.109C112.31 112.572 112.107 113.158 112.107 113.867V119H110.06V110H112.107V111.494H112.143C112.816 110.357 113.789 109.789 115.061 109.789C116.039 109.789 116.786 110.108 117.302 110.747C117.817 111.38 118.075 112.297 118.075 113.498V119ZM128.191 115.054H122.057C122.08 115.886 122.335 116.527 122.821 116.979C123.313 117.43 123.987 117.655 124.843 117.655C125.804 117.655 126.686 117.368 127.488 116.794V118.438C126.668 118.953 125.584 119.211 124.236 119.211C122.912 119.211 121.872 118.804 121.116 117.989C120.366 117.169 119.991 116.018 119.991 114.535C119.991 113.135 120.404 111.995 121.23 111.116C122.062 110.231 123.094 109.789 124.324 109.789C125.555 109.789 126.507 110.185 127.181 110.976C127.854 111.767 128.191 112.865 128.191 114.271V115.054ZM126.223 113.612C126.217 112.88 126.044 112.312 125.704 111.907C125.364 111.497 124.896 111.292 124.298 111.292C123.712 111.292 123.214 111.506 122.804 111.934C122.399 112.361 122.15 112.921 122.057 113.612H126.223ZM129.571 118.719V116.829C130.333 117.409 131.174 117.699 132.094 117.699C133.324 117.699 133.939 117.336 133.939 116.609C133.939 116.404 133.887 116.231 133.781 116.091C133.676 115.944 133.532 115.815 133.351 115.704C133.175 115.593 132.964 115.493 132.718 115.405C132.478 115.317 132.208 115.218 131.909 115.106C131.54 114.96 131.206 114.805 130.907 114.641C130.614 114.477 130.368 114.292 130.169 114.087C129.976 113.876 129.829 113.639 129.729 113.375C129.63 113.111 129.58 112.804 129.58 112.452C129.58 112.019 129.683 111.638 129.888 111.31C130.093 110.976 130.368 110.697 130.714 110.475C131.06 110.246 131.452 110.076 131.892 109.965C132.331 109.848 132.785 109.789 133.254 109.789C134.086 109.789 134.83 109.915 135.486 110.167V111.951C134.854 111.518 134.127 111.301 133.307 111.301C133.049 111.301 132.814 111.327 132.604 111.38C132.398 111.433 132.223 111.506 132.076 111.6C131.93 111.693 131.815 111.808 131.733 111.942C131.651 112.071 131.61 112.215 131.61 112.373C131.61 112.566 131.651 112.73 131.733 112.865C131.815 113 131.936 113.12 132.094 113.226C132.258 113.325 132.451 113.419 132.674 113.507C132.902 113.589 133.163 113.68 133.456 113.779C133.843 113.938 134.188 114.099 134.493 114.263C134.804 114.427 135.067 114.614 135.284 114.825C135.501 115.03 135.668 115.271 135.785 115.546C135.902 115.815 135.961 116.138 135.961 116.513C135.961 116.97 135.855 117.368 135.645 117.708C135.434 118.048 135.152 118.329 134.801 118.552C134.449 118.774 134.042 118.938 133.579 119.044C133.122 119.155 132.639 119.211 132.129 119.211C131.145 119.211 130.292 119.047 129.571 118.719ZM50.3115 143H48.2725V137.929C48.2725 136.247 47.6777 135.406 46.4883 135.406C45.8672 135.406 45.3545 135.641 44.9502 136.109C44.5459 136.572 44.3438 137.158 44.3438 137.867V143H42.2959V134H44.3438V135.494H44.3789C45.0527 134.357 46.0254 133.789 47.2969 133.789C48.2754 133.789 49.0225 134.108 49.5381 134.747C50.0537 135.38 50.3115 136.297 50.3115 137.498V143ZM56.7979 143.211C55.4092 143.211 54.2988 142.792 53.4668 141.954C52.6406 141.11 52.2275 139.994 52.2275 138.605C52.2275 137.094 52.6582 135.913 53.5195 135.063C54.3867 134.214 55.5527 133.789 57.0176 133.789C58.4238 133.789 59.5195 134.202 60.3047 135.028C61.0898 135.854 61.4824 137 61.4824 138.465C61.4824 139.9 61.0576 141.052 60.208 141.919C59.3643 142.78 58.2275 143.211 56.7979 143.211ZM56.8945 135.415C56.0977 135.415 55.4678 135.693 55.0049 136.25C54.542 136.807 54.3105 137.574 54.3105 138.553C54.3105 139.496 54.5449 140.24 55.0137 140.785C55.4824 141.324 56.1094 141.594 56.8945 141.594C57.6973 141.594 58.3125 141.327 58.7402 140.794C59.1738 140.261 59.3906 139.502 59.3906 138.518C59.3906 137.527 59.1738 136.763 58.7402 136.224C58.3125 135.685 57.6973 135.415 56.8945 135.415ZM68.3115 142.903C67.9131 143.103 67.3887 143.202 66.7383 143.202C64.9922 143.202 64.1191 142.364 64.1191 140.688V135.6H62.6162V134H64.1191V131.917L66.1582 131.337V134H68.3115V135.6H66.1582V140.1C66.1582 140.633 66.2549 141.014 66.4482 141.242C66.6416 141.471 66.9639 141.585 67.415 141.585C67.7607 141.585 68.0596 141.485 68.3115 141.286V142.903ZM71.0977 132.11C70.7637 132.11 70.4766 132.002 70.2363 131.785C70.002 131.568 69.8848 131.293 69.8848 130.959C69.8848 130.625 70.002 130.347 70.2363 130.124C70.4766 129.901 70.7637 129.79 71.0977 129.79C71.4434 129.79 71.7363 129.901 71.9766 130.124C72.2168 130.347 72.3369 130.625 72.3369 130.959C72.3369 131.275 72.2168 131.548 71.9766 131.776C71.7363 131.999 71.4434 132.11 71.0977 132.11ZM72.1084 143H70.0693V134H72.1084V143ZM79.8691 131.337C79.5938 131.179 79.2803 131.1 78.9287 131.1C77.9385 131.1 77.4434 131.659 77.4434 132.778V134H79.5352V135.6H77.4521V143H75.4131V135.6H73.875V134H75.4131V132.541C75.4131 131.592 75.7236 130.845 76.3447 130.3C76.9658 129.749 77.7422 129.474 78.6738 129.474C79.1777 129.474 79.5762 129.529 79.8691 129.641V131.337ZM82.0137 132.11C81.6797 132.11 81.3926 132.002 81.1523 131.785C80.918 131.568 80.8008 131.293 80.8008 130.959C80.8008 130.625 80.918 130.347 81.1523 130.124C81.3926 129.901 81.6797 129.79 82.0137 129.79C82.3594 129.79 82.6523 129.901 82.8926 130.124C83.1328 130.347 83.2529 130.625 83.2529 130.959C83.2529 131.275 83.1328 131.548 82.8926 131.776C82.6523 131.999 82.3594 132.11 82.0137 132.11ZM83.0244 143H80.9854V134H83.0244V143ZM92.1387 142.587C91.418 143.003 90.5654 143.211 89.5811 143.211C88.2451 143.211 87.167 142.795 86.3467 141.963C85.5264 141.125 85.1162 140.041 85.1162 138.711C85.1162 137.229 85.5557 136.039 86.4346 135.143C87.3193 134.24 88.5 133.789 89.9766 133.789C90.7969 133.789 91.5205 133.933 92.1475 134.22V136.118C91.5205 135.649 90.8525 135.415 90.1436 135.415C89.2822 135.415 88.5762 135.708 88.0254 136.294C87.4746 136.874 87.1992 137.636 87.1992 138.579C87.1992 139.511 87.457 140.246 87.9727 140.785C88.4941 141.324 89.1914 141.594 90.0645 141.594C90.7969 141.594 91.4883 141.333 92.1387 140.812V142.587ZM101.077 143H99.0996V141.594H99.0645C98.4434 142.672 97.5322 143.211 96.3311 143.211C95.4463 143.211 94.752 142.971 94.248 142.49C93.75 142.01 93.501 141.374 93.501 140.583C93.501 138.884 94.4795 137.894 96.4365 137.612L99.1084 137.234C99.1084 135.951 98.499 135.31 97.2803 135.31C96.208 135.31 95.2412 135.679 94.3799 136.417V134.633C95.3291 134.07 96.4248 133.789 97.667 133.789C99.9404 133.789 101.077 134.908 101.077 137.146V143ZM99.1084 138.579L97.2188 138.843C96.6328 138.919 96.1904 139.062 95.8916 139.273C95.5986 139.479 95.4521 139.842 95.4521 140.363C95.4521 140.744 95.5869 141.058 95.8564 141.304C96.1318 141.544 96.498 141.664 96.9551 141.664C97.5762 141.664 98.0889 141.447 98.4932 141.014C98.9033 140.574 99.1084 140.023 99.1084 139.361V138.579ZM110.016 142.587C109.295 143.003 108.442 143.211 107.458 143.211C106.122 143.211 105.044 142.795 104.224 141.963C103.403 141.125 102.993 140.041 102.993 138.711C102.993 137.229 103.433 136.039 104.312 135.143C105.196 134.24 106.377 133.789 107.854 133.789C108.674 133.789 109.397 133.933 110.024 134.22V136.118C109.397 135.649 108.729 135.415 108.021 135.415C107.159 135.415 106.453 135.708 105.902 136.294C105.352 136.874 105.076 137.636 105.076 138.579C105.076 139.511 105.334 140.246 105.85 140.785C106.371 141.324 107.068 141.594 107.941 141.594C108.674 141.594 109.365 141.333 110.016 140.812V142.587ZM113.074 132.11C112.74 132.11 112.453 132.002 112.213 131.785C111.979 131.568 111.861 131.293 111.861 130.959C111.861 130.625 111.979 130.347 112.213 130.124C112.453 129.901 112.74 129.79 113.074 129.79C113.42 129.79 113.713 129.901 113.953 130.124C114.193 130.347 114.313 130.625 114.313 130.959C114.313 131.275 114.193 131.548 113.953 131.776C113.713 131.999 113.42 132.11 113.074 132.11ZM114.085 143H112.046V134H114.085V143ZM120.747 143.211C119.358 143.211 118.248 142.792 117.416 141.954C116.59 141.11 116.177 139.994 116.177 138.605C116.177 137.094 116.607 135.913 117.469 135.063C118.336 134.214 119.502 133.789 120.967 133.789C122.373 133.789 123.469 134.202 124.254 135.028C125.039 135.854 125.432 137 125.432 138.465C125.432 139.9 125.007 141.052 124.157 141.919C123.313 142.78 122.177 143.211 120.747 143.211ZM120.844 135.415C120.047 135.415 119.417 135.693 118.954 136.25C118.491 136.807 118.26 137.574 118.26 138.553C118.26 139.496 118.494 140.24 118.963 140.785C119.432 141.324 120.059 141.594 120.844 141.594C121.646 141.594 122.262 141.327 122.689 140.794C123.123 140.261 123.34 139.502 123.34 138.518C123.34 137.527 123.123 136.763 122.689 136.224C122.262 135.685 121.646 135.415 120.844 135.415ZM135.53 143H133.491V137.929C133.491 136.247 132.896 135.406 131.707 135.406C131.086 135.406 130.573 135.641 130.169 136.109C129.765 136.572 129.562 137.158 129.562 137.867V143H127.515V134H129.562V135.494H129.598C130.271 134.357 131.244 133.789 132.516 133.789C133.494 133.789 134.241 134.108 134.757 134.747C135.272 135.38 135.53 136.297 135.53 137.498V143ZM145.646 139.054H139.512C139.535 139.886 139.79 140.527 140.276 140.979C140.769 141.43 141.442 141.655 142.298 141.655C143.259 141.655 144.141 141.368 144.943 140.794V142.438C144.123 142.953 143.039 143.211 141.691 143.211C140.367 143.211 139.327 142.804 138.571 141.989C137.821 141.169 137.446 140.018 137.446 138.535C137.446 137.135 137.859 135.995 138.686 135.116C139.518 134.231 140.549 133.789 141.779 133.789C143.01 133.789 143.962 134.185 144.636 134.976C145.31 135.767 145.646 136.865 145.646 138.271V139.054ZM143.678 137.612C143.672 136.88 143.499 136.312 143.159 135.907C142.819 135.497 142.351 135.292 141.753 135.292C141.167 135.292 140.669 135.506 140.259 135.934C139.854 136.361 139.605 136.921 139.512 137.612H143.678ZM147.026 142.719V140.829C147.788 141.409 148.629 141.699 149.549 141.699C150.779 141.699 151.395 141.336 151.395 140.609C151.395 140.404 151.342 140.231 151.236 140.091C151.131 139.944 150.987 139.815 150.806 139.704C150.63 139.593 150.419 139.493 150.173 139.405C149.933 139.317 149.663 139.218 149.364 139.106C148.995 138.96 148.661 138.805 148.362 138.641C148.069 138.477 147.823 138.292 147.624 138.087C147.431 137.876 147.284 137.639 147.185 137.375C147.085 137.111 147.035 136.804 147.035 136.452C147.035 136.019 147.138 135.638 147.343 135.31C147.548 134.976 147.823 134.697 148.169 134.475C148.515 134.246 148.907 134.076 149.347 133.965C149.786 133.848 150.24 133.789 150.709 133.789C151.541 133.789 152.285 133.915 152.941 134.167V135.951C152.309 135.518 151.582 135.301 150.762 135.301C150.504 135.301 150.27 135.327 150.059 135.38C149.854 135.433 149.678 135.506 149.531 135.6C149.385 135.693 149.271 135.808 149.188 135.942C149.106 136.071 149.065 136.215 149.065 136.373C149.065 136.566 149.106 136.73 149.188 136.865C149.271 137 149.391 137.12 149.549 137.226C149.713 137.325 149.906 137.419 150.129 137.507C150.357 137.589 150.618 137.68 150.911 137.779C151.298 137.938 151.644 138.099 151.948 138.263C152.259 138.427 152.522 138.614 152.739 138.825C152.956 139.03 153.123 139.271 153.24 139.546C153.357 139.815 153.416 140.138 153.416 140.513C153.416 140.97 153.311 141.368 153.1 141.708C152.889 142.048 152.607 142.329 152.256 142.552C151.904 142.774 151.497 142.938 151.034 143.044C150.577 143.155 150.094 143.211 149.584 143.211C148.6 143.211 147.747 143.047 147.026 142.719Z" fill="#6D6D6D"/>
</svg>
