<svg width="80" height="80" viewBox="0 0 80 80" fill="none" xmlns="http://www.w3.org/2000/svg">
<path d="M60.9267 8.6978C45.56 8.98447 34.8556 1.22003 27.4511 1.36003C20.0467 1.50003 4.57111 6.04669 5.20888 40.1156C5.84666 74.1845 26.8622 78.7911 35.0089 78.64C73.1489 77.9267 88.1444 8.18891 60.9267 8.6978Z" fill="#EFEFEF"/>
<path d="M13.3333 21.4C11.4956 21.4 10 19.9044 10 18.0667C10 16.2289 11.4956 14.7333 13.3333 14.7333C15.1711 14.7333 16.6667 16.2289 16.6667 18.0667C16.6667 19.9044 15.1711 21.4 13.3333 21.4ZM13.3333 16.9556C12.72 16.9556 12.2222 17.4533 12.2222 18.0667C12.2222 18.68 12.72 19.1778 13.3333 19.1778C13.9467 19.1778 14.4444 18.68 14.4444 18.0667C14.4444 17.4533 13.9467 16.9556 13.3333 16.9556Z" fill="#A4AFC1"/>
<path d="M60.5556 35V38.3333C60.5556 40.7889 58.5667 42.7778 56.1111 42.7778H23.8889C21.4333 42.7778 19.4445 40.7889 19.4445 38.3333V35H60.5556Z" fill="#F3F3F1"/>
<path d="M49.4444 35H32.7778C31.5511 35 30.5555 34.0044 30.5555 32.7777V26.1111C30.5555 24.8844 31.5511 23.8889 32.7778 23.8889H49.4444C52.5133 23.8889 55 26.3755 55 29.4444C55 32.5133 52.5133 35 49.4444 35Z" fill="#D2E2F4"/>
<path d="M23.8889 38.3333V35H19.4445V38.3333C19.4445 40.7889 21.4333 42.7778 23.8889 42.7778H28.3334C25.8778 42.7778 23.8889 40.7889 23.8889 38.3333Z" fill="#D5DBE1"/>
<path d="M56.111 44.4444H23.8888C20.5177 44.4444 17.7777 41.7044 17.7777 38.3333V33.3333H21.111V38.3333C21.111 39.8644 22.3577 41.1111 23.8888 41.1111H56.111C57.6422 41.1111 58.8888 39.8644 58.8888 38.3333V33.3333H62.2222V38.3333C62.2222 41.7044 59.4822 44.4444 56.111 44.4444Z" fill="#101521"/>
<path d="M13.3333 33.3333H66.6666V36.6667H13.3333V33.3333Z" fill="#101521"/>
<path d="M22.2223 41.1111H25.5556V66.6667H22.2223V41.1111Z" fill="#101521"/>
<path d="M54.4445 41.1111H57.7778V66.6667H54.4445V41.1111Z" fill="#101521"/>
<path d="M49.4444 36.6667H32.7777C30.6333 36.6667 28.8889 34.9223 28.8889 32.7778V26.1112C28.8889 23.9667 30.6333 22.2223 32.7777 22.2223H49.4444C53.4266 22.2223 56.6666 25.4623 56.6666 29.4445C56.6666 33.4267 53.4266 36.6667 49.4444 36.6667ZM32.7777 25.5556C32.4711 25.5556 32.2222 25.8045 32.2222 26.1112V32.7778C32.2222 33.0845 32.4711 33.3334 32.7777 33.3334H49.4444C51.5889 33.3334 53.3333 31.589 53.3333 29.4445C53.3333 27.3001 51.5889 25.5556 49.4444 25.5556H32.7777Z" fill="#101521"/>
<path d="M28.8889 27.7777H48.8889V31.111H28.8889V27.7777Z" fill="#101521"/>
</svg>
