<svg width="80" height="80" viewBox="0 0 80 80" fill="none" xmlns="http://www.w3.org/2000/svg">
<path d="M61.3844 9.26007C46.0133 9.26007 35.4578 1.29785 28.0511 1.29785C20.6444 1.29785 5.08887 5.55563 5.08887 39.629C5.08887 73.7023 26.0155 78.7023 34.1622 78.7023C72.3111 78.7045 88.6067 9.26007 61.3844 9.26007Z" fill="#EFEFEF"/>
<path d="M71.1111 12.2221C69.2733 12.2221 67.7778 10.7265 67.7778 8.88875C67.7778 7.05097 69.2733 5.55542 71.1111 5.55542C72.9489 5.55542 74.4445 7.05097 74.4445 8.88875C74.4445 10.7265 72.9489 12.2221 71.1111 12.2221ZM71.1111 7.77764C70.4978 7.77764 70 8.27542 70 8.88875C70 9.50208 70.4978 9.99986 71.1111 9.99986C71.7244 9.99986 72.2222 9.50208 72.2222 8.88875C72.2222 8.27542 71.7244 7.77764 71.1111 7.77764Z" fill="#A4AFC1"/>
<path d="M57.7778 49.4445C59.3119 49.4445 60.5556 48.2008 60.5556 46.6667C60.5556 45.1326 59.3119 43.8889 57.7778 43.8889C56.2437 43.8889 55 45.1326 55 46.6667C55 48.2008 56.2437 49.4445 57.7778 49.4445Z" fill="#F3F3F1"/>
<path d="M22.2222 49.4445C23.7564 49.4445 25 48.2008 25 46.6667C25 45.1326 23.7564 43.8889 22.2222 43.8889C20.6881 43.8889 19.4445 45.1326 19.4445 46.6667C19.4445 48.2008 20.6881 49.4445 22.2222 49.4445Z" fill="#F3F3F1"/>
<path d="M40 50.5554C42.7614 50.5554 45 48.3168 45 45.5554C45 42.794 42.7614 40.5554 40 40.5554C37.2386 40.5554 35 42.794 35 45.5554C35 48.3168 37.2386 50.5554 40 50.5554Z" fill="#F3F3F1"/>
<path d="M50.5556 66.6667V61.6667C50.5556 59.2112 48.5667 57.2223 46.1111 57.2223H33.8889C31.4333 57.2223 29.4445 59.2112 29.4445 61.6667V66.6667H50.5556Z" fill="#F3F3F1"/>
<path d="M15 62.2222V59.4444C15 56.9889 16.9889 55 19.4444 55H25C27.4556 55 29.4444 56.9889 29.4444 59.4444V62.2222H15Z" fill="#F3F3F1"/>
<path d="M50.5555 62.2222V59.4444C50.5555 56.9889 52.5444 55 55 55H60.5555C63.0111 55 65 56.9889 65 59.4444V62.2222H50.5555Z" fill="#F3F3F1"/>
<path d="M51.6666 17.2222V27.2222C51.6666 28.4489 50.6711 29.4445 49.4444 29.4445H43.8889L40 33.8889L36.6666 29.4445H30.5555C29.3289 29.4445 28.3333 28.4489 28.3333 27.2222V17.2222C28.3333 15.9956 29.3289 15 30.5555 15H49.4444C50.6711 15 51.6666 15.9956 51.6666 17.2222Z" fill="#D2E2F4"/>
<path d="M66.1111 19.4445V29.4445C66.1111 30.6712 65.1155 31.6667 63.8889 31.6667H62.2222L58.3333 36.1112L55 31.6667H53.3333C52.1066 31.6667 51.1111 30.6712 51.1111 29.4445V19.4445C51.1111 18.2178 52.1066 17.2223 53.3333 17.2223H63.8889C65.1155 17.2223 66.1111 18.2178 66.1111 19.4445Z" fill="#D2E2F4"/>
<path d="M29.4445 19.4445V29.4445C29.4445 30.6712 28.4489 31.6667 27.2222 31.6667H25.5556L21.6667 36.1112L18.3333 31.6667H16.6667C15.44 31.6667 14.4445 30.6712 14.4445 29.4445V19.4445C14.4445 18.2178 15.44 17.2223 16.6667 17.2223H27.2222C28.4489 17.2223 29.4445 18.2178 29.4445 19.4445Z" fill="#D2E2F4"/>
<path d="M60 46.6667C60 46.2445 60.1089 45.8556 60.2778 45.4978C59.8333 44.5534 58.8889 43.8889 57.7778 43.8889C56.2444 43.8889 55 45.1334 55 46.6667C55 48.2 56.2444 49.4445 57.7778 49.4445C58.8889 49.4445 59.8333 48.78 60.2778 47.8356C60.1089 47.4778 60 47.0889 60 46.6667Z" fill="#D5DBE1"/>
<path d="M24.4445 46.6667C24.4445 46.2445 24.5533 45.8556 24.7222 45.4978C24.2778 44.5534 23.3333 43.8889 22.2222 43.8889C20.6889 43.8889 19.4445 45.1334 19.4445 46.6667C19.4445 48.2 20.6889 49.4445 22.2222 49.4445C23.3333 49.4445 24.2778 48.78 24.7222 47.8356C24.5533 47.4778 24.4445 47.0889 24.4445 46.6667Z" fill="#D5DBE1"/>
<path d="M40 45.5554C40 43.7088 41.0111 42.1154 42.5 41.2488C41.7622 40.8199 40.9156 40.5554 40 40.5554C37.2378 40.5554 35 42.7932 35 45.5554C35 48.3176 37.2378 50.5554 40 50.5554C40.9156 50.5554 41.7622 50.291 42.5 49.8621C41.0111 48.9954 40 47.4021 40 45.5554Z" fill="#D5DBE1"/>
<path d="M38.8889 57.2223H33.8889C31.4333 57.2223 29.4445 59.2112 29.4445 61.6667V66.6667H34.4445V61.6667C34.4445 59.2112 36.4334 57.2223 38.8889 57.2223Z" fill="#D5DBE1"/>
<path d="M24.4444 55H19.4444C16.9889 55 15 56.9889 15 59.4444V62.2222H20V59.4444C20 56.9889 21.9889 55 24.4444 55Z" fill="#D5DBE1"/>
<path d="M60 55H55C52.5444 55 50.5555 56.9889 50.5555 59.4444V62.2222H55.5555V59.4444C55.5555 56.9889 57.5444 55 60 55Z" fill="#D5DBE1"/>
<path d="M33.3333 27.2222V17.2222C33.3333 15.9956 34.3289 15 35.5555 15H30.5555C29.3289 15 28.3333 15.9956 28.3333 17.2222V27.2222C28.3333 28.4489 29.3289 29.4444 30.5555 29.4444H35.5555C34.3289 29.4444 33.3333 28.4489 33.3333 27.2222Z" fill="#D2E2F4"/>
<path d="M41.6667 29.4446H36.6667L40 33.889L42.6934 30.8112L41.6667 29.4446Z" fill="#D2E2F4"/>
<path d="M60 31.6667H58.3333C57.1066 31.6667 56.1111 30.6712 56.1111 29.4445V19.4445C56.1111 18.2178 57.1066 17.2223 58.3333 17.2223H53.3333C52.1066 17.2223 51.1111 18.2178 51.1111 19.4445V29.4445C51.1111 30.6712 52.1066 31.6667 53.3333 31.6667H55L58.3333 36.1112L61.0266 33.0334L60 31.6667Z" fill="#D2E2F4"/>
<path d="M23.3333 31.6667H21.6667C20.44 31.6667 19.4445 30.6712 19.4445 29.4445V19.4445C19.4445 18.2178 20.44 17.2223 21.6667 17.2223H16.6667C15.44 17.2223 14.4445 18.2178 14.4445 19.4445V29.4445C14.4445 30.6712 15.44 31.6667 16.6667 31.6667H18.3333L21.6667 36.1112L24.36 33.0334L23.3333 31.6667Z" fill="#D2E2F4"/>
<path d="M40 35.5556C39.98 35.5556 39.9578 35.5556 39.9378 35.5556C39.4356 35.5356 38.9689 35.2912 38.6667 34.8912L35.8334 31.1112H30.5556C28.4111 31.1112 26.6667 29.3667 26.6667 27.2223V17.2223C26.6667 15.0778 28.4111 13.3334 30.5556 13.3334H49.4445C51.5889 13.3334 53.3334 15.0778 53.3334 17.2223V27.2223C53.3334 29.3667 51.5889 31.1112 49.4445 31.1112H44.6445L41.2534 34.9867C40.9378 35.3489 40.48 35.5556 40 35.5556ZM30.5556 16.6667C30.2489 16.6667 30 16.9156 30 17.2223V27.2223C30 27.5289 30.2489 27.7778 30.5556 27.7778H36.6667C37.1911 27.7778 37.6845 28.0245 38 28.4445L40.1 31.2445L42.6356 28.3489C42.9534 27.9867 43.4089 27.78 43.8889 27.78H49.4445C49.7511 27.78 50 27.5312 50 27.2245V17.2245C50 16.9178 49.7511 16.6689 49.4445 16.6689H30.5556V16.6667Z" fill="#101521"/>
<path d="M57.7778 37.7776C57.7555 37.7776 57.7333 37.7776 57.7133 37.7776C57.2089 37.7576 56.7422 37.511 56.4422 37.1088L53.6911 33.4154L56.3644 31.4243L57.8844 33.4621L60.4155 30.571C60.7333 30.2088 61.1889 30.0021 61.6689 30.0021H62.78C63.0822 30.0021 63.3355 29.7488 63.3355 29.4465V19.4465C63.3355 19.1443 63.0822 18.891 62.78 18.891H57.7778V15.5554H62.7778C64.9222 15.5554 66.6666 17.2999 66.6666 19.4443V29.4443C66.6666 31.5888 64.9222 33.3332 62.7778 33.3332H62.4222L59.0311 37.2088C58.7155 37.571 58.2578 37.7776 57.7778 37.7776Z" fill="#101521"/>
<path d="M22.2222 37.7776C21.7422 37.7776 21.2844 37.571 20.9689 37.2088L17.5778 33.3332H17.2222C15.0778 33.3332 13.3333 31.5888 13.3333 29.4443V19.4443C13.3333 17.2999 15.0778 15.5554 17.2222 15.5554H22.2222V18.8888H17.2222C16.92 18.8888 16.6666 19.1421 16.6666 19.4443V29.4443C16.6666 29.7465 16.92 29.9999 17.2222 29.9999H18.3333C18.8133 29.9999 19.2711 30.2065 19.5866 30.5688L22.1178 33.4599L23.6378 31.4221L26.3111 33.4132L23.56 37.1065C23.2578 37.511 22.7911 37.7554 22.2889 37.7754C22.2666 37.7776 22.2444 37.7776 22.2222 37.7776Z" fill="#101521"/>
<path d="M57.7778 51.1112C55.3266 51.1112 53.3333 49.1178 53.3333 46.6667C53.3333 44.2156 55.3266 42.2223 57.7778 42.2223C60.2289 42.2223 62.2222 44.2156 62.2222 46.6667C62.2222 49.1178 60.2289 51.1112 57.7778 51.1112ZM57.7778 45.5556C57.1644 45.5556 56.6666 46.0534 56.6666 46.6667C56.6666 47.2801 57.1644 47.7778 57.7778 47.7778C58.3911 47.7778 58.8889 47.2801 58.8889 46.6667C58.8889 46.0534 58.3911 45.5556 57.7778 45.5556Z" fill="#101521"/>
<path d="M66.6666 62.2223H63.3333V59.4445C63.3333 57.9134 62.0866 56.6667 60.5555 56.6667H53.3333V53.3334H60.5555C63.9266 53.3334 66.6666 56.0734 66.6666 59.4445V62.2223Z" fill="#101521"/>
<path d="M22.2222 51.1112C19.7711 51.1112 17.7778 49.1178 17.7778 46.6667C17.7778 44.2156 19.7711 42.2223 22.2222 42.2223C24.6733 42.2223 26.6667 44.2156 26.6667 46.6667C26.6667 49.1178 24.6733 51.1112 22.2222 51.1112ZM22.2222 45.5556C21.6089 45.5556 21.1111 46.0534 21.1111 46.6667C21.1111 47.2801 21.6089 47.7778 22.2222 47.7778C22.8355 47.7778 23.3333 47.2801 23.3333 46.6667C23.3333 46.0534 22.8355 45.5556 22.2222 45.5556Z" fill="#101521"/>
<path d="M16.6666 62.2223H13.3333V59.4445C13.3333 56.0734 16.0733 53.3334 19.4444 53.3334H26.6667V56.6667H19.4444C17.9133 56.6667 16.6666 57.9134 16.6666 59.4445V62.2223Z" fill="#101521"/>
<path d="M40 52.2222C36.3244 52.2222 33.3333 49.2311 33.3333 45.5556C33.3333 41.88 36.3244 38.8889 40 38.8889C43.6755 38.8889 46.6667 41.88 46.6667 45.5556C46.6667 49.2311 43.6755 52.2222 40 52.2222ZM40 42.2222C38.1622 42.2222 36.6666 43.7178 36.6666 45.5556C36.6666 47.3934 38.1622 48.8889 40 48.8889C41.8378 48.8889 43.3333 47.3934 43.3333 45.5556C43.3333 43.7178 41.8378 42.2222 40 42.2222Z" fill="#101521"/>
<path d="M52.2222 66.6665H48.8889V61.6665C48.8889 60.1354 47.6422 58.8888 46.1111 58.8888H33.8889C32.3578 58.8888 31.1111 60.1354 31.1111 61.6665V66.6665H27.7778V61.6665C27.7778 58.2954 30.5178 55.5554 33.8889 55.5554H46.1111C49.4822 55.5554 52.2222 58.2954 52.2222 61.6665V66.6665Z" fill="#101521"/>
<path d="M4.44446 63.3334H75.5556V66.6667H4.44446V63.3334Z" fill="#101521"/>
</svg>
