<svg width="80" height="80" viewBox="0 0 80 80" fill="none" xmlns="http://www.w3.org/2000/svg">
<path d="M9.25995 61.3845C9.25995 46.0134 1.29773 35.4579 1.29773 28.0512C1.29773 20.6445 5.55551 5.08899 39.6288 5.08899C73.7022 5.08899 78.7022 26.0157 78.7022 34.1623C78.7044 72.3112 9.25995 88.6068 9.25995 61.3845Z" fill="#EFEFEF"/>
<path d="M46.4445 36.6889C44.4889 38.4667 44.4889 41.5333 46.4445 43.3111L50.2001 46.6889C52.5556 48.8 53.889 51.8 53.889 54.9556V65H26.1111V54.9556C26.1111 51.8 27.4445 48.8 29.8 46.6889L33.5556 43.3111C35.5112 41.5333 35.5112 38.4667 33.5556 36.6889L29.8 33.3111C27.4445 31.2 26.1111 28.2 26.1111 25.0444V15H53.889V25.0444C53.889 28.2 52.5556 31.2 50.2001 33.3111L46.4445 36.6889Z" fill="#F3F3F1"/>
<path d="M31.1111 58.6111C31.1111 54.6844 32.4445 50.9511 34.8 48.3244L38.5556 44.12C40.5111 41.9067 40.5111 38.0911 38.5556 35.88L34.8 31.6756C32.4445 29.0489 31.1111 25.3156 31.1111 21.3889V15H26.1111V25.0444C26.1111 28.2 27.4445 31.2 29.8 33.3111L33.5556 36.6889C35.5111 38.4667 35.5111 41.5333 33.5556 43.3111L29.8 46.6889C27.4445 48.8 26.1111 51.8 26.1111 54.9556V65H31.1111V58.6111Z" fill="#D5DBE1"/>
<path d="M45.9198 52.0311L39.9999 46.1111L34.0799 52.0311C33.2465 52.8645 32.7776 53.9956 32.7776 55.1734V65.0001H47.2221V55.1734C47.2221 53.9956 46.7532 52.8645 45.9198 52.0311Z" fill="#D2E2F4"/>
<path d="M7.22235 13.6111H11.6668V15.8334H7.22235V13.6111Z" fill="#A4AFC1"/>
<path d="M14.4447 19.1666H16.6669V23.611H14.4447V19.1666Z" fill="#A4AFC1"/>
<path d="M14.4447 6.38885H16.6669V10.8333H14.4447V6.38885Z" fill="#A4AFC1"/>
<path d="M68.8891 25.5555C67.0513 25.5555 65.5558 24.06 65.5558 22.2222C65.5558 20.3844 67.0513 18.8889 68.8891 18.8889C70.7269 18.8889 72.2225 20.3844 72.2225 22.2222C72.2225 24.06 70.7269 25.5555 68.8891 25.5555ZM68.8891 21.1111C68.278 21.1111 67.778 21.6111 67.778 22.2222C67.778 22.8333 68.278 23.3333 68.8891 23.3333C69.5002 23.3333 70.0002 22.8333 70.0002 22.2222C70.0002 21.6111 69.5002 21.1111 68.8891 21.1111Z" fill="#A4AFC1"/>
<path d="M48.8889 64.9999H45.5556V55.1732C45.5556 54.4421 45.2578 53.7266 44.7423 53.2088L40 48.4688L35.2578 53.211C34.7423 53.7266 34.4445 54.4443 34.4445 55.1755V65.0021H31.1111V55.1755C31.1111 53.5443 31.7467 52.0088 32.9023 50.8555L38.8223 44.9355C39.4734 44.2844 40.5289 44.2844 41.18 44.9355L47.1 50.8555C48.2556 52.011 48.8911 53.5443 48.8911 55.1755V64.9999H48.8889Z" fill="#101521"/>
<path d="M21.6668 13.3333H58.3334V16.6666H21.6668V13.3333Z" fill="#101521"/>
<path d="M21.6668 63.3333H58.3334V66.6666H21.6668V63.3333Z" fill="#101521"/>
<path d="M27.7778 65H24.4445V54.9489C24.4445 51.3333 25.9845 47.8711 28.6734 45.4533L32.4356 42.0667C33.0311 41.5333 33.3556 40.8022 33.3556 40.0022C33.3556 39.2022 33.0311 38.4733 32.4356 37.9378L28.6734 34.5511C25.9845 32.1289 24.4445 28.6667 24.4445 25.0511V15H27.7778V25.0511C27.7778 27.7222 28.9178 30.2822 30.9045 32.0689L34.6667 35.4556C35.9511 36.6133 36.6889 38.2689 36.6889 39.9978C36.6889 41.7267 35.9511 43.3822 34.6667 44.54L30.9045 47.9267C28.9156 49.7156 27.7778 52.2733 27.7778 54.9444V65Z" fill="#101521"/>
<path d="M55.5554 65H52.2221V54.9489C52.2221 52.2778 51.0821 49.7178 49.0954 47.9311L45.3332 44.5444C44.0488 43.3867 43.311 41.7311 43.311 40.0022C43.311 38.2733 44.0488 36.6178 45.3332 35.46L49.0954 32.0733C51.0843 30.2844 52.2221 27.7267 52.2221 25.0556V15H55.5554V25.0511C55.5554 28.6667 54.0154 32.1289 51.3265 34.5467L47.5643 37.9333C46.9688 38.4667 46.6443 39.1978 46.6443 39.9978C46.6443 40.7978 46.9688 41.5267 47.5643 42.0622L51.3265 45.4489C54.0154 47.8711 55.5554 51.3333 55.5554 54.9489V65Z" fill="#101521"/>
</svg>
