<svg width="288" height="281" viewBox="0 0 288 281" fill="none" xmlns="http://www.w3.org/2000/svg">
<path d="M179.502 86.8024C193.765 72.6688 193.765 49.7536 179.502 35.6199C165.24 21.4863 142.116 21.4863 127.854 35.6199C113.592 49.7536 113.592 72.6688 127.854 86.8024C142.116 100.936 165.24 100.936 179.502 86.8024Z" stroke="#263238" stroke-linecap="round" stroke-linejoin="round"/>
<path d="M185.021 62.7678L185.088 61.5107C185.929 62.2912 186.777 63.1252 187.612 64.0307C187.612 64.2571 187.612 64.4835 187.576 64.7099L187.474 65.3831C186.715 64.4593 185.896 63.5856 185.021 62.7678V62.7678Z" stroke="#263238" stroke-linecap="round" stroke-linejoin="round"/>
<path d="M184.558 66.9021L184.751 65.657C185.13 66.0978 185.508 66.5566 185.881 67.0332C186.269 67.5051 186.631 67.9983 186.963 68.5106L186.62 69.8272C186.296 69.3149 185.965 68.8144 185.635 68.3319L185.136 67.617L184.558 66.9021Z" stroke="#263238" stroke-linecap="round" stroke-linejoin="round"/>
<path d="M183.518 70.9293C183.668 70.5414 183.788 70.1432 183.879 69.7378C184.545 70.7247 185.137 71.7581 185.652 72.8297L185.178 74.1046C184.649 72.9846 184.095 71.9262 183.518 70.9293Z" stroke="#263238" stroke-linecap="round" stroke-linejoin="round"/>
<path d="M181.931 74.7718L182.478 73.6399C182.951 74.6844 183.4 75.7866 183.825 76.9463C183.62 77.3551 183.393 77.7528 183.146 78.1378C182.821 76.9891 182.415 75.8644 181.931 74.7718V74.7718Z" stroke="#263238" stroke-linecap="round" stroke-linejoin="round"/>
<path d="M179.875 78.4001L180.531 77.3218C180.908 78.4521 181.207 79.6065 181.426 80.7771L180.603 81.8673C180.392 80.6579 180.188 79.526 179.875 78.4001Z" stroke="#263238" stroke-linecap="round" stroke-linejoin="round"/>
<path d="M177.308 81.6882C177.602 81.3879 177.879 81.0717 178.138 80.741C178.338 81.9063 178.472 83.0817 178.541 84.2618C178.222 84.5895 177.939 84.9469 177.597 85.2567C177.573 84.0473 177.446 82.8082 177.308 81.6882Z" stroke="#263238" stroke-linecap="round" stroke-linejoin="round"/>
<path d="M174.339 84.6316L175.276 83.7856C175.307 84.9354 175.307 86.1686 175.228 87.3601L174.134 88.1703C174.206 87.5746 174.261 86.9788 174.309 86.3831C174.357 85.7873 174.339 85.1916 174.339 84.6316Z" stroke="#263238" stroke-linecap="round" stroke-linejoin="round"/>
<path d="M171.02 87.1693C171.375 86.9426 171.718 86.698 172.048 86.4365C171.994 87.0323 171.946 87.628 171.85 88.2238C171.754 88.8195 171.639 89.3735 171.513 89.9633L170.311 90.6723C170.623 89.4629 170.846 88.3012 171.02 87.1693Z" stroke="#263238" stroke-linecap="round" stroke-linejoin="round"/>
<path d="M167.365 89.2067L168.507 88.6646C168.231 89.7726 167.892 90.9085 167.491 92.0722C167.287 92.1675 167.082 92.2748 166.89 92.3582L166.241 92.5905C166.695 91.4901 167.071 90.3594 167.365 89.2067Z" stroke="#263238" stroke-linecap="round" stroke-linejoin="round"/>
<path d="M163.482 90.7857L164.684 90.3508C164.48 90.8989 164.257 91.447 164.017 92.001L163.644 92.8351L163.235 93.6215L161.901 93.961C162.201 93.4308 162.502 92.9066 162.754 92.3823C163.029 91.8652 163.272 91.332 163.482 90.7857V90.7857Z" stroke="#263238" stroke-linecap="round" stroke-linejoin="round"/>
<path d="M159.418 91.8104L160.049 91.7151L160.65 91.5542C160.091 92.6006 159.46 93.6078 158.762 94.5687L157.398 94.7772C158.147 93.7763 158.82 92.7874 159.418 91.8104Z" stroke="#263238" stroke-linecap="round" stroke-linejoin="round"/>
<path d="M155.252 92.2748L156.52 92.2092C155.823 93.1207 155.065 94.0441 154.242 94.9616C153.783 94.9913 153.323 94.9913 152.865 94.9616C153.722 94.1219 154.52 93.2242 155.252 92.2748Z" stroke="#263238" stroke-linecap="round" stroke-linejoin="round"/>
<path d="M151.055 92.2212L152.324 92.2867C151.915 92.7037 151.494 93.1208 151.055 93.5378C150.624 93.9587 150.171 94.3564 149.697 94.7293L148.338 94.5208C148.825 94.1514 149.288 93.7761 149.739 93.4008L150.406 92.805L151.055 92.2212Z" stroke="#263238" stroke-linecap="round" stroke-linejoin="round"/>
<path d="M146.907 91.6077C147.316 91.7174 147.732 91.797 148.152 91.846C147.225 92.5978 146.247 93.2845 145.224 93.9013L143.896 93.5617C144.96 92.9362 145.964 92.2749 146.907 91.6077Z" stroke="#263238" stroke-linecap="round" stroke-linejoin="round"/>
<path d="M142.886 90.428L144.088 90.8629C143.09 91.4348 142.03 91.9849 140.908 92.5131C140.477 92.3585 140.057 92.1754 139.651 91.965C140.764 91.5285 141.845 91.0149 142.886 90.428V90.428Z" stroke="#263238" stroke-linecap="round" stroke-linejoin="round"/>
<path d="M139.044 88.7659L140.186 89.314C139.089 89.7962 137.96 90.2062 136.808 90.5412L135.605 89.8322C136.207 89.6774 136.778 89.5165 137.343 89.3437C137.908 89.171 138.479 88.9982 139.044 88.7659Z" stroke="#263238" stroke-linecap="round" stroke-linejoin="round"/>
<path d="M135.479 86.5676C135.807 86.832 136.154 87.0711 136.519 87.2825C135.953 87.4564 135.377 87.5976 134.794 87.7055C134.193 87.8246 133.622 87.9378 133.02 88.0332C132.654 87.7591 132.281 87.497 131.926 87.211C133.153 87.0502 134.349 86.8238 135.479 86.5676Z" stroke="#263238" stroke-linecap="round" stroke-linejoin="round"/>
<path d="M132.257 83.9346L133.195 84.7805C132.049 84.9314 130.846 85.0347 129.588 85.0903L128.65 84.0835C129.251 84.0835 129.852 84.0835 130.453 84.0835C131.055 84.0835 131.656 84.0001 132.257 83.9346Z" stroke="#263238" stroke-linecap="round" stroke-linejoin="round"/>
<path d="M129.347 80.914C129.612 81.2417 129.912 81.5396 130.189 81.8553C129.588 81.8553 128.986 81.8553 128.385 81.8553C127.784 81.8553 127.183 81.76 126.582 81.6945L125.764 80.6042C127.003 80.7512 128.197 80.8545 129.347 80.914Z" stroke="#263238" stroke-linecap="round" stroke-linejoin="round"/>
<path d="M126.937 77.5121L127.592 78.5845C126.456 78.4176 125.283 78.2032 124.081 77.9232L123.726 77.3274L123.42 76.7317L124.279 76.9759L125.175 77.1785C125.77 77.3036 126.359 77.4466 126.937 77.5121Z" stroke="#263238" stroke-linecap="round" stroke-linejoin="round"/>
<path d="M124.965 73.8722L125.518 75.0041C124.953 74.8492 124.382 74.6884 123.798 74.5037C123.219 74.3356 122.649 74.1367 122.091 73.9079L121.616 72.6331C122.175 72.8714 122.734 73.1037 123.281 73.3122L124.099 73.622L124.965 73.8722Z" stroke="#263238" stroke-linecap="round" stroke-linejoin="round"/>
<path d="M123.522 69.9404C123.582 70.1429 123.618 70.3455 123.69 70.5361L123.907 71.1318C122.797 70.6864 121.721 70.1649 120.684 69.571L120.348 68.2544C121.436 68.8799 122.482 69.4399 123.522 69.9404Z" stroke="#263238" stroke-linecap="round" stroke-linejoin="round"/>
<path d="M122.638 65.8773L122.831 67.1165C121.845 66.5287 120.843 65.8714 119.825 65.1446C119.752 64.6973 119.711 64.2453 119.704 63.7922C120.632 64.5548 121.612 65.2515 122.638 65.8773V65.8773Z" stroke="#263238" stroke-linecap="round" stroke-linejoin="round"/>
<path d="M122.277 61.7372L122.338 62.9882C121.881 62.6308 121.418 62.2555 120.955 61.8682L120.257 61.2725C120.035 61.0699 119.831 60.8614 119.62 60.6768L119.686 59.3125C120.107 59.7534 120.528 60.1823 120.955 60.5874L121.586 61.1831C121.808 61.3619 122.037 61.5465 122.277 61.7372Z" stroke="#263238" stroke-linecap="round" stroke-linejoin="round"/>
<path d="M122.482 57.5786C122.413 57.9921 122.377 58.4104 122.374 58.8296C121.522 57.996 120.732 57.102 120.011 56.1547L120.234 54.8083C120.961 55.7973 121.719 56.7207 122.482 57.5786Z" stroke="#263238" stroke-linecap="round" stroke-linejoin="round"/>
<path d="M123.239 53.4978L122.921 54.6893C122.247 53.7659 121.586 52.777 120.949 51.7106C121.009 51.4902 121.057 51.2697 121.129 51.0553L121.364 50.4119C121.915 51.483 122.542 52.5142 123.239 53.4978V53.4978Z" stroke="#263238" stroke-linecap="round" stroke-linejoin="round"/>
<path d="M124.55 49.542L124.117 50.7335C123.835 50.2271 123.552 49.7028 123.281 49.1607L122.879 48.3445L122.536 47.5224L123.137 46.2952C123.348 46.8909 123.57 47.4211 123.798 47.9573C124.022 48.4976 124.273 49.0265 124.55 49.542V49.542Z" stroke="#263238" stroke-linecap="round" stroke-linejoin="round"/>
<path d="M126.389 45.8068L126.059 46.343L125.782 46.909L125.446 46.0749L125.175 45.2766C125.001 44.7166 124.832 44.1447 124.676 43.5609L125.392 42.3694C125.686 43.5668 126.023 44.7166 126.389 45.8068Z" stroke="#263238" stroke-linecap="round" stroke-linejoin="round"/>
<path d="M128.716 42.3456L127.953 43.3524C127.692 42.2324 127.472 41.0607 127.291 39.8375C127.574 39.486 127.892 39.1643 128.205 38.8247C128.253 39.4205 128.307 40.0162 128.385 40.6119C128.464 41.2077 128.596 41.7736 128.716 42.3456Z" stroke="#263238" stroke-linecap="round" stroke-linejoin="round"/>
<path d="M131.451 39.1941L130.598 40.1235C130.532 39.5278 130.477 38.932 130.435 38.3363C130.393 37.7405 130.435 37.1448 130.435 36.549L131.451 35.6316C131.399 36.8707 131.399 38.0583 131.451 39.1941Z" stroke="#263238" stroke-linecap="round" stroke-linejoin="round"/>
<path d="M134.662 36.4775C134.325 36.7337 133.982 36.972 133.652 37.2401C133.694 36.0903 133.808 34.9226 133.964 33.7073C134.325 33.4269 134.702 33.1683 135.094 32.9329C134.972 33.5235 134.882 34.12 134.824 34.7201C134.728 35.3158 134.662 35.8997 134.662 36.4775Z" stroke="#263238" stroke-linecap="round" stroke-linejoin="round"/>
<path d="M138.124 34.172L137.042 34.8273C137.138 34.2315 137.247 33.6775 137.367 33.0877C137.487 32.4979 137.625 31.8962 137.806 31.3362L139.044 30.7405C138.659 31.8622 138.352 33.0087 138.124 34.172Z" stroke="#263238" stroke-linecap="round" stroke-linejoin="round"/>
<path d="M141.876 32.3549C141.477 32.492 141.089 32.6593 140.715 32.8553C141.048 31.7177 141.462 30.6048 141.954 29.5251L143.246 29.0544C142.741 30.1744 142.291 31.2766 141.876 32.3549Z" stroke="#263238" stroke-linecap="round" stroke-linejoin="round"/>
<path d="M145.885 31.074L144.683 31.3838C145.18 30.3551 145.741 29.3086 146.366 28.2442C146.809 28.129 147.259 28.0435 147.713 27.988C147.031 28.9726 146.42 30.0038 145.885 31.074V31.074Z" stroke="#263238" stroke-linecap="round" stroke-linejoin="round"/>
<path d="M150.003 30.2997L148.753 30.4903C149.066 29.9958 149.396 29.5073 149.739 29.0069L150.274 28.2622L150.833 27.5771L152.21 27.5056C151.807 27.9643 151.422 28.429 151.055 28.8818C150.68 29.3362 150.329 29.8094 150.003 30.2997V30.2997Z" stroke="#263238" stroke-linecap="round" stroke-linejoin="round"/>
<path d="M154.193 30.0971C153.773 30.0614 153.351 30.0614 152.931 30.0971C153.685 29.1766 154.505 28.3106 155.384 27.5056L156.754 27.5771C155.841 28.4191 154.987 29.2591 154.193 30.0971Z" stroke="#263238" stroke-linecap="round" stroke-linejoin="round"/>
<path d="M158.378 30.4546L157.121 30.2639C157.987 29.5133 158.925 28.7626 159.905 28.0239L160.584 28.1312L161.251 28.3039C160.243 28.9529 159.283 29.6715 158.378 30.4546V30.4546Z" stroke="#263238" stroke-linecap="round" stroke-linejoin="round"/>
<path d="M162.477 31.3303L161.275 31.0205C161.756 30.6869 162.255 30.3652 162.766 30.0375C163.277 29.7099 163.812 29.3941 164.335 29.1379L165.628 29.6026C165.081 29.8707 164.546 30.1447 164.029 30.4247L163.259 30.8477L162.477 31.3303Z" stroke="#263238" stroke-linecap="round" stroke-linejoin="round"/>
<path d="M166.415 32.7659C166.223 32.6765 166.036 32.5752 165.844 32.4978L165.243 32.2833C166.3 31.732 167.395 31.2543 168.519 30.8535L169.758 31.4493C168.591 31.8544 167.477 32.2932 166.415 32.7659Z" stroke="#263238" stroke-linecap="round" stroke-linejoin="round"/>
<path d="M170.13 34.7081L169.048 34.0587C170.142 33.6893 171.295 33.3557 172.505 33.0579C172.902 33.2902 173.244 33.5881 173.617 33.8502C173.016 33.9634 172.451 34.0647 171.862 34.2136C171.273 34.3625 170.684 34.5532 170.13 34.7081Z" stroke="#263238" stroke-linecap="round" stroke-linejoin="round"/>
<path d="M173.551 37.097L172.535 36.3404C173.136 36.2212 173.701 36.108 174.308 36.0068C174.916 35.9055 175.481 35.8638 176.112 35.8042L177.128 36.7216C175.878 36.811 174.705 36.9361 173.551 37.097Z" stroke="#263238" stroke-linecap="round" stroke-linejoin="round"/>
<path d="M176.599 39.9566C176.311 39.6588 176.046 39.3251 175.733 39.0451C176.924 38.9692 178.118 38.9533 179.31 38.9975C179.628 39.3261 179.927 39.6722 180.206 40.0341C179.006 39.9432 177.802 39.9174 176.599 39.9566V39.9566Z" stroke="#263238" stroke-linecap="round" stroke-linejoin="round"/>
<path d="M179.262 43.1736L178.499 42.1667C179.707 42.2387 180.911 42.3739 182.106 42.5719L182.821 43.7633C181.65 43.4867 180.461 43.2896 179.262 43.1736V43.1736Z" stroke="#263238" stroke-linecap="round" stroke-linejoin="round"/>
<path d="M181.474 46.7064C181.288 46.3301 181.077 45.966 180.843 45.6162C182.021 45.8293 183.182 46.1239 184.318 46.4979L184.919 47.7311C183.741 47.326 182.593 46.9844 181.474 46.7064Z" stroke="#263238" stroke-linecap="round" stroke-linejoin="round"/>
<path d="M183.158 50.5133L182.719 49.3218C183.805 49.7189 184.913 50.1657 186.043 50.6622C186.206 51.0868 186.337 51.5229 186.434 51.9669C185.377 51.4075 184.283 50.9218 183.158 50.5133V50.5133Z" stroke="#263238" stroke-linecap="round" stroke-linejoin="round"/>
<path d="M184.348 54.4989L184.029 53.3074C184.558 53.5635 185.087 53.8435 185.616 54.1355L186.416 54.5823L187.161 55.0708L187.372 56.4172C186.875 56.0637 186.376 55.7301 185.875 55.4163C185.383 55.0833 184.873 54.7771 184.348 54.4989Z" stroke="#263238" stroke-linecap="round" stroke-linejoin="round"/>
<path d="M184.967 58.6092C184.967 58.4007 184.967 58.1922 184.931 58.0135L184.835 57.4177C185.831 58.0711 186.779 58.7938 187.672 59.5803L187.739 60.9386C186.821 60.0807 185.897 59.3042 184.967 58.6092Z" stroke="#263238" stroke-linecap="round" stroke-linejoin="round"/>
<path d="M153.406 51.4365L147.959 79.3531" stroke="#263238" stroke-miterlimit="10"/>
<path d="M159.388 79.3531L153.947 51.4365" stroke="#263238" stroke-miterlimit="10"/>
<path d="M162.49 79.3532L156.742 49.8757" stroke="#263238" stroke-miterlimit="10"/>
<path d="M151.639 44.5975L153.129 36.9243" stroke="#263238" stroke-miterlimit="10"/>
<path d="M154.218 36.9243L155.714 44.5975" stroke="#263238" stroke-miterlimit="10"/>
<path d="M144.857 79.3532L150.604 49.8757" stroke="#263238" stroke-miterlimit="10"/>
<path d="M133.994 48.4402H133.796C133.616 48.4386 133.444 48.3672 133.317 48.2413C133.19 48.1154 133.118 47.9451 133.116 47.767V47.6598C133.118 47.4817 133.19 47.3114 133.317 47.1855C133.444 47.0596 133.616 46.9881 133.796 46.9866H149.985" stroke="#263238" stroke-miterlimit="10"/>
<path d="M133.994 48.4402H149.985" stroke="#263238" stroke-miterlimit="10"/>
<path d="M172.944 48.4402H157.362" stroke="#263238" stroke-miterlimit="10"/>
<path d="M172.944 48.4402H173.545C173.725 48.4386 173.897 48.3672 174.024 48.2413C174.151 48.1154 174.223 47.9451 174.224 47.767V47.6598C174.223 47.4817 174.151 47.3114 174.024 47.1855C173.897 47.0596 173.725 46.9881 173.545 46.9866H157.362" stroke="#263238" stroke-miterlimit="10"/>
<path d="M162.49 79.353H159.388" stroke="#263238" stroke-miterlimit="10"/>
<path d="M144.857 79.353H147.959" stroke="#263238" stroke-miterlimit="10"/>
<path d="M144.857 79.353H137.295V83.8211H170.058V79.353H162.489" stroke="#263238" stroke-miterlimit="10"/>
<path d="M147.959 79.353H159.388" stroke="#263238" stroke-miterlimit="10"/>
<path d="M157.362 48.44C157.458 47.9682 157.458 47.4821 157.362 47.0103" stroke="#263238" stroke-miterlimit="10"/>
<path d="M153.406 51.4365H153.676H153.947" stroke="#263238" stroke-miterlimit="10"/>
<path d="M151.638 44.5974C151.216 44.865 150.852 45.2138 150.568 45.6231C150.284 46.0324 150.086 46.4939 149.985 46.9804" stroke="#263238" stroke-miterlimit="10"/>
<path d="M151.639 44.5973C152.244 44.2044 152.953 43.9951 153.677 43.9951C154.4 43.9951 155.109 44.2044 155.714 44.5973" stroke="#263238" stroke-miterlimit="10"/>
<path d="M157.362 47.0102C157.262 46.5239 157.065 46.0624 156.782 45.6531C156.499 45.2437 156.136 44.8949 155.714 44.6272" stroke="#263238" stroke-miterlimit="10"/>
<path d="M150.605 49.8759C150.304 49.4446 150.1 48.9554 150.003 48.4402" stroke="#263238" stroke-miterlimit="10"/>
<path d="M153.947 51.4366C154.5 51.3971 155.038 51.2366 155.521 50.9667C156.005 50.6969 156.422 50.3243 156.742 49.8757" stroke="#263238" stroke-miterlimit="10"/>
<path d="M149.985 48.44C149.889 47.9682 149.889 47.4821 149.985 47.0103" stroke="#263238" stroke-miterlimit="10"/>
<path d="M156.742 49.8759C157.043 49.4446 157.247 48.9554 157.344 48.4402" stroke="#263238" stroke-miterlimit="10"/>
<path d="M153.406 51.4366C152.852 51.3971 152.313 51.2367 151.829 50.9669C151.345 50.697 150.927 50.3244 150.604 49.8757" stroke="#263238" stroke-miterlimit="10"/>
<path d="M154.218 36.936C153.862 37.0391 153.485 37.0391 153.13 36.936" stroke="#263238" stroke-miterlimit="10"/>
<path d="M154.218 36.9361C154.727 36.8049 155.171 36.4942 155.466 36.062C155.761 35.6299 155.887 35.106 155.82 34.5885C155.754 34.071 155.499 33.5953 155.104 33.2505C154.708 32.9058 154.2 32.7156 153.673 32.7156C153.147 32.7156 152.639 32.9058 152.243 33.2505C151.848 33.5953 151.593 34.071 151.527 34.5885C151.46 35.106 151.586 35.6299 151.881 36.062C152.176 36.4942 152.62 36.8049 153.129 36.9361" stroke="#263238" stroke-miterlimit="10"/>
<path d="M138.864 62.1959L133.994 48.4402" stroke="#263238" stroke-miterlimit="10"/>
<path d="M133.994 48.4402L129.125 62.1959" stroke="#263238" stroke-miterlimit="10"/>
<path d="M127.977 62.3745C128.247 63.7351 128.986 64.9603 130.068 65.841C131.149 66.7216 132.505 67.203 133.904 67.203C135.304 67.203 136.66 66.7216 137.741 65.841C138.822 64.9603 139.561 63.7351 139.832 62.3745H127.977Z" stroke="#263238" stroke-miterlimit="10"/>
<path d="M172.944 48.4402L177.813 62.1959" stroke="#263238" stroke-miterlimit="10"/>
<path d="M172.944 48.4402L168.074 62.1959" stroke="#263238" stroke-miterlimit="10"/>
<path d="M172.854 67.2C174.253 67.2045 175.61 66.7249 176.691 65.8441C177.772 64.9632 178.509 63.7361 178.775 62.3745H166.926C167.198 63.7346 167.937 64.9591 169.018 65.8391C170.099 66.7192 171.455 67.2002 172.854 67.2Z" stroke="#263238" stroke-miterlimit="10"/>
<path d="M52.3676 81.176H50.3357V235.373H52.3676V81.176Z" fill="#263238" stroke="#263238" stroke-linecap="round" stroke-linejoin="round"/>
<path d="M70.1201 235.373L51.2495 85.811L36.9537 235.373H70.1201Z" fill="#FFE835" stroke="#263238" stroke-linecap="round" stroke-linejoin="round"/>
<path d="M69.9579 235.373L64.373 190.001L42.4124 225.078L57.1049 235.373H69.9579Z" fill="#FFE835" stroke="#263238" stroke-linecap="round" stroke-linejoin="round"/>
<path d="M70.4568 208.767L42.4124 225.078L51.2495 85.811L70.4568 208.767Z" fill="#FFE835" stroke="#263238" stroke-linecap="round" stroke-linejoin="round"/>
<path d="M51.2495 85.811L70.4568 208.767L55.5238 198.8L51.2495 85.811Z" fill="#FFE835" stroke="#263238" stroke-linecap="round" stroke-linejoin="round"/>
<path d="M55.5237 198.8L62.5333 187.016L54.3033 172.212L55.5237 198.8Z" fill="#FFE835" stroke="#263238" stroke-linecap="round" stroke-linejoin="round"/>
<path d="M51.2495 85.811L39.3644 173.117L62.5334 187.016L51.2495 85.811Z" fill="#FFE835" stroke="#263238" stroke-linecap="round" stroke-linejoin="round"/>
<path d="M50.3357 81.1762L47.7206 76.6068L51.4899 69.2852L55.2592 76.9107L52.3676 81.1762H50.3357Z" fill="white" stroke="#263238" stroke-linecap="round" stroke-linejoin="round"/>
<path d="M250.356 81.176H248.324V235.373H250.356V81.176Z" fill="#263238" stroke="#263238" stroke-linecap="round" stroke-linejoin="round"/>
<path d="M268.109 235.373L249.238 85.811L234.942 235.373H268.109Z" fill="#FFE835" stroke="#263238" stroke-linecap="round" stroke-linejoin="round"/>
<path d="M267.946 235.373L262.362 190.001L240.401 225.078L255.093 235.373H267.946Z" fill="#FFE835" stroke="#263238" stroke-linecap="round" stroke-linejoin="round"/>
<path d="M268.445 208.767L240.401 225.078L249.238 85.811L268.445 208.767Z" fill="#FFE835" stroke="#263238" stroke-linecap="round" stroke-linejoin="round"/>
<path d="M249.238 85.811L268.445 208.767L253.506 198.8L249.238 85.811Z" fill="#FFE835" stroke="#263238" stroke-linecap="round" stroke-linejoin="round"/>
<path d="M253.506 198.8L260.522 187.016L252.292 172.212L253.506 198.8Z" fill="#FFE835" stroke="#263238" stroke-linecap="round" stroke-linejoin="round"/>
<path d="M249.238 85.811L237.353 173.117L260.522 187.016L249.238 85.811Z" fill="#FFE835" stroke="#263238" stroke-linecap="round" stroke-linejoin="round"/>
<path d="M248.324 81.1762L245.709 76.6068L249.479 69.2852L253.248 76.9107L250.356 81.1762H248.324Z" fill="white" stroke="#263238" stroke-linecap="round" stroke-linejoin="round"/>
<path d="M118.298 120.656C118.298 120.656 109.28 116.259 104.687 124.04C100.094 131.82 103.166 194.773 103.166 194.773H115.665L118.298 120.656Z" fill="#8F8F8F" stroke="#263238" stroke-linecap="round" stroke-linejoin="round"/>
<path d="M191.49 120.656C191.49 120.656 200.507 116.259 205.1 124.04C209.693 131.82 206.621 194.773 206.621 194.773H194.123L191.49 120.656Z" fill="#8F8F8F" stroke="#263238" stroke-linecap="round" stroke-linejoin="round"/>
<path d="M118.298 120.656H192.909C195.229 120.656 197.117 122.693 197.231 125.267L199.804 195.446H111.396L113.969 125.267C114.066 122.723 115.971 120.656 118.298 120.656Z" fill="#8F8F8F" stroke="#263238" stroke-linecap="round" stroke-linejoin="round"/>
<path d="M145.05 149.073C145.05 149.073 123.558 161.447 117.462 164.783C111.366 168.119 107.092 169.787 107.092 172.17V233.794H204.036C204.036 233.794 202.058 172.938 201.445 171.282C200.832 169.626 168.068 149.073 166.084 148.471C164.101 147.87 145.05 149.073 145.05 149.073Z" fill="#263238" stroke="#263238" stroke-linecap="round" stroke-linejoin="round"/>
<path d="M199.768 171.735C199.768 171.735 201.445 170.222 202.972 172.641C204.499 175.059 218.825 204.662 219.132 207.533C219.438 210.405 217.929 210.405 218.53 212.216C219.132 214.027 224.783 224.131 223.869 227.02C222.955 229.909 219.258 233.633 217.737 233.782C216.216 233.931 185.274 233.782 185.274 233.782C182.97 233.244 180.9 231.992 179.364 230.207C177.074 227.336 170.978 219.335 170.978 217.971C170.978 216.606 177.687 211.781 179.058 210.268C180.428 208.755 184.697 208.909 185.31 208.481C185.923 208.052 193.522 190.638 195.379 186.081C196.535 183.166 197.503 180.181 198.277 177.144" fill="#263238"/>
<path d="M199.768 171.735C199.768 171.735 201.445 170.222 202.972 172.641C204.499 175.059 218.825 204.662 219.132 207.533C219.438 210.405 217.929 210.405 218.53 212.216C219.132 214.027 224.783 224.131 223.869 227.02C222.955 229.909 219.258 233.633 217.737 233.782C216.216 233.931 185.274 233.782 185.274 233.782C182.97 233.244 180.9 231.992 179.364 230.207C177.074 227.336 170.978 219.335 170.978 217.971C170.978 216.606 177.687 211.781 179.058 210.268C180.428 208.755 184.697 208.909 185.31 208.481C185.923 208.052 193.522 190.638 195.379 186.081C196.535 183.166 197.503 180.181 198.277 177.144" stroke="#263238" stroke-linecap="round" stroke-linejoin="round"/>
<path d="M179.346 230.189C179.346 230.189 168.7 219.043 170.93 216.178C173.16 213.312 183.452 208.862 183.452 208.862L195.975 180.862" stroke="#808080" stroke-linecap="round" stroke-linejoin="round"/>
<path d="M185.292 208.439C185.292 208.439 189.254 210.101 191.237 211.763C193.221 213.425 206.784 218.108 214.863 218.257" stroke="#808080" stroke-linecap="round" stroke-linejoin="round"/>
<path d="M191.388 207.986C191.388 207.986 203.579 210.554 214.557 204.811" stroke="#808080" stroke-linecap="round" stroke-linejoin="round"/>
<path d="M199.768 177.776C199.768 177.776 198.247 190.763 197.027 195.148" stroke="#808080" stroke-linecap="round" stroke-linejoin="round"/>
<path d="M203.122 179.283C203.429 179.736 206.784 192.878 206.784 198.013" stroke="#808080" stroke-linecap="round" stroke-linejoin="round"/>
<path d="M111.973 167.803C111.973 167.803 105.571 169.62 104.2 171.58C102.83 173.54 89.8685 190.162 88.8044 192.729C87.7404 195.297 91.696 204.048 91.696 205.567C91.696 207.087 78.7529 224.75 80.1115 228.527C81.4702 232.304 86.2134 233.663 86.2134 233.663H131.054C131.054 233.663 134.559 226.567 138.22 224C141.882 221.432 143.709 222.034 144.623 220.676C145.537 219.317 144.316 216.899 141.268 215.385C138.22 213.872 129.684 210.703 129.684 210.703C129.684 210.703 131.818 209.344 130.285 208.29C128.752 207.236 122.818 204.358 122.211 203.453C121.604 202.547 115.809 187.445 113.975 180.189" fill="#263238"/>
<path d="M111.973 167.803C111.973 167.803 105.571 169.62 104.2 171.58C102.83 173.54 89.8685 190.162 88.8044 192.729C87.7404 195.297 91.696 204.048 91.696 205.567C91.696 207.087 78.7529 224.75 80.1115 228.527C81.4702 232.304 86.2134 233.663 86.2134 233.663H131.054C131.054 233.663 134.559 226.567 138.22 224C141.882 221.432 143.709 222.034 144.623 220.676C145.537 219.317 144.316 216.899 141.268 215.385C138.22 213.872 129.684 210.703 129.684 210.703C129.684 210.703 131.818 209.344 130.285 208.29C128.752 207.236 122.818 204.358 122.211 203.453C121.604 202.547 115.809 187.445 113.975 180.189" stroke="#263238" stroke-linecap="round" stroke-linejoin="round"/>
<path d="M143.336 220.95C143.336 220.95 147.364 218.245 144.304 216.815C141.244 215.386 130.82 211.406 130.82 211.406C130.82 211.406 133.062 208.54 131.457 207.909C129.852 207.277 122.187 203.453 122.187 203.453L112.839 177.043" stroke="#808080" stroke-linecap="round" stroke-linejoin="round"/>
<path d="M92.7661 196.202C92.7661 196.202 114.258 201.945 110.903 202.398C107.549 202.851 97.341 202.398 96.1206 202.696" stroke="#808080" stroke-linecap="round" stroke-linejoin="round"/>
<path d="M127.977 208.439C127.977 208.439 105.132 212.52 106.936 212.973C108.739 213.425 127.207 211.156 127.207 211.156" stroke="#808080" stroke-linecap="round" stroke-linejoin="round"/>
<path d="M108.769 175.81C108.769 175.81 106.791 191.824 106.791 195.75" stroke="#808080" stroke-linecap="round" stroke-linejoin="round"/>
<path d="M106.485 175.357C106.485 175.357 102.066 185.175 101.609 189.256" stroke="#808080" stroke-linecap="round" stroke-linejoin="round"/>
<path d="M118.833 175.661H148.554" stroke="#808080" stroke-linecap="round" stroke-linejoin="round"/>
<path d="M168.982 175.81H193.672" stroke="#808080" stroke-linecap="round" stroke-linejoin="round"/>
<path d="M154.807 184.573L151.296 211.763" stroke="#808080" stroke-linecap="round" stroke-linejoin="round"/>
<path d="M156.328 188.803V211.763" stroke="#808080" stroke-linecap="round" stroke-linejoin="round"/>
<path d="M159.225 184.573L162.123 213.425" stroke="#808080" stroke-linecap="round" stroke-linejoin="round"/>
<path d="M143.763 144.611C143.763 144.611 143.162 157.39 144.551 163.466C145.939 169.543 155.101 185.277 157.602 183.257C160.103 181.237 168.766 164.247 169.078 159.886C169.391 155.525 169.241 144.611 169.241 144.611C169.241 144.611 160.59 149.907 154.771 148.507C150.986 147.554 147.301 146.249 143.763 144.611Z" fill="white" stroke="#263238" stroke-linecap="round" stroke-linejoin="round"/>
<path d="M143.637 149.169C146.541 151.736 150.424 154.197 151.855 154.483C154.019 154.911 159.43 154.858 161.161 154.006C163.985 152.579 166.697 150.946 169.277 149.121C169.277 146.553 169.241 144.611 169.241 144.611C169.241 144.611 160.59 149.907 154.771 148.507C150.986 147.554 147.301 146.249 143.763 144.611C143.763 144.611 143.679 146.5 143.637 149.169Z" fill="#263238" stroke="#263238" stroke-linecap="round" stroke-linejoin="round"/>
<path d="M169.277 151.432C167.576 155.185 162.375 165.378 156.34 164.872C151.019 164.419 146.12 157.664 143.649 153.744C143.721 157.205 143.956 160.922 144.551 163.466C145.964 169.543 155.083 185.282 157.602 183.257C160.121 181.231 168.766 164.247 169.078 159.886C169.223 157.872 169.271 154.5 169.277 151.432Z" fill="white" stroke="#263238" stroke-linecap="round" stroke-linejoin="round"/>
<path d="M156.815 165.253C156.454 165.295 156.706 164.902 156.34 164.872C155.973 164.842 156.243 165.242 155.925 165.176L152.095 169.543L155.24 173.439L152.57 177.496C152.57 177.496 152.258 177.895 151.933 178.348C154.284 181.779 156.532 184.121 157.602 183.257C158.534 182.506 160.307 179.682 162.189 176.245L158.859 173.6L161.059 170.025L156.815 165.253Z" fill="#FFE835" stroke="#263238" stroke-linecap="round" stroke-linejoin="round"/>
<path d="M149.108 172.82L156.34 164.872L164.047 172.82" stroke="#263238" stroke-linecap="round" stroke-linejoin="round"/>
<path d="M140.385 130.665C140.385 130.665 138.852 127.763 137.451 127.888C136.05 128.014 134.391 130.271 136.303 134.078C138.214 137.885 140.126 137.742 140.252 136.229C140.379 134.716 140.385 130.665 140.385 130.665Z" fill="white" stroke="#263238" stroke-linecap="round" stroke-linejoin="round"/>
<path d="M136.826 132.976C136.826 132.976 136.026 129.67 137.631 129.997C139.236 130.325 140.505 132.845 140.505 132.845C140.505 132.845 137.114 129.699 136.826 132.976Z" fill="#263238"/>
<path d="M171.393 130.665C171.393 130.665 172.92 127.763 174.327 127.888C175.733 128.014 177.381 130.271 175.469 134.078C173.557 137.885 171.645 137.742 171.519 136.229C171.393 134.716 171.393 130.665 171.393 130.665Z" fill="white" stroke="#263238" stroke-linecap="round" stroke-linejoin="round"/>
<path d="M171.663 132.976C171.663 132.976 174.669 128.532 175.114 130.355C175.268 130.821 175.327 131.312 175.288 131.801C175.249 132.29 175.112 132.766 174.886 133.202C174.886 133.202 174.705 129.503 171.663 132.976Z" fill="#263238"/>
<path d="M141.491 112.917C141.491 112.917 138.9 139.255 140.415 142.472C141.93 145.689 149.697 151.087 151.837 151.516C153.977 151.944 159.412 151.891 161.143 151.039C162.874 150.187 171.297 145.677 172.162 143.116C173.028 140.554 170.437 115.914 169.355 112.733C168.273 109.551 161.143 107.371 154.656 107.371C148.17 107.371 142.14 110.987 141.491 112.917Z" fill="white" stroke="#263238" stroke-linecap="round" stroke-linejoin="round"/>
<path d="M144.202 114.383C144.202 114.383 149.378 120.466 155.54 121.8C161.702 123.135 168.165 120.775 168.165 120.775L144.202 114.383Z" fill="#263238" stroke="#263238" stroke-linecap="round" stroke-linejoin="round"/>
<path d="M158.486 124.981C158.486 124.981 157.464 127.888 157.464 128.264C157.464 128.639 157.975 134.078 157.975 134.078" stroke="#263238" stroke-linecap="round" stroke-linejoin="round"/>
<path d="M147.647 137.11C147.779 136.354 152.877 134.328 152.877 134.328C152.877 134.328 151.218 135.466 152.24 135.848C153.262 136.229 155.937 138.123 156.827 137.742C157.716 137.361 161.293 135.597 161.42 135.091C161.546 134.585 160.909 133.572 160.909 133.572C160.909 133.572 164.864 136.354 165.243 137.361" stroke="#263238" stroke-linecap="round" stroke-linejoin="round"/>
<path d="M152.366 122.962C152.366 122.962 148.927 121.067 147.142 122.33C145.356 123.593 145.735 124.35 146.246 124.35C146.757 124.35 147.647 123.212 148.795 123.212C149.943 123.212 151.987 124.35 152.366 122.962Z" fill="#DBDBDB" stroke="#263238" stroke-linecap="round" stroke-linejoin="round"/>
<path d="M158.955 122.962C158.955 122.962 162.393 121.067 164.179 122.33C165.964 123.593 165.586 124.35 165.075 124.35C164.564 124.35 163.668 123.212 162.526 123.212C161.383 123.212 159.309 124.35 158.955 122.962Z" fill="#DBDBDB" stroke="#263238" stroke-linecap="round" stroke-linejoin="round"/>
<path d="M149.372 130.158C149.9 130.158 150.328 129.537 150.328 128.77C150.328 128.004 149.9 127.382 149.372 127.382C148.844 127.382 148.416 128.004 148.416 128.77C148.416 129.537 148.844 130.158 149.372 130.158Z" fill="#263238"/>
<path d="M161.738 130.158C162.266 130.158 162.694 129.537 162.694 128.77C162.694 128.004 162.266 127.382 161.738 127.382C161.21 127.382 160.782 128.004 160.782 128.77C160.782 129.537 161.21 130.158 161.738 130.158Z" fill="#263238"/>
<path d="M148.543 138.123C148.543 138.123 150.07 139.91 150.947 140.268C151.825 140.625 159.364 140.899 161.654 140.393C162.3 140.26 162.89 139.935 163.345 139.461C163.801 138.988 164.1 138.388 164.203 137.742" stroke="#263238" stroke-linecap="round" stroke-linejoin="round"/>
<path d="M151.494 130.033C151.494 130.033 151.362 132.309 147.027 133.322" stroke="#263238" stroke-linecap="round" stroke-linejoin="round"/>
<path d="M160.145 130.289C160.145 130.289 161.612 132.357 165.309 132.613" stroke="#263238" stroke-linecap="round" stroke-linejoin="round"/>
<path d="M167.425 121.055C167.425 121.055 166.776 123.438 167.858 124.695C168.94 125.952 169.806 126.834 169.806 126.834C169.806 126.834 169.589 130.903 170.882 130.903C172.174 130.903 171.747 128.978 171.747 128.978L171.098 119.149L167.425 121.055Z" fill="#DBDBDB" stroke="#263238" stroke-linecap="round" stroke-linejoin="round"/>
<path d="M143.439 113.99C143.439 113.99 151.001 119.983 158.564 121.055C166.127 122.128 171.964 121.699 172.83 119.339C173.695 116.98 174.808 110.922 167.028 107.925C159.249 104.928 149.817 104.511 144.521 108.205C143.708 108.731 143.02 109.424 142.501 110.237C141.982 111.05 141.646 111.964 141.515 112.917C141.515 112.917 139.573 113.561 139.573 115.3V130.051H141.088C141.088 130.051 140.655 124.91 142.597 123.837C144.539 122.765 146.054 120.412 146.054 118.696C146.054 116.98 143.439 113.99 143.439 113.99Z" fill="#DBDBDB" stroke="#263238" stroke-linecap="round" stroke-linejoin="round"/>
<path d="M144.575 223.928C144.575 223.928 157.674 228.307 159.802 229.058C161.93 229.808 166.962 232.68 166.962 233.585C166.962 234.491 166.812 234.646 165.898 234.646H153.562C152.799 234.646 139.735 234.801 139.104 234.419C138.268 234.088 137.394 233.86 136.501 233.74C136.501 233.74 138.936 224.381 144.575 223.928Z" fill="white" stroke="#263238" stroke-linecap="round" stroke-linejoin="round"/>
<path d="M148.536 232.078C148.536 232.078 154.476 233.27 156.76 234.646L148.536 232.078Z" fill="white"/>
<path d="M148.536 232.078C148.536 232.078 154.476 233.27 156.76 234.646" stroke="#263238" stroke-linecap="round" stroke-linejoin="round"/>
<path d="M151.578 229.665C151.578 229.665 158.588 232.382 160.416 234.646L151.578 229.665Z" fill="white"/>
<path d="M151.578 229.665C151.578 229.665 158.588 232.382 160.416 234.646" stroke="#263238" stroke-linecap="round" stroke-linejoin="round"/>
<path d="M155.54 228.909C155.54 228.909 162.393 231.929 164.371 234.342L155.54 228.909Z" fill="white"/>
<path d="M155.54 228.909C155.54 228.909 162.393 231.929 164.371 234.342" stroke="#263238" stroke-linecap="round" stroke-linejoin="round"/>
<path d="M141.238 220.824L146.571 223.845C146.571 223.845 141.238 226.567 139.711 229.284C138.184 232.001 137.12 234.116 137.12 234.116H131.055C131.055 234.116 131.481 225.787 141.238 220.824Z" fill="white" stroke="#263238" stroke-linecap="round" stroke-linejoin="round"/>
<path d="M169.481 224.876C169.481 224.876 168.946 223.637 169.595 222.916C170.245 222.195 175.805 221.128 178.162 222.648C180.519 224.167 182.767 230.166 182.665 231.977C182.563 233.788 175.944 234.622 173.858 233.764C171.772 232.906 169.481 224.876 169.481 224.876Z" fill="white" stroke="#263238" stroke-linecap="round" stroke-linejoin="round"/>
<path d="M170.924 223.75L167.69 224.173C167.69 224.173 149.306 222.677 148.194 223.368C147.082 224.059 138.533 234.777 138.533 234.777L149.029 235.373C149.029 235.373 157.794 231.631 158.558 231.673C159.321 231.715 162.886 233.431 165.604 233.889C168.321 234.348 174.976 232.936 174.976 232.936C174.976 232.936 175.691 231.149 174.375 227.753C173.058 224.357 170.924 223.75 170.924 223.75Z" fill="white" stroke="#263238" stroke-linecap="round" stroke-linejoin="round"/>
<path d="M146.444 235.223C146.444 235.223 154.157 228.551 155.257 228.009L146.444 235.223Z" fill="white"/>
<path d="M146.444 235.223C146.444 235.223 154.157 228.551 155.257 228.009" stroke="#263238" stroke-linecap="round" stroke-linejoin="round"/>
<path d="M151.53 226.437L143.571 234.759" stroke="#263238" stroke-linecap="round" stroke-linejoin="round"/>
<path d="M148.548 225.209L140.661 234.896" stroke="#263238" stroke-linecap="round" stroke-linejoin="round"/>
<path d="M64.4751 221.968L89.0509 231.798C89.3608 231.922 89.6128 232.157 89.7573 232.455C89.9019 232.754 89.9287 233.095 89.8324 233.413C89.7766 233.595 89.6818 233.763 89.5544 233.906C89.4271 234.048 89.2701 234.162 89.0943 234.239C88.9184 234.316 88.7279 234.354 88.5358 234.351C88.3436 234.349 88.1543 234.305 87.9808 234.223L64.2467 223.112L64.4751 221.968Z" fill="white" stroke="#263238" stroke-linecap="round" stroke-linejoin="round"/>
<path d="M54.4477 214.468H57.9104V230.136H54.4477C52.7103 230.136 51.3036 226.627 51.3036 222.302C51.3036 217.977 52.7103 214.468 54.4477 214.468Z" fill="white" stroke="#263238" stroke-linecap="round" stroke-linejoin="round"/>
<path d="M57.9104 230.136C59.6436 230.136 61.0485 226.628 61.0485 222.302C61.0485 217.975 59.6436 214.468 57.9104 214.468C56.1773 214.468 54.7723 217.975 54.7723 222.302C54.7723 226.628 56.1773 230.136 57.9104 230.136Z" fill="white" stroke="#263238" stroke-linecap="round" stroke-linejoin="round"/>
<path d="M58.3133 215.064H72.6391V229.516H58.3133C56.7142 229.516 55.4156 226.282 55.4156 222.29C55.4156 218.299 56.7262 215.064 58.3133 215.064Z" fill="white" stroke="#263238" stroke-linecap="round" stroke-linejoin="round"/>
<path d="M69.7354 222.302C69.7354 226.293 71.0339 229.528 72.633 229.528C74.2321 229.528 75.5306 226.293 75.5306 222.302C75.5306 218.311 74.2501 215.064 72.651 215.064C71.0519 215.064 69.7354 218.311 69.7354 222.302Z" fill="white" stroke="#263238" stroke-linecap="round" stroke-linejoin="round"/>
<path d="M73.4686 214.468H76.9494V230.136H73.4806C71.7493 230.136 70.3425 226.627 70.3425 222.302C70.3425 217.977 71.7372 214.468 73.4686 214.468Z" fill="white" stroke="#263238" stroke-linecap="round" stroke-linejoin="round"/>
<path d="M76.9374 230.136C78.6705 230.136 80.0755 226.628 80.0755 222.302C80.0755 217.975 78.6705 214.468 76.9374 214.468C75.2043 214.468 73.7993 217.975 73.7993 222.302C73.7993 226.628 75.2043 230.136 76.9374 230.136Z" fill="white" stroke="#263238" stroke-linecap="round" stroke-linejoin="round"/>
<path d="M81.891 232.114H49.6083V231.828C49.6083 231.327 49.8091 230.847 50.1665 230.492C50.5238 230.138 51.0086 229.939 51.514 229.939H79.9853C80.4907 229.939 80.9754 230.138 81.3328 230.492C81.6902 230.847 81.891 231.327 81.891 231.828V232.114Z" fill="white" stroke="#263238" stroke-linecap="round" stroke-linejoin="round"/>
<path d="M87.1934 234.288H44.787V233.99C44.787 233.464 44.9979 232.96 45.3733 232.588C45.7488 232.216 46.2579 232.007 46.7889 232.007H85.1915C85.7224 232.007 86.2316 232.216 86.607 232.588C86.9824 232.96 87.1934 233.464 87.1934 233.99V234.288Z" fill="white" stroke="#263238" stroke-linecap="round" stroke-linejoin="round"/>
<path d="M278.755 238.036H20.5299V278.129H278.755V238.036Z" fill="white"/>
<path opacity="0.3" d="M270.069 239.722H32.7937V243.38H270.069V239.722Z" fill="black"/>
<path d="M284.466 234.014H17.007V240.859H284.466V234.014Z" fill="#263238" stroke="#263238" stroke-linecap="round" stroke-linejoin="round"/>
<path d="M95.4294 240.907H32.6915V247.609H95.4294V240.907Z" stroke="#263238" stroke-linecap="round" stroke-linejoin="round"/>
<path d="M84.5422 254.311H43.5847L38.4688 247.609H89.6582L84.5422 254.311Z" stroke="#263238" stroke-linecap="round" stroke-linejoin="round"/>
<path d="M43.5846 254.311V279.851" stroke="#263238" stroke-linecap="round" stroke-linejoin="round"/>
<path d="M84.434 279.851V254.311" stroke="#263238" stroke-linecap="round" stroke-linejoin="round"/>
<path d="M48.0754 280V258.464H62.251V279.851" stroke="#263238" stroke-linecap="round" stroke-linejoin="round"/>
<path d="M65.4551 280V258.464H79.6306V279.851" stroke="#263238" stroke-linecap="round" stroke-linejoin="round"/>
<path d="M270.111 240.907H207.373V247.609H270.111V240.907Z" stroke="#263238" stroke-linecap="round" stroke-linejoin="round"/>
<path d="M259.224 254.311H218.266L213.15 247.609H264.339L259.224 254.311Z" stroke="#263238" stroke-linecap="round" stroke-linejoin="round"/>
<path d="M218.266 279.851V254.311" stroke="#263238" stroke-linecap="round" stroke-linejoin="round"/>
<path d="M259.121 254.311V279.851" stroke="#263238" stroke-linecap="round" stroke-linejoin="round"/>
<path d="M222.763 280V258.464H236.938V279.851" stroke="#263238" stroke-linecap="round" stroke-linejoin="round"/>
<path d="M240.136 280V258.464H254.312V279.851" stroke="#263238" stroke-linecap="round" stroke-linejoin="round"/>
<path d="M84.7405 262.777H217.965" stroke="#263238" stroke-linecap="round" stroke-linejoin="round"/>
<path d="M178.432 244.797H125.59V258.809H178.432V244.797Z" fill="white"/>
<path d="M138.467 255.402C138.629 255.402 138.822 255.402 138.99 255.402C139.471 255.402 139.856 255.229 139.856 254.49V247.234H141.371V254.383C141.371 256.295 140.337 256.766 139.194 256.766C138.951 256.771 138.708 256.761 138.467 256.736V255.402Z" fill="#263238"/>
<path d="M143.847 247.234V254.609C143.847 255.288 144.154 255.533 144.635 255.533C145.116 255.533 145.422 255.288 145.422 254.609V247.234H146.853V254.514C146.853 256.039 146.084 256.897 144.593 256.897C143.102 256.897 142.332 256.021 142.332 254.514V247.234H143.847Z" fill="#263238"/>
<path d="M147.887 247.234H150.292C151.807 247.234 152.546 248.068 152.546 249.617V254.383C152.546 255.908 151.807 256.766 150.292 256.766H147.887V247.234ZM149.402 248.598V255.425H150.256C150.737 255.425 151.025 255.181 151.025 254.496V249.528C151.025 248.842 150.737 248.598 150.256 248.598H149.402Z" fill="#263238"/>
<path d="M155.781 251.44H157.903V254.472C157.903 256.003 157.127 256.855 155.642 256.855C154.157 256.855 153.382 255.98 153.382 254.472V249.504C153.382 247.973 154.151 247.121 155.642 247.121C157.133 247.121 157.903 247.991 157.903 249.504V250.433H156.466V249.409C156.466 248.723 156.165 248.467 155.684 248.467C155.203 248.467 154.897 248.723 154.897 249.409V254.568C154.897 255.253 155.203 255.497 155.684 255.497C156.165 255.497 156.466 255.253 156.466 254.568V252.81H155.781V251.44Z" fill="#263238"/>
<path d="M160.392 251.237H162.472V252.596H160.392V255.396H163.013V256.766H158.877V247.234H163.013V248.598H160.392V251.237Z" fill="#263238"/>
<path d="M177.519 245.703V257.91H126.504V245.703H177.519ZM179.322 243.916H124.676V259.745H179.346V243.892L179.322 243.916Z" fill="#263238"/>
</svg>
