<svg xmlns="http://www.w3.org/2000/svg" width="134" height="25" viewBox="0 0 134 25" fill="none">
<path d="M125.593 11.5391C125.56 11.8367 126.129 11.9992 126.847 12.1537C125.661 12.5521 124.939 12.5436 124.249 12.1402C124.085 12.0436 123.968 11.9343 123.937 11.8291C123.865 11.5701 123.855 11.3095 123.816 11.0095C124.798 11.1177 125.623 11.2804 125.593 11.5391ZM114.392 15.2176C112.364 15.2478 110.342 15.3097 108.317 15.3573C108.115 15.3621 107.884 15.3478 107.714 15.3697C105.416 15.6578 102.902 15.5343 100.51 15.6467C96.7127 15.8258 92.9128 16.0086 89.094 16.1512C86.754 16.2388 84.3784 16.2554 82.0162 16.2996C81.7536 16.3044 81.4393 16.2978 81.2237 16.2628C79.697 16.0126 78.0829 15.8681 76.1901 15.9795C76.7962 15.7163 77.5153 15.5962 78.5168 15.5541C80.6556 15.465 82.8068 15.3755 84.9004 15.2298C87.3194 15.061 89.7988 14.9613 92.1988 14.8047C96.3577 14.5338 100.61 14.4973 104.77 14.2735C105.56 14.2314 106.388 14.2404 107.199 14.2301C109.227 14.2041 111.266 14.2092 113.28 14.1491C115.15 14.0928 116.845 14.2512 118.798 14.302C117.819 14.8668 116.548 15.1859 114.392 15.2176ZM72.7397 9.70079C70.8409 10.1278 60.7418 10.1172 57.5521 9.71269C62.6143 9.76402 67.6775 9.66481 72.7397 9.70079ZM74.8544 9.50079C78.0446 9.34418 81.2381 9.19657 84.4361 9.05477C84.6346 9.04631 84.8736 9.10689 85.1556 9.14339C84.2298 9.31614 77.0786 9.80555 75.3917 9.8119C74.9841 9.81349 74.5752 9.76031 73.8547 9.71137C74.3703 9.59947 74.5863 9.51349 74.8544 9.50079ZM34.2276 14.6266C33.2847 14.624 32.4493 14.6369 31.6249 14.6168C30.1522 14.5806 28.6877 14.502 27.2117 14.4806C24.7858 14.4446 21.735 13.9309 20.8917 13.3512C21.4027 13.3587 21.8582 13.3481 22.2824 13.3743C25.4458 13.5669 28.6166 13.7526 31.7532 13.9708C33.3312 14.0806 33.5653 14.1735 34.2276 14.6266ZM11.2367 11.5761C11.8857 11.6066 12.5332 11.637 13.5191 11.683C12.1981 11.8608 12.1981 11.8608 11.2367 11.5761ZM13.009 10.695C13.0866 10.6635 13.1655 10.6325 13.2435 10.6016C13.6931 10.6796 14.1435 10.7576 14.5954 10.8357C14.4726 10.8767 14.3526 10.9172 14.2317 10.9584L13.009 10.695ZM14.4961 13.3441C14.7491 13.4266 14.7495 13.565 14.8677 13.6774C14.4371 13.7079 14.0087 13.7634 13.5818 13.7616C13.1983 13.7597 12.788 13.7086 12.4409 13.6549C11.3844 13.4928 10.3326 13.3264 9.32225 13.1452C9.03148 13.0931 8.88701 12.983 8.45085 12.81C11.0849 12.7491 13.0344 12.8682 14.4961 13.3441ZM125.452 8.65875C124.083 8.94499 123.006 9.16959 121.97 9.38625C121.934 9.53625 121.903 9.66693 121.852 9.87275C120.508 9.54762 118.54 9.58624 117.796 9.03202C118.55 9.00848 119.058 8.9971 119.561 8.97594C120.09 8.95345 120.66 8.9471 121.129 8.88758C121.9 8.78996 122.338 8.4106 121.864 8.27674C121.259 8.10638 120.625 8.20558 120.033 8.30479C119.804 8.34367 119.599 8.395 119.356 8.42542C118.319 8.55716 117.826 8.51378 117.165 8.23971C116.569 7.99077 116.041 7.75003 116.659 7.42967C116.834 7.33893 116.517 7.06857 116.394 7.06698C115.777 7.05957 115.048 7.07228 114.56 7.15984C114.202 7.2236 113.985 7.41751 114.017 7.54793C114.105 7.92226 113.339 8.07621 112.167 8.15399C111.708 8.18441 111.246 8.21378 110.78 8.23653C107.119 8.41775 103.463 8.60452 99.793 8.77092C98.7859 8.81642 97.7248 8.91668 96.4344 8.75425C96.8645 8.67065 97.0884 8.59738 97.3607 8.57965C99.1958 8.45955 101.042 8.34923 102.887 8.23944C103.746 8.18812 104.63 8.08654 105.466 8.10903C107.473 8.1622 108.989 7.89236 110.553 7.64025C110.836 7.59474 111.003 7.49686 111.223 7.42306C111.159 7.38867 111.094 7.35375 111.028 7.3191C110.336 7.35005 109.639 7.37438 108.951 7.41354C107.96 7.47015 106.986 7.55454 105.987 7.59766C100.176 7.84686 94.3584 8.09077 88.5406 8.32781C87.6771 8.36299 86.7895 8.35638 85.913 8.36405C85.4441 8.36802 84.9618 8.3405 84.5085 8.36272C81.7873 8.49896 79.0734 8.64499 76.3554 8.78811C76.0249 8.8061 75.6986 8.83123 75.3663 8.84816C73.6457 8.93414 71.9347 9.05874 70.2016 9.09499C66.8407 9.1643 63.4677 9.18546 60.098 9.22276C55.4706 9.27381 50.9207 9.08466 46.3786 8.88467C45.9291 8.86483 45.4551 8.81642 45.0858 8.74711C43.3121 8.41404 41.6072 8.05479 39.8044 7.73443C38.8361 7.56247 37.8936 7.3355 36.5565 7.3474C36.155 7.62147 36.7896 7.75136 37.4192 7.84819C38.1756 7.96538 39.0433 8.03072 39.8072 8.14527C40.1482 8.19606 40.3555 8.3114 40.6236 8.39738C40.2346 8.44896 39.8607 8.51377 39.4518 8.54631C39.2136 8.56536 38.9099 8.5405 38.6519 8.52172C36.047 8.33416 33.3959 8.17833 30.8588 7.93733C30.8251 7.93416 30.7946 7.92808 30.7623 7.9249C29.4945 8.05268 28.2146 8.17067 26.9024 8.26881C22.2755 8.61484 17.5649 8.74975 12.8489 8.88732C12.1284 8.92488 11.4121 8.96324 10.694 9.00292C8.0687 9.28837 5.50252 9.60873 3.0208 9.97142C4.41697 10.0016 5.69913 10.151 6.94484 10.3198C7.53054 10.3995 7.78392 10.5624 7.3856 10.7344C7.00068 10.9002 6.46945 10.8479 5.98806 10.7656C4.71651 10.5484 3.45418 10.3267 2.18771 10.1069C2.19602 10.1021 2.20479 10.0973 2.21217 10.0931C1.46678 10.2061 0.726469 10.3222 0 10.4439C0.26631 10.4828 0.519693 10.5299 0.744926 10.6024C1.12985 10.7259 1.59324 10.8606 2.12817 10.9172C4.47004 11.1656 5.96452 11.7174 8.00177 12.0709C8.299 12.1224 8.49424 12.2161 8.95255 12.3558C6.69099 12.3195 4.91174 12.1907 3.31019 11.8957C2.92341 11.8243 2.52326 11.7357 2.0871 11.7132C1.76632 11.6963 1.23232 11.7481 1.06155 11.8177C0.903701 11.8806 0.991385 12.0301 1.17831 12.1023C1.43724 12.2021 1.86601 12.2761 2.26525 12.3417C3.82434 12.5981 5.40744 12.8433 6.96653 13.0997C7.36392 13.165 7.83238 13.2372 8.03546 13.3391C8.22977 13.437 8.24454 13.5915 8.09639 13.6954C7.99577 13.7645 7.45669 13.8311 7.12992 13.8261C5.06774 13.7936 3.00972 13.7409 0.927233 13.6949C1.68555 14.0832 2.94418 14.3086 4.36527 14.4996C5.81497 14.6941 7.05745 14.6756 8.28285 14.3737C8.6807 14.2766 9.34532 14.179 9.82209 14.1986C11.1347 14.2528 12.3592 14.3441 13.5444 14.5753C15.3615 14.9303 17.318 15.2271 19.8177 15.2427C21.9344 15.2562 24.0376 15.4676 26.1395 15.6009C26.4436 15.6203 26.8217 15.6771 26.9597 15.7464C27.6492 16.0938 28.9055 16.1737 30.1429 16.2753C31.9563 16.4242 33.7614 16.5779 35.5605 16.7377C36.4619 16.8176 37.3513 16.9081 38.2255 17.0067C38.7618 17.0676 39.1343 17.1686 38.7738 17.4046C37.7764 17.3604 37.0028 17.4324 36.3281 17.5522C51.463 17.6067 66.5827 17.8154 81.7111 17.9348C82.0642 17.8424 82.4118 17.7485 82.7671 17.657C83.3358 17.5112 84.0368 17.3729 84.7707 17.3107C86.5098 17.1639 88.3643 17.107 90.0692 16.9382C93.7449 16.5731 97.6344 16.5581 101.42 16.3779C102.217 16.3401 103.021 16.3179 103.607 16.5472C104.067 16.7282 104.663 16.638 105.22 16.5517C105.8 16.4626 106.37 16.352 107.001 16.3086C109.836 16.1139 112.653 16.3501 115.482 16.3697C116.07 16.3739 116.618 16.5435 117.231 16.6046C117.651 16.6462 118.176 16.6644 118.606 16.6377C120.322 16.5319 122.026 16.4136 123.714 16.2824C125.707 16.1274 127.577 15.9068 129.808 16.0959C131.76 16.261 132.731 15.9435 132.347 15.3885C132.335 15.3721 132.371 15.3536 132.408 15.3089C132.566 15.2808 132.798 15.2457 133.007 15.2025C134 15.0007 134.257 14.7708 133.738 14.5589C133.24 14.3541 132.373 14.3639 131.25 14.5806C130.434 14.7385 129.646 14.9139 128.757 15.0345C128.362 15.0883 127.547 15.0803 127.272 15.0065C126.201 14.7192 125.375 14.3748 125.65 13.9391C125.842 13.6372 126.198 13.3428 126.492 13.0327C128.699 12.9669 129.875 12.6346 130.382 12.0841C128.443 12.0671 127.762 11.841 128.2 11.3672C128.355 11.1984 128.552 11.0619 127.955 10.9238C127.777 10.883 127.75 10.7688 127.787 10.6926C127.952 10.359 128.164 10.0272 128.396 9.62884C126.209 9.66005 125.57 9.26773 125.452 8.65875Z" fill="url(#paint0_linear_184_545)"/>
<path fill-rule="evenodd" clip-rule="evenodd" d="M5.70961 0.216506C5.51767 0.332789 5.36045 0.65096 5.36045 0.923944C5.36045 1.19672 5.09109 2.25529 4.76187 3.27613C4.43266 4.29697 4.1633 5.44944 4.1633 5.83746C4.1633 6.22528 4.06773 6.64191 3.95101 6.76316C3.75987 6.96174 3.67646 7.63041 3.51585 10.2529C3.48791 10.7089 3.39234 11.1987 3.30355 11.3411C3.21477 11.4837 3.19801 11.6941 3.26624 11.8087C3.39354 12.0228 3.00946 13.4145 2.72593 13.7662C2.63854 13.8744 2.56651 14.2475 2.56591 14.5954C2.56532 14.943 2.47433 15.566 2.3638 15.98C2.18762 16.6387 2.03259 16.7807 1.11777 17.1212C0.17861 17.4707 0.0666765 17.5779 0.0106103 18.1811C-0.0853608 19.2131 0.418438 19.3501 3.64893 19.1704C6.58732 19.0071 6.6368 18.9799 6.07374 17.8486C5.91732 17.5343 5.55818 17.1679 5.27565 17.0342C4.68965 16.7569 4.66271 16.5782 5.03782 15.4585C5.38838 14.4121 5.71201 14.2478 7.58035 14.1667C9.09374 14.1012 9.14262 14.1145 9.54107 14.6955C10.1494 15.5832 10.0542 16.1373 9.12447 17.1217C8.21903 18.0801 8.21005 18.4047 9.07279 18.9919C9.66837 19.3974 12.6435 19.604 12.8516 19.2545C12.9144 19.1486 13.1245 19.0622 13.3185 19.0622C13.5122 19.0622 13.8793 18.8317 14.1339 18.55C14.7211 17.9008 14.4823 17.5428 13.2468 17.2197C12.2139 16.9494 11.7448 16.361 11.7462 15.3368C11.747 14.6169 11.3801 12.3773 10.8284 9.7347C10.6736 8.99368 10.5473 8.194 10.5475 7.9575C10.5479 7.7212 10.3354 6.78845 10.0756 5.88472C9.80983 4.96026 9.64423 3.95414 9.6971 3.58373C9.80843 2.80188 9.47144 1.59843 8.88025 0.667749C8.47641 0.0324432 8.38742 -0.00424497 7.25592 0.000315139C6.5975 0.00300975 5.90156 0.100223 5.70961 0.216506ZM74.8876 0.384815C74.2437 0.675418 73.94 1.18097 74.0747 1.73792C74.1419 2.01692 74.354 2.29239 74.5458 2.35022C74.7377 2.40805 75.2752 2.5575 75.7405 2.68228C76.3616 2.84893 76.6103 3.03134 76.6759 3.36837C76.8178 4.09778 77.0424 7.30955 76.9834 7.76556C76.9083 8.3449 76.9367 15.7623 77.0203 17.4386C77.0965 18.965 77.201 19.1886 77.7292 18.9554C77.9259 18.8684 78.244 18.7793 78.4361 18.7571C78.628 18.7351 78.8457 18.6539 78.9199 18.5767C78.9942 18.4996 79.2607 18.6373 79.5121 18.8829C80.0335 19.3918 81.5866 19.6258 82.3767 19.3147C82.6999 19.1874 83.0337 19.1932 83.3248 19.331C83.8286 19.5694 85.7764 19.0199 86.4322 18.4545C86.8752 18.0724 87.9889 15.9963 88.457 14.6803C88.7192 13.9426 88.7479 13.6195 88.5801 13.2937C88.4358 13.0136 88.4295 12.8254 88.5613 12.7406C88.8828 12.5342 88.791 11.5494 88.3862 10.8596C88.1805 10.5093 87.8658 9.69925 87.6868 9.05959C87.4446 8.194 87.1713 7.73364 86.6192 7.26084C86.2112 6.91137 85.7233 6.62553 85.5354 6.62553C85.3474 6.62553 85.1459 6.54552 85.0878 6.44769C85.0296 6.34985 84.3546 6.11148 83.5876 5.91789C82.5599 5.65837 82.0894 5.62334 81.7993 5.78481C81.5826 5.90524 81.2081 6.0037 80.9669 6.0037C80.7256 6.0037 80.229 6.19584 79.8631 6.43069L79.1979 6.85789L79.0415 6.27523C78.9555 5.95499 78.885 4.55711 78.885 3.16918V0.645571L78.3421 0.532811C77.1833 0.291955 75.2744 0.210287 74.8876 0.384815ZM111.551 0.523069C111.263 0.73242 111.108 1.06013 111.108 1.45831C111.108 2.36266 112.09 2.95589 113.326 2.79815C114.469 2.65202 114.686 2.88334 114.838 4.40849C114.935 5.38477 114.891 5.59806 114.51 5.99354C114.268 6.24476 113.965 6.40913 113.836 6.35876C113.708 6.3086 112.904 6.09718 112.051 5.88928C110.508 5.51286 110.494 5.51328 109.194 5.96411C108.268 6.28518 107.608 6.69248 106.926 7.36385C106.055 8.2197 105.923 8.47776 105.543 10.0516C104.942 12.54 104.984 13.7602 105.721 15.1944C106.05 15.8353 106.32 16.487 106.32 16.6422C106.32 17.2398 107.995 18.6435 109.471 19.2815C110.746 19.8331 111.1 19.9033 111.979 19.7798C112.594 19.6936 113.347 19.3967 113.862 19.0381C114.908 18.3092 115.037 18.3029 115.533 18.9586C115.879 19.4154 116.078 19.4767 117.211 19.4767C117.918 19.4767 118.652 19.3903 118.842 19.2846C119.033 19.1789 119.346 19.0419 119.538 18.9801C119.928 18.8549 119.995 18.2072 119.681 17.5976C119.543 17.3302 119.26 17.1957 118.833 17.1936C117.271 17.1857 117.246 17.053 117.218 8.3621C117.203 3.59472 117.12 0.765584 116.992 0.632512C116.88 0.517058 115.71 0.372586 114.392 0.311646C112.422 0.220859 111.914 0.258583 111.551 0.523069ZM93.9824 5.75621C92.3808 6.31358 92.3022 6.37099 91.8375 7.32323C91.2523 8.52254 91.227 9.40989 91.7521 10.3047C92.1113 10.9166 92.2368 10.9784 93.1211 10.9784C94.5896 10.9784 95.1462 10.439 95.1462 9.01627C95.1462 7.8008 95.17 7.77696 96.6018 7.55372C97.3049 7.44428 97.6515 7.499 98.1375 7.79624C99.2377 8.46906 99.8891 10.0104 99.2864 10.5143C99.1493 10.6289 98.5493 10.8295 97.9531 10.9601C97.3572 11.0907 96.752 11.2986 96.6083 11.4226C96.4649 11.5463 95.6055 11.6698 94.6987 11.6972C92.4912 11.7635 91.6007 12.2239 91.0117 13.6029C90.1535 15.6118 90.3469 17.2133 91.5853 18.3533C92.9439 19.604 96.8035 19.5306 99.2682 18.2072C99.6277 18.0142 99.8123 18.0658 100.384 18.5191C101.213 19.1756 102.057 19.2152 103.127 18.6476C103.732 18.3272 103.963 18.0463 104.147 17.4106C104.57 15.9433 103.662 15.4537 102.618 16.5858L102.035 17.2189L101.795 15.2904C101.663 14.2299 101.56 12.4167 101.566 11.2613C101.572 10.1057 101.466 8.79987 101.331 8.35941C100.809 6.66222 99.0362 5.43306 96.8749 5.27035C95.8951 5.19656 95.3073 5.29522 93.9824 5.75621ZM55.3412 5.70024C55.012 5.85695 54.5427 5.98919 54.2983 5.99437C54.0537 5.99955 53.3559 6.28352 52.7474 6.62553C52.1388 6.96754 51.5309 7.24674 51.396 7.24612C51.2613 7.24529 50.9982 6.96547 50.8114 6.62429C50.4311 5.92991 50.3172 5.90711 47.6595 5.99375C46.7268 6.02422 45.8514 6.14361 45.7142 6.25906C45.5771 6.37452 45.4648 6.73518 45.4648 7.06061C45.4648 7.90215 46.1737 8.33039 47.4502 8.26012C48.0061 8.22945 48.5514 8.29826 48.6621 8.4133C48.8886 8.64856 49.1482 15.7399 48.9536 16.3769C48.7824 16.9372 47.8425 17.404 46.8858 17.404C46.2663 17.404 46.0017 17.5236 45.6789 17.9501C45.1495 18.6491 45.1583 18.7726 45.7682 19.1876C46.189 19.4743 46.441 19.4952 47.3142 19.3157C47.888 19.198 48.4472 19.1611 48.5572 19.2342C48.6669 19.3072 49.6322 19.3895 50.7023 19.4173C52.5594 19.4656 52.6476 19.4481 52.6476 19.0336C52.6476 18.6949 52.7354 18.6273 53.0467 18.727C53.2662 18.7975 53.6029 18.9028 53.7949 18.9612C54.3029 19.1159 54.604 18.8313 54.6778 18.1267C54.7241 17.6846 54.657 17.5076 54.4433 17.5076C54.2787 17.5076 54.0814 17.3495 54.005 17.1563C53.8984 16.8874 53.6325 16.8107 52.8689 16.8288C51.5369 16.8603 51.1745 16.5357 51.319 15.4411C51.3799 14.9794 51.3396 14.1854 51.2294 13.6759C51.0462 12.8296 51.0856 12.6293 51.6869 11.344C52.0489 10.5709 52.486 9.89161 52.6586 9.83481C52.8312 9.77781 53.315 9.40512 53.7342 9.00632C54.686 8.10052 55.6403 8.04621 55.6409 8.89792C55.6409 9.18707 55.7981 9.75024 55.9901 10.1493C56.3213 10.838 56.4009 10.8799 57.5675 10.9784L58.7962 11.082L59.2467 10.2251L59.697 9.36844L59.2391 8.09637C58.7293 6.68046 58.0174 5.92597 56.8813 5.59826C56.0082 5.34642 56.0978 5.34041 55.3412 5.70024ZM66.5145 5.71144C64.6739 6.166 64.1945 6.35524 63.2976 6.98122C62.7354 7.3736 62.1589 7.92039 62.0169 8.19649C61.8746 8.47258 61.6837 8.69831 61.5925 8.69831C61.5013 8.69831 61.4267 8.88817 61.4267 9.12012C61.4267 9.35227 61.3028 9.74858 61.1511 10.001C60.7846 10.6117 60.5733 11.6002 60.8094 11.6002C60.9161 11.6002 60.9432 11.9364 60.8722 12.3775C60.5713 14.2432 60.6942 15.0221 61.4758 16.2009C61.9259 16.88 62.5582 17.5171 63.0712 17.809C63.5384 18.0747 64.1452 18.4972 64.4195 18.7475C65.1578 19.4214 67.5231 20.1624 68.0323 19.8795C68.253 19.7568 68.7051 19.7184 69.0373 19.7943C69.5234 19.9052 69.8326 19.7966 70.6213 19.238C71.1605 18.8564 71.6018 18.4298 71.602 18.2903C71.6022 18.1506 71.8494 17.9033 72.1511 17.7404C72.4528 17.5777 72.8843 17.1789 73.11 16.8541C73.6204 16.1195 74.1515 12.9763 73.8325 12.5771C73.6982 12.409 73.6882 12.2005 73.8055 12.0077C74.1172 11.4959 74.022 10.9313 73.3871 9.52742C72.757 8.1341 72.1627 7.46729 71.5437 7.4592C71.3147 7.4563 71.2069 7.32406 71.2445 7.09191C71.3765 6.27461 68.1028 5.31906 66.5145 5.71144ZM126.349 5.80347C124.313 6.22258 123.9 6.43069 122.744 7.62109C121.466 8.93626 121.012 9.94446 121.047 11.3929C121.059 11.9059 120.977 12.7564 120.863 13.2831C120.7 14.0457 120.721 14.3972 120.968 15.0114C121.442 16.1885 122.419 17.3503 123.448 17.9593C123.958 18.2619 124.556 18.6727 124.776 18.8723C124.995 19.0721 125.738 19.4316 126.427 19.6712C127.409 20.013 127.769 20.0571 128.094 19.8766C128.322 19.7497 128.799 19.7027 129.154 19.7717C129.958 19.9286 130.873 19.3312 132.507 17.582C133.433 16.5908 133.654 16.2225 133.654 15.6699C133.654 15.2937 133.718 14.92 133.795 14.8395C133.873 14.7589 133.959 13.7911 133.987 12.6884C134.032 10.918 133.979 10.546 133.529 9.50462C133.023 8.33308 132.284 7.45464 131.805 7.45464C131.667 7.45464 131.466 7.24488 131.357 6.98847C130.926 5.96825 128.424 5.37627 126.349 5.80347ZM8.03866 8.11648C8.19109 9.09566 8.41416 10.0875 8.53427 10.3203C8.8591 10.9512 8.80742 11.1133 8.20366 11.3548C6.45703 12.0533 5.82414 11.778 6.03524 10.4113C6.10148 9.98219 6.24134 8.9315 6.3459 8.07648C6.45045 7.22145 6.54083 6.50531 6.54682 6.48479C6.5528 6.46448 6.70504 6.29472 6.88541 6.10734C7.41115 5.56095 7.7258 6.109 8.03866 8.11648ZM16.0152 6.39794C13.664 6.63735 13.4845 7.91604 15.7357 8.39009C17.0587 8.66867 17.1735 8.92735 17.1136 11.493C17.0843 12.7491 17.1238 14.4762 17.2012 15.3312C17.2786 16.1862 17.2724 18.2296 17.1872 19.8718L17.0326 22.8579L15.7357 23.2919C14.3191 23.7659 13.9937 24.2394 14.776 24.6875C15.3486 25.0156 20.7034 25.1253 21.073 24.8164C21.8204 24.1917 20.9856 23.0005 19.8002 23.0005C19.222 23.0005 19.1366 22.9134 18.8459 22.0275C18.632 21.3752 18.5929 20.9857 18.7274 20.846C18.8377 20.7314 18.9281 20.2945 18.9281 19.8751C18.9281 18.6897 19.23 18.5927 20.7801 19.2798C22.0337 19.8353 22.2304 19.8656 23.5085 19.6989C24.2659 19.6001 25.0044 19.4454 25.1492 19.3555C25.8248 18.9355 26.7095 18.106 26.7095 17.8925C26.7095 17.7621 26.84 17.6036 26.9994 17.5402C27.4709 17.3521 28.1327 15.7538 28.4256 14.0958C28.7105 12.483 28.5695 11.5028 27.779 9.59976C27.6297 9.24055 27.5052 8.82081 27.502 8.66701C27.4926 8.19027 26.4457 7.28882 25.2304 6.71072C23.8412 6.04992 22.7831 6.09241 20.552 6.89852C19.1944 7.38894 19.1116 7.39619 18.9293 7.04216C18.7589 6.71176 17.6689 6.15895 17.352 6.24248C17.286 6.25989 16.6846 6.32995 16.0152 6.39794ZM31.1164 6.411C29.8185 6.57081 29.2177 6.98163 29.4322 7.56222C29.5463 7.87148 30.9111 8.49103 31.4777 8.49103C32.2403 8.49103 32.3538 8.9914 32.4313 12.6957C32.5338 17.6121 32.4845 21.666 32.3143 22.3276C32.1956 22.7886 31.968 22.9441 30.958 23.2529C29.607 23.6662 29.3335 24.0207 29.9312 24.5826C30.2766 24.9072 30.7343 24.9646 33.2002 24.9924C35.7386 25.021 36.1051 24.9816 36.3946 24.6492C37.0468 23.9007 36.2671 23.0005 34.9666 23.0005C34.2098 23.0005 33.8485 21.9257 34.0614 20.3077C34.1528 19.6136 34.3092 18.9612 34.4091 18.8582C34.5175 18.7463 35.133 18.9086 35.9369 19.2614C37.0923 19.7684 37.4599 19.8362 38.5307 19.7396C40.1285 19.5955 41.0138 19.1248 41.9725 17.9095C43.0555 16.5365 43.4155 15.7113 43.7004 13.9501C43.9179 12.6057 43.9075 12.2971 43.6174 11.4841C43.435 10.973 43.3313 10.4318 43.3867 10.2815C43.4422 10.1312 43.349 9.8887 43.1794 9.74257C43.0096 9.59623 42.871 9.26272 42.871 9.00156C42.871 8.35879 41.3097 6.95469 40.1307 6.53744C38.84 6.0806 38.0297 6.13304 36.143 6.79633L34.5029 7.37297L34.048 6.90059C33.4919 6.32332 32.7862 6.20538 31.1164 6.411ZM22.99 8.38097C23.7234 8.26676 23.9315 8.32396 24.4579 8.78391C24.7951 9.07887 25.148 9.32325 25.2418 9.32719C25.3358 9.33113 25.7159 10.0253 26.0866 10.8697C26.5964 12.0313 26.7253 12.5468 26.6155 12.9871C26.5357 13.3073 26.4483 13.8492 26.4216 14.1912C26.3268 15.3963 25.506 16.7036 24.3962 17.416C23.8256 17.7825 23.5449 17.8266 22.572 17.7037C21.2114 17.5319 20.6304 17.2514 19.8359 16.3831C19.2774 15.7731 19.2443 15.6365 19.192 13.726C19.119 11.0571 19.3407 10.2682 20.4913 9.10374C21.2114 8.37516 21.5029 8.20188 21.7789 8.33806C21.9752 8.43486 22.5201 8.45413 22.99 8.38097ZM38.2252 8.37578C38.8537 8.27401 39.1391 8.36355 39.928 8.90994C40.4493 9.27102 40.8757 9.68578 40.8757 9.8317C40.8757 9.97762 41.1032 10.5197 41.3811 11.0364C41.659 11.5529 41.8849 12.2411 41.8831 12.5653C41.8771 13.6732 41.6339 15.1239 41.4541 15.1239C41.3556 15.1239 41.2748 15.3005 41.2748 15.5163C41.2748 15.7321 41.1401 15.9624 40.9755 16.0281C40.8109 16.0936 40.6742 16.2668 40.672 16.413C40.6696 16.5589 40.2989 16.9496 39.8482 17.2813C39.0393 17.8759 39.01 17.8809 37.6235 17.6579C36.1925 17.4278 35.4993 17.0501 34.8509 16.1475C34.555 15.7356 34.4842 15.2207 34.4676 13.3621C34.456 12.0514 34.5472 10.8177 34.6821 10.4602C35.0321 9.53322 36.6945 8.07171 37.1279 8.31008C37.3162 8.41351 37.81 8.44315 38.2252 8.37578ZM83.8731 8.3393C84.3121 8.48046 84.9476 8.88983 85.2854 9.24925C85.9797 9.98799 86.6737 11.6671 86.444 12.0533C86.3604 12.1938 86.3149 12.6969 86.343 13.1714C86.4069 14.2478 85.949 15.4251 85.3366 15.7594C85.0804 15.8993 84.5759 16.2799 84.2153 16.6053C83.491 17.2589 82.2077 17.4235 81.8013 16.9148C81.675 16.7566 81.3617 16.6754 81.0876 16.7299C80.3142 16.8835 79.5421 16.1048 79.2252 14.8516C78.9529 13.7745 79.0704 12.34 79.6105 10.1493C80.0632 8.31277 81.6692 7.63083 83.8731 8.3393ZM112.923 8.60773C114.132 9.18458 114.196 9.23785 114.55 9.95752C114.988 10.8503 114.994 12.2577 114.567 14.0448C114.307 15.1293 114.064 15.6129 113.461 16.2449C112.734 17.007 112.615 17.0562 111.449 17.074C109.785 17.0995 108.857 16.4864 108.396 15.0574C108.219 14.5077 107.946 14.0071 107.79 13.9449C107.572 13.8581 107.56 13.7652 107.736 13.5447C107.864 13.3846 107.913 12.9873 107.848 12.6482C107.667 11.7078 108.239 10.0348 109.017 9.22583C109.593 8.62825 109.873 8.50056 110.755 8.43672C111.333 8.39485 111.905 8.34324 112.025 8.3221C112.145 8.30096 112.55 8.42968 112.923 8.60773ZM69.8418 8.99451C70.4601 9.26293 70.5872 9.4501 70.8751 10.5157C71.0557 11.1842 71.2034 11.976 71.2034 12.2753C71.2034 12.5746 71.2933 12.8772 71.4035 12.9479C71.5372 13.0337 71.5372 13.2051 71.4035 13.4647C71.2933 13.6782 71.2034 14.0508 71.2034 14.2927C71.2034 14.5566 70.7205 15.2247 69.995 15.9644C68.7953 17.1878 68.7781 17.1967 67.6107 17.1967C66.642 17.1967 66.2837 17.0904 65.5768 16.5937C63.8653 15.3909 63.2254 14.2905 63.2236 12.5466C63.222 10.9081 63.7869 9.70153 64.8858 8.99658C65.6568 8.50181 65.8392 8.47155 67.4266 8.57601C68.3673 8.63799 69.4541 8.8262 69.8418 8.99451ZM129.942 8.98663C130.487 9.22334 130.675 9.47166 130.924 10.2844C131.439 11.9667 131.644 13.3142 131.444 13.7026C131.343 13.8993 131.26 14.2451 131.26 14.471C131.26 14.699 130.75 15.3946 130.113 16.0349C128.987 17.1668 128.944 17.1884 127.792 17.1925C126.426 17.1973 125.586 16.7683 124.426 15.4742C122.615 13.4526 122.968 10.335 125.175 8.86081C125.691 8.51611 126.014 8.47714 127.52 8.57747C128.482 8.64151 129.571 8.82578 129.942 8.98663ZM99.7353 13.6458C99.7353 14.7539 99.6639 14.9556 98.9358 15.9056C98.2672 16.778 97.9719 16.9898 97.1317 17.1992C95.1959 17.6815 92.7462 16.9254 92.5893 15.7972C92.4774 14.9921 93.7961 13.8633 95.2191 13.5459C95.8923 13.3958 96.7574 13.2673 97.1415 13.2603C97.5256 13.2532 98.199 13.071 98.6379 12.8553C99.0769 12.6395 99.5032 12.4552 99.5856 12.4461C99.668 12.4368 99.7353 12.9767 99.7353 13.6458Z" fill="#101521"/>
<defs>
<linearGradient id="paint0_linear_184_545" x1="0" y1="17.9348" x2="1.75187" y2="-3.66227" gradientUnits="userSpaceOnUse">
<stop offset="0.0625" stop-color="#F6FA00"/>
<stop offset="0.880208" stop-color="#FFE835"/>
</linearGradient>
</defs>
</svg>
