<svg width="80" height="80" viewBox="0 0 80 80" fill="none" xmlns="http://www.w3.org/2000/svg">
<path d="M18.0311 12.3644C14.02 27.2021 3.5778 35.3133 1.64446 42.4644C-0.288869 49.6155 -0.237759 65.7421 32.6556 74.6355C65.5489 83.5288 75.8378 64.6333 77.9622 56.7666C87.92 19.9399 25.1356 -13.9156 18.0311 12.3644Z" fill="#EFEFEF"/>
<path d="M26.1111 53.8888C26.1111 56.3444 28.1 58.3332 30.5556 58.3332H35V64.9999L41.1111 58.3332H61.1111C63.5667 58.3332 65.5556 56.3444 65.5556 53.8888V34.9999C65.5556 32.5444 63.5667 30.5555 61.1111 30.5555H30.5556C28.1 30.5555 26.1111 32.5444 26.1111 34.9999V53.8888Z" fill="#F3F3F1"/>
<path d="M30.5556 53.8888V34.9999C30.5556 32.5444 32.5445 30.5555 35 30.5555H30.5556C28.1 30.5555 26.1111 32.5444 26.1111 34.9999V53.8888C26.1111 56.3444 28.1 58.3333 30.5556 58.3333H35C32.5445 58.3333 30.5556 56.3444 30.5556 53.8888Z" fill="#D5DBE1"/>
<path d="M39.4444 60.1512V58.3334H35V65.0001L39.4444 60.1512Z" fill="#D5DBE1"/>
<path d="M53.8889 19.4444V20L35.5556 30.4889C34.8667 30.8667 34.0222 30.8667 33.3333 30.4889L15 20V19.4444C15 17 17 15 19.4444 15H49.4444C51.8889 15 53.8889 17 53.8889 19.4444Z" fill="#D2E2F4"/>
<path d="M53.8889 20V38.3333C53.8889 40.7778 51.8889 42.7778 49.4444 42.7778H19.4444C17 42.7778 15 40.7778 15 38.3333V20L33.3333 30.4889C34.0222 30.8667 34.8667 30.8667 35.5556 30.4889L53.8889 20Z" fill="#F3F3F1"/>
<path d="M20 19.4444V18.8889C20 17.2089 20.9578 15.7556 22.3422 15H19.4444C17 15 15 17 15 19.4444V20L33.3333 30.4889C34.0222 30.8667 34.8667 30.8667 35.5556 30.4889L37.4311 29.4156L20 19.4444Z" fill="#D2E2F4"/>
<path d="M20 38.3333V22.86L15 20V38.3333C15 40.7778 17 42.7778 19.4444 42.7778H24.4444C22 42.7778 20 40.7778 20 38.3333Z" fill="#D5DBE1"/>
<path d="M57.9622 14.3666C56.1244 14.3666 54.6288 12.8711 54.6288 11.0333C54.6288 9.19551 56.1244 7.69995 57.9622 7.69995C59.8 7.69995 61.2955 9.19551 61.2955 11.0333C61.2955 12.8711 59.8022 14.3666 57.9622 14.3666ZM57.9622 9.92217C57.3488 9.92217 56.8511 10.42 56.8511 11.0333C56.8511 11.6466 57.3488 12.1444 57.9622 12.1444C58.5755 12.1444 59.0733 11.6466 59.0733 11.0333C59.0733 10.42 58.5755 9.92217 57.9622 9.92217Z" fill="#A4AFC1"/>
<path d="M6.64618 59.691L8.21753 58.1197L11.3602 61.2624L9.78888 62.8337L6.64618 59.691Z" fill="#A4AFC1"/>
<path d="M15.6802 68.7268L17.2516 67.1555L20.3943 70.2982L18.8229 71.8695L15.6802 68.7268Z" fill="#A4AFC1"/>
<path d="M6.25403 70.2973L9.39673 67.1546L10.9681 68.726L7.82538 71.8686L6.25403 70.2973Z" fill="#A4AFC1"/>
<path d="M15.2896 61.2634L18.4323 58.1207L20.0037 59.692L16.861 62.8347L15.2896 61.2634Z" fill="#A4AFC1"/>
<path d="M34.4445 32.4378C33.7778 32.4378 33.1089 32.2667 32.5156 31.9289L14.1733 21.4467L15.8267 18.5511L34.1689 29.0312C34.3378 29.1289 34.5511 29.1289 34.72 29.0312L53.0622 18.5511L54.7156 21.4467L36.3733 31.9267C35.78 32.2689 35.1111 32.4378 34.4445 32.4378Z" fill="#101521"/>
<path d="M49.4445 44.4445H19.4445C16.0734 44.4445 13.3334 41.7045 13.3334 38.3334V19.4445C13.3334 16.0734 16.0734 13.3334 19.4445 13.3334H49.4445C52.8156 13.3334 55.5556 16.0734 55.5556 19.4445V38.3334C55.5556 41.7045 52.8156 44.4445 49.4445 44.4445ZM19.4445 16.6667C17.9134 16.6667 16.6667 17.9134 16.6667 19.4445V38.3334C16.6667 39.8645 17.9134 41.1112 19.4445 41.1112H49.4445C50.9756 41.1112 52.2223 39.8645 52.2223 38.3334V19.4445C52.2223 17.9134 50.9756 16.6667 49.4445 16.6667H19.4445Z" fill="#101521"/>
<path d="M35 66.6666C34.7978 66.6666 34.5911 66.6289 34.3956 66.5533C33.7556 66.3044 33.3333 65.6866 33.3333 65V60H30.5556C27.1845 60 24.4445 57.26 24.4445 53.8889V48.3333H27.7778V53.8889C27.7778 55.42 29.0245 56.6666 30.5556 56.6666H35C35.92 56.6666 36.6667 57.4133 36.6667 58.3333V60.7155L39.8822 57.2066C40.1978 56.8622 40.6445 56.6666 41.1111 56.6666H61.1111C62.6422 56.6666 63.8889 55.42 63.8889 53.8889V35C63.8889 33.4689 62.6422 32.2222 61.1111 32.2222H59.4445V28.8889H61.1111C64.4822 28.8889 67.2222 31.6289 67.2222 35V53.8889C67.2222 57.26 64.4822 60 61.1111 60H41.8445L36.2289 66.1267C35.9067 66.4778 35.4578 66.6666 35 66.6666Z" fill="#101521"/>
</svg>
