<svg width="80" height="80" viewBox="0 0 80 80" fill="none" xmlns="http://www.w3.org/2000/svg">
<path d="M18.6156 70.74C33.9867 70.74 44.5422 78.7022 51.9489 78.7022C59.3556 78.7022 74.9111 74.4444 74.9111 40.3711C74.9111 6.29775 53.9845 1.29553 45.8378 1.29553C7.6889 1.29553 -8.60666 70.74 18.6156 70.74Z" fill="#EFEFEF"/>
<path d="M14.1666 52.7089H16.3888V57.1533H14.1666V52.7089Z" fill="#A4AFC1"/>
<path d="M14.1666 65.4866H16.3888V69.931H14.1666V65.4866Z" fill="#A4AFC1"/>
<path d="M6.38885 59.9312H10.8333V62.1534H6.38885V59.9312Z" fill="#A4AFC1"/>
<path d="M19.1666 59.9312H23.6111V62.1534H19.1666V59.9312Z" fill="#A4AFC1"/>
<path d="M32.7778 60.5556V46.1111C32.7778 43.6667 34.7778 41.6667 37.2222 41.6667H49.4444L56.1111 35V41.6667H60.5555C63 41.6667 65 43.6667 65 46.1111V60.5556C65 63 63 65 60.5555 65H37.2222C34.7778 65 32.7778 63 32.7778 60.5556Z" fill="#F3F3F1"/>
<path d="M47.2222 19.4444V33.8889C47.2222 36.3333 45.2222 38.3333 42.7778 38.3333H30.5556L23.8889 45V38.3333H19.4444C17 38.3333 15 36.3333 15 33.8889V19.4444C15 17 17 15 19.4444 15H42.7778C45.2222 15 47.2222 17 47.2222 19.4444Z" fill="#D2E2F4"/>
<path d="M37.2222 60.5556V46.1111C37.2222 43.6667 39.2222 41.6667 41.6667 41.6667H37.2222C34.7778 41.6667 32.7778 43.6667 32.7778 46.1111V60.5556C32.7778 63 34.7778 65 37.2222 65H41.6667C39.2222 65 37.2222 63 37.2222 60.5556Z" fill="#D5DBE1"/>
<path d="M19.4444 33.8889V19.4444C19.4444 17 21.4444 15 23.8889 15H19.4444C17 15 15 17 15 19.4444V33.8889C15 36.3333 17 38.3333 19.4444 38.3333H23.8889C21.4444 38.3333 19.4444 36.3333 19.4444 33.8889Z" fill="#D2E2F4"/>
<path d="M53.3334 60H50V51.1111C50 50.4978 49.5022 50 48.8889 50C48.2756 50 47.7778 50.4978 47.7778 51.1111V60H44.4445V51.1111C44.4445 48.66 46.4378 46.6667 48.8889 46.6667C51.34 46.6667 53.3334 48.66 53.3334 51.1111V60Z" fill="black"/>
<path d="M44.4445 53.3333H53.3334V56.6666H44.4445V53.3333Z" fill="black"/>
<path d="M23.8889 46.6667C23.6734 46.6667 23.4578 46.6245 23.2512 46.5401C22.6289 46.2823 22.2223 45.6734 22.2223 45V40H19.4445C16.0734 40 13.3334 37.26 13.3334 33.8889V19.4445C13.3334 16.0734 16.0734 13.3334 19.4445 13.3334H42.7778C46.1489 13.3334 48.8889 16.0734 48.8889 19.4445V33.8889C48.8889 37.26 46.1489 40 42.7778 40H31.2467L25.0689 46.1778C24.7489 46.4978 24.3223 46.6667 23.8889 46.6667ZM19.4445 16.6667C17.9134 16.6667 16.6667 17.9134 16.6667 19.4445V33.8889C16.6667 35.42 17.9134 36.6667 19.4445 36.6667H23.8889C24.8089 36.6667 25.5556 37.4134 25.5556 38.3334V40.9756L29.3778 37.1534C29.6912 36.84 30.1156 36.6645 30.5556 36.6645H42.7778C44.3089 36.6645 45.5556 35.4178 45.5556 33.8867V19.4423C45.5556 17.9112 44.3089 16.6645 42.7778 16.6645H19.4445V16.6667Z" fill="black"/>
<path d="M60.5556 66.6666H37.2223C33.8511 66.6666 31.1111 63.9266 31.1111 60.5555V44.6666H34.4445V60.5555C34.4445 62.0866 35.6911 63.3333 37.2223 63.3333H60.5556C62.0867 63.3333 63.3334 62.0866 63.3334 60.5555V46.1111C63.3334 44.58 62.0867 43.3333 60.5556 43.3333H56.1112C55.1912 43.3333 54.4445 42.5866 54.4445 41.6666V39.0244L53.9556 39.5133L51.5978 37.1555L54.9312 33.8222C55.4089 33.3444 56.1245 33.2022 56.7467 33.46C57.3712 33.7177 57.7778 34.3266 57.7778 35V40H60.5556C63.9267 40 66.6667 42.74 66.6667 46.1111V60.5555C66.6667 63.9266 63.9267 66.6666 60.5556 66.6666Z" fill="black"/>
<path d="M31.6666 33.3333H30.5555C28.4111 33.3333 26.6666 31.5889 26.6666 29.4444V23.8889C26.6666 21.7444 28.4111 20 30.5555 20H31.6666C33.8111 20 35.5555 21.7444 35.5555 23.8889V29.4444C35.5555 31.5889 33.8111 33.3333 31.6666 33.3333ZM30.5555 23.3333C30.2488 23.3333 30 23.5822 30 23.8889V29.4444C30 29.7511 30.2488 30 30.5555 30H31.6666C31.9733 30 32.2222 29.7511 32.2222 29.4444V23.8889C32.2222 23.5822 31.9733 23.3333 31.6666 23.3333H30.5555Z" fill="black"/>
<path d="M29.3026 29.4448L31.6596 27.0878L36.2385 31.6667L33.8815 34.0237L29.3026 29.4448Z" fill="black"/>
</svg>
