<svg width="80" height="80" viewBox="0 0 80 80" fill="none" xmlns="http://www.w3.org/2000/svg">
<path d="M18.0312 12.3643C14.0201 27.2021 3.57786 35.3132 1.64453 42.4643C-0.288808 49.6154 -0.237698 65.7421 32.6556 74.6354C65.549 83.5287 75.8379 64.6332 77.9623 56.7665C87.9201 19.9399 25.1356 -13.9157 18.0312 12.3643Z" fill="#EFEFEF"/>
<path d="M26.7893 12.2607L29.932 9.11805L31.5034 10.6894L28.3607 13.8321L26.7893 12.2607Z" fill="#A4AFC1"/>
<path d="M17.7537 21.2948L20.8964 18.1521L22.4677 19.7234L19.325 22.8661L17.7537 21.2948Z" fill="#A4AFC1"/>
<path d="M17.7542 10.2952L19.3256 8.72382L22.4683 11.8665L20.8969 13.4379L17.7542 10.2952Z" fill="#A4AFC1"/>
<path d="M71.6178 66.1113C69.78 66.1113 68.2844 64.6157 68.2844 62.7779C68.2844 60.9401 69.78 59.4446 71.6178 59.4446C73.4555 59.4446 74.9511 60.9401 74.9511 62.7779C74.9511 64.6157 73.4555 66.1113 71.6178 66.1113ZM71.6178 61.6668C71.0044 61.6668 70.5066 62.1646 70.5066 62.7779C70.5066 63.3912 71.0044 63.889 71.6178 63.889C72.2311 63.889 72.7289 63.3912 72.7289 62.7779C72.7289 62.1646 72.2289 61.6668 71.6178 61.6668Z" fill="#A4AFC1"/>
<path d="M30.2712 38.96L19.4445 58.4377L27.4112 57.8222L30.9445 65L39.9223 49.0666L30.2712 38.96Z" fill="#F3F3F1"/>
<path d="M49.5778 38.9801L60.5556 58.4468L52.4556 57.8223L48.9 65.0001L39.9222 49.0668L35.9711 42.0957L49.5778 38.9801Z" fill="#F3F3F1"/>
<path d="M44.3667 49.0668L40.4156 42.0957L50.0867 39.8801L49.5778 38.9801L35.9711 42.0957L39.9222 49.0668L48.9 65.0001L50.98 60.8023L44.3667 49.0668Z" fill="#D5DBE1"/>
<path d="M33.0801 41.9022L30.2712 38.96L19.4445 58.4377L24.089 58.08L33.0801 41.9022Z" fill="#D5DBE1"/>
<path d="M40 42.7778C47.6707 42.7778 53.8889 36.5595 53.8889 28.8889C53.8889 21.2183 47.6707 15 40 15C32.3294 15 26.1111 21.2183 26.1111 28.8889C26.1111 36.5595 32.3294 42.7778 40 42.7778Z" fill="#D2E2F4"/>
<path d="M39.9999 36.1133C43.9886 36.1133 47.2221 32.8798 47.2221 28.891C47.2221 24.9023 43.9886 21.6688 39.9999 21.6688C36.0112 21.6688 32.7777 24.9023 32.7777 28.891C32.7777 32.8798 36.0112 36.1133 39.9999 36.1133Z" fill="#F3F3F1"/>
<path d="M37.2221 28.891C37.2221 25.6822 39.3288 22.9955 42.2221 22.0533C41.5177 21.8244 40.7799 21.6688 39.9999 21.6688C36.011 21.6688 32.7777 24.9022 32.7777 28.891C32.7777 32.8799 36.011 36.1133 39.9999 36.1133C40.7799 36.1133 41.5177 35.9577 42.2221 35.7288C39.3288 34.7866 37.2221 32.0977 37.2221 28.891Z" fill="#D5DBE1"/>
<path d="M30.5556 28.8889C30.5556 21.9756 35.6111 16.26 42.2223 15.1933C41.4978 15.0756 40.7578 15 40 15C32.3289 15 26.1111 21.2178 26.1111 28.8889C26.1111 36.56 32.3289 42.7778 40 42.7778C40.7578 42.7778 41.4978 42.7 42.2223 42.5845C35.6111 41.5178 30.5556 35.8022 30.5556 28.8889Z" fill="#D2E2F4"/>
<path d="M40 37.7778C35.0978 37.7778 31.1111 33.7911 31.1111 28.8889C31.1111 23.9867 35.0978 20 40 20C44.9023 20 48.8889 23.9867 48.8889 28.8889C48.8889 33.7911 44.9023 37.7778 40 37.7778ZM40 23.3333C36.9378 23.3333 34.4445 25.8267 34.4445 28.8889C34.4445 31.9511 36.9378 34.4445 40 34.4445C43.0623 34.4445 45.5556 31.9511 45.5556 28.8889C45.5556 25.8267 43.0623 23.3333 40 23.3333Z" fill="#101521"/>
<path d="M30.9445 66.6668C30.929 66.6668 30.9134 66.6668 30.8979 66.6668C30.2801 66.6512 29.7223 66.2935 29.449 65.7379L26.4134 59.5735L19.5712 60.1001C18.9623 60.1446 18.3712 59.8557 18.0401 59.3379C17.709 58.8201 17.689 58.1646 17.9868 57.629L28.8157 38.1512L31.729 39.7712L22.4068 56.5401L27.2823 56.1646C27.9601 56.1046 28.6045 56.4801 28.9045 57.0912L31.0423 61.4335L38.469 48.2535L41.3734 49.889L32.3957 65.8224C32.1001 66.3424 31.5445 66.6668 30.9445 66.6668Z" fill="#101521"/>
<path d="M48.8999 66.6667C48.2977 66.6667 47.7444 66.3423 47.4488 65.8178L34.5244 42.9156L37.4244 41.2734L48.8088 61.4356L50.9666 57.0823C51.2688 56.4734 51.8932 56.0867 52.5866 56.16L57.5732 56.5423L48.1288 39.7956L51.0332 38.1578L62.011 57.6245C62.3132 58.16 62.2955 58.82 61.9644 59.3378C61.6332 59.8556 61.051 60.1623 60.431 60.1045L53.4532 59.5667L50.3977 65.7356C50.1244 66.2889 49.5666 66.6445 48.9488 66.6623C48.9288 66.6667 48.9132 66.6667 48.8999 66.6667Z" fill="#101521"/>
<path d="M39.9756 44.4445C37.6023 44.4445 35.1956 43.9001 32.9378 42.7512C25.2956 38.8579 22.2445 29.4712 26.1378 21.829C30.0312 14.1845 39.42 11.1379 47.06 15.029C48.1045 15.5623 49.0867 16.209 49.98 16.9556L47.8445 19.5134C47.1423 18.9268 46.3667 18.4179 45.5445 17.9979C39.5445 14.9401 32.1689 17.3334 29.1112 23.3401C26.0512 29.3468 28.4467 36.7201 34.4512 39.7779C40.4578 42.8334 47.8312 40.4423 50.8889 34.4379C52.6578 30.9645 52.6823 26.9645 50.9534 23.4645L53.9423 21.989C56.1089 26.3756 56.0778 31.5956 53.86 35.9512C51.1156 41.3401 45.6423 44.4445 39.9756 44.4445Z" fill="#101521"/>
</svg>
