<svg width="80" height="80" viewBox="0 0 80 80" fill="none" xmlns="http://www.w3.org/2000/svg">
<path d="M77.5644 45.2334C69.16 32.3645 70.0533 19.1734 66.0022 12.9712C61.9511 6.76894 49.8778 -3.9244 21.3511 14.7089C-7.17556 33.3423 0.0799975 53.5978 4.53778 60.4178C25.4 92.3556 92.4511 68.0245 77.5644 45.2334Z" fill="#EFEFEF"/>
<path d="M64.8777 54.9533L43.911 33.9866C43.8488 33.9244 43.7644 33.8866 43.671 33.8866C43.4844 33.8866 43.3333 34.0377 43.3333 34.2244V64.6599C43.3333 64.8466 43.4844 64.9977 43.671 64.9977C43.7666 64.9977 43.8533 64.9577 43.9155 64.8932L52.9466 55.5288H64.6355H64.6377C64.8244 55.5288 64.9755 55.3777 64.9755 55.191C64.9755 55.0999 64.9377 55.0155 64.8777 54.9533Z" fill="#D2E2F4"/>
<path d="M48.3333 38.4111L43.911 33.9889C43.8488 33.9266 43.7644 33.8889 43.671 33.8889C43.4844 33.8889 43.3333 34.04 43.3333 34.2266V64.6622C43.3333 64.8489 43.4844 65 43.671 65C43.7666 65 43.8533 64.96 43.9155 64.8955L48.3333 60.3133V38.4111Z" fill="#D2E2F4"/>
<path d="M54.1556 72.9534C52.3178 72.9534 50.8223 71.4579 50.8223 69.6201C50.8223 67.7823 52.3178 66.2867 54.1556 66.2867C55.9934 66.2867 57.4889 67.7823 57.4889 69.6201C57.4889 71.4579 55.9934 72.9534 54.1556 72.9534ZM54.1556 68.509C53.5423 68.509 53.0445 69.0068 53.0445 69.6201C53.0445 70.2334 53.5423 70.7312 54.1556 70.7312C54.7689 70.7312 55.2667 70.2334 55.2667 69.6201C55.2667 69.0068 54.7689 68.509 54.1556 68.509Z" fill="#A4AFC1"/>
<path d="M58.0886 10.2501L59.66 8.67877L62.8027 11.8215L61.2313 13.3928L58.0886 10.2501Z" fill="#A4AFC1"/>
<path d="M67.1204 19.2812L68.6917 17.7099L71.8344 20.8526L70.2631 22.4239L67.1204 19.2812Z" fill="#A4AFC1"/>
<path d="M66.7341 11.829L69.8768 8.68634L71.4482 10.2577L68.3055 13.4004L66.7341 11.829Z" fill="#A4AFC1"/>
<path d="M37.7779 62.2223C36.1845 62.2223 34.589 62.0668 33.0356 61.7623L33.6779 58.4912C35.0201 58.7557 36.4001 58.889 37.7779 58.889V62.2223Z" fill="#101521"/>
<path d="M24.211 58.1134C21.5266 56.32 19.2577 54.0534 17.4621 51.3756L20.231 49.52C21.7821 51.8356 23.7444 53.7934 26.0621 55.3423L24.211 58.1134ZM13.8021 42.5645C13.491 40.9978 13.3333 39.3867 13.3333 37.7778C13.3333 36.1823 13.4888 34.5845 13.7933 33.0312L17.0644 33.6734C16.7999 35.0156 16.6666 36.3956 16.6666 37.7778C16.6666 39.1689 16.8044 40.56 17.0733 41.9156L13.8021 42.5645ZM20.211 26.0645L17.4399 24.2134C19.2333 21.5289 21.4999 19.26 24.1777 17.4623L26.0333 20.2312C23.7199 21.7845 21.7599 23.7467 20.211 26.0645ZM55.3221 26.0312C53.7688 23.7156 51.8066 21.7578 49.4888 20.2089L51.3399 17.4378C54.0221 19.2289 56.2933 21.4956 58.091 24.1734L55.3221 26.0312ZM33.6355 17.0712L32.9844 13.8023C34.5555 13.4912 36.2333 13.3667 37.7777 13.3334C39.371 13.3334 40.9666 13.4889 42.5199 13.7934L41.8777 17.0645C40.5355 16.8 39.1577 16.6667 37.7777 16.6667C37.7733 16.6667 37.7688 16.6667 37.7621 16.6667C36.3755 16.6667 34.9866 16.8045 33.6355 17.0712Z" fill="#101521"/>
<path d="M62.2222 37.7778H58.8889C58.8889 36.4 58.7555 35.02 58.4911 33.6778L61.7622 33.0356C62.0666 34.5889 62.2222 36.1845 62.2222 37.7778Z" fill="#101521"/>
<path d="M43.6712 66.6667C42.5645 66.6667 41.6667 65.7667 41.6667 64.6623V34.2267C41.6667 33.1201 42.5667 32.2223 43.6712 32.2223C44.2067 32.2223 44.709 32.4312 45.089 32.809L66.0512 53.7734C66.4268 54.1467 66.6423 54.6623 66.6423 55.1934C66.6423 56.3001 65.7423 57.1978 64.6379 57.1978H53.6556L45.1156 66.0534C44.7267 66.4467 44.2067 66.6667 43.6712 66.6667ZM45.0001 37.4334V61.3689L51.7467 54.3734C52.0623 54.0489 52.4934 53.8645 52.9468 53.8645H61.4312L45.0001 37.4334Z" fill="#101521"/>
</svg>
