<svg width="80" height="80" viewBox="0 0 80 80" fill="none" xmlns="http://www.w3.org/2000/svg">
<path d="M18.6156 70.7401C33.9867 70.7401 44.5422 78.7023 51.9489 78.7023C59.3556 78.7023 74.9111 74.4446 74.9111 40.3712C74.9111 6.29788 53.9845 1.29565 45.8378 1.29565C7.6889 1.29565 -8.60666 70.7401 18.6156 70.7401Z" fill="#EFEFEF"/>
<path d="M6.64905 21.3673L8.2204 19.796L11.3631 22.9387L9.79175 24.51L6.64905 21.3673Z" fill="#A4AFC1"/>
<path d="M15.6831 30.405L17.2545 28.8337L20.3972 31.9764L18.8258 33.5477L15.6831 30.405Z" fill="#A4AFC1"/>
<path d="M6.25842 31.9675L9.40112 28.8248L10.9725 30.3962L7.82977 33.5389L6.25842 31.9675Z" fill="#A4AFC1"/>
<path d="M15.2939 22.9335L18.4366 19.7908L20.008 21.3621L16.8653 24.5048L15.2939 22.9335Z" fill="#A4AFC1"/>
<path d="M40 28.1622L34.8488 31.6667L36.4288 25.4333L31.6666 21.3667L37.7933 21.0178L40 15L42.2066 21.0178L48.3333 21.3667L43.5711 25.4333L45.1511 31.6667L40 28.1622Z" fill="#F3F3F1"/>
<path d="M30.5555 39.4445H49.4444V65H30.5555V39.4445Z" fill="#D2E2F4"/>
<path d="M49.4445 57.2223H65V65.0001H49.4445V57.2223Z" fill="#F3F3F1"/>
<path d="M15 52.7777H30.5556V64.9999H15V52.7777Z" fill="#F3F3F1"/>
<path d="M40 28.1622L40.6288 28.5889L41.4288 25.4333L36.6666 21.3667L42.5 21.0356L42.2066 21.0178L40 15L37.7933 21.0178L31.6666 21.3667L36.4288 25.4333L34.8488 31.6667L40 28.1622Z" fill="#D5DBE1"/>
<path d="M49.4445 57.2223H54.4445V65.0001H49.4445V57.2223Z" fill="#D5DBE1"/>
<path d="M15 52.7777H20V64.9999H15V52.7777Z" fill="#D5DBE1"/>
<path d="M30.5555 39.4445H35.5555V65H30.5555V39.4445Z" fill="#D2E2F4"/>
<path d="M45.1511 33.3333C44.8245 33.3333 44.4978 33.2377 44.2133 33.0444L40 30.1777L35.7867 33.0444C35.2156 33.4355 34.46 33.431 33.8933 33.031C33.3267 32.6333 33.0622 31.9288 33.2333 31.2555L34.56 26.0266L30.5845 22.631C30.0667 22.1888 29.8711 21.4755 30.0889 20.831C30.3067 20.1844 30.8933 19.7377 31.5733 19.6977L36.6067 19.4133L38.4378 14.4244C38.6756 13.7688 39.3022 13.3333 40 13.3333C40.6978 13.3333 41.3245 13.7688 41.5645 14.4266L43.3956 19.4155L48.4289 19.6999C49.1089 19.7399 49.6956 20.1866 49.9133 20.8333C50.1311 21.4777 49.9356 22.1888 49.4178 22.6333L45.4422 26.0288L46.7689 31.2577C46.94 31.931 46.6756 32.6355 46.1089 33.0333C45.82 33.2332 45.4845 33.3333 45.1511 33.3333ZM40 26.4955C40.3267 26.4955 40.6533 26.591 40.9378 26.7844L42.4556 27.8177L41.9556 25.8444C41.8 25.2288 42.0067 24.5799 42.4889 24.1666L44.0956 22.7955L42.1133 22.6821C41.4489 22.6421 40.8711 22.2155 40.6422 21.591L40 19.8399L39.3578 21.591C39.1289 22.2155 38.5511 22.6444 37.8867 22.6821L35.9045 22.7955L37.5111 24.1666C37.9933 24.5799 38.2 25.2288 38.0445 25.8444L37.5445 27.8177L39.0622 26.7844C39.3467 26.591 39.6733 26.4955 40 26.4955Z" fill="#101521"/>
<path d="M49.4445 66.6666H30.5556C29.6356 66.6666 28.8889 65.9199 28.8889 64.9999V39.4444C28.8889 38.5244 29.6356 37.7777 30.5556 37.7777H49.4445C50.3645 37.7777 51.1111 38.5244 51.1111 39.4444V64.9999C51.1111 65.9199 50.3645 66.6666 49.4445 66.6666ZM32.2222 63.3333H47.7778V41.111H32.2222V63.3333Z" fill="#101521"/>
<path d="M65.0001 66.6667H49.4445C48.5245 66.6667 47.7778 65.92 47.7778 65V57.2222C47.7778 56.3022 48.5245 55.5555 49.4445 55.5555H65.0001C65.9201 55.5555 66.6667 56.3022 66.6667 57.2222V65C66.6667 65.92 65.9201 66.6667 65.0001 66.6667ZM51.1112 63.3333H63.3334V58.8889H51.1112V63.3333Z" fill="#101521"/>
<path d="M30.5556 66.6666H15C14.08 66.6666 13.3334 65.92 13.3334 65V52.7778C13.3334 51.8578 14.08 51.1111 15 51.1111H30.5556C31.4756 51.1111 32.2223 51.8578 32.2223 52.7778V65C32.2223 65.92 31.4756 66.6666 30.5556 66.6666ZM16.6667 63.3333H28.8889V54.4444H16.6667V63.3333Z" fill="#101521"/>
<path d="M41.6667 57.7779H38.3334V50.0001H37.7778V46.6667H40.0001C40.9201 46.6667 41.6667 47.4134 41.6667 48.3334V57.7779Z" fill="#101521"/>
<path d="M4.44446 63.3333H75.5556V66.6666H4.44446V63.3333Z" fill="#101521"/>
</svg>
