<svg width="318" height="235" viewBox="0 0 318 235" fill="none" xmlns="http://www.w3.org/2000/svg">
<path d="M180.871 15.4739H126.575V93.7235H180.871V15.4739Z" fill="url(#paint0_linear_356_3693)"/>
<path opacity="0.4" d="M180.871 15.4739H126.575V93.7235H180.871V15.4739Z" fill="white"/>
<path d="M173.118 26.6523H134.336V82.5449H173.118V26.6523Z" fill="white"/>
<path d="M83.3382 62.3198H45.6666V116.615H83.3382V62.3198Z" fill="url(#paint1_linear_356_3693)"/>
<path opacity="0.4" d="M83.3382 62.3198H45.6666V116.615H83.3382V62.3198Z" fill="white"/>
<path d="M77.9565 70.0728H51.0482V108.854H77.9565V70.0728Z" fill="white"/>
<path d="M266.187 62.3198H228.515V116.615H266.187V62.3198Z" fill="url(#paint2_linear_356_3693)"/>
<path opacity="0.4" d="M266.187 62.3198H228.515V116.615H266.187V62.3198Z" fill="white"/>
<path d="M260.805 70.0728H233.897V108.854H260.805V70.0728Z" fill="white"/>
<path d="M224.228 170.943C222.631 174.936 220.938 171.742 221.201 154.926C221.329 147.053 221.88 130.972 230.591 134.509C238.951 137.911 227.932 161.697 227.932 161.697L224.228 170.943ZM236.205 173.339C236.205 173.339 254.354 154.423 247.543 148.49C240.46 142.31 234.711 157.345 232.037 164.755C226.336 180.557 226.863 184.142 229.697 180.876L236.205 173.339ZM240.029 190.314C240.029 190.314 256.645 178.481 252.302 172.955C247.782 167.207 241.211 177.874 238.089 183.144C231.438 194.402 231.326 197.221 233.961 195.121L240.029 190.314ZM244.525 207.242C244.525 207.242 261.149 195.408 256.805 189.883C252.278 184.134 245.706 194.794 242.592 200.071C235.941 211.322 235.821 214.148 238.464 212.048L244.525 207.242ZM215.508 173.211C215.508 173.211 192.249 161.106 188.472 169.306C184.536 177.842 200.577 179.136 208.434 179.615C225.202 180.653 228.499 179.136 224.571 177.331L215.508 173.211ZM218.782 186.529C218.782 186.529 193.582 179.295 191.506 188.086C189.351 197.229 205.328 195.273 213.129 194.219C229.769 191.903 232.691 189.763 228.483 188.773L218.782 186.529ZM224.547 201.061C224.547 201.061 203.076 195.52 201.519 203.002C199.922 210.787 213.376 208.791 219.948 207.689C233.961 205.341 236.388 203.465 232.811 202.73L224.547 201.061ZM227.909 213.038C227.909 213.038 207.148 205.245 204.809 212.519C202.374 220.097 215.987 219.538 222.631 219.139C236.819 218.292 239.398 216.687 235.941 215.57L227.909 213.038ZM213.991 152.251C213.991 152.251 204.513 122.788 193.75 128.146C182.572 133.735 195.491 146.997 201.966 153.361C215.772 166.935 220.044 167.877 218.231 163.142L213.991 152.251Z" fill="white"/>
<path d="M198.253 138.677C198.253 138.677 222.064 167.725 227.757 182.265C234.304 198.977 238.76 217.797 239.646 233.367" stroke="#B7B7B7" stroke-width="1.25197" stroke-linecap="round" stroke-linejoin="round"/>
<path d="M223.014 172.772L226.328 145.073" stroke="#B7B7B7" stroke-width="1.25197" stroke-linecap="round" stroke-linejoin="round"/>
<path d="M227.757 182.258L239.734 158.974" stroke="#B7B7B7" stroke-width="1.25197" stroke-linecap="round" stroke-linejoin="round"/>
<path d="M226.008 178.808L200.92 173.698" stroke="#B7B7B7" stroke-width="1.25197" stroke-linecap="round" stroke-linejoin="round"/>
<path d="M232.468 195.472L247.215 178.673" stroke="#B7B7B7" stroke-width="1.25197" stroke-linecap="round" stroke-linejoin="round"/>
<path d="M230.408 189.939L211.476 189.771" stroke="#B7B7B7" stroke-width="1.25197" stroke-linecap="round" stroke-linejoin="round"/>
<path d="M234.057 203.688L219.533 204.255" stroke="#B7B7B7" stroke-width="1.25197" stroke-linecap="round" stroke-linejoin="round"/>
<path d="M237.035 212.456L244.812 202.092" stroke="#B7B7B7" stroke-width="1.25197" stroke-linecap="round" stroke-linejoin="round"/>
<path d="M237.61 216.312L220.618 215.466" stroke="#B7B7B7" stroke-width="1.25197" stroke-linecap="round" stroke-linejoin="round"/>
<path d="M284.927 193.883C281.997 194.985 282.891 192.518 291.954 184.405C296.201 180.597 305.032 172.987 307.428 179.359C309.735 185.483 291.666 191.336 291.666 191.336L284.927 193.883ZM289.534 201.413C289.534 201.413 308.522 201.772 308.33 195.233C308.13 188.43 297.311 192.757 292.057 194.977C280.879 199.712 279.194 201.756 282.324 201.66L289.534 201.413ZM282.388 211.793C282.388 211.793 296.848 214.819 297.655 209.789C298.453 204.559 289.582 206.307 285.246 207.242C275.992 209.23 274.435 210.555 276.839 210.938L282.388 211.793ZM275.625 222.516C275.625 222.516 290.093 225.542 290.892 220.512C291.73 215.282 282.827 217.023 278.483 217.957C269.237 219.945 267.64 221.271 270.036 221.654L275.625 222.516ZM279.465 190.354C279.465 190.354 274.467 172.029 268.287 174.049C261.811 176.149 269.014 185.324 272.623 189.739C280.312 199.169 282.739 200.175 281.765 197.197L279.465 190.354ZM273.988 198.642C273.988 198.642 265.452 181.683 259.759 184.893C253.827 188.246 262.706 195.8 267.113 199.409C276.527 207.122 279.09 207.625 277.565 204.902L273.988 198.642ZM269.093 208.846C269.093 208.846 261.484 194.706 256.741 197.556C251.807 200.526 259.488 206.707 263.305 209.661C271.441 215.961 273.629 216.328 272.263 214.06L269.093 208.846ZM264.367 216.536C264.367 216.536 258.298 201.66 253.284 203.992C248.062 206.387 255.04 213.382 258.522 216.727C265.947 223.858 268.103 224.456 266.97 222.053L264.367 216.536ZM289.846 179.271C289.846 179.271 300.856 159.749 292.72 156.659C284.256 153.465 283.546 166.855 283.346 173.427C282.915 187.448 284.512 190.194 286.141 186.889L289.846 179.271Z" fill="white"/>
<path d="M289.318 164.228C289.318 164.228 285.574 191.168 280.639 201.349C274.97 213.038 266.41 225.486 258.554 233.615" stroke="#B7B7B7" stroke-width="1.25197" stroke-linecap="round" stroke-linejoin="round"/>
<path d="M283.354 194.139L299.715 182.29" stroke="#B7B7B7" stroke-width="1.25197" stroke-linecap="round" stroke-linejoin="round"/>
<path d="M280.639 201.325L298.908 196.247" stroke="#B7B7B7" stroke-width="1.25197" stroke-linecap="round" stroke-linejoin="round"/>
<path d="M281.613 198.698L272 182.84" stroke="#B7B7B7" stroke-width="1.25197" stroke-linecap="round" stroke-linejoin="round"/>
<path d="M275.928 210.324L292.113 209.908" stroke="#B7B7B7" stroke-width="1.25197" stroke-linecap="round" stroke-linejoin="round"/>
<path d="M277.86 206.507L268.638 196.351" stroke="#B7B7B7" stroke-width="1.25197" stroke-linecap="round" stroke-linejoin="round"/>
<path d="M272.335 215.202L264.893 207.76" stroke="#B7B7B7" stroke-width="1.25197" stroke-linecap="round" stroke-linejoin="round"/>
<path d="M269.133 221.103L278.475 220.145" stroke="#B7B7B7" stroke-width="1.25197" stroke-linecap="round" stroke-linejoin="round"/>
<path d="M267.361 223.299L259.464 213.853" stroke="#B7B7B7" stroke-width="1.25197" stroke-linecap="round" stroke-linejoin="round"/>
<path d="M40.2451 170.943C38.6482 174.936 36.9555 171.742 37.219 154.926C37.3467 147.053 37.8976 130.972 46.6089 134.509C54.9768 137.911 43.95 161.697 43.95 161.697L40.2451 170.943ZM52.2221 173.339C52.2221 173.339 70.3712 154.423 63.5683 148.49C56.4779 142.31 50.729 157.345 48.0541 164.755C42.3531 180.557 42.8801 184.142 45.7146 180.876L52.2221 173.339ZM56.0468 190.298C56.0468 190.298 72.6708 178.465 68.3192 172.939C63.7999 167.19 57.2285 177.858 54.1065 183.128C47.4553 194.386 47.3435 197.205 49.9864 195.105L56.0468 190.298ZM60.5501 207.226C60.5501 207.226 77.1502 195.368 72.8146 189.867C68.2873 184.118 61.7159 194.777 58.6019 200.055C51.9506 211.306 51.8309 214.132 54.4738 212.032L60.5501 207.226ZM31.5099 173.195C31.5099 173.195 8.2586 161.09 4.47387 169.29C0.537439 177.826 16.5786 179.12 24.4355 179.599C41.2033 180.637 44.493 179.12 40.5645 177.315L31.5099 173.195ZM34.7836 186.513C34.7836 186.513 9.59204 179.279 7.50804 188.07C5.35219 197.213 21.3295 195.257 29.1305 194.203C45.7705 191.887 48.7009 189.747 44.493 188.757L34.7836 186.513ZM40.5486 201.045C40.5486 201.045 19.0778 195.504 17.5208 202.986C15.9239 210.771 29.378 208.775 35.9494 207.673C49.9625 205.325 52.3898 203.449 48.8127 202.714L40.5486 201.045ZM43.9101 213.022C43.9101 213.022 23.15 205.229 20.8105 212.503C18.3752 220.081 31.989 219.522 38.6322 219.123C52.821 218.276 55.4 216.671 51.9506 215.554L43.9101 213.022ZM30.0088 152.251C30.0088 152.251 20.531 122.82 9.73576 128.177C-1.44276 133.767 11.4764 147.029 17.952 153.393C31.7654 166.967 36.0372 167.909 34.2167 163.174L30.0088 152.251Z" fill="white"/>
<path d="M14.271 138.677C14.271 138.677 38.0812 167.725 43.7743 182.265C50.3217 198.977 54.7772 217.797 55.6635 233.367" stroke="#B7B7B7" stroke-width="1.25197" stroke-linecap="round" stroke-linejoin="round"/>
<path d="M39.0394 172.772L42.3451 145.073" stroke="#B7B7B7" stroke-width="1.25197" stroke-linecap="round" stroke-linejoin="round"/>
<path d="M43.7743 182.258L55.7513 158.974" stroke="#B7B7B7" stroke-width="1.25197" stroke-linecap="round" stroke-linejoin="round"/>
<path d="M42.0256 178.808L16.9458 173.698" stroke="#B7B7B7" stroke-width="1.25197" stroke-linecap="round" stroke-linejoin="round"/>
<path d="M48.4852 195.472L63.2329 178.673" stroke="#B7B7B7" stroke-width="1.25197" stroke-linecap="round" stroke-linejoin="round"/>
<path d="M46.4252 189.939L27.4935 189.771" stroke="#B7B7B7" stroke-width="1.25197" stroke-linecap="round" stroke-linejoin="round"/>
<path d="M50.0741 203.688L35.55 204.255" stroke="#B7B7B7" stroke-width="1.25197" stroke-linecap="round" stroke-linejoin="round"/>
<path d="M53.0604 212.456L60.8375 202.092" stroke="#B7B7B7" stroke-width="1.25197" stroke-linecap="round" stroke-linejoin="round"/>
<path d="M53.6273 216.312L36.636 215.466" stroke="#B7B7B7" stroke-width="1.25197" stroke-linecap="round" stroke-linejoin="round"/>
<path d="M100.944 193.883C98.0141 194.985 98.9084 192.518 107.971 184.405C112.227 180.597 121.05 172.987 123.445 179.359C125.753 185.483 107.684 191.336 107.684 191.336L100.944 193.883ZM105.552 201.413C105.552 201.413 124.539 201.772 124.347 195.233C124.148 188.43 113.329 192.757 108.075 194.977C96.8962 199.712 95.2115 201.756 98.3415 201.66L105.552 201.413ZM98.4053 211.793C98.4053 211.793 112.866 214.819 113.672 209.789C114.47 204.559 105.6 206.307 101.264 207.242C91.9777 209.23 90.4526 210.539 92.856 210.938L98.4053 211.793ZM91.6104 222.516C91.6104 222.516 106.079 225.542 106.877 220.512C107.715 215.282 98.8126 217.023 94.4769 217.957C85.2147 219.953 83.6577 221.279 86.0691 221.662L91.6104 222.516ZM95.451 190.354C95.451 190.354 90.4606 172.029 84.2725 174.049C77.7969 176.149 84.9911 185.324 88.6002 189.739C96.2894 199.169 98.7167 200.175 97.7426 197.197L95.451 190.354ZM89.9735 198.642C89.9735 198.642 81.4379 181.683 75.7449 184.893C69.8123 188.246 78.6912 195.8 83.1067 199.409C92.5206 207.122 95.0837 207.625 93.5507 204.902L89.9735 198.642ZM85.0789 208.846C85.0789 208.846 77.4696 194.706 72.7267 197.556C67.7922 200.526 75.4734 206.707 79.2901 209.661C87.4264 215.961 89.6222 216.328 88.2489 214.06L85.0789 208.846ZM80.352 216.536C80.352 216.536 74.2917 201.66 69.2693 203.992C64.0474 206.387 71.0339 213.382 74.5073 216.727C81.933 223.858 84.0889 224.456 82.955 222.053L80.352 216.536ZM105.831 179.271C105.831 179.271 116.85 159.749 108.714 156.659C100.242 153.465 99.5392 166.855 99.3316 173.427C98.9084 187.448 100.497 190.194 102.126 186.889L105.831 179.271Z" fill="white"/>
<path d="M105.336 164.228C105.336 164.228 101.591 191.168 96.6567 201.349C90.9876 213.038 82.4281 225.486 74.5712 233.615" stroke="#B7B7B7" stroke-width="1.25197" stroke-linecap="round" stroke-linejoin="round"/>
<path d="M99.3715 194.139L115.732 182.29" stroke="#B7B7B7" stroke-width="1.25197" stroke-linecap="round" stroke-linejoin="round"/>
<path d="M96.6567 201.325L114.926 196.247" stroke="#B7B7B7" stroke-width="1.25197" stroke-linecap="round" stroke-linejoin="round"/>
<path d="M97.6309 198.698L88.0173 182.84" stroke="#B7B7B7" stroke-width="1.25197" stroke-linecap="round" stroke-linejoin="round"/>
<path d="M91.9458 210.324L108.131 209.908" stroke="#B7B7B7" stroke-width="1.25197" stroke-linecap="round" stroke-linejoin="round"/>
<path d="M93.878 206.507L84.6558 196.351" stroke="#B7B7B7" stroke-width="1.25197" stroke-linecap="round" stroke-linejoin="round"/>
<path d="M88.3526 215.202L80.9109 207.76" stroke="#B7B7B7" stroke-width="1.25197" stroke-linecap="round" stroke-linejoin="round"/>
<path d="M85.1508 221.103L94.4928 220.145" stroke="#B7B7B7" stroke-width="1.25197" stroke-linecap="round" stroke-linejoin="round"/>
<path d="M83.3861 223.299L75.4813 213.853" stroke="#B7B7B7" stroke-width="1.25197" stroke-linecap="round" stroke-linejoin="round"/>
<path d="M146.649 68.9711C146.649 68.9711 136.428 65.7134 128.611 73.7619C120.794 81.8104 124.914 97.8835 124.914 103.529C124.914 109.174 117.728 145.049 117.728 145.049C117.728 145.049 114.247 158.088 123.813 166.352C133.378 174.616 151.056 173.897 158.602 157.992C166.147 142.087 158.147 119.41 158.147 107.689C158.147 95.9672 159.887 88.1343 157.276 79.6625C156.484 77.1633 155.106 74.8893 153.257 73.0297C151.409 71.1702 149.143 69.7787 146.649 68.9711Z" fill="black" stroke="black" stroke-linecap="round" stroke-linejoin="round"/>
<path d="M143.614 75.0637C143.614 75.0637 133.761 87.3122 127.11 90.7695" stroke="white" stroke-linecap="round" stroke-linejoin="round"/>
<path d="M135.095 74.0017C135.095 74.0017 130.04 86.2422 125.513 89.7075" stroke="white" stroke-linecap="round" stroke-linejoin="round"/>
<path d="M163.448 116.105C164.392 116.766 165.185 117.621 165.774 118.612C166.364 119.603 166.736 120.708 166.866 121.854C167.449 125.926 163.105 135.34 162.235 139.995C161.412 145.646 160.882 151.336 160.646 157.042C160.646 158.495 165.596 180.022 166.467 185.26C167.337 190.498 166.027 202.826 165.301 203.728C164.574 204.631 162.538 200.383 162.394 197.62C162.251 194.857 156.869 173.618 154.833 167.222C152.797 160.827 153.372 152.387 153.372 152.387C153.372 152.387 156.142 133.04 156.142 125.622C156.142 118.205 156.366 112.655 156.366 112.655L163.448 116.105Z" fill="url(#paint3_linear_356_3693)" stroke="black" stroke-linecap="round" stroke-linejoin="round"/>
<path d="M165.285 203.696C166.011 202.826 167.321 190.458 166.451 185.228C165.58 179.998 160.646 158.463 160.646 157.042C160.886 151.347 161.419 145.667 162.243 140.027C162.562 138.534 162.973 137.062 163.472 135.619C161.761 136.443 159.886 136.869 157.987 136.865C156.973 136.865 155.983 137.799 155.032 139.388C154.234 146.143 153.364 152.387 153.364 152.387C153.364 152.387 152.789 160.819 154.825 167.222C156.861 173.626 162.243 194.857 162.386 197.62C162.53 200.383 164.558 204.567 165.285 203.696Z" fill="white" stroke="black" stroke-linecap="round" stroke-linejoin="round"/>
<path d="M136.085 234.238C136.404 230.66 137.075 223.378 137.506 220.568C138.089 216.791 139.247 209.078 139.247 209.078L142.193 234.238H162.378C163.105 228.752 164.934 214.044 165.285 203.696C165.724 190.753 155.975 163.989 155.703 161.953C155.432 159.916 155.991 153.968 155.991 152.211C155.991 150.455 161.069 139.308 161.5 133.631C161.931 127.954 163.249 126.213 163.249 126.213L163.975 116.632C163.536 116.488 157.013 111.354 150.465 109.445C146.483 108.315 142.279 108.216 138.249 109.158C138.249 109.158 128.795 113.374 123.996 115.41C119.197 117.446 115.253 121.374 115.133 126.461C115.013 131.547 124.435 153.225 125.314 154.83C126.192 156.435 123.421 162.096 122.256 165.011C121.09 167.925 116.291 178.393 113.097 190.027C110.358 199.959 112.187 226.652 112.786 234.238H136.085Z" fill="url(#paint4_linear_356_3693)" stroke="black" stroke-linecap="round" stroke-linejoin="round"/>
<path d="M140.62 150.814C140.62 150.814 148.078 151.708 155.544 144.546" stroke="black" stroke-linecap="round" stroke-linejoin="round"/>
<path d="M145.794 129.958C147.974 129.375 150.745 120.376 151.032 115.705C151.192 113.094 151.352 111.146 151.28 109.709C151.008 109.621 150.729 109.525 150.481 109.445C146.499 108.315 142.295 108.216 138.265 109.158L134.416 110.867C134.095 112.935 134.318 115.051 135.063 117.007C136.636 121.374 143.614 130.541 145.794 129.958Z" fill="white" stroke="black" stroke-linecap="round" stroke-linejoin="round"/>
<path d="M136.053 104.695C136.053 104.695 136.788 113.262 137.227 115.362C137.666 117.462 142.081 125.742 144.581 125.287C147.08 124.832 148.669 114.013 148.669 112.959C148.669 111.905 148.964 103.377 148.964 103.377C148.964 103.377 143.702 107.697 136.053 104.695Z" fill="white" stroke="black" stroke-linecap="round" stroke-linejoin="round"/>
<path d="M121.649 116.864C121.649 116.864 115.692 117.159 112.347 123.85C109.001 130.541 112.922 135.029 114.231 137.664C115.541 140.299 119.182 151.046 120.339 154.248C121.497 157.45 123.837 161.226 127.909 166.464C131.981 171.702 140.556 182.897 140.556 182.897L142.888 186.969C142.888 186.969 146.816 191.48 147.248 191.624C147.679 191.768 150.306 195.113 151.32 193.077C152.334 191.041 151.32 183.775 151.32 183.775C151.32 183.775 152.917 186.969 153.508 186.242C154.098 185.516 153.356 183.919 152.781 182.17C152.206 180.421 146.824 177.084 145.651 176.932C144.477 176.78 143.032 175.335 141.291 171.846C139.55 168.357 138.233 162.264 135.47 158.607C132.708 154.95 129.082 149.593 129.082 149.593C129.082 149.593 125.01 135.045 125.01 134.462C125.308 131.745 124.909 128.997 123.853 126.477" fill="url(#paint5_linear_356_3693)"/>
<path d="M121.649 116.864C121.649 116.864 115.692 117.159 112.347 123.85C109.001 130.541 112.922 135.029 114.231 137.664C115.541 140.299 119.182 151.046 120.339 154.248C121.497 157.45 123.837 161.226 127.909 166.464C131.981 171.702 140.556 182.897 140.556 182.897L142.888 186.969C142.888 186.969 146.816 191.48 147.248 191.624C147.679 191.768 150.306 195.113 151.32 193.077C152.334 191.041 151.32 183.775 151.32 183.775C151.32 183.775 152.917 186.969 153.508 186.242C154.098 185.516 153.356 183.919 152.781 182.17C152.206 180.421 146.824 177.084 145.651 176.932C144.477 176.78 143.032 175.335 141.291 171.846C139.55 168.357 138.233 162.264 135.47 158.607C132.708 154.95 129.082 149.593 129.082 149.593C129.082 149.593 125.01 135.045 125.01 134.462C125.308 131.745 124.909 128.997 123.853 126.477" stroke="black" stroke-linecap="round" stroke-linejoin="round"/>
<path d="M145.65 176.932C144.485 176.788 143.031 175.335 141.291 171.846C139.55 168.356 138.233 162.264 135.47 158.607C132.707 154.95 129.082 149.592 129.082 149.592C129.082 149.592 126.328 139.739 125.353 135.931C120.004 135.18 116.475 136.258 114.231 137.631C115.54 140.25 119.181 151.014 120.339 154.216C121.497 157.417 123.836 161.194 127.909 166.432C131.981 171.67 140.556 182.865 140.556 182.865L142.888 186.937C142.888 186.937 146.816 191.448 147.247 191.592C147.679 191.735 150.306 195.081 151.32 193.045C152.334 191.009 151.32 183.743 151.32 183.743C151.32 183.743 152.917 186.937 153.507 186.21C154.098 185.484 153.356 183.887 152.781 182.138C152.206 180.389 146.824 177.084 145.65 176.932Z" fill="white" stroke="black" stroke-linecap="round" stroke-linejoin="round"/>
<path d="M136.085 234.238C136.404 230.661 137.075 223.379 137.506 220.568C138.089 216.791 139.247 209.078 139.247 209.078L142.193 234.238H162.378C163.105 228.752 164.933 214.045 165.285 203.697C165.468 198.307 163.88 190.514 161.947 183.112C144.884 186.849 125.537 184.142 115.493 182.194C114.646 184.693 113.816 187.32 113.097 190.027C110.358 199.96 112.187 226.652 112.786 234.238H136.085Z" fill="black" stroke="black" stroke-linecap="round" stroke-linejoin="round"/>
<path d="M130.999 91.9352C130.999 91.9352 129.697 91.3523 129.697 93.9633C129.697 96.5743 132.596 98.3069 132.596 98.3069L130.999 91.9352Z" fill="white" stroke="black" stroke-linecap="round" stroke-linejoin="round"/>
<path d="M145.938 77.5947C145.938 77.5947 141.291 84.1421 137.211 86.7611C135.106 88.1452 132.922 89.4062 130.671 90.5379C130.671 90.5379 132.707 98.9776 133.578 101.716C134.448 104.455 137.059 109.294 142.297 109.581C147.535 109.869 149.866 104.335 150.888 101.716C151.47 100.363 151.782 98.9094 151.807 97.4366C152.542 96.9721 153.169 96.3554 153.645 95.6282C154.122 94.9009 154.437 94.08 154.569 93.2207C154.857 90.458 154.13 90.6017 154.13 90.6017C154.13 90.6017 153.332 91.504 151.599 90.1466C150.194 89.1006 145.475 81.5232 145.938 77.5947Z" fill="white" stroke="black" stroke-linecap="round" stroke-linejoin="round"/>
<path d="M134.847 94.131C134.847 94.131 136.899 92.6299 139.902 94.131" stroke="black" stroke-linecap="round" stroke-linejoin="round"/>
<path d="M144.133 94.4024C144.133 94.4024 146.593 92.2146 149.188 93.9951" stroke="black" stroke-linecap="round" stroke-linejoin="round"/>
<path d="M134.44 90.8493C134.44 90.8493 135.534 88.8053 139.231 89.7634" stroke="black" stroke-linecap="round" stroke-linejoin="round"/>
<path d="M144.133 89.8991C144.97 89.2889 146.001 89.0071 147.031 89.1072C148.062 89.2073 149.019 89.6823 149.723 90.442" stroke="black" stroke-linecap="round" stroke-linejoin="round"/>
<path d="M143.726 98.9055C143.726 98.9055 141.538 100.407 140.588 98.9055" stroke="black" stroke-linecap="round" stroke-linejoin="round"/>
<path d="M139.766 102.052C139.766 102.052 142.497 103.137 143.862 101.916" stroke="black" stroke-linecap="round" stroke-linejoin="round"/>
<path d="M93.6146 180.541C93.6146 180.541 100.002 194.721 101.527 197.58C103.052 200.438 104.825 208.575 105.041 213.405C105.256 218.236 105.041 219.234 103.947 219.122C102.853 219.011 102.406 212.966 102.406 211.976V210.443C102.406 210.443 101.855 216.152 100.976 217.254C100.098 218.356 98.8845 219.562 98.7806 218.907C98.6768 218.252 98.9962 217.142 99.4354 215.497C99.7007 214.233 99.776 212.936 99.659 211.649C99.659 211.649 98.9962 214.723 97.4632 215.825C95.9301 216.927 94.2693 217.366 94.8203 216.488C95.3712 215.609 96.8004 214.619 97.1278 213.517C97.3542 212.508 97.4667 211.477 97.4632 210.443C97.4632 210.443 95.3712 213.845 94.4929 214.396C93.6146 214.946 93.6146 213.741 94.1655 213.19C94.7165 212.639 95.9221 208.902 95.9221 208.902C95.9221 208.902 95.5868 208.679 94.0537 205.277C92.5207 201.876 91.6583 195.927 91.1952 193.619C90.7321 191.312 89.8778 188.238 89.8778 188.238L81.414 174.057C81.414 174.057 80.7513 170.648 83.9372 170.065C87.123 169.482 93.6146 180.541 93.6146 180.541Z" fill="white"/>
<path opacity="0.15" d="M93.6146 180.541C93.6146 180.541 100.002 194.721 101.527 197.58C103.052 200.438 104.825 208.575 105.041 213.405C105.256 218.236 105.041 219.234 103.947 219.122C102.853 219.011 102.406 212.966 102.406 211.976V210.443C102.406 210.443 101.855 216.152 100.976 217.254C100.098 218.356 98.8845 219.562 98.7806 218.907C98.6768 218.252 98.9962 217.142 99.4354 215.497C99.7007 214.233 99.776 212.936 99.659 211.649C99.659 211.649 98.9962 214.723 97.4632 215.825C95.9301 216.927 94.2693 217.366 94.8203 216.488C95.3712 215.609 96.8004 214.619 97.1278 213.517C97.3542 212.508 97.4667 211.477 97.4632 210.443C97.4632 210.443 95.3712 213.845 94.4929 214.396C93.6146 214.946 93.6146 213.741 94.1655 213.19C94.7165 212.639 95.9221 208.902 95.9221 208.902C95.9221 208.902 95.5868 208.679 94.0537 205.277C92.5207 201.876 91.6583 195.927 91.1952 193.619C90.7321 191.312 89.8778 188.238 89.8778 188.238L81.414 174.057C81.414 174.057 80.7513 170.648 83.9372 170.065C87.123 169.482 93.6146 180.541 93.6146 180.541Z" fill="black"/>
<path d="M93.6146 180.541C93.6146 180.541 100.002 194.721 101.527 197.58C103.052 200.438 104.825 208.575 105.041 213.405C105.256 218.236 105.041 219.234 103.947 219.122C102.853 219.011 102.406 212.966 102.406 211.976V210.443C102.406 210.443 101.855 216.152 100.976 217.254C100.098 218.356 98.8845 219.562 98.7806 218.907C98.6768 218.252 98.9962 217.142 99.4354 215.497C99.7007 214.233 99.776 212.936 99.659 211.649C99.659 211.649 98.9962 214.723 97.4632 215.825C95.9301 216.927 94.2693 217.366 94.8203 216.488C95.3712 215.609 96.8004 214.619 97.1278 213.517C97.3542 212.508 97.4667 211.477 97.4632 210.443C97.4632 210.443 95.3712 213.845 94.4929 214.396C93.6146 214.946 93.6146 213.741 94.1655 213.19C94.7165 212.639 95.9221 208.902 95.9221 208.902C95.9221 208.902 95.5868 208.679 94.0537 205.277C92.5207 201.876 91.6583 195.927 91.1952 193.619C90.7321 191.312 89.8778 188.238 89.8778 188.238L81.414 174.057C81.414 174.057 80.7513 170.648 83.9372 170.065C87.123 169.482 93.6146 180.541 93.6146 180.541Z" stroke="black" stroke-linecap="round" stroke-linejoin="round"/>
<path d="M101.559 201.756C101.559 201.756 102.661 207.146 102.549 209.557C102.438 211.969 102.989 213.19 102.214 213.19C101.44 213.19 101.232 212.639 100.457 210.22C99.9475 208.426 99.6159 206.586 99.4673 204.726C99.4673 204.726 96.7206 204.726 95.7305 200.654" fill="white"/>
<path opacity="0.15" d="M101.559 201.756C101.559 201.756 102.661 207.146 102.549 209.557C102.438 211.969 102.989 213.19 102.214 213.19C101.44 213.19 101.232 212.639 100.457 210.22C99.9475 208.426 99.6159 206.586 99.4673 204.726C99.4673 204.726 96.7206 204.726 95.7305 200.654" fill="black"/>
<path d="M101.559 201.756C101.559 201.756 102.661 207.146 102.549 209.557C102.438 211.969 102.989 213.19 102.214 213.19C101.44 213.19 101.232 212.639 100.457 210.22C99.9475 208.426 99.6159 206.586 99.4673 204.726C99.4673 204.726 96.7206 204.726 95.7305 200.654" stroke="black" stroke-linecap="round" stroke-linejoin="round"/>
<path d="M52.4935 234.238H92.9597C93.1594 226.668 94.4848 177.227 94.884 175.016C95.3232 172.62 97.495 150.024 97.7106 141.121C97.9262 132.218 94.0137 119.386 94.0137 118.516C94.0137 117.646 93.367 112.216 87.2826 107.649C81.1983 103.082 76.4155 103.09 75.114 103.736C75.114 103.736 70.3232 107.002 62.7218 115.043C55.1205 123.083 52.5095 129.599 52.5095 141.983C52.5153 149.478 53.1698 156.958 54.4657 164.34C54.4657 164.34 52.0703 203.018 52.0703 203.888C52.0703 204.758 52.4216 229.072 52.4935 234.238Z" fill="white" stroke="black" stroke-linecap="round" stroke-linejoin="round"/>
<path d="M70.8582 146.806C71.7172 146.804 72.5755 146.756 73.4293 146.662C82.7394 145.648 90.8358 136.13 96.1776 127.906C95.93 126.716 95.6825 125.575 95.435 124.529C90.3967 132.745 82.2523 143.293 73.1738 144.283C60.5341 145.656 54.8091 135.699 53.2121 132.481C52.9886 133.711 52.8209 135.004 52.7091 136.37C55.5357 140.65 61.2447 146.806 70.8582 146.806Z" fill="black"/>
<path d="M67.8241 127.594L70.1396 128.209C72.5264 119.519 77.2162 111.634 83.7136 105.389C82.94 104.981 82.1397 104.627 81.3182 104.327C74.8537 110.762 70.1994 118.788 67.8241 127.594Z" fill="black"/>
<path d="M70.0997 139.053C70.6427 138.773 81.9569 132.88 93.902 117.494C93.7166 116.529 93.4219 115.589 93.0237 114.691C80.9988 130.661 69.1415 136.841 69.0138 136.905L70.0997 139.053Z" fill="black"/>
<path d="M58.2903 130.389L60.6857 130.03C60.6857 129.966 59.991 124.305 65.5643 112.152C64.67 113.039 63.7358 113.997 62.7457 115.043C62.107 115.713 61.5161 116.376 60.9492 117.039C57.6835 125.902 58.2584 130.15 58.2903 130.389Z" fill="black"/>
<path d="M78.0445 165.881C64.279 167.67 57.2844 164.779 54.1544 162.559C54.3381 163.725 54.4658 164.372 54.4658 164.372C54.4658 164.372 54.4658 164.795 54.394 165.562C57.4601 167.246 62.3786 168.843 69.9081 168.843C72.7337 168.831 75.5555 168.636 78.3559 168.26C84.7012 167.444 90.8006 165.289 96.2495 161.937C96.3454 160.931 96.4332 159.9 96.521 158.854C90.9975 162.611 84.6687 165.018 78.0445 165.881Z" fill="black"/>
<path d="M77.3338 180.621C83.6616 179.011 89.686 176.385 95.1715 172.844C95.2673 171.981 95.3791 170.927 95.5069 169.722C89.8086 173.655 83.4625 176.555 76.7589 178.289C67.4887 180.565 58.49 178.026 53.7391 176.197C53.6912 176.996 53.6353 177.858 53.5874 178.72C58.5116 180.571 63.7215 181.547 68.9818 181.603C71.795 181.609 74.5988 181.279 77.3338 180.621Z" fill="black"/>
<path d="M52.5175 196.271C52.4616 197.133 52.4137 197.947 52.3738 198.666C58.5468 200.148 64.8694 200.916 71.2176 200.957C79.0233 201.042 86.7736 199.639 94.0537 196.821C94.0537 195.943 94.1096 195.065 94.1335 194.21C78.1003 200.957 60.9493 198.323 52.5175 196.271Z" fill="black"/>
<path d="M79.0824 188.366C70.4895 190.449 61.4936 190.173 53.0444 187.568C52.9965 188.406 52.9406 189.236 52.8927 190.059C57.5495 191.483 62.3956 192.191 67.2651 192.159C71.4336 192.154 75.5881 191.677 79.6493 190.738C84.7951 189.545 89.7654 187.693 94.4369 185.228C94.4369 184.238 94.5087 183.296 94.5407 182.417C89.6936 185.118 84.4894 187.121 79.0824 188.366Z" fill="black"/>
<path d="M72.3753 154.647C62.5542 155.142 56.2064 151.517 52.6852 148.53C52.7411 149.632 52.8129 150.702 52.8928 151.724C58.0638 155.343 64.2525 157.223 70.5628 157.09C71.1936 157.09 71.8404 157.09 72.4951 157.042C82.1326 156.555 90.6602 152.339 97.551 144.866C97.6308 143.468 97.6867 142.191 97.7107 141.129V140.969C92.0815 147.956 83.9132 154.056 72.3753 154.647Z" fill="black"/>
<path d="M88.688 108.815C88.2488 108.424 87.7937 108.016 87.2827 107.649C81.1983 103.09 76.4155 103.09 75.114 103.737C72.5781 105.593 70.1767 107.626 67.9279 109.821C67.6994 110.801 67.6987 111.82 67.9257 112.8C68.1527 113.78 68.6014 114.695 69.2373 115.474C73.3654 120.688 86.8036 140.682 90.3168 136.338C93.8301 131.994 92.9198 120.041 89.0073 109.605C88.9115 109.334 88.7838 109.07 88.688 108.815Z" fill="url(#paint6_linear_356_3693)" stroke="black" stroke-linecap="round" stroke-linejoin="round"/>
<path d="M76.0083 131.771C76.0083 131.771 87.7458 156.762 90.1332 160.675C91.1853 162.534 92.424 164.281 93.8301 165.889C93.8301 165.889 104.21 169.378 113.113 172.644C122.016 175.91 137.49 180.197 140.74 181.1C143.99 182.002 149.427 181.97 150.322 181.97C151.216 181.97 161.62 184.365 162.299 184.797C162.977 185.228 162.083 186.098 160.558 186.537C159.033 186.976 154.042 187.4 151.647 188.27C149.252 189.14 147.303 188.925 143.83 188.054C141.093 187.213 138.466 186.047 136.005 184.581C136.005 184.581 107.492 182.593 100.761 181.794C94.0297 180.996 86.3884 180.054 83.3782 176.58C77.3371 169.761 71.7619 162.542 66.6903 154.974C62.6021 148.794 55.1205 140.114 57.955 132.25" fill="white"/>
<path d="M76.0083 131.771C76.0083 131.771 87.7458 156.762 90.1332 160.675C91.1853 162.534 92.424 164.281 93.8301 165.889C93.8301 165.889 104.21 169.378 113.113 172.644C122.016 175.91 137.49 180.197 140.74 181.1C143.99 182.002 149.427 181.97 150.322 181.97C151.216 181.97 161.62 184.365 162.299 184.797C162.977 185.228 162.083 186.098 160.558 186.537C159.033 186.976 154.042 187.4 151.647 188.27C149.252 189.14 147.303 188.925 143.83 188.054C141.093 187.213 138.466 186.047 136.005 184.581C136.005 184.581 107.492 182.593 100.761 181.794C94.0297 180.996 86.3884 180.054 83.3782 176.58C77.3371 169.761 71.7619 162.542 66.6903 154.974C62.6021 148.794 55.1205 140.114 57.955 132.25" stroke="black" stroke-linecap="round" stroke-linejoin="round"/>
<path d="M150.266 181.97C149.395 181.97 143.966 181.97 140.684 181.1C137.402 180.229 121.928 175.902 113.025 172.644C104.122 169.386 93.7424 165.889 93.7424 165.889C92.3363 164.281 91.0976 162.534 90.0455 160.675C89.0634 159.078 86.4923 153.864 83.8015 148.315C75.1381 150.582 70.7785 154.702 68.6306 157.896C73.168 164.387 78.0705 170.614 83.3144 176.548C86.3566 180.022 93.958 180.892 100.697 181.762C107.436 182.633 135.901 184.589 135.901 184.589C138.362 186.054 140.989 187.221 143.726 188.062C147.2 188.933 149.156 189.148 151.543 188.278C153.931 187.408 158.937 186.976 160.454 186.545C161.971 186.114 162.85 185.236 162.195 184.805C161.54 184.373 151.168 181.97 150.266 181.97Z" fill="white"/>
<path opacity="0.15" d="M150.266 181.97C149.395 181.97 143.966 181.97 140.684 181.1C137.402 180.229 121.928 175.902 113.025 172.644C104.122 169.386 93.7424 165.889 93.7424 165.889C92.3363 164.281 91.0976 162.534 90.0455 160.675C89.0634 159.078 86.4923 153.864 83.8015 148.315C75.1381 150.582 70.7785 154.702 68.6306 157.896C73.168 164.387 78.0705 170.614 83.3144 176.548C86.3566 180.022 93.958 180.892 100.697 181.762C107.436 182.633 135.901 184.589 135.901 184.589C138.362 186.054 140.989 187.221 143.726 188.062C147.2 188.933 149.156 189.148 151.543 188.278C153.931 187.408 158.937 186.976 160.454 186.545C161.971 186.114 162.85 185.236 162.195 184.805C161.54 184.373 151.168 181.97 150.266 181.97Z" fill="black"/>
<path d="M150.266 181.97C149.395 181.97 143.966 181.97 140.684 181.1C137.402 180.229 121.928 175.902 113.025 172.644C104.122 169.386 93.7424 165.889 93.7424 165.889C92.3363 164.281 91.0976 162.534 90.0455 160.675C89.0634 159.078 86.4923 153.864 83.8015 148.315C75.1381 150.582 70.7785 154.702 68.6306 157.896C73.168 164.387 78.0705 170.614 83.3144 176.548C86.3566 180.022 93.958 180.892 100.697 181.762C107.436 182.633 135.901 184.589 135.901 184.589C138.362 186.054 140.989 187.221 143.726 188.062C147.2 188.933 149.156 189.148 151.543 188.278C153.931 187.408 158.937 186.976 160.454 186.545C161.971 186.114 162.85 185.236 162.195 184.805C161.54 184.373 151.168 181.97 150.266 181.97Z" stroke="black" stroke-linecap="round" stroke-linejoin="round"/>
<path d="M92.9598 234.238C93.0556 230.469 93.4389 216.232 93.8461 202.65C88.0898 204.898 82.0535 206.348 75.9046 206.962C63.1291 208.455 55.7673 205.365 52.1263 202.97C52.1263 203.505 52.0784 203.84 52.0784 203.912C52.0784 204.71 52.4217 229.064 52.4936 234.254L92.9598 234.238Z" fill="url(#paint7_linear_356_3693)" stroke="black" stroke-linecap="round" stroke-linejoin="round"/>
<path d="M82.7794 232.425C80.7992 224.912 85.59 215.33 78.6753 210.356" stroke="black" stroke-linecap="round" stroke-linejoin="round"/>
<path d="M82.7793 215.138L91.6742 206.595" stroke="black" stroke-linecap="round" stroke-linejoin="round"/>
<path d="M60.4783 215.194L60.2467 232.425" stroke="black" stroke-linecap="round" stroke-linejoin="round"/>
<path d="M60.558 208.99L60.5181 212.136" stroke="black" stroke-linecap="round" stroke-linejoin="round"/>
<path d="M96.2095 68.6999C99.7437 69.6368 102.867 71.7207 105.088 74.6245C106.595 76.5526 107.617 78.8146 108.067 81.2198C109.129 87.6874 105.488 89.6836 106.661 92.6219C107.835 95.5603 109.009 97.0853 108.067 98.4986C107.125 99.9119 104.194 100.143 103.723 100.263C103.252 100.383 102.31 105.781 100.433 108.136C98.557 110.492 91.9697 107.785 91.9697 107.785C91.9697 107.785 89.2709 112.368 88.4484 113.893C87.626 115.418 89.2469 124.585 88.0891 128.697C86.9314 132.809 84.2166 128.345 79.0425 121.886C73.8685 115.426 71.521 110.132 71.7605 108.368C72 106.603 76.1042 102.491 76.8148 100.966C77.5254 99.4408 77.8688 98.7302 77.5174 97.3249C77.1661 95.9196 73.054 90.1387 73.054 82.7529C73.054 75.3671 78.9227 68.3007 86.6838 67.7098C89.8922 67.4992 93.1131 67.8339 96.2095 68.6999Z" fill="white"/>
<path opacity="0.15" d="M96.2095 68.6999C99.7437 69.6368 102.867 71.7207 105.088 74.6245C106.595 76.5526 107.617 78.8146 108.067 81.2198C109.129 87.6874 105.488 89.6836 106.661 92.6219C107.835 95.5603 109.009 97.0853 108.067 98.4986C107.125 99.9119 104.194 100.143 103.723 100.263C103.252 100.383 102.31 105.781 100.433 108.136C98.557 110.492 91.9697 107.785 91.9697 107.785C91.9697 107.785 89.2709 112.368 88.4484 113.893C87.626 115.418 89.2469 124.585 88.0891 128.697C86.9314 132.809 84.2166 128.345 79.0425 121.886C73.8685 115.426 71.521 110.132 71.7605 108.368C72 106.603 76.1042 102.491 76.8148 100.966C77.5254 99.4408 77.8688 98.7302 77.5174 97.3249C77.1661 95.9196 73.054 90.1387 73.054 82.7529C73.054 75.3671 78.9227 68.3007 86.6838 67.7098C89.8922 67.4992 93.1131 67.8339 96.2095 68.6999Z" fill="black"/>
<path d="M96.2095 68.6999C99.7437 69.6368 102.867 71.7207 105.088 74.6245C106.595 76.5526 107.617 78.8146 108.067 81.2198C109.129 87.6874 105.488 89.6836 106.661 92.6219C107.835 95.5603 109.009 97.0853 108.067 98.4986C107.125 99.9119 104.194 100.143 103.723 100.263C103.252 100.383 102.31 105.781 100.433 108.136C98.557 110.492 91.9697 107.785 91.9697 107.785C91.9697 107.785 89.2709 112.368 88.4484 113.893C87.626 115.418 89.2469 124.585 88.0891 128.697C86.9314 132.809 84.2166 128.345 79.0425 121.886C73.8685 115.426 71.521 110.132 71.7605 108.368C72 106.603 76.1042 102.491 76.8148 100.966C77.5254 99.4408 77.8688 98.7302 77.5174 97.3249C77.1661 95.9196 73.054 90.1387 73.054 82.7529C73.054 75.3671 78.9227 68.3007 86.6838 67.7098C89.8922 67.4992 93.1131 67.8339 96.2095 68.6999Z" stroke="black" stroke-linecap="round" stroke-linejoin="round"/>
<path d="M97.6148 74.0576C100.441 72.6683 102.445 72.7082 103.755 73.0994C101.675 70.989 99.0706 69.4705 96.2095 68.6999C93.113 67.8339 89.8921 67.4992 86.6838 67.7098C78.9227 68.3007 73.054 75.3511 73.054 82.7529C73.054 90.1547 77.1661 95.9116 77.5174 97.3249C77.6433 97.7904 77.6732 98.2767 77.6052 98.7541C83.1945 99.864 85.0229 97.0694 85.0229 97.0694C84.3763 97.1506 83.7198 97.099 83.0938 96.9178C82.4677 96.7366 81.8852 96.4295 81.3819 96.0154C79.7291 94.6021 79.7291 89.1965 81.7333 86.7292C83.7374 84.262 85.7256 87.6714 85.7256 89.6676C85.7256 91.6638 86.6678 93.3086 87.61 93.077C88.5522 92.8455 88.3126 90.6098 88.664 89.1965C89.0153 87.7832 93.1274 85.6753 94.0696 84.5015C95.0118 83.3278 93.5985 82.2658 92.0734 80.5092C90.5483 78.7526 91.8498 76.8762 97.6148 74.0576Z" fill="black" stroke="black" stroke-linecap="round" stroke-linejoin="round"/>
<path d="M84.7915 97.4365C84.7915 97.4365 84.7915 100.734 86.7956 102.842" stroke="black" stroke-linecap="round" stroke-linejoin="round"/>
<path d="M103.092 91.488C102.098 91.0669 101.013 90.9048 99.9384 91.0169" stroke="black" stroke-linecap="round" stroke-linejoin="round"/>
<path d="M104.825 88.6534C104.825 88.6534 103.092 85.6591 99.7787 88.0226" stroke="black" stroke-linecap="round" stroke-linejoin="round"/>
<path d="M100.761 101.892C100.041 101.954 99.3207 101.77 98.7188 101.369C98.1169 100.969 97.6686 100.376 97.4471 99.6882" stroke="black" stroke-linecap="round" stroke-linejoin="round"/>
<path d="M77.9646 135.987L76.4635 132.793C66.81 132.96 61.1569 136.561 57.963 139.979C58.3077 141.115 58.7401 142.223 59.2565 143.293C61.7717 140.027 67.1613 135.755 77.9646 135.987Z" fill="black"/>
<path d="M81.3101 143.005L79.809 139.859C70.8423 140.338 64.8138 143.644 61.1169 146.678C61.6759 147.604 62.2747 148.514 62.8736 149.401C66.283 146.526 72.2156 143.173 81.3101 143.005Z" fill="black"/>
<path d="M185.246 164.34C186.252 167.35 186.923 178.058 186.923 183.751C186.923 188.494 183.889 222.987 182.883 234.238H228.252C228.795 223.259 230.416 190.266 230.416 186.09C230.416 181.068 228.739 160.491 230.919 153.297C233.098 146.103 235.598 127.203 231.717 121.359C227.837 115.514 213.352 112.16 208.969 110.651C204.585 109.142 198.094 108.312 194.916 109.853C194.916 109.853 186.221 114.707 180.863 119.722C175.505 124.736 173.174 132.441 174.172 138.629C175.17 144.818 184.24 161.33 185.246 164.34Z" fill="white" stroke="black" stroke-linecap="round" stroke-linejoin="round"/>
<path d="M224.667 116.089C222.711 115.185 220.71 114.386 218.67 113.693C211.284 132.533 199.665 149.421 184.711 163.054C184.959 163.605 185.143 164.052 185.246 164.356C185.749 166.313 186.075 168.312 186.221 170.328C203.304 155.688 216.51 137.057 224.667 116.089Z" fill="black"/>
<path d="M233.514 137.879C233.906 133.892 233.831 129.872 233.29 125.902C223.972 141.64 207.859 165.642 186.907 184.43C186.851 186.082 186.644 189.308 186.332 193.396C206.725 176.517 222.854 154.695 233.514 137.879Z" fill="black"/>
<path d="M228.252 234.238C228.635 226.421 229.569 207.457 230.072 195.664C207.995 199.888 192.473 195.872 186.308 193.708C185.366 206.14 183.602 226.165 182.883 234.238H228.252Z" fill="black" stroke="black" stroke-linecap="round" stroke-linejoin="round"/>
<path d="M200.633 129.766C206.692 129.766 211.604 125.015 211.604 119.155C211.604 113.294 206.692 108.543 200.633 108.543C194.574 108.543 189.662 113.294 189.662 119.155C189.662 125.015 194.574 129.766 200.633 129.766Z" fill="url(#paint8_linear_356_3693)" stroke="black" stroke-linecap="round" stroke-linejoin="round"/>
<path d="M190.604 105.788C190.604 105.788 192.441 112.312 192.441 116.168C192.441 120.025 196.625 128.888 203.483 124.872C210.342 120.855 206.829 111.657 205.655 108.807C204.822 106.629 204.152 104.392 203.651 102.115C203.651 102.115 201.471 106.108 197.263 106.299C195.031 106.433 192.79 106.261 190.604 105.788Z" fill="white" stroke="black" stroke-linecap="round" stroke-linejoin="round"/>
<path d="M179.29 82.1058C179.29 82.1058 178.132 84.9883 179.577 87.2959C181.023 89.6034 183.003 92.7654 183.003 92.7654L182.715 80.0937C182.715 80.0937 179.865 77.7861 179.29 82.1058Z" fill="black" stroke="black" stroke-linecap="round" stroke-linejoin="round"/>
<path d="M183.003 89.8831C183.003 89.8831 180.695 90.7534 181.845 94.4902C182.995 98.227 184.727 97.0852 184.727 97.0852L183.003 89.8831Z" fill="white" stroke="black" stroke-linecap="round" stroke-linejoin="round"/>
<path d="M180.895 83.3755C180.895 83.3755 182.907 93.7555 184.089 98.9296C185.27 104.104 191.618 108.799 194.964 109.805C198.309 110.811 202.661 107.13 203.667 104.958C204.673 102.786 205.168 97.9315 205.168 97.9315C205.168 97.9315 208.849 96.4224 209.161 92.5738C209.472 88.7252 208.49 87.5594 206.486 87.0564L204.977 86.3857C204.977 86.3857 205.815 80.1976 203.643 76.349C201.471 72.5004 193.774 77.5227 189.758 78.6885C185.742 79.8542 180.392 79.5269 180.895 83.3755Z" fill="white" stroke="black" stroke-linecap="round" stroke-linejoin="round"/>
<path d="M190.604 90.905C190.604 90.905 189.806 96.9255 190.932 97.4285C192.057 97.9315 194.277 96.7578 194.78 96.5901" stroke="black" stroke-linecap="round" stroke-linejoin="round"/>
<path d="M193.782 101.15C193.782 101.15 198.461 101.82 200.305 96.4626" stroke="black" stroke-linecap="round" stroke-linejoin="round"/>
<path d="M184.911 89.5637C185.284 88.9865 185.81 88.5247 186.431 88.2299C187.051 87.9351 187.742 87.8191 188.424 87.8949" stroke="black" stroke-linecap="round" stroke-linejoin="round"/>
<path d="M192.944 87.0566C192.944 87.0566 196.289 85.3798 198.293 87.2242" stroke="black" stroke-linecap="round" stroke-linejoin="round"/>
<path d="M188.027 93.9078C188.483 93.8285 188.725 93.0246 188.566 92.1122C188.408 91.1998 187.909 90.5245 187.453 90.6037C186.997 90.683 186.756 91.4869 186.914 92.3993C187.073 93.3117 187.571 93.9871 188.027 93.9078Z" fill="black"/>
<path d="M195.391 92.4058C195.847 92.3265 196.088 91.5226 195.93 90.6102C195.771 89.6979 195.273 89.0225 194.816 89.1018C194.36 89.1811 194.119 89.985 194.278 90.8974C194.436 91.8098 194.935 92.4851 195.391 92.4058Z" fill="black"/>
<path d="M199.97 78.8564C195.531 80.9402 190.874 82.5255 186.085 83.5833C178.723 85.0845 175.377 83.4157 175.705 79.7347C176.032 76.0538 185.574 68.0212 194.269 68.0212C202.964 68.0212 205.983 72.0136 206.486 76.2215C206.76 79.8413 206.76 83.4767 206.486 87.0966L204.976 89.2684C204.976 89.2684 205.36 87.5757 202.964 86.2183C200.569 84.8609 198.796 82.3697 199.97 78.8564Z" fill="black" stroke="black" stroke-linecap="round" stroke-linejoin="round"/>
<path d="M246.529 90.8176C248.166 92.0711 246.241 97.3091 251.639 101.509C264.063 111.17 271.249 117.71 272.575 132.066C274.028 147.716 265.62 153.801 268.231 159.015C270.842 164.228 274.315 170.313 268.806 174.984C263.296 179.655 254.322 183.679 246.792 172.668C239.263 161.657 235.198 137.32 232.013 123.962C228.827 110.604 223.613 104.264 224.475 98.4669C225.321 92.8776 229.881 88.8853 235.334 87.9191C237.299 87.5758 239.314 87.6568 241.245 88.1568C243.176 88.6567 244.977 89.5639 246.529 90.8176Z" fill="black" stroke="black" stroke-linecap="round" stroke-linejoin="round"/>
<path d="M231.565 146.446L208.346 163.43C208.346 163.43 171.161 176.716 168.974 177.395C166.786 178.073 156.358 179.918 154.17 181.092C151.982 182.265 147.782 190.011 147.104 191.863C146.963 192.122 146.909 192.42 146.951 192.711C146.993 193.003 147.128 193.274 147.337 193.482C147.545 193.691 147.816 193.826 148.108 193.868C148.4 193.91 148.697 193.857 148.956 193.715C149.459 193.204 154.338 188.493 155.855 188.326C157.372 188.158 158.713 187.99 158.713 187.99C158.713 187.99 154.841 191.36 154.673 192.366C154.505 193.372 155.352 193.037 156.358 192.534C157.364 192.031 161.237 190.681 162.746 187.99C164.255 185.3 165.604 183.783 168.127 182.776C170.65 181.77 203.579 174.632 209.472 173.626C215.365 172.62 236.564 159.884 237.578 159.717C238.592 159.549 234.767 146.446 231.565 146.446Z" fill="white" stroke="black" stroke-linecap="round" stroke-linejoin="round"/>
<path d="M227.03 168.165C227.238 168.787 226.615 177.547 226.192 192.773C225.872 204.455 223.102 225.215 221.824 234.238H266.211C266.53 225.087 266.929 204.16 264.358 195.48C261.021 184.222 257.268 181.906 256.022 176.924C254.777 171.941 252.892 144.386 249.762 133.958C246.632 123.53 237.25 117.27 235.789 114.979C234.328 112.687 229.737 99.3369 229.737 99.3369L221.816 106.012C221.816 106.012 227.653 115.394 228.491 118.316C229.33 121.239 222.854 128.114 219.525 135.212C216.195 142.31 215.532 147.932 218.479 152.307C221.425 156.683 226.823 167.534 227.03 168.165Z" fill="url(#paint9_linear_356_3693)"/>
<path d="M233.817 211.018L241.091 212.615L248.365 211.018L255.639 212.615L262.913 211.018L266.283 211.753L266.211 210.108L262.913 209.381L255.639 210.978L248.365 209.381L241.091 210.978L233.817 209.381L226.551 210.978L224.802 210.595C224.746 211.13 224.691 211.657 224.627 212.192L226.551 212.615L233.817 211.018Z" fill="white"/>
<path d="M241.85 156.371L234.576 157.968L227.302 156.371L221.616 157.617L222.415 159.078L227.31 158.008L234.584 159.605L241.858 158.008L249.132 159.605L253.731 158.591C253.667 158.064 253.611 157.529 253.547 156.994L249.132 157.968L241.85 156.371Z" fill="white"/>
<path d="M233.817 223.179L241.091 224.776L248.365 223.179L255.639 224.776L262.913 223.179L266.434 223.977C266.434 223.442 266.434 222.899 266.434 222.38L262.905 221.582L255.631 223.179L248.357 221.582L241.083 223.179L233.809 221.582L226.543 223.179L223.397 222.484C223.333 223.027 223.261 223.554 223.198 224.081L226.543 224.816L233.817 223.179Z" fill="white"/>
<path d="M266.371 228.393L262.913 227.634L255.639 229.231L248.365 227.634L241.091 229.231L233.817 227.634L226.551 229.231L222.631 228.369C222.559 228.912 222.487 229.447 222.423 229.966L226.551 230.868L233.817 229.271L241.091 230.868L248.365 229.271L255.639 230.868L262.913 229.271L266.339 230.029C266.347 229.494 266.363 228.951 266.371 228.393Z" fill="white"/>
<path d="M217.393 140.777L220.028 141.352L227.302 139.755L234.576 141.352L241.85 139.755L249.124 141.352L251.304 140.873C251.208 140.338 251.112 139.811 251.016 139.276L249.124 139.691L241.85 138.094L234.576 139.691L227.302 138.094L220.028 139.691L217.872 139.22C217.696 139.758 217.536 140.277 217.393 140.777Z" fill="white"/>
<path d="M241.85 144.202L234.576 145.799L227.302 144.202L220.027 145.799L216.642 145.057C216.61 145.602 216.61 146.148 216.642 146.694L220.027 147.436L227.302 145.839L234.576 147.436L241.85 145.839L249.124 147.436L252.238 146.749C252.158 146.215 252.086 145.688 252.006 145.153L249.124 145.783L241.85 144.202Z" fill="white"/>
<path d="M241.85 150.287L234.576 151.884L227.302 150.287L220.028 151.884L217.952 151.429C218.111 151.724 218.287 152.02 218.479 152.307C218.67 152.594 218.902 152.954 219.125 153.321L220.028 153.521L227.302 151.924L234.576 153.521L241.85 151.924L249.124 153.521L253.02 152.666C252.956 152.131 252.884 151.604 252.821 151.069L249.124 151.868L241.85 150.287Z" fill="white"/>
<path d="M233.817 217.102L241.091 218.699L248.365 217.102L255.639 218.699L262.913 217.102L266.426 217.901V216.264L262.937 215.466L255.663 217.063L248.389 215.466L241.115 217.063L233.841 215.466L226.575 217.063L224.18 216.528L223.988 218.124L226.599 218.699L233.817 217.102Z" fill="white"/>
<path d="M227.03 168.165C227.238 168.787 226.615 177.547 226.192 192.773C225.872 204.455 223.102 225.215 221.824 234.238H266.211C266.53 225.087 266.929 204.16 264.358 195.48C261.021 184.222 257.268 181.906 256.022 176.924C254.777 171.941 252.892 144.386 249.762 133.958C246.632 123.53 237.25 117.27 235.789 114.979C234.328 112.687 229.737 99.3369 229.737 99.3369L221.816 106.012C221.816 106.012 227.653 115.394 228.491 118.316C229.33 121.239 222.854 128.114 219.525 135.212C216.195 142.31 215.532 147.932 218.479 152.307C221.425 156.683 226.823 167.534 227.03 168.165Z" stroke="black" stroke-linecap="round" stroke-linejoin="round"/>
<path d="M221.808 154.695C221.808 154.695 224.491 160.068 233.45 157.976" stroke="black" stroke-linecap="round" stroke-linejoin="round"/>
<path d="M246.281 189.316C246.281 189.316 232.851 205.733 226.878 218.859" stroke="black" stroke-linecap="round" stroke-linejoin="round"/>
<path d="M231.957 202.754C231.957 202.754 226.28 213.198 224.771 219.762" stroke="black" stroke-linecap="round" stroke-linejoin="round"/>
<path d="M224.371 133.591C228.707 131.196 234.24 120.816 236.652 118.899L238.297 117.582C237.378 116.798 236.538 115.926 235.789 114.979C234.328 112.687 229.737 99.3369 229.737 99.3369L221.816 106.012C221.816 106.012 227.653 115.394 228.491 118.316C229.226 120.895 224.267 126.573 220.802 132.745C221.209 133.887 222.168 134.813 224.371 133.591Z" fill="white" stroke="black" stroke-linecap="round" stroke-linejoin="round"/>
<path d="M214.822 83.2798C213.897 85.4719 213.435 87.8315 213.464 90.2105C213.608 92.3185 214.063 93.9872 213.217 96.0712C212.722 97.2689 211.045 98.794 211.276 100.175C211.484 101.421 214.614 101.844 214.614 101.844C214.614 101.844 217.744 111.641 219.405 111.849C221.066 112.057 224.826 111.05 229.617 107.058C234.408 103.066 228.579 88.6934 224.403 84.9486C220.227 81.2038 216.906 80.7726 214.822 83.2798Z" fill="white" stroke="black" stroke-linecap="round" stroke-linejoin="round"/>
<path d="M216.243 96.3508C216.543 96.3508 216.786 95.6644 216.786 94.8177C216.786 93.9711 216.543 93.2847 216.243 93.2847C215.943 93.2847 215.7 93.9711 215.7 94.8177C215.7 95.6644 215.943 96.3508 216.243 96.3508Z" fill="black"/>
<path d="M214.798 91.2964C214.798 91.2964 215.341 89.1246 217.513 90.7535" stroke="black" stroke-linecap="round" stroke-linejoin="round"/>
<path d="M215.884 103.944C215.884 103.944 217.329 104.311 218.958 102.347" stroke="black" stroke-linecap="round" stroke-linejoin="round"/>
<path d="M219.413 72.2209C219.413 72.2209 211.692 72.4365 210.438 77.4349C209.185 82.4333 214.822 86.8249 218.782 88.9089C222.742 90.9929 226.288 94.3305 226.288 97.8756C226.288 101.421 226.503 105.597 229.418 109.35C232.332 113.102 238.999 116.232 244.229 116.025C249.459 115.817 243.814 103.545 246.728 94.7616C249.643 85.9785 245.93 77.2433 240.053 73.4905C234.177 69.7377 219.413 72.2209 219.413 72.2209Z" fill="black" stroke="black" stroke-linecap="round" stroke-linejoin="round"/>
<path d="M266.554 147.948C266.485 149.042 266.313 150.127 266.043 151.189" stroke="white" stroke-linecap="round" stroke-linejoin="round"/>
<path d="M217.64 85.1802C219.077 87.5756 221.8 90.1307 226.918 91.5679C238.097 94.7618 242.353 102.483 242.353 109.134C242.353 115.785 242.888 120.576 253.531 125.902C256.669 127.471 259.419 129.718 261.583 132.48C263.747 135.241 265.27 138.449 266.043 141.871" stroke="white" stroke-linecap="round" stroke-linejoin="round"/>
<path d="M216.003 79.8545C216.005 80.3182 216.051 80.7806 216.139 81.2358" stroke="white" stroke-linecap="round" stroke-linejoin="round"/>
<path d="M230.911 79.8545C230.911 79.8545 244.221 86.5137 243.95 95.5603C243.678 104.607 244.485 113.127 252.733 118.181C260.981 123.235 269.5 126.437 272.431 136.546" stroke="white" stroke-linecap="round" stroke-linejoin="round"/>
<path d="M238.336 128.297C238.336 128.297 234.799 129.639 232.955 136.538C231.11 143.436 238.672 155.549 239.854 160.939C241.035 166.328 242.209 174.561 242.209 174.561C242.209 174.561 215.788 196.119 211.923 199.465C208.059 202.81 206.031 205.014 206.031 205.014C206.031 205.014 196.449 213.43 195.603 215.115C194.756 216.799 192.409 225.543 193.247 225.878C194.085 226.213 195.603 222.516 195.603 221.846C195.603 221.175 197.279 217.47 197.279 217.47C197.279 217.47 195.938 226.03 195.938 226.509C195.938 226.988 197.279 226.509 197.447 225.83C197.615 225.151 199.467 218.093 199.467 218.093C199.467 218.093 198.461 225.998 199.132 226.876C199.802 227.754 200.984 221.83 200.984 221.83L202.326 217.119C202.326 217.119 201.99 225.359 202.669 225.694C203.348 226.03 204.857 217.622 204.857 217.622C204.857 217.622 207.883 211.561 209.057 209.541C209.726 208.442 210.237 207.254 210.574 206.012C210.574 206.012 226.224 197.429 235.981 192.718C245.738 188.007 253.986 179.255 254.992 177.746C255.998 176.237 253.811 155.03 252.134 145.944C250.457 136.857 246.92 125.902 238.336 128.297Z" fill="white" stroke="black" stroke-linecap="round" stroke-linejoin="round"/>
<path d="M183.674 117.454C183.674 117.454 177.653 121.55 172.838 125.439C168.024 129.327 168.742 137.001 168.742 138.685C168.742 140.37 168.503 148.075 168.503 148.075L164.886 155.78C164.886 155.78 159.352 160.843 158.147 162.048C156.941 163.254 149.962 176.972 149.962 176.972L148.278 179.367L157.452 180.549C160.877 176.729 164.667 173.253 168.766 170.169C174.763 165.825 179.809 153.848 180.057 152.371C181.074 148.336 181.792 144.231 182.204 140.091" fill="white"/>
<path d="M183.674 117.454C183.674 117.454 177.653 121.55 172.838 125.439C168.024 129.327 168.742 137.001 168.742 138.685C168.742 140.37 168.503 148.075 168.503 148.075L164.886 155.78C164.886 155.78 159.352 160.843 158.147 162.048C156.941 163.254 149.962 176.972 149.962 176.972L148.278 179.367L157.452 180.549C160.877 176.729 164.667 173.253 168.766 170.169C174.763 165.825 179.809 153.848 180.057 152.371C181.074 148.336 181.792 144.231 182.204 140.091" stroke="black" stroke-linecap="round" stroke-linejoin="round"/>
<path d="M180.607 149.8C176.559 143.157 171.026 144.019 168.566 144.849C168.511 146.606 168.471 148.043 168.471 148.043L164.854 155.748C164.854 155.748 159.32 160.811 158.115 162.016C156.909 163.222 149.93 176.94 149.93 176.94L148.245 179.335L157.452 180.549C160.877 176.729 164.666 173.253 168.766 170.169C174.763 165.825 179.809 153.848 180.056 152.371C180.144 151.884 180.368 150.989 180.607 149.8Z" fill="white" stroke="black" stroke-linecap="round" stroke-linejoin="round"/>
<path d="M153.396 173.81C153.396 173.81 147.415 178.696 146.209 180.245C145.004 181.794 144.062 190.905 144.541 191.568C145.02 192.23 148.365 194.011 149.803 192.454C151.24 190.897 156.502 183.391 156.502 183.391C156.502 183.391 152.509 188.789 155.36 188.486C158.21 188.182 159.847 183.791 161.524 181.794C163.201 179.798 162.961 179.575 161.524 176.692L160.095 173.81" fill="white"/>
<path d="M153.396 173.81C153.396 173.81 147.415 178.696 146.209 180.245C145.004 181.794 144.062 190.905 144.541 191.568C145.02 192.23 148.365 194.011 149.803 192.454C151.24 190.897 156.502 183.391 156.502 183.391C156.502 183.391 152.509 188.789 155.36 188.486C158.21 188.182 159.847 183.791 161.524 181.794C163.201 179.798 162.961 179.575 161.524 176.692L160.095 173.81" stroke="black" stroke-linecap="round" stroke-linejoin="round"/>
<path d="M144.549 191.56C144.549 191.56 147.591 181.18 148.804 180.381" stroke="black" stroke-linecap="round" stroke-linejoin="round"/>
<path d="M145.978 192.318C145.978 192.318 149.507 182.561 151.328 180.541" stroke="black" stroke-linecap="round" stroke-linejoin="round"/>
<path d="M147.87 193.013C147.87 193.013 151.695 183.431 154.202 181.108" stroke="black" stroke-linecap="round" stroke-linejoin="round"/>
<path d="M156.502 183.391C156.502 183.391 158.538 181.587 158.849 180.501L156.502 183.391Z" fill="white"/>
<path d="M156.502 183.391C156.502 183.391 158.538 181.587 158.849 180.501" stroke="black" stroke-linecap="round" stroke-linejoin="round"/>
<path d="M9.14478 234.238H307.963" stroke="black" stroke-linecap="round" stroke-linejoin="round"/>
<defs>
<linearGradient id="paint0_linear_356_3693" x1="126.575" y1="18.5425" x2="198.235" y2="57.144" gradientUnits="userSpaceOnUse">
<stop stop-color="#F6FA00"/>
<stop offset="1" stop-color="#FFE835"/>
</linearGradient>
<linearGradient id="paint1_linear_356_3693" x1="45.6666" y1="64.4491" x2="95.3877" y2="91.2305" gradientUnits="userSpaceOnUse">
<stop stop-color="#F6FA00"/>
<stop offset="1" stop-color="#FFE835"/>
</linearGradient>
<linearGradient id="paint2_linear_356_3693" x1="228.515" y1="64.4491" x2="278.236" y2="91.2305" gradientUnits="userSpaceOnUse">
<stop stop-color="#F6FA00"/>
<stop offset="1" stop-color="#FFE835"/>
</linearGradient>
<linearGradient id="paint3_linear_356_3693" x1="153.297" y1="116.232" x2="176.185" y2="118.886" gradientUnits="userSpaceOnUse">
<stop stop-color="#F6FA00"/>
<stop offset="1" stop-color="#FFE835"/>
</linearGradient>
<linearGradient id="paint4_linear_356_3693" x1="111.632" y1="113.448" x2="193.972" y2="140.736" gradientUnits="userSpaceOnUse">
<stop stop-color="#F6FA00"/>
<stop offset="1" stop-color="#FFE835"/>
</linearGradient>
<linearGradient id="paint5_linear_356_3693" x1="111.028" y1="119.878" x2="172.332" y2="146.313" gradientUnits="userSpaceOnUse">
<stop stop-color="#F6FA00"/>
<stop offset="1" stop-color="#FFE835"/>
</linearGradient>
<linearGradient id="paint6_linear_356_3693" x1="67.756" y1="104.746" x2="99.4784" y2="122.931" gradientUnits="userSpaceOnUse">
<stop stop-color="#F6FA00"/>
<stop offset="1" stop-color="#FFE835"/>
</linearGradient>
<linearGradient id="paint7_linear_356_3693" x1="52.0784" y1="203.89" x2="86.7259" y2="239.439" gradientUnits="userSpaceOnUse">
<stop stop-color="#F6FA00"/>
<stop offset="1" stop-color="#FFE835"/>
</linearGradient>
<linearGradient id="paint8_linear_356_3693" x1="189.662" y1="109.375" x2="212.386" y2="127.614" gradientUnits="userSpaceOnUse">
<stop stop-color="#F6FA00"/>
<stop offset="1" stop-color="#FFE835"/>
</linearGradient>
<linearGradient id="paint9_linear_356_3693" x1="216.605" y1="104.627" x2="295.02" y2="127.118" gradientUnits="userSpaceOnUse">
<stop stop-color="#F6FA00"/>
<stop offset="1" stop-color="#FFE835"/>
</linearGradient>
</defs>
</svg>
