<svg width="37" height="36" viewBox="0 0 37 36" fill="none" xmlns="http://www.w3.org/2000/svg">
<g clip-path="url(#clip0)">
<path d="M36.125 2.892V24.328L24.4413 36H3.01989C2.25225 35.9996 1.51617 35.6947 0.973364 35.1525C0.430558 34.6102 0.125425 33.8749 0.125 33.108V2.892C0.124842 2.51217 0.199613 2.13604 0.345039 1.78509C0.490465 1.43415 0.703696 1.11527 0.972543 0.846696C1.24139 0.578118 1.56058 0.3651 1.91188 0.219819C2.26318 0.0745384 2.63969 -0.000157454 3.01989 2.49193e-07H33.2301C33.6103 -0.000157454 33.9868 0.0745384 34.3381 0.219819C34.6894 0.3651 35.0086 0.578118 35.2775 0.846696C35.5463 1.11527 35.7595 1.43415 35.905 1.78509C36.0504 2.13604 36.1252 2.51217 36.125 2.892V2.892Z" fill="url(#paint0_linear)"/>
<path d="M24.4429 35.9999V27.2203C24.4429 26.8406 24.5177 26.4646 24.6632 26.1138C24.8087 25.763 25.0219 25.4443 25.2907 25.1758C25.5595 24.9073 25.8785 24.6943 26.2297 24.5491C26.5809 24.4038 26.9573 24.329 27.3374 24.3291H36.125L24.4429 35.9999Z" fill="#F8F49A"/>
<path fill-rule="evenodd" clip-rule="evenodd" d="M12.5474 7.8357C13.6421 7.22716 15.4026 6.63261 16.4778 6.5083C16.7729 6.47413 17.6848 6.45922 18.504 6.47512C19.7816 6.49989 20.0998 6.53123 20.7405 6.6953C21.8237 6.9725 23.0606 7.42891 23.5455 7.7302C23.6086 7.76942 23.8835 7.93149 24.1566 8.09043C25.3062 8.75967 26.5947 9.93769 27.448 11.0995C27.8349 11.6262 28.6635 13.001 28.6635 13.1162C28.6635 13.1432 28.7289 13.3111 28.809 13.4894C28.9438 13.7898 29.0176 13.9978 29.2765 14.8065C29.5479 15.6547 29.6559 16.5717 29.6563 18.0289C29.6566 20.1405 29.392 21.3338 28.5334 23.0936C27.3915 25.4339 25.5555 27.2732 23.24 28.3967C22.1553 28.9229 21.5959 29.1092 20.2077 29.4063C19.3656 29.5864 16.939 29.5683 15.945 29.3745C15.1871 29.2266 14.1709 28.928 13.7287 28.7231C13.602 28.6644 13.4011 28.5794 13.2822 28.5341C13.1035 28.4662 12.4002 28.0708 11.8483 27.7283C11.2431 27.3526 10.6252 26.8444 9.94593 26.1638C8.33195 24.5466 7.41515 22.893 6.84974 20.5793C6.50462 19.1669 6.50921 16.5407 6.85898 15.3231C7.2623 13.919 7.52301 13.2487 8.01953 12.3391C8.99774 10.5473 10.6808 8.87328 12.5474 7.8357ZM28.1832 13.1636C26.6079 9.87446 23.5872 7.60986 19.9179 6.96723C17.227 6.49584 14.2739 7.15545 11.858 8.76755C11.1475 9.24161 9.75603 10.577 9.22904 11.2906C7.37093 13.8065 6.61156 16.8786 7.12366 19.808C7.75966 23.4458 10.0437 26.4882 13.3097 28.048C14.8832 28.7996 16.4076 29.1489 18.1221 29.1508C20.372 29.1532 22.5245 28.4928 24.4205 27.2183C25.1714 26.7135 26.7871 25.1342 27.1844 24.5164C27.3467 24.2642 27.5208 24.0139 27.5713 23.9604C27.7159 23.807 28.5702 22.0346 28.7034 21.6113C29.6281 18.6738 29.4519 15.8127 28.1832 13.1636ZM13.1465 8.19792C14.2511 7.65306 14.817 7.45452 16.0596 7.17609C16.3921 7.10155 17.0504 7.06195 18.0526 7.05622C19.9234 7.04551 20.7254 7.18526 22.247 7.7873C23.0796 8.11673 24.1162 8.68307 24.6033 9.07457C25.3334 9.66163 25.777 10.0462 26.0562 10.3345C26.4637 10.7552 27.4413 12.0448 27.4413 12.1616C27.4413 12.2082 27.4694 12.2462 27.5037 12.2462C27.5749 12.2462 28.3536 13.8659 28.5328 14.3868C29.9976 18.643 28.7303 23.3543 25.3208 26.3282C22.3039 28.9596 17.8826 29.7275 14.1881 28.2617C13.2487 27.889 11.922 27.1769 11.7056 26.9292C11.6846 26.9052 11.4783 26.743 11.2473 26.5687C10.5314 26.029 9.91056 25.3786 9.18481 24.408C8.38809 23.3425 7.6709 21.6711 7.34946 20.1307C7.15154 19.1819 7.13382 16.8637 7.31791 15.9923C7.82971 13.5691 8.72328 11.8868 10.3786 10.2301C11.3189 9.28901 12.1058 8.71128 13.1465 8.19792ZM21.5213 7.8597C21.1012 7.72011 20.448 7.55046 20.0699 7.48281C18.425 7.18847 16.5907 7.29336 14.9529 7.77538C14.7811 7.82596 14.6762 7.85544 14.5737 7.8914C14.3647 7.96469 14.1651 8.06487 13.4268 8.42536C11.3303 9.44894 9.65145 11.1062 8.6433 13.1474C7.98011 14.4902 7.92481 14.645 7.65409 15.9158C7.44685 16.8889 7.4328 18.9643 7.62675 19.9486C7.85247 21.0943 8.40482 22.576 8.90042 23.3656C10.0958 25.2699 11.4127 26.5206 13.2506 27.497C14.182 27.9918 15.43 28.41 16.3639 28.54C16.6784 28.5838 16.9609 28.6353 16.9918 28.6543C17.1287 28.739 18.9988 28.6855 19.7262 28.576C22.3272 28.1846 24.9083 26.689 26.4974 24.6524C26.9099 24.1237 27.6704 22.9459 27.6704 22.8358C27.6704 22.8179 27.7725 22.5866 27.8971 22.322C28.8997 20.1943 29.0987 17.4872 28.4286 15.0916C28.2353 14.4003 27.7147 13.1856 27.3746 12.6325C27.2432 12.4188 27.1357 12.2277 27.1357 12.2077C27.1357 12.1878 26.9758 11.9561 26.7802 11.6928C26.2663 11.0009 25.1089 9.83677 24.5768 9.47662C24.3247 9.30598 24.0497 9.10599 23.9657 9.03214C23.682 8.78283 22.2904 8.11535 21.5213 7.8597ZM17.9558 7.71842C17.9064 7.70199 17.8911 7.64748 17.9221 7.5974C17.953 7.54733 18.1315 7.50635 18.3187 7.50635C18.6197 7.50635 18.677 7.53502 18.8149 7.75481C18.9321 7.9415 18.963 8.09372 18.9395 8.36718C18.8977 8.85347 18.7252 9.03535 18.3057 9.03535C17.9985 9.03535 17.7576 8.88933 17.9558 8.82328C18.0131 8.80416 18.0457 8.60356 18.0457 8.27085C18.0457 7.93814 18.0131 7.73754 17.9558 7.71842ZM16.6707 8.49447C16.6707 8.25587 16.6926 7.95144 16.7191 7.81811C16.803 7.39848 16.9929 7.55398 17.2058 8.21649C17.311 8.54401 17.4485 8.84507 17.5114 8.88543C17.6126 8.95064 17.6126 8.96738 17.511 9.0342C17.448 9.07556 17.3356 9.10996 17.2613 9.11065C17.1551 9.11157 17.1364 9.07082 17.174 8.92067C17.2144 8.75982 17.1951 8.72955 17.0527 8.72955C16.9102 8.72955 16.8909 8.75982 16.9313 8.92067C16.975 9.0949 16.9574 9.1118 16.7333 9.1118C16.542 9.1118 16.5078 9.09139 16.5791 9.02006C16.6295 8.9696 16.6707 8.73307 16.6707 8.49447ZM19.4206 8.48491C19.4206 8.1087 19.4515 8.00366 19.6082 7.84694C19.8544 7.60046 20.1314 7.60574 20.3317 7.8607C20.51 8.08745 20.534 8.38996 20.3989 8.70684C20.2567 9.04047 20.1012 9.18825 19.8923 9.18825C19.5549 9.18825 19.4206 8.98795 19.4206 8.48491ZM18.3801 8.806C18.6044 8.806 18.7881 8.34753 18.7018 8.00328C18.6668 7.86368 18.6028 7.81215 18.4644 7.81215C18.282 7.81215 18.2748 7.83103 18.2748 8.30908C18.2748 8.68016 18.3015 8.806 18.3801 8.806ZM14.9398 8.23316C14.7853 8.12009 14.7905 8.11008 15.0666 7.98523C15.5294 7.77607 15.9068 7.93913 15.9068 8.34822C15.9068 8.46893 15.9412 8.58888 15.9832 8.61487C16.1078 8.69194 16.0702 9.07892 15.9259 9.20377C15.8215 9.29413 15.3586 9.49405 15.2538 9.49405C15.2433 9.49405 15.2362 9.36508 15.238 9.20736C15.2427 8.80378 15.1051 8.3541 14.9398 8.23316ZM20.0039 8.91479C20.1701 8.81319 20.2756 8.45334 20.2186 8.18309C20.127 7.74939 19.7402 7.90596 19.6121 8.42857C19.5448 8.70287 19.8108 9.03298 20.0039 8.91479ZM15.2616 8.3684C15.3249 8.53346 15.5905 8.54102 15.6523 8.37956C15.6778 8.31328 15.6493 8.20969 15.5892 8.14952C15.4417 8.0019 15.1864 8.17254 15.2616 8.3684ZM16.9763 8.5002C17.0183 8.5002 17.0521 8.45724 17.0515 8.40464C17.0508 8.35212 17.017 8.25747 16.9763 8.1944C16.9186 8.10503 16.9019 8.12613 16.901 8.28996C16.9004 8.40555 16.9343 8.5002 16.9763 8.5002ZM13.6013 9.2053C13.428 8.82198 13.4699 8.61923 13.7542 8.46473C14.034 8.31267 14.0394 8.31389 14.3518 8.6005C14.5828 8.81227 14.6331 8.91548 14.6597 9.23121C14.6973 9.67837 14.6413 9.78173 14.328 9.84449C14.0466 9.90084 13.8292 9.70956 13.6013 9.2053ZM14.4777 9.47012C14.5411 9.30483 14.4498 8.98168 14.292 8.81212C14.1205 8.62795 14.0041 8.6135 13.8136 8.75294C13.6853 8.84682 13.6846 8.87045 13.8019 9.15163C13.8706 9.316 13.9684 9.47692 14.0193 9.50934C14.1663 9.60284 14.4356 9.57982 14.4777 9.47012ZM15.53 9.18825C15.6837 9.18825 15.9068 9.02984 15.9068 8.92067C15.9068 8.7917 15.6804 8.65906 15.544 8.70799C15.4281 8.74966 15.4152 9.18825 15.53 9.18825ZM22.4832 9.47494C22.5769 9.33824 22.7403 9.1319 22.8464 9.01624C23.0456 8.79927 23.3166 8.73307 23.3161 8.90156C23.3158 8.95416 23.2309 9.23794 23.1272 9.53227C23.0236 9.8266 22.9573 10.1277 22.98 10.2012C23.0326 10.3722 22.838 10.3803 22.6992 10.2129C22.6138 10.1099 22.6185 10.0793 22.7296 10.0171C22.8897 9.92744 22.8279 9.79985 22.6244 9.79985C22.5242 9.79985 22.4761 9.85244 22.4761 9.96207C22.4761 10.112 22.4634 10.1158 22.3084 10.0128C22.1008 9.87492 22.0426 9.7234 22.1972 9.7234C22.2609 9.7234 22.3896 9.61163 22.4832 9.47494ZM12.0788 9.7234C11.7987 9.7234 11.9832 9.46553 12.429 9.23412C12.6415 9.1238 12.6664 9.12663 12.8298 9.28037C12.9257 9.3705 13.0041 9.50177 13.0041 9.5721C13.0041 9.76139 13.2572 10.0193 13.4281 10.0041C13.6468 9.98478 13.6295 10.2893 13.41 10.3205C13.2985 10.3364 13.2004 10.2793 13.1148 10.1485C12.9715 9.92974 12.7931 9.89296 12.7259 10.0684C12.6746 10.202 12.8356 10.4302 12.9369 10.3676C13.0787 10.2799 13.097 10.5737 12.9564 10.6802C12.735 10.8481 12.6124 10.8212 12.6638 10.616C12.6923 10.5027 12.6646 10.402 12.5875 10.3379C12.521 10.2827 12.4118 10.1218 12.3448 9.98042C12.2699 9.82263 12.1673 9.7234 12.0788 9.7234ZM11.7597 12.0526C13.1765 10.5843 14.3706 9.9136 16.4034 9.44428C17.0699 9.29039 17.3132 9.27211 18.313 9.30078C19.9734 9.34833 21.3223 9.73792 22.6869 10.5642C23.1673 10.8551 24.2872 11.783 24.5599 12.116C25.6335 13.4272 26.0594 14.2433 26.5609 15.9495C26.8208 16.834 26.7947 19.3098 26.5162 20.187C25.9468 21.9804 25.2441 23.1667 24.1079 24.2532C23.1646 25.155 22.1547 25.7598 20.8338 26.2139C19.8625 26.5478 18.9941 26.6485 17.5874 26.5902C16.1479 26.5306 15.2793 26.2947 14.0134 25.6199C12.3529 24.7346 11.1156 23.4457 10.2944 21.7454C9.98626 21.1073 9.80102 20.5644 9.59676 19.7001C9.39632 18.8524 9.39395 17.0333 9.59218 16.2216C10.0253 14.4482 10.6996 13.1513 11.7597 12.0526ZM22.7991 9.5705C22.8637 9.5705 22.9346 9.50169 22.9566 9.4176C22.9785 9.3335 22.9879 9.2647 22.9773 9.2647C22.9667 9.2647 22.8959 9.3335 22.8199 9.4176C22.7036 9.54619 22.7002 9.5705 22.7991 9.5705ZM12.6557 9.75535C12.7256 9.68555 12.7723 9.57524 12.7597 9.51018C12.7258 9.33549 12.5894 9.31913 12.4506 9.4731C12.348 9.58686 12.3445 9.63074 12.4286 9.74549C12.5221 9.87301 12.5375 9.8737 12.6557 9.75535ZM23.3173 10.4246C23.6281 10.3046 24.0623 9.73869 24.0165 9.51316C23.9838 9.352 24.1381 9.40605 24.4213 9.6549C24.7366 9.93195 24.7588 10.092 24.5138 10.3224C24.3586 10.4683 24.3055 10.4786 24.0921 10.4041C23.8195 10.309 23.6035 10.4141 23.64 10.624C23.6703 10.7987 23.5299 10.8074 23.3173 10.644L23.1272 10.498L23.3173 10.4246ZM20.9102 10.181C20.4581 9.99304 19.607 9.80619 19.0005 9.76178C18.6224 9.7341 18.2615 9.70207 18.1985 9.69068C17.9358 9.6432 16.517 9.81858 16.0214 9.95978C14.1053 10.5058 12.4873 11.6226 11.4139 13.1399C10.217 14.8319 9.7147 16.6827 9.89291 18.7445C10.0603 20.6812 10.853 22.3375 12.3107 23.7959C13.4939 24.9798 14.7316 25.6714 16.3652 26.0615C16.801 26.1656 17.2304 26.1967 18.1603 26.1912C18.8325 26.1873 19.4766 26.1529 19.5917 26.1147C19.7269 26.07 19.3042 26.0548 18.3974 26.0717C16.8227 26.1012 16.2692 26.0087 15.0336 25.5102C13.7553 24.9945 12.699 24.1998 11.8043 23.0807C11.3866 22.5583 10.7792 21.5887 10.6922 21.3056C10.6664 21.2215 10.5576 20.912 10.4506 20.6179C9.91125 19.1364 9.88925 17.1613 10.3935 15.4954C10.7325 14.3754 11.6564 12.895 12.5121 12.1008C14.0883 10.6376 16.0172 9.87882 18.1603 9.87905C19.9495 9.8792 21.8608 10.5224 23.1007 11.5415C23.4145 11.7995 24.3639 12.7451 24.6001 13.0351C25.1971 13.7676 25.7717 15.0035 26.0597 16.1742C26.2854 17.0917 26.2881 18.9884 26.0649 19.8163C25.8193 20.7274 25.7412 20.9294 25.1636 22.1465C25.1393 22.1975 25.1539 22.1975 25.2074 22.1465C25.3389 22.0211 25.8314 21.0044 25.9537 20.6058C26.3961 19.1634 26.489 17.6697 26.2168 16.3745C25.868 14.7159 25.2039 13.4657 24.0131 12.2264C23.1438 11.3218 22.2732 10.7479 20.9102 10.181ZM24.3264 10.2585C24.4424 10.2585 24.4812 10.0297 24.3849 9.91353C24.2646 9.76835 24.1999 9.77026 24.0734 9.92278C23.9867 10.0273 23.9933 10.0618 24.1168 10.1521C24.1968 10.2107 24.2911 10.2585 24.3264 10.2585ZM10.893 10.749C10.6894 10.8271 10.7933 10.5763 11.0625 10.3397C11.2623 10.1642 11.3809 10.1126 11.5018 10.1485C11.8444 10.2501 11.9619 10.6027 11.7302 10.8346C11.5737 10.9912 11.6743 11.2015 11.9234 11.2386C12.1278 11.2691 12.1304 11.3345 11.9339 11.503C11.751 11.6596 11.7059 11.6668 11.7047 11.5391C11.7032 11.3828 11.007 10.7052 10.893 10.749ZM20.4637 10.5112C20.2471 10.4497 19.7949 10.3538 19.4588 10.2981C18.7491 10.1805 18.2088 10.1366 17.7783 10.1617C16.7848 10.2194 15.2686 10.6316 14.5319 11.0441C12.6997 12.07 11.362 13.6204 10.7569 15.4189C10.2244 17.0019 10.1935 18.6619 10.6653 20.3422C10.7802 20.7519 11.4376 22.1333 11.5934 22.2927C11.638 22.3384 11.7828 22.5307 11.915 22.7199C12.0473 22.9091 12.307 23.2258 12.4921 23.4237C12.8477 23.8039 14.1138 24.784 14.2492 24.784C14.293 24.784 14.3832 24.8305 14.4495 24.8874C14.6493 25.0586 15.752 25.4828 16.4034 25.639C17.2804 25.8493 18.9863 25.8447 19.879 25.6297C22.8209 24.921 25.056 22.6944 25.7628 19.7679C25.9766 18.8827 25.9817 17.1287 25.773 16.2544C25.6187 15.6077 25.1946 14.504 25.0238 14.3043C24.9669 14.238 24.9205 14.146 24.9205 14.1001C24.9205 13.9545 23.9262 12.6816 23.5177 12.3043C22.7096 11.5577 21.3616 10.7664 20.4637 10.5112ZM11.5251 10.7013C11.5938 10.6325 11.6293 10.5219 11.6038 10.4556C11.5784 10.3893 11.4867 10.335 11.4 10.335C11.1905 10.335 11.1188 10.545 11.275 10.7013C11.3908 10.8172 11.4093 10.8172 11.5251 10.7013ZM24.4509 11.2524C24.6136 11.2524 25.1497 10.7004 25.1497 10.5329C25.1497 10.224 25.6288 10.5769 25.7224 10.9547C25.814 11.3243 25.3706 11.5456 25.0332 11.2986C24.9067 11.2061 24.8748 11.2086 24.7918 11.3178C24.7392 11.3869 24.6951 11.5037 24.6938 11.5773C24.6906 11.7476 24.6211 11.743 24.3991 11.5578C24.209 11.3993 24.234 11.2524 24.4509 11.2524ZM25.1843 11.1446C25.3829 11.2899 25.4359 11.2808 25.4961 11.0909C25.5274 10.9924 25.5051 10.8873 25.4389 10.821C25.3452 10.7273 25.3104 10.7346 25.1837 10.8747C25.0391 11.0346 25.0391 11.0383 25.1843 11.1446ZM9.87229 11.6458C9.87229 11.6099 9.95662 11.4895 10.0596 11.3782C10.2415 11.1818 10.5095 11.12 10.6831 11.2344C10.8334 11.3335 10.8864 11.6434 10.7854 11.8323C10.6663 12.0552 10.7944 12.2505 11.0209 12.1912C11.2067 12.1426 11.2188 12.2959 11.0444 12.4887C10.8852 12.6648 10.7898 12.667 10.786 12.4947C10.7829 12.3563 10.1361 11.8264 9.96846 11.8249C9.91629 11.8245 9.87328 11.7987 9.87298 11.7676C9.87259 11.7366 9.87229 11.6817 9.87229 11.6458ZM10.3299 11.7491C10.5079 11.8057 10.6362 11.7437 10.6362 11.6012C10.6362 11.5458 10.5883 11.4606 10.5297 11.412C10.4475 11.3438 10.3952 11.3515 10.3005 11.4463C10.1379 11.6091 10.1458 11.6906 10.3299 11.7491ZM26.1904 11.621C26.1957 11.5865 26.2043 11.541 26.2095 11.52C26.2354 11.4162 26.3741 11.5084 26.5609 11.7537C26.852 12.1356 26.7445 12.5475 26.3527 12.5509C26.1727 12.5524 25.9253 12.8105 25.9399 12.9814C25.9577 13.189 25.7078 13.2051 25.6429 13.0004C25.6006 12.8669 25.6356 12.7909 25.8002 12.6595C26.028 12.4777 26.0218 12.1883 25.7921 12.2765C25.7259 12.3019 25.6403 12.3227 25.6017 12.3227C25.5631 12.3227 25.5316 12.3915 25.5316 12.4756C25.5316 12.6547 25.413 12.6737 25.2588 12.5192C25.0972 12.3576 25.1198 12.1763 25.2958 12.2224C25.4751 12.2693 26.1621 11.8075 26.1904 11.621ZM26.4155 12.3227C26.5481 12.3227 26.5596 12.0825 26.433 11.9557C26.3144 11.8371 26.2576 11.8401 26.1494 11.9706C26.0812 12.0528 26.089 12.1051 26.1837 12.1999C26.2512 12.2674 26.3555 12.3227 26.4155 12.3227ZM9.64175 13.1517C9.39151 12.927 9.18634 12.683 9.1858 12.6094C9.18443 12.4281 9.41198 12.438 9.83616 12.6375C10.0254 12.7265 10.2836 12.8075 10.4097 12.8174C10.7189 12.8418 10.7631 12.9046 10.599 13.086C10.4726 13.2258 10.4533 13.2281 10.3692 13.113C10.3187 13.0439 10.2378 13.0119 10.1894 13.0418C10.0465 13.1302 10.0888 13.2954 10.2662 13.3418C10.4201 13.3821 10.4232 13.3967 10.3142 13.561C10.213 13.7135 10.033 13.7515 10.08 13.6104C10.0892 13.5828 9.89192 13.3764 9.64175 13.1517ZM9.8768 13.0107C9.91636 13.0107 9.94868 12.9763 9.94868 12.9343C9.94868 12.8922 9.89505 12.8578 9.82959 12.8578C9.76413 12.8578 9.73174 12.8922 9.75771 12.9343C9.78368 12.9763 9.83723 13.0107 9.8768 13.0107ZM26.2263 14.0882C25.949 13.8108 26.075 13.4509 26.5527 13.1554C26.8799 12.9529 27.2689 12.9916 27.4574 13.2454C27.6397 13.4908 27.5498 13.7372 27.1888 13.9814C26.8074 14.2394 26.4203 14.2824 26.2263 14.0882ZM26.3976 13.885C26.5261 14.2204 27.3646 13.7535 27.255 13.4076C27.198 13.2283 26.9998 13.1969 26.6959 13.3191C26.4957 13.3997 26.3311 13.7117 26.3976 13.885ZM26.815 14.7854C27.1209 14.7941 27.8232 14.5326 27.8232 14.4099C27.8232 14.3552 27.8529 14.3104 27.8892 14.3104C27.9566 14.3104 28.2051 14.8944 28.2051 15.0529C28.2051 15.2033 27.9734 15.3807 27.7768 15.3807C27.6733 15.3807 27.5076 15.4339 27.4085 15.4989C27.1979 15.6369 26.86 15.5807 26.7608 15.391C26.7249 15.3223 26.672 15.1565 26.6432 15.0225C26.5937 14.7914 26.6025 14.7793 26.815 14.7854ZM27.635 15.0779C27.7954 15.2553 27.8996 15.2071 27.8996 14.9557C27.8996 14.8219 27.8576 14.7691 27.7513 14.7691C27.5358 14.7691 27.4828 14.9097 27.635 15.0779ZM26.9156 15.214C27.0099 15.466 27.3267 15.4185 27.3267 15.1524C27.3267 14.9542 27.1929 14.8903 26.9734 14.9838C26.8791 15.0239 26.8652 15.0795 26.9156 15.214ZM27.1143 16.4701C27.0647 16.6093 26.9915 16.513 26.936 16.2352C26.8865 15.9875 26.9599 15.9234 27.1152 16.0788C27.1628 16.1265 27.3845 16.1606 27.6079 16.1549C28.183 16.1399 28.4343 16.206 28.4343 16.372C28.4343 16.4764 28.299 16.5531 27.8805 16.6859C27.5759 16.7825 27.2889 16.9063 27.2427 16.9609C27.1374 17.0855 27.0593 17.0124 27.0593 16.7894C27.0593 16.6559 27.0929 16.627 27.2121 16.6582C27.3294 16.6889 27.3649 16.6605 27.3649 16.5364C27.3649 16.3628 27.1709 16.3115 27.1143 16.4701ZM27.594 16.451C27.594 16.5476 27.7501 16.5476 27.8996 16.451C27.9889 16.3933 27.9678 16.3766 27.8041 16.3757C27.6886 16.3751 27.594 16.4089 27.594 16.451ZM7.85423 17.6035C7.61307 17.3768 7.60192 17.12 7.82428 16.9127C7.94497 16.8001 8.09461 16.7568 8.36273 16.7568C9.10812 16.7568 9.47844 17.1857 9.07863 17.5859C8.9092 17.7554 8.80784 17.7889 8.46356 17.7889C8.13243 17.7889 8.01258 17.7524 7.85423 17.6035ZM8.22096 17.531C8.68631 17.6555 9.08337 17.4353 8.9047 17.1517C8.8086 16.9993 8.52322 16.9279 8.22997 16.9828C8.03748 17.019 8.00081 17.0616 8.00081 17.249C8.00081 17.4302 8.04206 17.4831 8.22096 17.531ZM27.7187 17.5052C28.2122 17.537 28.3128 17.5228 28.3742 17.4131C28.4817 17.2208 28.6635 17.404 28.6635 17.7048C28.6635 18.029 28.4907 18.2553 28.1598 18.3646C27.5829 18.5551 27.1357 18.3036 27.1357 17.7885V17.4678L27.7187 17.5052ZM27.833 18.2093C28.125 18.2093 28.3579 18.0542 28.3579 17.8599C28.3579 17.7764 28.2408 17.7506 27.8614 17.7506C27.4342 17.7506 27.3649 17.7698 27.3649 17.8882C27.3649 18.1017 27.5218 18.2093 27.833 18.2093ZM7.65707 18.9367C7.65707 18.7709 7.72368 18.6222 7.85843 18.4873C8.02969 18.316 8.12609 18.2858 8.50221 18.2858C8.88911 18.2858 8.96443 18.311 9.10284 18.4872C9.28564 18.7198 9.31008 19.0674 9.1528 19.1981C9.06832 19.2682 9.03035 19.2639 8.98093 19.1785C8.93036 19.0911 8.82594 19.0815 8.46677 19.1309C8.2189 19.1651 7.98943 19.2361 7.95697 19.2888C7.8569 19.4509 7.65707 19.2163 7.65707 18.9367ZM8.81357 18.8974C9.00828 18.8974 8.99239 18.7024 8.78584 18.5577C8.59403 18.4232 8.47418 18.4174 8.17268 18.5275C8.01846 18.5839 7.96262 18.6562 7.96262 18.7994C7.96262 18.9877 7.9753 18.9929 8.31705 18.946C8.51192 18.9192 8.73535 18.8974 8.81357 18.8974ZM27.0679 19.6172C26.8969 19.3995 26.9323 19.1709 27.1622 19.0097C27.3568 18.8734 27.9449 18.8645 28.2003 18.9941C28.3115 19.0505 28.4136 19.1933 28.4538 19.3487C28.5091 19.5627 28.4945 19.6356 28.371 19.7592C28.0718 20.0586 27.3533 19.9803 27.0679 19.6172ZM28.1976 19.5663C28.2862 19.3276 28.2308 19.2271 27.9585 19.1321C27.8295 19.0871 27.6862 19.0521 27.6399 19.0543C27.5033 19.0608 27.2121 19.2906 27.2121 19.3918C27.2121 19.737 28.0773 19.8902 28.1976 19.5663ZM8.52994 20.0061C8.84809 19.859 9.10842 19.7013 9.10842 19.6557C9.10842 19.4773 9.30084 19.6477 9.32421 19.8467C9.34545 20.0275 9.32712 20.0511 9.19695 20.0098C9.01905 19.9532 8.93785 20.0444 9.03127 20.1957C9.0868 20.2857 9.11598 20.2859 9.223 20.197C9.33025 20.108 9.35966 20.1087 9.41863 20.2019C9.5271 20.3735 9.50915 20.6769 9.39487 20.6029C9.34239 20.5689 9.00812 20.5411 8.65216 20.5411C8.09683 20.5411 8.00112 20.522 7.97812 20.4073C7.95788 20.3057 8.0908 20.209 8.52994 20.0061ZM8.6692 20.2723C8.74268 20.2729 8.80287 20.2391 8.80287 20.197C8.80287 20.1038 8.79424 20.1038 8.6501 20.197C8.55217 20.2603 8.55492 20.2713 8.6692 20.2723ZM8.77889 21.2673C8.87873 21.2673 8.98024 21.2157 9.00438 21.1527C9.05044 21.0327 9.45995 20.9949 9.61334 21.0965C9.71165 21.1615 9.94868 21.6039 9.94868 21.7222C9.94868 21.7664 9.8658 21.8025 9.76451 21.8025C9.48211 21.8025 8.72649 22.1163 8.72649 22.2336C8.72649 22.2908 8.69845 22.3376 8.66423 22.3376C8.58487 22.3376 8.34455 21.8373 8.34455 21.6721C8.34455 21.4822 8.57509 21.2673 8.77889 21.2673ZM9.47729 21.6565C9.66727 21.5549 9.67139 21.5396 9.56407 21.3387C9.46385 21.1514 9.28908 21.1488 9.19046 21.3332C9.13676 21.4336 9.14341 21.5153 9.21292 21.6104C9.29427 21.7217 9.34048 21.7298 9.47729 21.6565ZM8.67615 21.9019C8.83007 21.961 8.97429 21.841 8.9432 21.6795C8.91486 21.5323 8.72206 21.4502 8.62726 21.545C8.53697 21.6354 8.56775 21.8603 8.67615 21.9019ZM26.3718 22.0318C26.2016 22.0318 26.1802 21.9415 26.2981 21.721C26.4011 21.5285 26.4711 21.5342 26.5638 21.7428C26.6053 21.836 26.8368 22.0621 27.0784 22.245C27.758 22.7599 27.6205 22.9173 26.7238 22.6508C26.4181 22.56 26.1107 22.5076 26.0407 22.5345C25.8857 22.594 25.8769 22.4935 26.0199 22.2978C26.1123 22.1712 26.1429 22.1661 26.2548 22.2591C26.3652 22.3508 26.3934 22.3504 26.4529 22.2563C26.5592 22.0881 26.5388 22.0318 26.3718 22.0318ZM22.6098 24.8943C23.5093 24.309 24.4674 23.3507 25.0322 22.4714C25.2888 22.0718 25.0779 22.2626 24.7787 22.7008C24.4313 23.2095 23.2915 24.3384 22.7626 24.6978C22.3819 24.9563 22.2464 25.1307 22.6098 24.8943ZM9.03203 23.1477C9.03203 22.9963 9.3304 22.6456 9.59814 22.4822C9.86221 22.321 10.115 22.2986 10.3357 22.4167C10.4435 22.4745 10.4834 22.5776 10.4834 22.7985C10.4834 23.0655 10.446 23.1282 10.1664 23.331C9.97312 23.4711 9.75511 23.5608 9.60791 23.5608C9.35714 23.5608 9.03203 23.3276 9.03203 23.1477ZM26.8774 22.4905C26.9404 22.4905 26.9707 22.4561 26.9447 22.4141C26.9188 22.372 26.846 22.3376 26.783 22.3376C26.7199 22.3376 26.6896 22.372 26.7156 22.4141C26.7416 22.4561 26.8144 22.4905 26.8774 22.4905ZM9.67712 23.2832C10.0177 23.2718 10.277 23.0322 10.2387 22.7643C10.2234 22.6573 10.1508 22.5976 10.0167 22.582C9.75114 22.5512 9.32078 22.9073 9.35271 23.1314C9.37203 23.267 9.42451 23.2916 9.67712 23.2832ZM25.6601 23.2984C25.4634 23.3741 25.4323 23.1746 25.6111 22.9842C25.7848 22.799 25.9387 22.7945 25.8689 22.9766C25.8245 23.0925 26.5712 23.5892 26.7729 23.5779C26.9389 23.5685 26.9389 23.592 26.7739 23.8502C26.5275 24.2358 26.2104 24.3625 26.0052 24.1571C25.897 24.0489 25.8865 23.722 25.986 23.5645C26.0718 23.4288 25.8314 23.2327 25.6601 23.2984ZM10.6915 23.5341C10.6227 23.5061 10.6282 23.4746 10.7125 23.415C10.9871 23.2208 11.1332 23.6166 10.8702 23.8419C10.6841 24.0014 10.6666 24.1596 10.8281 24.2216C10.978 24.2791 11.1709 24.1171 11.1709 23.9337C11.1709 23.7403 11.2622 23.7531 11.4711 23.9756C11.6516 24.168 11.6267 24.4054 11.442 24.2521C11.3128 24.1447 10.5598 24.7348 10.5598 24.9434C10.5598 25.0239 10.5298 25.0898 10.4931 25.0898C10.3927 25.0898 9.94868 24.5457 9.94868 24.4226C9.94868 24.2141 10.1089 24.0195 10.2807 24.0195C10.4855 24.0195 10.8438 23.5962 10.6915 23.5341ZM26.3023 24.0195C26.5009 24.0195 26.5697 23.8243 26.4229 23.6775C26.267 23.5214 26.2259 23.5298 26.1492 23.7328C26.0687 23.9459 26.1081 24.0195 26.3023 24.0195ZM24.8847 24.3253C24.6603 24.3253 24.6463 24.2708 24.8103 24.0366C24.9558 23.8286 25.0733 23.8172 25.0733 24.011C25.0733 24.1912 25.7439 24.7857 25.8856 24.7313C26.06 24.6643 26.0024 24.8773 25.7847 25.1047C25.3531 25.5555 24.7023 25.2433 25.03 24.7427C25.1943 24.4918 25.1364 24.3253 24.8847 24.3253ZM10.5598 24.5547C10.69 24.4849 10.7044 24.4458 10.6317 24.3582C10.5153 24.2178 10.1778 24.2148 10.1778 24.3542C10.1778 24.546 10.3789 24.6515 10.5598 24.5547ZM25.544 25.0404C25.6757 24.9211 25.676 24.9092 25.55 24.8135C25.3685 24.6755 25.3211 24.6826 25.2252 24.8621C25.0732 25.1463 25.292 25.2686 25.544 25.0404ZM11.6345 25.1107C11.9045 25.2617 12.0875 25.1877 12.0875 24.9276C12.0875 24.7609 12.2214 24.7456 12.4122 24.8904C12.5852 25.0219 12.5817 25.0898 12.4018 25.0898C12.3226 25.0898 12.2049 25.1672 12.1403 25.2618C12.0756 25.3565 11.9363 25.5313 11.8308 25.6503C11.7252 25.7695 11.6575 25.9157 11.6804 25.9753C11.7049 26.0392 11.6748 26.0837 11.6071 26.0837C11.4883 26.0837 11.0181 25.5967 11.0181 25.4737C11.0181 25.4354 11.1023 25.3076 11.2052 25.1897C11.3919 24.9755 11.3927 24.9754 11.6345 25.1107ZM23.8418 25.2427C23.6555 25.2427 23.6608 25.1779 23.8644 24.9609C24.0531 24.7599 24.3198 24.7019 24.1579 24.8972C24.0817 24.9891 24.0979 25.0527 24.244 25.2364C24.343 25.3608 24.4862 25.5513 24.5624 25.66C24.6385 25.7686 24.7307 25.839 24.7672 25.8164C24.8037 25.7938 24.8584 25.8156 24.8886 25.8646C24.9577 25.9764 24.4803 26.3846 24.2772 26.3874C24.0734 26.3902 23.8511 26.1701 23.8511 25.9653C23.8511 25.7879 23.6936 25.676 23.4324 25.6679C23.2291 25.6616 23.1934 25.426 23.3805 25.3257C23.5039 25.2597 23.5697 25.2861 23.7554 25.4762C23.9534 25.6789 23.9925 25.6925 24.078 25.5894C24.199 25.4435 24.0622 25.2427 23.8418 25.2427ZM21.3719 25.5231C21.4492 25.5499 22.3233 25.1114 22.3233 25.0459C22.3233 25.0367 22.3239 25.0292 22.3205 25.0251C22.3066 25.0088 22.228 25.0472 21.7886 25.2576C21.5156 25.3885 21.328 25.5079 21.3719 25.5231ZM11.6151 25.6138C11.7192 25.465 11.7167 25.44 11.5885 25.3462C11.4054 25.2122 11.3292 25.2156 11.2738 25.3602C11.249 25.4249 11.2898 25.5453 11.3644 25.6279C11.4991 25.7767 11.5011 25.7766 11.6151 25.6138ZM12.7526 26.0197C13.116 26.0452 13.1189 26.0435 13.1426 25.797C13.1701 25.5123 13.2248 25.4935 13.4632 25.6866L13.6336 25.8247L13.437 25.9536C13.2096 26.1027 12.8179 26.7321 12.8849 26.8406C13.0022 27.0304 12.7405 26.9865 12.4681 26.7706C11.9483 26.3587 12.0943 25.9734 12.7526 26.0197ZM19.9978 26.0007C20.1783 26.0082 21.1034 25.7143 21.2119 25.615C21.331 25.5059 21.105 25.5557 20.4519 25.7822C20.1158 25.8988 19.9114 25.9971 19.9978 26.0007ZM24.1789 26.1817C24.2921 26.2251 24.5386 26.0668 24.5386 25.9508C24.5386 25.9081 24.4922 25.8345 24.4356 25.7875C24.3573 25.7225 24.3023 25.7354 24.2064 25.8415C24.0549 26.0091 24.0451 26.1302 24.1789 26.1817ZM22.2823 26.6385C22.1327 26.2801 22.1413 26.1439 22.3263 25.9452C22.412 25.8532 22.5599 25.7779 22.6551 25.7779C22.9541 25.7779 23.4691 26.4319 23.4691 26.8118C23.4691 26.9381 23.09 27.3069 22.9602 27.3069C22.7971 27.3069 22.3964 26.9118 22.2823 26.6385ZM13.7462 26.87C13.8144 26.6268 13.873 26.333 13.8764 26.2175C13.8806 26.0734 13.9233 26.0072 14.0118 26.0072C14.1681 26.0072 14.2897 26.1772 14.1635 26.2193C14.0329 26.2629 14.0533 26.4418 14.195 26.4962C14.3572 26.5585 14.4589 26.4873 14.4058 26.3488C14.3573 26.2224 14.5772 26.195 14.7517 26.3057C14.8743 26.3833 14.8018 26.5424 14.6437 26.5424C14.5841 26.5424 14.4776 26.637 14.4068 26.7526C14.0662 27.3095 13.8918 27.5362 13.804 27.5362C13.6366 27.5362 13.6184 27.3259 13.7462 26.87ZM22.9849 26.9882C23.1949 26.9484 23.2088 26.5441 23.009 26.2899C22.8503 26.0879 22.5305 26.0102 22.4427 26.1522C22.2897 26.4001 22.7055 27.0413 22.9849 26.9882ZM12.7493 26.5243C12.8544 26.4193 12.8593 26.3765 12.7782 26.2786C12.7241 26.2135 12.6362 26.1601 12.5829 26.1601C12.427 26.1601 12.3759 26.4051 12.5048 26.5341C12.6105 26.6398 12.635 26.6388 12.7493 26.5243ZM20.9866 27.2304C20.7337 27.0203 20.9365 26.5111 21.3303 26.367C21.5676 26.2802 21.6077 26.3249 21.7016 26.7799C21.7636 27.0798 21.8646 27.3134 21.9843 27.4332C22.0868 27.5357 22.1706 27.6326 22.1706 27.6484C22.1706 27.6808 21.6595 27.8614 21.4845 27.891C21.3202 27.9188 21.1012 27.6928 21.1012 27.4955C21.1012 27.402 21.0496 27.2828 20.9866 27.2304ZM21.0478 26.9509C21.1003 27.0878 21.4444 27.1256 21.5201 27.0029C21.5455 26.9618 21.5197 26.8392 21.4627 26.7304C21.3596 26.5335 21.3585 26.5333 21.1792 26.6785C21.0633 26.7725 21.0165 26.8693 21.0478 26.9509ZM13.9634 27.0011C13.9791 27.0011 14.0286 26.9323 14.0736 26.8482C14.1187 26.7637 14.1239 26.6953 14.0852 26.6953C14.0466 26.6953 13.997 26.7641 13.975 26.8482C13.9531 26.9323 13.9478 27.0011 13.9634 27.0011ZM20.0404 27.0064C19.9829 26.9709 19.9594 26.9034 19.9883 26.8567C20.0171 26.8099 20.1461 26.7717 20.2747 26.7717C20.4791 26.7717 20.4961 26.787 20.4089 26.8922C20.3458 26.9683 20.3071 27.2407 20.304 27.6309C20.297 28.5212 20.0793 28.5287 19.7719 27.6491C19.6703 27.3582 19.5497 27.1078 19.5039 27.0926C19.3329 27.0355 19.4223 26.8482 19.6205 26.8482C19.7848 26.8482 19.813 26.8762 19.7792 27.0057C19.7308 27.1911 19.9193 27.2971 20.0553 27.1609C20.124 27.0922 20.1205 27.056 20.0404 27.0064ZM16.8107 28.3949C16.4629 28.3068 16.446 27.4129 16.7852 27.0466C16.9871 26.8286 17.1048 26.8051 17.2885 26.9462C17.5804 27.1706 17.6782 27.7117 17.4982 28.1071C17.4069 28.3076 17.052 28.4561 16.8107 28.3949ZM18.12 27.9872C17.9773 27.4569 18.1377 27.0456 18.5107 26.985C18.7554 26.9452 18.8821 26.9216 18.9435 26.9741C19.012 27.0329 18.999 27.1868 18.9776 27.5198C18.9457 28.0168 18.96 28.1099 19.081 28.1986C19.2683 28.3356 19.1398 28.4619 18.8 28.4747C18.4201 28.489 18.2156 28.3424 18.12 27.9872ZM17.3419 27.8559C17.396 27.7007 17.3884 27.5719 17.315 27.3971C17.2083 27.1433 17.0055 27.0788 16.8388 27.2457C16.7884 27.2962 16.7471 27.5019 16.7471 27.7029C16.7471 28.0268 16.7683 28.0738 16.9337 28.1153C17.17 28.1746 17.2482 28.125 17.3419 27.8559ZM18.652 28.189C18.6966 28.1614 18.7332 27.9344 18.7332 27.6846C18.7332 27.2982 18.7126 27.2304 18.5957 27.2304C18.3835 27.2304 18.2748 27.387 18.2748 27.6926C18.2748 27.9854 18.5006 28.2826 18.652 28.189ZM21.3666 27.6111C21.5161 27.7352 21.7307 27.6504 21.6979 27.48C21.6652 27.3098 21.4577 27.268 21.3415 27.4081C21.272 27.4918 21.2777 27.5372 21.3666 27.6111ZM20.0317 27.6891C20.0894 27.7785 20.1061 27.7574 20.107 27.5935C20.1076 27.478 20.0738 27.3833 20.0317 27.3833C19.9352 27.3833 19.9352 27.5395 20.0317 27.6891ZM22.5971 21.2842C22.6206 21.2263 22.6292 21.1701 22.623 21.1156C22.614 21.0363 22.5652 20.9816 22.4765 20.9516C22.3922 20.916 22.2945 20.8945 22.1833 20.8871C22.0765 20.8742 21.9703 20.8663 21.8646 20.8632C21.7589 20.8602 21.6797 20.8467 21.6268 20.8226C21.4885 20.753 21.3443 20.654 21.1943 20.5256C21.0492 20.3966 20.9176 20.2761 20.7995 20.164C20.8472 20.0984 20.8715 20.0253 20.8724 19.9449C20.8782 19.8639 20.8769 19.7863 20.8684 19.712C20.8459 19.5138 20.8044 19.3253 20.7439 19.1464C20.6884 18.9671 20.6282 18.7907 20.5633 18.6174C20.4979 18.4392 20.4352 18.2631 20.3753 18.0893C20.3148 17.9104 20.2686 17.725 20.2367 17.5329C20.1982 17.3264 20.1456 17.1292 20.0791 16.941C20.012 16.7479 19.9374 16.5556 19.8554 16.3642C19.7746 16.1827 19.7204 15.9931 19.6929 15.7955C19.6703 15.5973 19.6261 15.4065 19.5601 15.2233C19.5252 15.137 19.4739 15.0173 19.4064 14.8644C19.3383 14.7065 19.2674 14.5465 19.1937 14.3842C19.1195 14.217 19.0542 14.0613 18.9977 13.9172C18.9411 13.7731 18.9092 13.6688 18.9019 13.6044C18.8895 13.4954 18.8922 13.3871 18.91 13.2797C18.9279 13.1723 18.9303 13.0616 18.9174 12.9476C18.9089 12.8733 18.8842 12.8108 18.8434 12.7603C18.7578 12.6697 18.7045 12.5754 18.6833 12.4774C18.6665 12.3739 18.6392 12.2666 18.6015 12.1554C18.5721 12.0735 18.5265 12.0034 18.4647 11.9452C18.4073 11.8814 18.3453 11.8208 18.2785 11.7631C18.2167 11.7049 18.1574 11.6464 18.1006 11.5877C18.0432 11.5239 18.0022 11.4508 17.9778 11.3683C17.8177 11.3715 17.6634 11.3815 17.5148 11.3985C17.3861 11.4131 17.2585 11.4377 17.132 11.4722C17.005 11.5018 16.8797 11.5462 16.756 11.6054C16.6423 11.6636 16.5582 11.7183 16.5039 11.7697C16.4545 11.8205 16.4208 11.8771 16.4029 11.9393C16.3898 12.0011 16.3853 12.0718 16.3894 12.1517C16.3979 12.226 16.4034 12.3182 16.4059 12.4284C16.4024 12.5743 16.3811 12.7173 16.3418 12.8573C16.3076 12.9967 16.2862 13.1397 16.2778 13.2862C16.2737 13.382 16.2676 13.4605 16.2595 13.5217C16.2508 13.5779 16.2394 13.6319 16.2253 13.6837C16.2106 13.7306 16.1936 13.7802 16.1745 13.8325C16.1554 13.8849 16.1281 13.9533 16.0925 14.0376C16.0532 14.1325 16.032 14.2328 16.029 14.3385C16.0304 14.4387 16.0345 14.5412 16.0414 14.6458C16.0533 14.7498 16.0626 14.8542 16.0695 14.9588C16.0814 15.0628 16.0778 15.1636 16.0588 15.2612C16.0502 15.3174 16.0313 15.3722 16.0023 15.4257C15.9777 15.4737 15.9509 15.5244 15.9218 15.5779C15.8972 15.6259 15.8753 15.6761 15.8562 15.7285C15.8421 15.7803 15.8378 15.831 15.8434 15.8805C15.8547 15.9796 15.8809 16.077 15.9218 16.1727C15.9623 16.2635 15.9884 16.3609 16.0002 16.4649C16.0115 16.564 16.0087 16.6497 15.9919 16.7219C15.975 16.7941 15.9524 16.8594 15.9239 16.9179C15.9004 16.9757 15.8788 17.0284 15.8591 17.0758C15.8389 17.1183 15.8316 17.1643 15.8372 17.2138C15.8418 17.2535 15.8584 17.2892 15.8871 17.3211C15.9152 17.348 15.948 17.3719 15.9855 17.3927C15.9782 17.3283 16.0042 17.2927 16.0636 17.2859C16.1032 17.2814 16.1321 17.2931 16.1504 17.3212C16.1521 17.336 16.1386 17.3501 16.11 17.3634C16.0859 17.3712 16.057 17.382 16.0235 17.3959C15.9949 17.4092 15.9669 17.4274 15.9394 17.4506C15.9164 17.4683 15.9071 17.497 15.9116 17.5366C15.9178 17.5911 15.9339 17.6445 15.9599 17.6968C15.9909 17.7484 16.0095 17.8015 16.0157 17.856C16.0202 17.8957 16.0142 17.9315 15.9978 17.9635C15.9808 17.9905 15.9589 18.0181 15.932 18.0463C15.9101 18.0739 15.8909 18.1037 15.8745 18.1356C15.858 18.1676 15.8521 18.2034 15.8566 18.2431C15.8645 18.3125 15.8916 18.3746 15.938 18.4296C15.9838 18.4795 16.0107 18.5392 16.0186 18.6086C16.0231 18.6482 16.0144 18.6819 15.9924 18.7095C15.9699 18.7321 15.9453 18.7575 15.9184 18.7857C15.8964 18.8133 15.8751 18.8458 15.8543 18.8833C15.8329 18.9159 15.8256 18.9619 15.8324 19.0213C15.8476 19.1551 15.8553 19.2446 15.8554 19.2897C15.8599 19.3294 15.8553 19.355 15.8416 19.3666C15.8328 19.3777 15.8144 19.3923 15.7864 19.4105C15.7633 19.4282 15.7318 19.482 15.6919 19.5719C15.6837 19.5879 15.6791 19.6135 15.6781 19.6488C15.682 19.6834 15.6838 19.7209 15.6834 19.7611C15.6879 19.8007 15.6899 19.8407 15.6895 19.8809C15.6934 19.9155 15.6943 19.9456 15.6922 19.9709C15.6858 20.0469 15.68 20.1505 15.6749 20.2816C15.6692 20.4077 15.6613 20.5366 15.6512 20.6682C15.6411 20.7999 15.6228 20.9249 15.5961 21.0434C15.5689 21.157 15.5284 21.2419 15.4747 21.2982C15.4209 21.3545 15.3512 21.4026 15.2654 21.4425C15.1846 21.4819 15.0964 21.522 15.0008 21.563C14.9101 21.6035 14.8172 21.6467 14.7222 21.6927C14.6315 21.7331 14.5494 21.7827 14.4758 21.8412C14.4066 21.8943 14.3512 21.9583 14.3096 22.0334C14.2729 22.1078 14.2605 22.1971 14.2724 22.3011C14.2836 22.4002 14.3394 22.4717 14.4397 22.5154C14.5444 22.5537 14.6622 22.5754 14.7932 22.5805C14.9247 22.5906 15.0551 22.5908 15.1844 22.5811C15.3186 22.5708 15.4204 22.5617 15.4897 22.5538C15.6878 22.5312 15.8822 22.499 16.073 22.4572C16.2694 22.4197 16.4627 22.3776 16.6529 22.3308C16.8438 22.289 17.0349 22.2496 17.2263 22.2128C17.422 22.1704 17.6189 22.1379 17.817 22.1153L17.9135 22.1043L17.9093 22.0671C17.9031 22.0126 17.8834 21.9496 17.8502 21.8781C17.8164 21.8017 17.7755 21.7285 17.7274 21.6587C17.6837 21.5834 17.6335 21.5163 17.5766 21.4576C17.5242 21.3933 17.4715 21.3491 17.4186 21.325C17.3657 21.3009 17.3059 21.2826 17.2393 21.2702C17.1727 21.2577 17.1086 21.2449 17.0469 21.2319C16.9896 21.2133 16.9389 21.1865 16.8948 21.1513C16.8501 21.1113 16.8235 21.0541 16.8151 20.9797L16.8183 20.9417C16.7995 20.9087 16.7875 20.8699 16.7825 20.8253C16.7763 20.7708 16.7836 20.7248 16.8044 20.6873C16.8252 20.6498 16.8463 20.6148 16.8676 20.5822C16.8934 20.5442 16.9167 20.5064 16.9375 20.4689C16.9577 20.4264 16.9642 20.373 16.9568 20.3086L16.9416 20.1748C16.9371 20.1351 16.9419 20.0894 16.9561 20.0376C16.9773 19.9599 16.9882 19.9009 16.9886 19.8607C16.994 19.82 17.003 19.7888 17.0156 19.7673C17.0331 19.7452 17.0584 19.7248 17.0914 19.706C17.1293 19.6866 17.1886 19.6572 17.2694 19.6179C17.398 19.5581 17.5236 19.4936 17.6461 19.4244C17.768 19.3502 17.8897 19.2736 18.0111 19.1945C18.0449 19.271 18.0975 19.3152 18.1691 19.3271C18.2456 19.3384 18.3185 19.3402 18.3879 19.3323C18.5215 19.317 18.6538 19.2894 18.7847 19.2494C18.9149 19.2044 19.0469 19.1743 19.1806 19.1591C19.2301 19.1534 19.2678 19.1541 19.2937 19.1612C19.3753 19.2172 19.4599 19.2778 19.5476 19.3431C19.6402 19.4078 19.7238 19.4811 19.7983 19.5629C19.8722 19.6398 19.9347 19.7256 19.9856 19.8202C20.0414 19.9142 20.0752 20.0132 20.0871 20.1173C20.1074 20.2957 20.0756 20.4574 19.9919 20.6025C19.913 20.747 19.8204 20.8805 19.714 21.0031C19.607 21.1207 19.5091 21.2297 19.4202 21.3302C19.3357 21.4251 19.2983 21.5147 19.3079 21.599C19.3203 21.708 19.3957 21.7973 19.534 21.8668C19.6717 21.9314 19.8279 21.9814 20.0024 22.0167C20.1824 22.0564 20.358 22.079 20.5292 22.0846C20.7009 22.0952 20.8288 22.0956 20.913 22.086C21.012 22.0747 21.1014 22.0445 21.181 21.9952C21.2662 21.9504 21.3558 21.9226 21.4499 21.9119C21.4944 21.9068 21.5395 21.9067 21.5852 21.9115C21.6309 21.9163 21.6736 21.9165 21.7132 21.912C21.7775 21.9046 21.8204 21.8847 21.8418 21.8521C21.8637 21.8245 21.8779 21.7953 21.8844 21.7645C21.8959 21.733 21.9077 21.7041 21.9197 21.6776C21.9312 21.6462 21.9592 21.6279 22.0037 21.6229C22.0384 21.6189 22.0733 21.6174 22.1086 21.6184C22.1438 21.6194 22.1787 21.618 22.2134 21.614C22.2629 21.6084 22.3134 21.5901 22.3651 21.5591C22.4162 21.5231 22.4617 21.4828 22.5018 21.4381C22.5413 21.3884 22.573 21.3371 22.5971 21.2842ZM18.9839 17.2993C19.0265 17.3647 19.0503 17.4197 19.0554 17.4643C19.0672 17.5683 19.0204 17.664 18.915 17.7513C18.8146 17.8381 18.6904 17.915 18.5426 17.982C18.3991 18.0435 18.2518 18.093 18.1006 18.1303C17.9543 18.167 17.8416 18.1899 17.7624 18.199C17.6485 18.2119 17.5574 18.2048 17.4891 18.1774C17.4202 18.1451 17.3645 18.0963 17.3219 18.0308C17.2788 17.9605 17.2461 17.8713 17.2238 17.7635C17.2015 17.6556 17.1819 17.5273 17.165 17.3787C17.1571 17.3093 17.1596 17.2437 17.1727 17.182C17.1851 17.1154 17.1998 17.0459 17.2167 16.9737C17.2335 16.9015 17.2473 16.8247 17.2581 16.7431C17.2683 16.6566 17.2669 16.5564 17.254 16.4425C17.2455 16.3681 17.2346 16.2941 17.2212 16.2203C17.2078 16.1466 17.1965 16.0701 17.1875 15.9908C17.1774 15.9016 17.1722 15.8118 17.1719 15.7215C17.176 15.6257 17.1906 15.5337 17.2157 15.4455C17.2364 15.3628 17.2598 15.2823 17.286 15.2041C17.3166 15.1203 17.3268 15.0338 17.3167 14.9446C17.3133 14.9149 17.3083 14.8928 17.3016 14.8785C17.3186 14.8515 17.3439 14.8311 17.3774 14.8172C17.4109 14.8033 17.442 14.7898 17.4706 14.7765C17.5035 14.7576 17.5315 14.7394 17.5546 14.7217C17.5771 14.6991 17.591 14.6674 17.5964 14.6266C17.7499 14.6091 17.8708 14.6355 17.959 14.7057C18.0516 14.7704 18.1245 14.86 18.1777 14.9744C18.2302 15.0839 18.2691 15.2049 18.2942 15.3376C18.3237 15.4647 18.3497 15.5822 18.372 15.6901C18.402 15.8222 18.4445 15.9529 18.4993 16.0821C18.5536 16.2064 18.5884 16.3355 18.6036 16.4693C18.6166 16.5832 18.6463 16.6903 18.6928 16.7904C18.7393 16.8905 18.7874 16.9829 18.8372 17.0675C18.8919 17.1516 18.9408 17.2289 18.9839 17.2993Z" fill="#101521"/>
</g>
<defs>
<linearGradient id="paint0_linear" x1="-7.71786" y1="-8.25" x2="41.1387" y2="40.8756" gradientUnits="userSpaceOnUse">
<stop stop-color="#E6EA00"/>
<stop offset="1" stop-color="#FDE000"/>
</linearGradient>
<clipPath id="clip0">
<rect width="36" height="36" fill="white" transform="translate(0.125)"/>
</clipPath>
</defs>
</svg>
