<svg width="381" height="454" viewBox="0 0 381 454" fill="none" xmlns="http://www.w3.org/2000/svg">
<path d="M227.804 271.545C227.938 272.726 227.751 273.945 227.241 275.2C226.719 276.348 226.029 277.46 225.173 278.537C224.304 279.506 223.315 280.381 222.207 281.16C221.086 281.832 219.989 282.229 218.915 282.351C218.163 282.437 217.405 282.469 216.641 282.447C215.876 282.425 215.118 282.457 214.366 282.543C213.399 282.653 212.792 283.049 212.543 283.73C212.282 284.304 212.027 284.931 211.778 285.613C211.636 286.282 211.328 286.915 210.852 287.514C210.388 288.219 209.458 288.652 208.062 288.811C207.202 288.909 206.277 288.905 205.285 288.801C204.294 288.696 203.315 288.699 202.348 288.809C200.307 289.041 198.363 289.644 196.515 290.616C194.786 291.684 192.848 292.34 190.699 292.584C188.873 292.792 186.097 292.782 182.371 292.554C178.658 292.433 174.848 291.942 170.941 291.081C167.154 290.316 163.766 289.233 160.777 287.832C157.776 286.324 156.141 284.388 155.871 282.025C155.663 280.199 156.476 278.256 158.309 276.197C160.237 274.019 162.362 271.655 164.683 269.105C166.992 266.448 169.002 263.553 170.712 260.42C172.53 257.275 173.219 253.769 172.778 249.901C172.521 247.646 171.787 245.498 170.576 243.46C169.471 241.409 168.117 239.551 166.512 237.883C164.896 236.109 163.082 234.52 161.073 233.117C159.17 231.701 157.334 230.387 155.563 229.174C155.002 229.02 154.184 229.005 153.109 229.127C150.209 229.458 147.345 230.11 144.518 231.085C141.679 231.953 138.809 232.552 135.909 232.882C134.405 233.054 132.823 233.016 131.162 232.77C129.609 232.512 128.466 231.554 127.733 229.896C125.1 231.611 122.459 233.272 119.813 234.879C117.155 236.379 114.43 237.778 111.64 239.075C109.887 239.927 108.6 240.564 107.777 240.984C107.062 241.392 106.514 241.835 106.133 242.314C105.86 242.78 105.665 243.455 105.548 244.339C105.538 245.211 105.303 246.489 104.842 248.174C104.535 249.297 104.43 250.288 104.528 251.148C104.626 252.007 104.736 252.974 104.858 254.048C105.017 255.445 104.877 256.603 104.438 257.524C103.987 258.337 103.481 259.156 102.922 259.982C102.459 260.688 102.001 261.447 101.55 262.26C101.098 263.073 100.94 264.071 101.075 265.253C101.185 266.219 101.444 267.06 101.852 267.776L101.782 268.6C101.966 270.211 102.542 271.451 103.512 272.32C104.469 273.082 105.569 273.664 106.812 274.066C108.15 274.349 109.542 274.626 110.988 274.896C112.433 275.167 113.73 275.563 114.877 276.085C116.025 276.608 117.168 277.566 118.306 278.959C119.539 280.233 120.63 281.687 121.578 283.32C122.621 284.834 123.509 286.419 124.242 288.077C124.962 289.627 125.39 290.993 125.525 292.175L125.616 292.98L123.522 293.219C119.225 293.708 114.952 294.413 110.704 295.332C106.551 296.132 102.404 296.985 98.2639 297.892C94.1355 298.906 89.9412 299.82 85.6809 300.631C81.5403 301.538 77.3215 302.237 73.0245 302.726C71.5206 302.897 69.3122 303.095 66.3995 303.318C63.5943 303.528 60.7645 303.524 57.9103 303.305C55.0683 303.194 52.5118 302.723 50.2409 301.894C48.0653 300.945 46.855 299.396 46.6103 297.248C46.3532 294.992 46.6225 293.057 47.418 291.443C48.3209 289.816 49.5229 288.428 51.0242 287.277C52.6206 286.007 54.4026 284.934 56.3702 284.057C58.4331 283.06 60.4483 282.123 62.4159 281.246C64.491 280.357 66.4049 279.486 68.1577 278.633C70.0179 277.768 71.5314 276.725 72.6981 275.504C73.8648 274.283 74.7432 272.442 75.3334 269.981C75.9113 267.412 76.3097 264.7 76.5286 261.846C76.7476 258.992 76.9189 256.198 77.0426 253.463C77.1541 250.621 77.2792 248.376 77.4179 246.728C77.4641 246.179 77.4444 245.528 77.3588 244.776C77.3683 243.904 77.3241 243.039 77.2262 242.179C77.2357 241.308 77.1976 240.496 77.1119 239.744C77.1337 238.98 77.2336 238.424 77.4118 238.077C78.278 236.129 78.9613 234.963 79.4617 234.579C80.0695 234.184 80.4686 233.866 80.659 233.627C80.9568 233.375 81.0567 232.82 80.9588 231.96C80.9561 230.981 80.7895 229.042 80.4591 226.141C80.3122 224.852 80.4706 223.855 80.9343 223.149C81.3858 222.336 81.8495 221.63 82.3254 221.032C82.9087 220.421 83.4445 219.87 83.9327 219.379C84.4086 218.781 84.5976 218.052 84.4997 217.193C84.3284 215.689 83.7457 214.395 82.7517 213.311C81.7454 212.12 81.1566 210.773 80.9853 209.269C80.8874 208.409 81.0165 207.633 81.3728 206.939C81.7291 206.246 82.1452 205.6 82.6211 205.002C83.2045 204.391 83.6804 203.793 84.0489 203.207C84.4052 202.513 84.5343 201.737 84.4364 200.877C84.3018 199.696 83.8986 198.544 83.2269 197.424C82.6626 196.291 82.3131 195.134 82.1785 193.952C82.0806 193.093 82.2818 192.472 82.7822 192.088C83.3778 191.585 83.9856 191.189 84.6057 190.901C85.3332 190.6 85.9594 190.366 86.4843 190.197C87.1044 189.909 87.396 189.604 87.3593 189.281C86.9636 188.674 86.3361 188.419 85.4767 188.517C84.1876 188.663 83.6226 189.435 83.7817 190.832C82.9685 190.38 82.2566 189.863 81.6461 189.279C81.0233 188.589 80.6629 187.814 80.565 186.954C80.4426 185.88 80.6011 184.883 81.0403 183.962C81.4673 182.934 81.9357 181.792 82.4456 180.537C83.063 179.27 83.5545 177.854 83.9203 176.289C84.2861 174.723 84.3466 172.867 84.1018 170.718C83.8448 168.462 83.2778 166.35 82.4007 164.383C81.5114 162.308 80.9443 160.196 80.6996 158.047C80.5772 156.973 80.6697 155.874 80.977 154.751C81.3917 153.616 81.8663 152.528 82.4007 151.488C83.0303 150.328 83.6123 149.228 84.1467 148.187C84.7762 147.028 85.1849 145.838 85.3725 144.62C85.7845 142.505 85.862 140.32 85.605 138.064C85.4554 135.796 85.2521 133.534 84.9951 131.278C84.8456 129.01 84.7558 126.789 84.7259 124.617C84.7911 122.324 85.2508 120.15 86.1047 118.094C86.8757 116.265 87.4686 114.782 87.8833 113.647C88.2981 112.512 88.6652 111.436 88.9848 110.42C89.2921 109.297 89.5396 108.126 89.7272 106.908C89.9026 105.582 90.0352 103.88 90.1249 101.802C90.3071 98.6258 90.7701 95.5262 91.514 92.5033C92.3652 89.4682 92.8282 86.3685 92.903 83.2043C92.8486 80.8164 92.7296 78.8168 92.546 77.2055C92.4576 75.4744 92.5548 73.9399 92.8377 72.6018C93.2279 71.2515 93.9588 70.0257 95.0304 68.9242C96.2093 67.8105 98.0328 66.6234 100.501 65.3629C103.184 64.0779 105.903 63.1151 108.66 62.4746C111.404 61.7267 114.172 61.1937 116.965 60.8755C120.188 60.5083 123.537 60.2901 127.011 60.2207C127.541 62.0102 128.429 63.5957 129.675 64.9773C130.908 66.2514 132.195 67.5195 133.536 68.7814C134.984 70.031 136.331 71.3466 137.577 72.7282C138.917 73.9901 139.907 75.5097 140.544 77.2869C141.363 79.6965 141.955 82.0231 142.319 84.2668C142.779 86.3908 143.937 88.4353 145.793 90.4002C146.679 91.4962 147.214 92.8499 147.398 94.4613C147.679 96.932 147.626 99.3321 147.239 101.661C146.851 103.991 146.792 106.337 147.061 108.7C147.221 110.097 147.913 112.358 149.14 115.483C150.366 118.607 151.785 121.982 153.395 125.608C154.993 129.125 156.531 132.596 158.009 136.018C159.475 139.334 160.586 141.927 161.344 143.8C162.775 147.772 163.736 151.906 164.226 156.203C164.823 160.488 165.998 164.598 167.752 168.533C169.531 172.683 171.149 176.852 172.605 181.039C174.049 185.118 175.189 189.395 176.026 193.871C176.718 198.036 177.72 202.057 179.032 205.933C180.332 209.703 181.692 213.52 183.112 217.384C184.519 221.141 185.825 224.965 187.03 228.854C188.342 232.73 189.243 236.817 189.733 241.114C189.916 242.726 189.945 244.409 189.818 246.165C189.799 247.908 189.272 249.491 188.237 250.915C190.799 253.344 193.654 255.957 196.802 258.754C200.058 261.539 203.186 263.685 206.187 265.193C207.335 265.715 209.055 266.009 211.347 266.074C213.64 266.139 215.945 266.312 218.262 266.592C220.674 266.753 222.795 267.218 224.624 267.989C226.548 268.641 227.608 269.826 227.804 271.545ZM150.393 192.384C150.282 191.417 149.766 190.224 148.842 188.806C147.907 187.28 146.845 185.606 145.658 183.782C144.579 181.947 143.534 179.944 142.525 177.773C141.516 175.603 140.871 173.283 140.59 170.812C140.259 167.911 139.505 165.113 138.328 162.418C137.138 159.616 136.216 156.783 135.564 153.919C135.08 151.58 134.517 149.032 133.877 146.276C133.332 143.4 132.488 140.776 131.348 138.403C130.194 135.923 128.613 133.981 126.603 132.577C124.689 131.054 122.066 130.483 118.736 130.862C118.619 131.746 118.317 132.433 117.828 132.924C117.328 133.308 116.72 133.703 116.005 134.111C115.385 134.4 114.711 134.694 113.984 134.994C113.256 135.295 112.708 135.738 112.34 136.324C112.484 136.634 112.592 137.112 112.666 137.756C112.886 139.69 112.665 141.565 112.001 143.382C111.433 145.079 110.924 146.823 110.475 148.616C109.931 150.528 109.615 152.522 109.525 154.6C109.53 156.558 109.643 158.504 109.863 160.438C110.059 162.157 110.303 163.816 110.594 165.415C110.885 167.014 111.122 168.619 111.305 170.231C111.587 172.701 111.617 174.874 111.395 176.749C111.161 178.517 110.862 180.184 110.496 181.749C110.13 183.314 109.812 184.819 109.541 186.265C109.258 187.603 109.203 189.024 109.374 190.528C109.741 193.75 110.167 196.531 110.651 198.87C111.135 201.209 111.845 203.141 112.78 204.667C113.704 206.085 114.912 207.145 116.407 207.845C117.889 208.438 119.866 208.593 122.336 208.312C124.055 208.116 126.501 207.62 129.675 206.823C132.956 206.014 136.153 204.942 139.266 203.608C142.474 202.155 145.167 200.487 147.347 198.607C149.634 196.714 150.65 194.64 150.393 192.384Z" fill="white" fill-opacity="0.03"/>
<path fill-rule="evenodd" clip-rule="evenodd" d="M94.4643 -45.1426C71.1357 -42.4476 32.9348 -29.5576 9.18193 -16.3643C-31.3178 6.13063 -67.8381 42.4238 -89.0634 81.2711C-99.8368 100.99 -105.494 115.522 -114.245 145.965C-121.834 172.361 -121.934 229.298 -114.446 259.919C-102.177 310.082 -82.2844 345.933 -47.2642 380.993C-32.5245 395.749 -19.119 406.766 -5.98705 414.911C5.98802 422.338 21.2498 430.908 25.1266 432.382C27.7056 433.363 32.0663 435.206 34.8144 436.479C44.4094 440.921 66.4584 447.395 82.9053 450.601C104.472 454.804 157.126 455.197 175.396 451.29C205.518 444.849 217.656 440.812 241.192 429.402C291.434 405.046 331.271 365.169 356.05 314.429C374.679 276.277 380.419 250.407 380.412 204.627C380.406 173.034 378.061 153.153 372.172 134.764C366.555 117.231 364.953 112.721 362.028 106.209C360.291 102.344 358.871 98.7041 358.871 98.119C358.871 95.6213 340.892 65.8154 332.497 54.3955C313.984 29.2073 286.026 3.66766 261.081 -10.8417C255.156 -14.2875 249.189 -17.8013 247.821 -18.6516C237.298 -25.1836 210.461 -35.0785 186.958 -41.0884C173.056 -44.6453 166.152 -45.3249 138.43 -45.8619C120.654 -46.2067 100.869 -45.8834 94.4643 -45.1426ZM169.109 -35.1929C248.725 -21.2604 314.269 27.8366 348.45 99.1467C375.979 156.579 379.803 218.609 359.737 282.295C356.847 291.47 338.312 329.897 335.172 333.223C334.077 334.383 330.299 339.808 326.777 345.278C318.157 358.67 283.1 392.911 266.806 403.855C225.666 431.487 178.961 445.804 130.143 445.751C92.9411 445.711 59.8651 438.138 25.7233 421.844C-45.1426 388.025 -94.702 322.065 -108.502 243.197C-119.613 179.687 -103.137 113.084 -62.8193 58.5392C-51.3846 43.0685 -21.1925 14.1162 -5.77654 3.83837C46.6453 -31.1123 110.721 -45.4127 169.109 -35.1929ZM85.3914 -30.6647C58.4281 -24.6283 46.1497 -20.3239 22.183 -8.51128C-0.39978 2.61849 -17.4732 15.1438 -37.8764 35.547C-73.7933 71.464 -93.1821 107.936 -104.287 160.472C-108.281 179.366 -107.897 229.624 -103.603 250.193C-96.628 283.589 -81.0662 319.826 -63.779 342.926C-48.0315 363.969 -34.5598 378.071 -19.0278 389.772C-14.0141 393.549 -9.53896 397.067 -9.08315 397.587C-4.3876 402.957 24.399 418.395 44.7839 426.476C124.946 458.255 220.881 441.607 286.342 384.558C360.321 320.083 387.82 217.939 356.036 125.666C352.146 114.372 335.252 79.2573 333.707 79.2573C332.961 79.2573 332.351 78.4319 332.351 77.4225C332.351 74.8899 311.139 46.9321 302.298 37.8111C296.241 31.5609 286.614 23.2222 270.772 10.4947C260.204 2.00689 237.711 -10.2715 219.645 -17.4134C186.63 -30.4659 169.229 -33.4957 128.636 -33.2636C106.889 -33.1393 92.6063 -32.2808 85.3914 -30.6647ZM172.408 -24.0151C180.612 -22.5482 194.783 -18.8703 203.899 -15.8438C220.588 -10.3013 250.783 4.16986 256.937 9.5748C258.761 11.1759 264.727 15.5118 270.197 19.2112C281.743 27.0195 306.857 52.2574 318.008 67.259C322.251 72.9673 325.722 77.991 325.722 78.4219C325.722 78.8545 328.054 82.9982 330.904 87.6307C338.283 99.6224 349.581 125.958 353.776 140.946C368.315 192.882 363.997 251.572 342.243 297.701C339.538 303.439 337.324 308.453 337.324 308.841C337.324 311.229 320.822 336.764 311.872 348.227C277.39 392.379 221.387 424.804 164.949 433.29C149.167 435.664 108.587 436.824 105.617 434.987C104.948 434.575 98.8185 433.459 91.9947 432.509C71.7308 429.69 44.6497 420.624 24.4404 409.897C-15.4378 388.728 -44.0122 361.612 -69.9497 320.327C-80.7032 303.209 -92.6882 271.086 -97.586 246.247C-101.794 224.906 -101.489 179.911 -96.9926 158.815C-91.1186 131.263 -89.9186 127.907 -75.5286 98.7953C-53.6536 54.5414 -17.2262 18.6112 28.2641 -3.58037C52.1447 -15.2306 50.0497 -14.3405 61.3783 -17.672C96.9157 -28.1222 136.716 -30.3962 172.408 -24.0151ZM125.803 -21.5305C125.132 -20.4449 125.462 -19.2632 126.534 -18.9068C127.777 -18.4924 128.485 -14.1433 128.485 -6.93007C128.485 0.283146 127.777 4.63229 126.534 5.04665C122.235 6.47869 127.462 9.64441 134.127 9.64441C143.23 9.64441 146.972 5.70135 147.879 -4.84169C148.389 -10.7704 147.718 -14.0704 145.176 -18.1179C142.184 -22.883 140.941 -23.5046 134.409 -23.5046C130.346 -23.5046 126.475 -22.6162 125.803 -21.5305ZM99.7019 -16.7455C99.1251 -13.8549 98.651 -7.25494 98.651 -2.08204C98.651 3.09086 97.756 8.21901 96.6621 9.31292C95.1157 10.8593 95.8582 11.3019 100.008 11.3019C104.871 11.3019 105.253 10.9356 104.305 7.15824C103.429 3.67097 103.847 3.01462 106.938 3.01462C110.029 3.01462 110.447 3.67097 109.572 7.15824C108.755 10.4135 109.161 11.2969 111.465 11.277C113.077 11.2621 115.516 10.5162 116.883 9.61955C119.089 8.17094 119.089 7.80797 116.891 6.39416C115.527 5.51903 112.544 -1.00801 110.261 -8.10852C105.642 -22.472 101.522 -25.8432 99.7019 -16.7455ZM162.388 -16.1206C158.989 -12.7229 158.319 -10.4455 158.319 -2.28922C158.319 8.6168 161.233 12.9593 168.552 12.9593C173.085 12.9593 176.46 9.75547 179.546 2.52236C182.477 -4.34777 181.956 -10.9063 178.088 -15.8223C173.742 -21.3499 167.73 -21.4642 162.388 -16.1206ZM142.721 -12.7311C144.594 -5.26765 140.608 4.67207 135.741 4.67207C134.036 4.67207 133.457 1.94391 133.457 -6.10135C133.457 -16.4654 133.613 -16.8748 137.57 -16.8748C140.573 -16.8748 141.962 -15.7576 142.721 -12.7311ZM63.8446 -13.1223C57.8529 -10.4157 57.7419 -10.1986 61.0932 -7.7472C64.68 -5.12511 67.6667 4.624 67.5639 13.3737C67.5242 16.793 67.6783 19.5891 67.907 19.5891C70.181 19.5891 80.2252 15.2549 82.4909 13.2958C85.6218 10.5892 86.4373 2.19916 83.734 0.528446C82.8224 -0.0350838 82.0766 -2.63562 82.0766 -5.25274C82.0766 -14.1217 73.8871 -17.6571 63.8446 -13.1223ZM175.633 -8.83283C176.871 -2.97374 174.58 4.82787 170.975 7.03062C166.785 9.59304 161.014 2.43617 162.473 -3.51076C165.254 -14.8411 173.646 -18.2355 175.633 -8.83283ZM76.5539 -4.57318C75.2114 -1.07265 69.4484 -1.23674 68.0761 -4.81517C66.4451 -9.06155 71.9843 -12.761 75.1832 -9.56045C76.4893 -8.25603 77.1059 -6.01019 76.5539 -4.57318ZM106.913 -4.02954C106.927 -2.88921 106.192 -1.95773 105.281 -1.95773C104.369 -1.95773 103.635 -4.00965 103.648 -6.51571C103.668 -10.0676 104.029 -10.5251 105.281 -8.58752C106.164 -7.22013 106.899 -5.16821 106.913 -4.02954ZM35.368 -2.72678C29.1989 0.622921 28.2907 5.01847 32.0498 13.3289C36.9956 24.2615 41.7127 28.4084 47.8187 27.1869C54.6176 25.8261 55.8308 23.5852 55.0154 13.8908C54.4386 7.04554 53.3463 4.80798 48.3358 0.216846C41.5569 -5.99693 41.4392 -6.02345 35.368 -2.72678ZM47.0381 4.80466C50.4624 8.48089 52.4414 15.4869 51.0657 19.0703C50.1524 21.4488 44.3099 21.9477 41.1193 19.9206C40.0155 19.2178 37.8939 15.7289 36.4039 12.1654C33.858 6.0693 33.873 5.55715 36.6575 3.5218C40.7895 0.498611 43.3171 0.811871 47.0381 4.80466ZM82.0766 7.15824C82.0766 9.52508 77.2351 12.9593 73.8987 12.9593C71.4092 12.9593 71.6877 3.45053 74.2037 2.54722C77.1639 1.48645 82.0766 4.36213 82.0766 7.15824ZM232.652 9.23005C230.35 11.7378 226.803 16.2112 224.771 19.1748C222.739 22.1383 219.946 24.5615 218.566 24.5615C215.211 24.5615 216.474 27.8465 220.979 30.8366C224.34 33.0691 224.617 32.9863 224.617 29.736C224.617 27.3592 225.66 26.2189 227.834 26.2189C232.25 26.2189 233.591 28.9852 230.117 30.9294C227.707 32.2785 227.604 32.9415 229.457 35.1741C232.469 38.8023 236.692 38.6266 235.55 34.9205C235.057 33.326 236.496 26.799 238.745 20.4178C240.994 14.0367 242.838 7.88421 242.842 6.74388C242.854 3.09086 236.973 4.52621 232.652 9.23005ZM6.61289 13.9538C-3.05833 18.9709 -7.06272 24.5615 -0.984856 24.5615C0.934471 24.5615 3.16207 26.7128 4.78638 30.1338C6.23996 33.1984 8.61011 36.6874 10.0538 37.884C11.7261 39.273 12.3261 41.4558 11.7095 43.9138C10.5941 48.3624 13.2526 48.9458 18.0576 45.3061C21.1089 42.9973 20.7112 36.626 17.6349 38.5271C15.4371 39.8846 11.9433 34.9388 13.0554 32.0415C14.5139 28.2377 18.3857 29.0349 21.4935 33.7785C23.3515 36.6128 25.4796 37.8525 27.8995 37.5078C32.6614 36.8299 33.0376 30.2283 28.2923 30.6476C24.5846 30.9758 19.0935 25.3852 19.0935 21.2814C19.0935 19.7565 17.3913 16.9107 15.3112 14.9565C11.7643 11.6234 11.2239 11.5621 6.61289 13.9538ZM92.85 18.5101C48.7419 28.6852 22.8327 43.226 -7.90802 75.059C-30.9118 98.8798 -45.5421 126.995 -54.9398 165.445C-59.2409 183.042 -59.1895 222.481 -54.8403 240.859C-50.4083 259.596 -46.389 271.367 -39.7029 285.2C-21.8836 322.064 4.96207 350.008 40.9933 369.202C68.4606 383.832 87.3075 388.945 118.54 390.238C149.064 391.501 167.908 389.318 188.982 382.08C217.643 372.235 239.556 359.123 260.024 339.57C284.678 316.016 299.923 290.297 312.28 251.415C318.323 232.396 318.89 178.721 313.249 159.546C302.368 122.553 293.126 104.862 269.832 76.4346C263.915 69.2131 239.614 49.0967 229.192 42.7901C199.581 24.8764 170.312 16.43 134.286 15.3991C112.592 14.7775 107.313 15.1737 92.85 18.5101ZM235.043 17.9317C234.565 19.7549 233.027 21.2466 231.625 21.2466C229.48 21.2466 229.553 20.7195 232.076 17.9317C233.725 16.1085 235.263 14.6168 235.492 14.6168C235.722 14.6168 235.518 16.1085 235.043 17.9317ZM13.7896 19.9388C14.0631 21.3493 13.0488 23.741 11.5339 25.2543C8.96812 27.82 8.63332 27.8051 6.6046 25.0405C4.77975 22.5526 4.85599 21.6013 7.08195 19.135C10.0935 15.7969 13.0537 16.1516 13.7896 19.9388ZM258.041 20.0035C259.034 24.8929 249.613 37.1614 242.869 39.7636L238.744 41.3547L242.869 44.5205C247.482 48.0624 250.53 47.8735 249.872 44.0862C249.079 39.5365 253.767 37.2575 259.681 39.3194C264.311 40.9337 265.463 40.7116 268.831 37.5476C274.147 32.5537 273.666 29.083 266.824 23.0764C260.68 17.6814 257.332 16.5096 258.041 20.0035ZM149.203 25.3935C162.363 26.3565 180.831 30.4073 190.639 34.4829C220.213 46.7729 239.105 59.2154 257.967 78.828C283.805 105.695 298.215 132.8 305.782 168.76C311.69 196.838 309.674 229.223 300.074 260.494C297.421 269.136 286.735 291.179 283.881 293.897C282.721 295.003 282.404 295.003 282.93 293.897C295.463 267.51 297.159 263.131 302.487 243.378C307.331 225.428 307.271 184.308 302.375 164.417C296.126 139.035 283.657 112.241 270.704 96.3588C265.578 90.0721 244.979 69.5711 238.17 63.9789C211.266 41.8835 169.794 27.9393 130.971 27.936C84.4716 27.9311 42.6177 44.3812 8.4162 76.1032C-10.1506 93.3224 -30.1974 125.419 -37.5532 149.699C-48.494 185.816 -48.0166 228.638 -36.3134 260.756C-33.9913 267.132 -31.6311 273.842 -31.0709 275.665C-29.183 281.804 -16.0047 302.826 -6.94173 314.151C12.472 338.413 35.3912 355.642 63.1286 366.823C89.9378 377.631 101.948 379.635 136.116 378.995C155.793 378.629 164.964 378.959 162.03 379.929C159.534 380.756 145.557 381.501 130.971 381.586C110.795 381.705 101.479 381.032 92.0212 378.775C56.575 370.317 29.721 355.324 4.04716 329.656C-27.5819 298.037 -44.783 262.129 -48.4144 220.14C-52.2812 175.441 -41.3819 135.314 -15.4113 98.6312C7.87918 65.7358 42.9873 41.5238 84.5627 29.6863C95.3163 26.625 126.102 22.8228 131.8 23.8521C133.167 24.099 140.999 24.7935 149.203 25.3935ZM266.035 28.6835C268.124 31.2012 267.282 36.1636 264.766 36.1636C263.998 36.1636 261.953 35.126 260.218 33.8564C257.537 31.8973 257.395 31.1498 259.274 28.8841C262.019 25.5775 263.423 25.536 266.035 28.6835ZM-23.0356 37.9238C-28.8781 43.0536 -31.1322 48.4901 -26.7151 46.7961C-24.2405 45.8464 -9.13454 60.538 -9.10304 63.9259C-9.07652 66.6938 -8.09698 66.5397 -4.12904 63.1436C0.135574 59.4905 0.0792236 58.0718 -4.35611 57.4121C-9.76105 56.6066 -11.9439 52.0469 -8.54945 48.6525C-3.52242 43.6254 -6.06991 35.9796 -13.5052 33.7769C-16.129 32.9995 -18.7013 34.1183 -23.0356 37.9238ZM159.148 37.0205C166.441 38.2288 176.253 40.3072 180.952 41.6415C200.435 47.174 229.682 64.3303 247.218 80.5153C256.082 88.6965 277.656 116.293 277.656 119.449C277.656 120.445 278.663 122.439 279.896 123.877C283.602 128.205 292.805 152.135 296.154 166.156C300.682 185.11 300.571 223.137 295.932 242.329C280.596 305.776 232.099 354.049 168.264 369.414C148.895 374.074 111.879 374.174 92.85 369.614C78.7169 366.23 54.79 357.033 50.4541 353.32C49.0154 352.087 47.0596 351.079 46.1082 351.079C43.1712 351.079 15.699 329.829 7.9836 321.588C3.96594 317.297 -1.66939 310.43 -4.53844 306.328C-7.40748 302.226 -10.5483 298.057 -11.518 297.066C-14.8975 293.61 -29.1615 263.662 -31.656 254.78C-41.8924 218.35 -41.2211 182.361 -29.667 148.041C-16.5384 109.05 12.4885 75.4369 52.2425 53.1956C68.2269 44.252 101.127 35.315 122.684 34.0636C132.024 33.52 143.749 34.4713 159.148 37.0205ZM-11.2909 40.4365C-10.7389 41.8735 -11.508 44.2718 -12.9997 45.7635C-15.5124 48.2746 -15.9135 48.2746 -18.4262 45.7635C-21.814 42.3741 -20.2593 37.8211 -15.713 37.8211C-13.8317 37.8211 -11.8428 38.9978 -11.2909 40.4365ZM282.628 42.1122C282.628 45.7437 270.996 57.7104 267.467 57.7104C262.76 57.7104 262.218 60.8944 266.342 64.332C271.16 68.348 272.668 68.4474 272.736 64.7546C272.764 63.1585 273.722 60.6276 274.863 59.1276C276.664 56.7607 277.356 56.706 280.1 58.7132C287.421 64.0668 297.043 59.2701 295.055 51.2563C293.023 43.0652 282.628 35.4144 282.628 42.1122ZM290.144 54.2099C288.838 58.327 287.69 58.5243 283.38 55.3734C280.23 53.0696 280.23 52.9884 283.367 49.521C286.117 46.4845 286.871 46.3254 288.903 48.3575C290.34 49.7945 290.824 52.0735 290.144 54.2099ZM-44.7979 60.4386C-47.0321 62.8502 -48.8619 65.4607 -48.8619 66.2397C-48.8619 67.0187 -48.8553 68.2071 -48.847 68.88C-48.8404 69.5546 -47.9072 70.1148 -46.7752 70.1231C-43.1388 70.1546 -29.1035 81.644 -29.0372 84.644C-28.9543 88.3799 -26.8842 88.3318 -23.4284 84.513C-19.6461 80.333 -19.908 77.0098 -23.9389 78.0639C-28.8549 79.3501 -31.6344 75.1153 -29.0488 70.2822C-26.8576 66.1883 -28.0079 59.469 -31.2681 57.3209C-35.0355 54.8397 -40.8498 56.179 -44.7979 60.4386ZM-32.2874 65.2734C-32.2874 68.3629 -35.0703 69.7054 -38.9322 68.4789C-42.9266 67.2109 -43.099 65.4441 -39.5703 61.9154C-37.515 59.8602 -36.3813 59.6911 -34.5979 61.1712C-33.3267 62.2253 -32.2874 64.0717 -32.2874 65.2734ZM305.625 63.5115C305.511 63.9673 305.325 64.9535 305.211 65.701C304.596 69.7452 289.689 79.7562 285.799 78.7402C281.98 77.7407 281.489 81.6705 284.996 85.176C288.343 88.5241 290.915 88.113 290.915 84.2296C290.915 82.4064 291.6 80.9147 292.437 80.9147C293.274 80.9147 295.132 80.4639 296.567 79.9136C301.553 78.0009 301.687 84.2744 296.743 88.2158C293.171 91.065 292.412 92.7124 293.33 95.608C294.739 100.045 300.16 99.6969 299.774 95.1953C299.458 91.4909 304.826 85.8954 308.733 85.8622C317.232 85.7876 319.566 76.859 313.249 68.5783C309.195 63.2612 306.187 61.2624 305.625 63.5115ZM310.473 72.959C313.221 75.707 312.973 80.9147 310.094 80.9147C308.792 80.9147 306.528 79.7164 305.065 78.2529C303.01 76.1976 302.841 75.0639 304.321 73.2805C306.669 70.4512 307.901 70.3866 310.473 72.959ZM-63.7574 87.1302C-63.7458 88.7263 -59.2939 94.0169 -53.8641 98.8881C-48.436 103.759 -44.1564 108.234 -44.3553 108.833C-45.3747 111.891 -41.4697 111.067 -39.2736 107.76C-36.9084 104.199 -36.9764 103.882 -40.3145 103.01C-44.1647 102.002 -45.0829 98.4224 -41.9802 96.5047C-40.931 95.8566 -39.1758 96.5511 -38.0802 98.0494C-36.2554 100.544 -35.836 100.494 -33.093 97.4644C-29.5328 93.5296 -30.4924 92.1688 -37.2001 91.6401C-39.9382 91.4246 -45.5404 89.6694 -49.6459 87.7401C-58.8497 83.4142 -63.7873 83.2003 -63.7574 87.1302ZM-47.2045 94.1743C-47.2045 95.0859 -47.9056 95.8318 -48.7641 95.8318C-49.6227 95.8318 -50.7846 95.0859 -51.3481 94.1743C-51.9116 93.2627 -51.2089 92.5169 -49.7884 92.5169C-48.368 92.5169 -47.2045 93.2627 -47.2045 94.1743ZM313.07 98.9677C302.706 105.374 299.973 113.177 305.988 119.192C310.198 123.402 318.598 122.47 326.874 116.876C334.707 111.581 336.657 106.241 332.701 100.92C328.612 95.4174 320.171 94.5787 313.07 98.9677ZM328.309 104.436C330.689 111.934 312.495 122.058 309.706 114.786C308.264 111.029 311.834 104.265 316.178 102.518C322.773 99.8677 327.074 100.549 328.309 104.436ZM340.639 126.166C340.639 128.825 325.4 134.495 318.762 134.306C314.151 134.175 313.96 134.437 315.036 139.448C315.659 142.351 316.808 145.946 317.587 147.436C319.738 151.549 327.071 152.768 331.64 149.775C333.79 148.366 337.387 147.213 339.633 147.213C343.897 147.213 348.926 143.367 348.926 140.106C348.926 136.67 343.534 124.008 342.071 124.008C341.283 124.008 340.639 124.98 340.639 126.166ZM342.296 137.999C342.296 143.45 340.035 144.494 336.555 140.648C333.253 137.001 334.403 133.953 339.079 133.953C341.384 133.953 342.296 135.098 342.296 137.999ZM329.865 142.264C329.865 148.031 322.992 149.062 320.945 143.599C319.853 140.682 320.154 139.477 322.2 138.609C326.961 136.582 329.865 137.966 329.865 142.264ZM321.387 165.738C322.592 171.761 324.18 173.85 325.258 170.831C326.486 167.394 330.694 168.506 330.694 172.268C330.694 174.96 329.923 175.575 327.379 174.909C324.793 174.232 324.064 174.859 324.064 177.755C324.064 182.589 325.758 184.174 328.044 181.472C329.046 180.289 335.272 177.605 341.882 175.51C350.963 172.631 353.898 170.969 353.898 168.705C353.898 165.105 348.445 163.673 335.968 163.998C331.12 164.122 326.31 163.381 325.277 162.349C321.908 158.979 320.313 160.368 321.387 165.738ZM342.296 170.417C339.052 172.512 335.666 172.512 335.666 170.417C335.666 169.505 337.718 168.771 340.224 168.784C343.776 168.804 344.234 169.166 342.296 170.417ZM-93.2998 180.426C-98.1246 184.921 -97.8826 190.489 -92.6501 195.405C-89.2142 198.632 -86.6137 199.422 -79.4286 199.422C-71.9585 199.422 -69.759 198.696 -66.0828 195.022C-57.4077 186.347 -65.4431 177.047 -81.6164 177.047C-87.4341 177.047 -90.681 177.987 -93.2998 180.426ZM-69.8568 185.609C-65.9801 191.757 -74.5955 196.532 -84.6927 193.832C-88.5744 192.794 -89.4694 191.647 -89.4694 187.717C-89.4694 183.655 -88.6739 182.732 -84.4971 181.948C-78.1341 180.756 -71.9419 182.304 -69.8568 185.609ZM352.594 191.276C351.261 193.654 349.08 193.961 338.371 193.273L325.722 192.461V199.414C325.722 210.582 335.424 216.035 347.943 211.905C355.123 209.534 358.871 204.628 358.871 197.599C358.871 191.079 354.928 187.106 352.594 191.276ZM352.241 200.962C352.241 205.175 347.187 208.538 340.852 208.538C334.098 208.538 330.694 206.205 330.694 201.577C330.694 199.01 332.197 198.594 341.467 198.594C349.7 198.594 352.241 199.152 352.241 200.962ZM-92.5589 214.565C-95.4827 217.489 -96.928 220.712 -96.928 224.307C-96.928 230.369 -92.5921 235.455 -90.4208 231.941C-89.7164 230.8 -84.7374 229.26 -79.359 228.519C-71.5657 227.447 -69.2999 227.655 -68.2027 229.55C-67.1303 231.401 -66.3066 231.496 -64.4734 229.974C-61.0608 227.142 -61.5911 219.605 -65.5574 214.563C-68.5607 210.743 -70.195 210.196 -78.5899 210.196C-86.7512 210.196 -88.8429 210.85 -92.5589 214.565ZM-72.4358 216.091C-67.9541 219.229 -67.6093 223.455 -71.8342 223.455C-73.5314 223.455 -78.3794 223.929 -82.6076 224.51C-90.023 225.526 -90.2982 225.413 -90.2982 221.332C-90.2982 218.226 -89.0866 216.66 -85.7402 215.437C-79.1982 213.048 -76.5977 213.176 -72.4358 216.091ZM326.297 225.89C321.308 229.386 320.539 234.342 324.25 239.062C330.442 246.933 346.034 248.63 352.524 242.14C355.204 239.46 355.523 237.88 354.323 233.241C353.449 229.871 351.235 226.775 348.821 225.552C343.279 222.743 330.518 222.935 326.297 225.89ZM343.574 228.544C349.483 230.604 350.684 232.784 348.762 237.958C346.151 244.981 327.379 241.659 327.379 234.174C327.379 231.98 333.697 226.999 336.662 226.856C337.665 226.81 340.776 227.568 343.574 228.544ZM-65.4364 239.896C-65.4364 240.885 -71.085 244.303 -77.9883 247.492C-87.517 251.892 -90.4009 253.989 -89.9617 256.19C-89.4628 258.678 -87.386 259.091 -75.3364 259.091C-67.6127 259.091 -60.3597 259.694 -59.221 260.431C-56.7414 262.036 -56.3519 255.457 -58.7055 251.738C-59.9851 249.716 -60.6232 249.701 -62.9502 251.632C-65.2723 253.56 -65.9055 253.555 -67.1104 251.604C-69.1375 248.324 -67.3756 246.346 -63.5154 247.573C-60.6911 248.468 -60.2934 247.957 -60.7541 244.038C-61.2613 239.723 -65.4364 236.029 -65.4364 239.896ZM-72.0662 251.632C-72.0662 252.544 -73.3723 253.278 -74.9668 253.265C-77.4463 253.243 -77.506 253.004 -75.3811 251.632C-72.2535 249.61 -72.0662 249.61 -72.0662 251.632ZM-67.6939 272.35C-68.2176 273.718 -70.4204 274.836 -72.5867 274.836C-77.0087 274.836 -82.0109 279.495 -82.0109 283.612C-82.0109 287.194 -76.7966 298.041 -75.0745 298.041C-74.332 298.041 -73.7237 297.025 -73.7237 295.785C-73.7237 293.242 -57.3282 286.438 -51.2006 286.438C-49.0028 286.438 -47.2045 285.656 -47.2045 284.698C-47.2045 282.134 -52.3475 272.542 -54.4807 271.132C-57.8088 268.931 -66.6944 269.75 -67.6939 272.35ZM-55.5497 276.384C-53.221 280.738 -53.3105 281.07 -57.4326 283.274C-60.4011 284.864 -61.4039 284.688 -63.169 282.275C-64.6773 280.213 -64.8215 278.441 -63.6563 276.265C-61.5166 272.267 -57.7243 272.324 -55.5497 276.384ZM-69.0215 283.773C-68.3469 287.274 -71.4762 289.876 -74.8159 288.593C-77.1679 287.691 -77.8358 282.815 -75.8767 280.856C-73.8198 278.801 -69.6364 280.581 -69.0215 283.773ZM307.548 284.672C304.989 289.453 305.453 291.411 309.147 291.411C312.77 291.411 313.213 292.631 310.906 296.277C309.615 298.317 309.003 298.327 306.608 296.338C304.18 294.323 303.515 294.432 301.51 297.177C298.407 301.42 298.599 303.6 301.962 302.309C303.48 301.727 310.15 302.862 316.785 304.831C336.241 310.607 339.225 307.196 324.479 296.033C319.236 292.067 314.212 287.166 313.312 285.144C311.3 280.622 309.782 280.498 307.548 284.672ZM280.079 300.941C267.825 320.003 247.036 340.78 227.518 353.469C219.633 358.596 222.574 354.815 230.833 349.209C242.309 341.418 267.041 316.942 274.579 305.913C281.072 296.415 285.648 292.278 280.079 300.941ZM-54.8105 301.175C-60.6199 304.717 -67.0939 312.321 -67.0939 315.603C-67.0939 319.503 -60.0398 324.56 -54.5984 324.56C-51.4045 324.56 -46.6741 322.614 -42.4808 319.577C-36.4128 315.18 -35.6023 313.821 -35.6023 308.033C-35.6023 303.243 -36.4675 301.009 -38.8078 299.756C-43.5946 297.195 -49.0807 297.681 -54.8105 301.175ZM321.578 299.698C322.142 300.61 321.484 301.355 320.116 301.355C318.749 301.355 317.169 300.61 316.606 299.698C316.042 298.786 316.7 298.041 318.067 298.041C319.435 298.041 321.014 298.786 321.578 299.698ZM-40.9111 307.291C-40.0808 313.1 -45.7078 318.295 -53.0967 318.542C-58.5779 318.724 -59.7166 318.19 -60.1359 315.25C-60.8287 310.392 -51.4906 302.672 -45.7294 303.339C-42.8189 303.678 -41.2426 304.97 -40.9111 307.291ZM292.641 312.058C288.76 316.186 289.435 320.511 293.703 318.871C297.421 317.446 302.637 321.697 300.775 324.639C298.616 328.054 298.844 335.141 301.191 337.488C305.643 341.94 312.525 339.193 317.872 330.833C321.452 325.236 321.45 324.727 317.849 324.929C313.473 325.175 297.27 314.406 298.234 311.894C299.749 307.946 296.41 308.043 292.641 312.058ZM-30.63 321.397C-32.4598 322.69 -32.5792 323.373 -31.0858 323.981C-27.7825 325.327 -35.5559 334.504 -39.9995 334.504C-43.7272 334.504 -47.2045 338.723 -47.2045 343.244C-47.2045 345.913 -37.5697 357.709 -35.3918 357.709C-34.5963 357.709 -33.9449 356.28 -33.9449 354.535C-33.9449 350.012 -17.6058 337.218 -14.8014 339.546C-10.7936 342.871 -10.2533 337.723 -14.1715 333.553C-18.703 328.728 -20.6853 328.451 -20.6853 332.645C-20.6853 336.621 -24.8704 340.133 -28.1223 338.885C-31.6261 337.541 -31.2466 334.112 -27.209 330.654C-21.5024 325.768 -24.6731 317.189 -30.63 321.397ZM310.256 327.089C313.44 330.273 311.947 334.504 307.639 334.504C303.424 334.504 302.57 332.908 304.316 328.289C305.98 323.887 306.873 323.706 310.256 327.089ZM275.264 334.874C271.705 339.953 272.01 341.134 276.878 341.134C282.34 341.134 283.598 344.744 280.032 350.184C272.922 361.035 287.043 367.804 296.406 358.032C301.13 353.101 302.38 348.483 298.597 349.935C295.521 351.115 280.97 338.225 280.97 334.321C280.97 330.119 278.421 330.366 275.264 334.874ZM-32.3836 341.847C-30.8073 343.746 -31.1189 344.593 -33.9432 346.107C-37.8697 348.207 -42.2321 345.919 -42.2321 341.761C-42.2321 338.739 -34.9095 338.804 -32.3836 341.847ZM291.315 351.717C294.049 353.794 294.043 354.051 291.184 356.636C285.716 361.586 280.969 358.934 284.267 352.771C286.349 348.881 287.376 348.727 291.315 351.717ZM-0.795906 354.192C-0.795906 359.83 -4.76716 361.435 -10.6262 358.161C-15.8721 355.228 -15.8886 355.231 -19.9411 359.873C-22.1737 362.431 -24.0002 365.202 -24.0002 366.031C-24.0002 368.698 -13.7969 379.256 -11.2196 379.256C-9.75111 379.256 -9.09808 378.291 -9.63011 376.905C-10.1257 375.614 -8.65719 372.443 -6.36659 369.861C-4.076 367.281 -1.05447 363.49 0.349396 361.438C1.75159 359.386 4.30572 357.709 6.02449 357.709C9.92613 357.709 10.0024 356.237 6.24825 353.386C2.1096 350.245 -0.795906 350.577 -0.795906 354.192ZM254.74 354.914C250.323 359.618 250.208 361.024 254.249 361.024C259.032 361.024 262.001 365.376 259.376 368.54C257.519 370.776 256.672 370.479 252.376 366.086C248.347 361.963 246.918 361.392 244.24 362.824C240.181 364.997 240.956 370.105 245.367 370.242C251.034 370.418 254.451 372.843 254.451 376.69C254.451 381.13 259.274 385.902 263.698 385.841C268.104 385.779 278.463 376.93 276.964 374.507C276.308 373.443 275.121 372.972 274.329 373.461C273.537 373.952 271.538 372.425 269.885 370.07C268.233 367.715 265.125 363.583 262.977 360.886C259.806 356.905 259.455 355.524 261.109 353.532C264.621 349.299 258.835 350.557 254.74 354.914ZM221.302 356.756C221.302 358.176 202.334 367.683 200.659 367.103C199.706 366.773 203.775 364.184 209.7 361.347C221.617 355.644 221.302 355.768 221.302 356.756ZM-11.6224 363.266C-8.84116 365.3 -8.78812 365.842 -11.0472 369.069C-13.5201 372.599 -13.5632 372.601 -16.4853 369.374C-18.1046 367.584 -18.9897 364.973 -18.4527 363.571C-17.2494 360.435 -15.5953 360.362 -11.6224 363.266ZM22.0984 373.04C21.583 378.385 21.52 378.422 13.6355 377.868C-0.648392 376.866 -3.81577 385.217 7.46151 394.149C13.372 398.83 19.0504 399.781 16.5062 395.666C15.0526 393.314 23.552 379.668 28.4846 376.436L32.7509 373.642L29.0531 370.647C23.8819 366.46 22.6935 366.868 22.0984 373.04ZM197.186 369.094C194.833 371.247 174.759 377.62 170.843 377.457C168.968 377.379 173.402 375.248 180.695 372.72C194.868 367.809 199.77 366.73 197.186 369.094ZM269.368 376.375C269.368 378.891 264.02 382.322 261.565 381.38C258.661 380.265 258.873 377.638 262.162 374.005C264.242 371.706 265.435 371.426 267.134 372.835C268.362 373.854 269.368 375.448 269.368 376.375ZM221.367 376.254C217.353 380.562 217.165 383.514 220.412 391.285C222.888 397.211 231.582 405.775 235.12 405.775C237.936 405.775 246.164 397.779 246.164 395.043C246.164 386.805 234.99 372.626 228.501 372.626C226.435 372.626 223.225 374.258 221.367 376.254ZM38.0199 382.156C37.9453 384.662 36.674 391.03 35.1939 396.304C32.421 406.188 32.8172 410.747 36.4486 410.747C38.3547 410.747 42.1387 405.833 49.5292 393.758C51.064 391.252 53.3762 389.2 54.669 389.2C58.0982 389.2 59.6728 385.753 57.0126 384.069C53.2253 381.669 48.4552 382.264 49.506 385.004C50.6596 388.007 48.4519 389.55 44.9331 388.199C41.8585 387.019 41.416 383.141 44.2486 382.196C46.9884 381.283 44.3497 377.598 40.9569 377.598C39.0376 377.598 38.1111 379.034 38.0199 382.156ZM236.18 383.726C240.515 389.238 240.214 398.003 235.657 398.867C229.594 400.017 220.573 386.116 223.893 380.742C225.797 377.663 232.737 379.348 236.18 383.726ZM14.1908 383.482C15.951 385.605 15.8432 386.532 13.5642 388.809C11.083 391.29 10.551 391.312 8.25873 389.021C5.46096 386.224 6.56979 380.913 9.95265 380.913C11.1095 380.913 13.0173 382.07 14.1908 383.482ZM199.755 385.398C191.21 388.522 186.809 399.563 192.297 404.117C193.664 405.253 194.783 407.838 194.783 409.864C194.783 414.142 199.535 419.041 203.102 418.439C206.897 417.798 217.987 413.881 217.987 413.18C217.987 412.837 216.169 410.736 213.945 408.513C211.348 405.916 209.156 400.852 207.812 394.35C205.775 384.485 204.903 383.517 199.755 385.398ZM203.874 399.185C202.23 401.845 194.765 401.025 193.626 398.058C192.947 396.289 193.961 394.189 196.477 392.152C200.367 389.003 200.39 389.008 202.628 393.278C203.864 395.636 204.424 398.295 203.874 399.185ZM42.2978 395.83C41.3215 397.653 40.2475 399.145 39.9077 399.145C39.5696 399.145 39.684 397.653 40.1597 395.83C40.637 394.007 41.7127 392.515 42.5497 392.515C43.39 392.515 43.2773 393.999 42.2978 395.83ZM170.636 396.016C170.009 397.028 170.518 398.49 171.768 399.261C173.505 400.335 173.581 401.121 172.091 402.611C169.139 405.563 165.048 403.265 166.099 399.246C166.834 396.438 166.22 395.83 162.657 395.83C158.356 395.83 156.415 399.891 160.126 401.129C161.119 401.459 163.736 406.889 165.94 413.194C172.61 432.264 177.333 432.102 177.486 412.799C177.554 404.341 178.393 398.434 179.762 396.785C181.654 394.504 181.286 394.173 176.851 394.173C174.06 394.173 171.262 395.001 170.636 396.016ZM101.136 400.131C93.7748 408.074 94.1411 427.453 101.687 429.364C106.925 430.691 114.626 427.471 116.606 423.125C120.511 414.553 118.39 402.82 112.055 397.955C108.07 394.897 105.516 395.406 101.136 400.131ZM138.576 398.797C130.482 400.111 127.002 409.028 130.098 420.524C132.171 428.225 136.61 431.404 144.852 431.094C152.225 430.817 155.014 428.077 150.95 425.107C148.323 423.185 148.015 421.166 148.706 410.391C149.584 396.709 149.815 396.972 138.576 398.797ZM112.63 407.731C114.223 411.521 114.389 414.312 113.215 417.679C111.181 423.511 109.484 424.589 104.358 423.302C100.769 422.402 100.308 421.383 100.308 414.362C100.308 410.003 101.204 405.543 102.297 404.449C105.916 400.831 110.316 402.228 112.63 407.731ZM143.402 413.964C143.402 419.381 142.61 424.302 141.64 424.9C138.357 426.929 133.457 420.485 133.457 414.137C133.457 407.512 135.816 404.117 140.419 404.117C142.956 404.117 143.402 405.588 143.402 413.964ZM207.731 409.529C208.444 413.222 203.786 415.061 200.543 412.37C198.613 410.769 198.491 409.784 199.997 407.969C202.518 404.933 207.022 405.839 207.731 409.529ZM173.211 411.99C173.191 415.542 172.83 416 171.579 414.062C169.484 410.818 169.484 407.432 171.579 407.432C172.49 407.432 173.225 409.484 173.211 411.99Z" fill="white" fill-opacity="0.03"/>
</svg>
